//Event file generated from Sappy .s format.
	#include "MPlayDef.event"

	#define	feb20200423182207_grp  voicegroup000
	#define	feb20200423182207_pri  0
	#define	feb20200423182207_rev  0
	#define	feb20200423182207_mvl  45
	#define	feb20200423182207_key  0
	#define	feb20200423182207_tbs  1
	#define	feb20200423182207_exg  0
	#define	feb20200423182207_cmp  1

	// .rodata
	//	feb20200423182207
	ALIGN 4

//**************** Track 1 (Midi-Chn.1) ****************//

feb20200423182207_1:
	BYTE	KEYSH   feb20200423182207_key+0
// 000   ----------------------------------------
	BYTE	TEMPO   122*feb20200423182207_tbs/2
	BYTE		VOICE   56
	BYTE		VOL     101*feb20200423182207_mvl/mxv
	BYTE	W01
	BYTE	W92
	BYTE	W03
// 001   ----------------------------------------
	BYTE		N06     As2   v127
	BYTE		N06     En3 
	BYTE	W24
	BYTE		N05     As2 
	BYTE		N05     En3 
	BYTE	W24
	BYTE		N06     As2 
	BYTE		N06     En3 
	BYTE	W24
	BYTE		        As2 
	BYTE		N06     En3 
	BYTE	W24
// 002   ----------------------------------------
	BYTE		        As2 
	BYTE		N06     En3 
	BYTE	W24
	BYTE		        As2 
	BYTE		N06     En3 
	BYTE	W24
	BYTE		N05     As2 
	BYTE		N06     En3 
	BYTE	W24
	BYTE		        As2 
	BYTE		N06     En3 
	BYTE	W24
// 003   ----------------------------------------
	BYTE	W96
// 004   ----------------------------------------
	BYTE	W96
// 005   ----------------------------------------
feb20200423182207_1_005:
	BYTE		N05     As2   v127
	BYTE		N05     En3 
	BYTE	W24
	BYTE		        As2 
	BYTE		N05     En3 
	BYTE	W24
	BYTE		        As2 
	BYTE		N05     En3 
	BYTE	W24
	BYTE		        As2 
	BYTE		N05     En3 
	BYTE	W24
	BYTE	PEND
// 006   ----------------------------------------
	BYTE		N06     As2 
	BYTE		N06     En3 
	BYTE	W24
	BYTE		        As2 
	BYTE		N06     En3 
	BYTE	W24
	BYTE		N05     As2 
	BYTE		N05     En3 
	BYTE	W24
	BYTE		        As2 
	BYTE		N05     En3 
	BYTE	W24
// 007   ----------------------------------------
	BYTE		N06     Bn2 
	BYTE		N05     En3 
	BYTE	W24
	BYTE		        Bn2 
	BYTE		N05     En3 
	BYTE	W24
	BYTE		        Bn2 
	BYTE		N05     En3 
	BYTE	W24
	BYTE		        Bn2 
	BYTE		N05     En3 
	BYTE	W24
// 008   ----------------------------------------
	BYTE		N06     Bn2 
	BYTE		N06     En3 
	BYTE	W24
	BYTE		N05     Bn2 
	BYTE		N05     En3 
	BYTE	W24
	BYTE		        Bn2 
	BYTE		N05     En3 
	BYTE	W24
	BYTE		        Bn2 
	BYTE		N06     En3 
	BYTE	W24
// 009   ----------------------------------------
	BYTE		N05     As2 
	BYTE		N05     En3 
	BYTE	W24
	BYTE		        As2 
	BYTE		N05     En3 
	BYTE	W24
	BYTE		N06     As2 
	BYTE		N06     En3 
	BYTE	W24
	BYTE		N05     As2 
	BYTE		N05     En3 
	BYTE	W24
// 010   ----------------------------------------
	BYTE	W01
	BYTE		        As2 
	BYTE		N05     En3 
	BYTE	W23
	BYTE		        As2 
	BYTE		N05     En3 
	BYTE	W24
	BYTE		N06     As2 
	BYTE		N06     En3 
	BYTE	W24
	BYTE		        As2 
	BYTE		N05     En3 
	BYTE	W24
// 011   ----------------------------------------
	BYTE	PATT
	 POIN2	feb20200423182207_1_005
// 012   ----------------------------------------
	BYTE	PATT
	 POIN2	feb20200423182207_1_005
// 013   ----------------------------------------
	BYTE		N05     As2   v127
	BYTE		N05     En3 
	BYTE	W24
	BYTE		        As2 
	BYTE		N05     En3 
	BYTE	W24
	BYTE		N06     As2 
	BYTE		N06     En3 
	BYTE	W24
	BYTE		        As2 
	BYTE		N05     En3 
	BYTE	W24
// 014   ----------------------------------------
	BYTE	PATT
	 POIN2	feb20200423182207_1_005
// 015   ----------------------------------------
	BYTE	PATT
	 POIN2	feb20200423182207_1_005
// 016   ----------------------------------------
	BYTE	PATT
	 POIN2	feb20200423182207_1_005
// 017   ----------------------------------------
feb20200423182207_1_017:
	BYTE		N05     As2   v127
	BYTE	W01
	BYTE		        En3 
	BYTE	W23
	BYTE		        As2 
	BYTE		N05     En3 
	BYTE	W24
	BYTE		        As2 
	BYTE		N05     En3 
	BYTE	W24
	BYTE		        As2 
	BYTE		N05     En3 
	BYTE	W24
	BYTE	PEND
// 018   ----------------------------------------
	BYTE	PATT
	 POIN2	feb20200423182207_1_005
// 019   ----------------------------------------
	BYTE	PATT
	 POIN2	feb20200423182207_1_017
// 020   ----------------------------------------
	BYTE		N05     As2   v127
	BYTE		N05     En3 
	BYTE	W24
	BYTE		        As2 
	BYTE		N05     En3 
	BYTE	W24
	BYTE		        As2 
	BYTE		N06     En3 
	BYTE	W24
	BYTE		N05     As2 
	BYTE		N05     En3 
	BYTE	W24
// 021   ----------------------------------------
	BYTE		N10     An2 
	BYTE	W11
	BYTE		N10   
	BYTE	W12
	BYTE		        As2 
	BYTE	W12
	BYTE		        An3 
	BYTE	W12
	BYTE		N11     Gs3 
	BYTE	W13
	BYTE		N10     Ds3 
	BYTE	W11
	BYTE		N11     Cs4 
	BYTE	W24
	BYTE	W01
// 022   ----------------------------------------
	BYTE	W72
	BYTE		N10     Fs4 
	BYTE	W11
	BYTE		        Cs4 
	BYTE	W12
	BYTE		N11     Dn4 
	BYTE	W01
// 023   ----------------------------------------
	BYTE	W11
	BYTE		N10     As4 
	BYTE	W12
	BYTE		        An4 
	BYTE	W12
	BYTE		        En4 
	BYTE	W12
	BYTE		N11     Fn4 
	BYTE	W13
	BYTE		N05     Bn2 
	BYTE		TIE     Cs5 
	BYTE	W01
	BYTE		N04     Bn1 
	BYTE	W23
	BYTE		N05   
	BYTE		N05     Bn2 
	BYTE	W12
// 024   ----------------------------------------
	BYTE	W12
	BYTE		        Bn1 
	BYTE		N05     Bn2 
	BYTE	W23
	BYTE		N06   
	BYTE	W01
	BYTE		N05     Bn1 
	BYTE	W24
	BYTE		N05   
	BYTE		N05     Bn2 
	BYTE	W24
	BYTE		        Bn1 
	BYTE		N05     Bn2 
	BYTE	W12
// 025   ----------------------------------------
	BYTE	W12
	BYTE		        Bn1 
	BYTE		N05     Bn2 
	BYTE	W24
	BYTE		        Bn1 
	BYTE		N05     Bn2 
	BYTE	W22
	BYTE		EOT     Cs5 
	BYTE	W02
	BYTE		N05     An2 
	BYTE		N05     Dn3 
	BYTE	W24
	BYTE		        An2 
	BYTE		N05     Dn3 
	BYTE	W12
// 026   ----------------------------------------
	BYTE	W11
	BYTE		N06     An2 
	BYTE	W01
	BYTE		        Dn3 
	BYTE	W23
	BYTE		        An2 
	BYTE	W01
	BYTE		N05     Dn3 
	BYTE	W24
	BYTE		        An2 
	BYTE		N05     Dn3 
	BYTE	W24
	BYTE		        An2 
	BYTE		N05     Dn3 
	BYTE	W12
// 027   ----------------------------------------
	BYTE	W11
	BYTE		        An2 
	BYTE	W01
	BYTE		        Dn3 
	BYTE	W24
	BYTE		        An2 
	BYTE		N05     Dn3 
	BYTE	W24
	BYTE		        An2 
	BYTE		N05     Dn3 
	BYTE	W23
	BYTE		        An2 
	BYTE	W01
	BYTE		        Dn3 
	BYTE	W12
// 028   ----------------------------------------
	BYTE	W12
	BYTE		        An2 
	BYTE		N01     Dn3 
	BYTE		N44     An3 
	BYTE	W01
	BYTE		N23     Dn3 
	BYTE	W23
	BYTE		N05     An2 
	BYTE		N22     Dn3 
	BYTE	W23
	BYTE		N06     An2 
	BYTE	W01
	BYTE		N05     Dn3 
	BYTE	W23
	BYTE		        An2 
	BYTE	W01
	BYTE		        Dn3 
	BYTE	W12
// 029   ----------------------------------------
	BYTE	W12
	BYTE		        An2 
	BYTE		N44     Cn3 
	BYTE		N05     Dn3 
	BYTE	W01
	BYTE		N44     Gn3 
	BYTE	W23
	BYTE		N05     An2 
	BYTE		N05     Dn3 
	BYTE	W24
	BYTE		        An2 
	BYTE		N05     Dn3 
	BYTE	W24
	BYTE		        An2 
	BYTE		N05     Dn3 
	BYTE	W12
// 030   ----------------------------------------
	BYTE	W12
	BYTE		        An2 
	BYTE		N44     Cs3 
	BYTE		N05     Dn3 
	BYTE	W01
	BYTE		N44     An3 
	BYTE	W22
	BYTE		N06     An2 
	BYTE	W01
	BYTE		N05     Dn3 
	BYTE	W24
	BYTE		        An2 
	BYTE		N05     Dn3 
	BYTE	W24
	BYTE		        An2 
	BYTE		N05     Dn3 
	BYTE	W12
// 031   ----------------------------------------
	BYTE	W12
	BYTE		        An2 
	BYTE		N06     Dn3 
	BYTE		N44     Gs3 
	BYTE	W01
	BYTE		        Ds3 
	BYTE		N44     Cn4 
	BYTE	W22
	BYTE		N05     An2 
	BYTE	W01
	BYTE		        Dn3 
	BYTE	W24
	BYTE		        An2 
	BYTE		N05     Dn3 
	BYTE	W24
	BYTE		        An2 
	BYTE		N05     Dn3 
	BYTE	W12
// 032   ----------------------------------------
	BYTE	W12
	BYTE		        An2 
	BYTE		N05     Dn3 
	BYTE		N44     Dn4 
	BYTE	W01
	BYTE		        Fn3 
	BYTE		N44     An3 
	BYTE	W22
	BYTE		N06     An2 
	BYTE	W01
	BYTE		N05     Dn3 
	BYTE	W24
	BYTE		        An2 
	BYTE		N05     Dn3 
	BYTE	W23
	BYTE		N06     An2 
	BYTE	W01
	BYTE		N05     Dn3 
	BYTE	W12
// 033   ----------------------------------------
	BYTE	W12
	BYTE		        An2 
	BYTE		N05     Dn3 
	BYTE		N44     Ds3 
	BYTE	W01
	BYTE		        Fs3 
	BYTE		N44     As3 
	BYTE	W23
	BYTE		N05     An2 
	BYTE		N05     Dn3 
	BYTE	W24
	BYTE		        An2 
	BYTE		N05     Dn3 
	BYTE	W23
	BYTE		        An2 
	BYTE	W01
	BYTE		        Dn3 
	BYTE	W12
// 034   ----------------------------------------
	BYTE	W12
	BYTE		        An2 
	BYTE		N05     Dn3 
	BYTE		N44     Fn3 
	BYTE	W01
	BYTE		        Cn3 
	BYTE		N44     An3 
	BYTE	W23
	BYTE		N05     An2 
	BYTE		N05     Dn3 
	BYTE	W24
	BYTE		        Ds2 
	BYTE		N05     Bn2 
	BYTE	W24
	BYTE		        Ds2 
	BYTE		N05     Bn2 
	BYTE	W12
// 035   ----------------------------------------
	BYTE	W12
	BYTE		        Ds2 
	BYTE		N05     Bn2 
	BYTE		N44     Ds4 
	BYTE	W01
	BYTE		        Fs3 
	BYTE		N44     Bn3 
	BYTE	W22
	BYTE		N06     Bn2 
	BYTE	W01
	BYTE		N05     Ds2 
	BYTE	W60
// 036   ----------------------------------------
	BYTE	W96
// 037   ----------------------------------------
	BYTE	W96
// 038   ----------------------------------------
	BYTE	W96
// 039   ----------------------------------------
	BYTE	W96
// 040   ----------------------------------------
	BYTE	W96
// 041   ----------------------------------------
	BYTE	W96
// 042   ----------------------------------------
	BYTE	W96
// 043   ----------------------------------------
	BYTE	W96
// 044   ----------------------------------------
	BYTE	W96
// 045   ----------------------------------------
	BYTE	W96
// 046   ----------------------------------------
	BYTE	W96
// 047   ----------------------------------------
	BYTE	W96
// 048   ----------------------------------------
	BYTE	W30
	BYTE		N03     An3 
	BYTE		N03     Dn4 
	BYTE	W08
	BYTE		        An3 
	BYTE		N03     Dn4 
	BYTE	W08
	BYTE		        Gn3 
	BYTE		N03     Dn4 
	BYTE	W08
	BYTE		N68     Fn3 
	BYTE		N68     Dn4 
	BYTE	W42
// 049   ----------------------------------------
	BYTE	W96
// 050   ----------------------------------------
	BYTE	W30
	BYTE		N04   
	BYTE	W07
	BYTE		N04   
	BYTE	W09
	BYTE		N04   
	BYTE	W08
	BYTE		N68   
	BYTE	W42
// 051   ----------------------------------------
	BYTE	W78
	BYTE		N23     Fn3 
	BYTE	W18
// 052   ----------------------------------------
	BYTE	W06
	BYTE		N22     En3 
	BYTE	W24
	BYTE		        Fs3 
	BYTE	W24
	BYTE		N23     Cs3 
	BYTE	W24
	BYTE		N68   
	BYTE		N68     Fn3 
	BYTE	W18
// 053   ----------------------------------------
feb20200423182207_1_053:
	BYTE	W54
	BYTE		TIE     Fn3   v127
	BYTE		TIE     As3 
	BYTE	W42
	BYTE	PEND
// 054   ----------------------------------------
	BYTE	W76
	BYTE		EOT     Fn3 
	BYTE	W01
	BYTE		        As3 
	BYTE	W01
	BYTE		N68   
	BYTE		N68     Cs4 
	BYTE	W18
// 055   ----------------------------------------
	BYTE	W78
	BYTE		N23     Fn3 
	BYTE	W18
// 056   ----------------------------------------
	BYTE	W06
	BYTE		        En3 
	BYTE	W24
	BYTE		        Fs3 
	BYTE	W24
	BYTE		N22     Cs3 
	BYTE	W24
	BYTE		N68   
	BYTE		N68     Fn3 
	BYTE	W18
// 057   ----------------------------------------
	BYTE	PATT
	 POIN2	feb20200423182207_1_053
// 058   ----------------------------------------
	BYTE	W76
	BYTE		EOT     Fn3 
	BYTE	W01
	BYTE		        As3 
	BYTE	W01
	BYTE		N68     As3   v127
	BYTE		N44     Cs4 
	BYTE	W18
// 059   ----------------------------------------
	BYTE	W30
	BYTE		N03     Cs3 
	BYTE		N08     Cs4 
	BYTE	W08
	BYTE		N03     Cs3 
	BYTE		N07     Cs4 
	BYTE	W07
	BYTE		N07   
	BYTE	W01
	BYTE		N04     Cs3 
	BYTE	W07
	BYTE		N92     Dn4 
	BYTE	W01
	BYTE		        Dn3 
	BYTE	W42
// 060   ----------------------------------------
	BYTE	W52
	BYTE	W01
	BYTE		N23     Dn4 
	BYTE	W24
	BYTE		N22     Cs4 
	BYTE	W19
// 061   ----------------------------------------
	BYTE	W05
	BYTE		        An3 
	BYTE	W24
	BYTE		N03     Cs4 
	BYTE	W08
	BYTE		N04   
	BYTE	W08
	BYTE		N03   
	BYTE	W08
	BYTE		N92     Dn4 
	BYTE	W42
	BYTE	W01
// 062   ----------------------------------------
	BYTE	W52
	BYTE	W01
	BYTE		N22   
	BYTE	W24
	BYTE		N10     Cs4 
	BYTE	W12
	BYTE		        As3 
	BYTE	W07
// 063   ----------------------------------------
	BYTE	W05
	BYTE		        An3 
	BYTE	W12
	BYTE		        Gn3 
	BYTE	W12
	BYTE		N11     Fn3 
	BYTE	W12
	BYTE		N10     En3 
	BYTE	W54
	BYTE	W01
// 064   ----------------------------------------
	BYTE	W96
// 065   ----------------------------------------
	BYTE	W96
// 066   ----------------------------------------
	BYTE	W28
	BYTE	W01
	BYTE		N44     Dn4 
	BYTE	W24
	BYTE		        An3 
	BYTE	W24
	BYTE		        Fn3 
	BYTE	W19
// 067   ----------------------------------------
	BYTE	W05
	BYTE		        Dn3 
	BYTE	W24
	BYTE		N22     An2 
	BYTE	W24
	BYTE		N05     Bn1 
	BYTE		N05     En2 
	BYTE	W24
	BYTE		        Bn1 
	BYTE		N05     En2 
	BYTE	W19
// 068   ----------------------------------------
	BYTE	W05
	BYTE		        Bn1 
	BYTE		N05     En2 
	BYTE	W24
	BYTE		        Bn1 
	BYTE		N05     En2 
	BYTE	W24
	BYTE		        Bn1 
	BYTE		N05     En2 
	BYTE	W24
	BYTE		N05   
	BYTE		N10     Bn2 
	BYTE	W01
	BYTE		N05     Bn1 
	BYTE	W10
	BYTE		N11     Gn2 
	BYTE	W08
// 069   ----------------------------------------
	BYTE	W04
	BYTE		        En3 
	BYTE	W01
	BYTE		N05     Bn1 
	BYTE		N05     En2 
	BYTE	W11
	BYTE		N11     Bn2 
	BYTE	W13
	BYTE		N05     Bn1 
	BYTE		N05     En2 
	BYTE		N23     Gn3 
	BYTE	W24
	BYTE		N05     Fs1 
	BYTE		N05     Bn1 
	BYTE		N92     Bn3 
	BYTE	W23
	BYTE		N06     Bn1 
	BYTE	W01
	BYTE		N05     Fs1 
	BYTE	W19
// 070   ----------------------------------------
	BYTE	W05
	BYTE		N05   
	BYTE		N05     Bn1 
	BYTE	W24
	BYTE		        Fs1 
	BYTE		N05     Bn1 
	BYTE	W24
	BYTE		        Fs1 
	BYTE		N05     Bn1 
	BYTE	W24
	BYTE		        Fs1 
	BYTE		N05     Bn1 
	BYTE		N10     En4 
	BYTE	W11
	BYTE		N11     Ds4 
	BYTE	W08
// 071   ----------------------------------------
	BYTE	W05
	BYTE		N06     Fs1 
	BYTE		N05     Bn1 
	BYTE		N16     Fs4 
	BYTE	W17
	BYTE		N17     Fn4 
	BYTE	W07
	BYTE		N05     Fs1 
	BYTE		N05     Bn1 
	BYTE	W11
	BYTE		N11     En4 
	BYTE	W13
	BYTE		N10     Ds2 
	BYTE		N10     Bn2 
	BYTE		N92     Ds4 
	BYTE	W23
	BYTE		N05     Bn1 
	BYTE	W01
	BYTE		        Ds1 
	BYTE		N10     Cn4 
	BYTE	W11
	BYTE		        Bn3 
	BYTE	W08
// 072   ----------------------------------------
	BYTE	W05
	BYTE		N05     Ds1 
	BYTE		N05     Bn1 
	BYTE		N10     As3 
	BYTE	W11
	BYTE		N32     Bn3 
	BYTE	W12
	BYTE		N06     Ds1 
	BYTE	W01
	BYTE		        Bn1 
	BYTE	W24
	BYTE		N05     Ds1 
	BYTE		N05     Bn1 
	BYTE	W24
	BYTE		N10     Ds1 
	BYTE		N10     Bn1 
	BYTE		N10     Cn4 
	BYTE	W11
	BYTE		        Bn3 
	BYTE	W08
// 073   ----------------------------------------
	BYTE	W05
	BYTE		N05     Ds1 
	BYTE		N05     Bn1 
	BYTE		N10     As3 
	BYTE	W11
	BYTE		N36     Bn3 
	BYTE	W12
	BYTE		N06     Bn1 
	BYTE	W01
	BYTE		N05     Ds1 
	BYTE	W24
	BYTE		        Bn1 
	BYTE		N05     En2 
	BYTE	W24
	BYTE		        Bn1 
	BYTE		N05     En2 
	BYTE	W19
// 074   ----------------------------------------
	BYTE	W05
	BYTE		        Bn1 
	BYTE		N05     En2 
	BYTE	W24
	BYTE		        Bn1 
	BYTE		N05     En2 
	BYTE	W24
	BYTE		        Bn1 
	BYTE		N05     En2 
	BYTE	W24
	BYTE		        Bn1 
	BYTE		N05     En2 
	BYTE		N10     Bn2 
	BYTE	W11
	BYTE		N11     Gn2 
	BYTE	W08
// 075   ----------------------------------------
	BYTE	W05
	BYTE		N05     Bn1 
	BYTE		N05     En2 
	BYTE		N10     En3 
	BYTE	W12
	BYTE		        Bn2 
	BYTE	W12
	BYTE		N05     Bn1 
	BYTE		N05     En2 
	BYTE		N23     Gn3 
	BYTE	W24
	BYTE		N05     Fs1 
	BYTE		N92     Bn3 
	BYTE	W01
	BYTE		N04     Bn1 
	BYTE	W23
	BYTE		        Fs1 
	BYTE		N05     Bn1 
	BYTE	W19
// 076   ----------------------------------------
	BYTE	W05
	BYTE		        Fs1 
	BYTE		N06     Bn1 
	BYTE	W24
	BYTE		N05     Fs1 
	BYTE		N05     Bn1 
	BYTE	W24
	BYTE		        Fs1 
	BYTE		N05     Bn1 
	BYTE	W24
	BYTE		        Fs1 
	BYTE		N05     Bn1 
	BYTE	W01
	BYTE		N09     En4 
	BYTE	W10
	BYTE		N11     Ds4 
	BYTE	W08
// 077   ----------------------------------------
	BYTE	W05
	BYTE		N05     Fs1 
	BYTE		N05     Bn1 
	BYTE		N16     Fs4 
	BYTE	W17
	BYTE		N17     Fn4 
	BYTE	W07
	BYTE		N05     Fs1 
	BYTE		N05     Bn1 
	BYTE	W11
	BYTE		N11     En4 
	BYTE	W13
	BYTE		N10     Ds2 
	BYTE		N10     Bn2 
	BYTE		N92     Ds4 
	BYTE	W24
	BYTE		N05     Ds1 
	BYTE		N05     Bn1 
	BYTE		N10     Bn3 
	BYTE	W11
	BYTE		N10   
	BYTE	W08
// 078   ----------------------------------------
	BYTE	W05
	BYTE		N05     Ds1 
	BYTE		N05     Bn1 
	BYTE		N16     Dn4 
	BYTE	W17
	BYTE		N17     Cs4 
	BYTE	W06
	BYTE		N06     Ds1 
	BYTE	W01
	BYTE		N05     Bn1 
	BYTE	W12
	BYTE		N10     Cn4 
	BYTE	W12
	BYTE		N05     Ds1 
	BYTE		N05     Bn1 
	BYTE		N32     Bn3 
	BYTE	W24
	BYTE		N10     Ds1 
	BYTE		N10     Bn1 
	BYTE		N10     Cn4 
	BYTE	W11
	BYTE		N24     Bn3 
	BYTE	W08
// 079   ----------------------------------------
	BYTE	W05
	BYTE		N05     Ds1 
	BYTE		N05     Bn1 
	BYTE		N10     As3 
	BYTE	W12
	BYTE		N36     Bn3 
	BYTE	W12
	BYTE		N05     Ds1 
	BYTE		N05     Bn1 
	BYTE	W24
	BYTE		        Cn2 
	BYTE	W01
	BYTE		N04     Gn1 
	BYTE	W23
	BYTE		N05   
	BYTE	W01
	BYTE		N04     Cn2 
	BYTE	W18
// 080   ----------------------------------------
	BYTE	W05
	BYTE		N05     Gn1 
	BYTE		N05     Cn2 
	BYTE	W24
	BYTE		        Gn1 
	BYTE		N05     Cn2 
	BYTE	W24
	BYTE		        Gn1 
	BYTE		N05     Cn2 
	BYTE	W24
	BYTE		        Gn1 
	BYTE		N05     Cn2 
	BYTE	W19
// 081   ----------------------------------------
	BYTE	W05
	BYTE		        Gn1 
	BYTE		N06     Cn2 
	BYTE	W24
	BYTE		N05     Gn1 
	BYTE		N05     Cn2 
	BYTE	W24
	BYTE		        Bn1 
	BYTE		N05     En2 
	BYTE	W24
	BYTE		N04     Bn1 
	BYTE		N05     En2 
	BYTE	W19
// 082   ----------------------------------------
	BYTE	W05
	BYTE		        Bn1 
	BYTE		N05     En2 
	BYTE	W24
	BYTE		        Bn1 
	BYTE		N05     En2 
	BYTE	W24
	BYTE		        Bn1 
	BYTE		N05     En2 
	BYTE	W24
	BYTE		        Bn1 
	BYTE		N05     En2 
	BYTE	W19
// 083   ----------------------------------------
	BYTE	W05
	BYTE		        Bn1 
	BYTE		N05     En2 
	BYTE	W24
	BYTE		        Bn1 
	BYTE		N05     En2 
	BYTE	W24
	BYTE		        Gn1 
	BYTE		N05     Cn2 
	BYTE	W24
	BYTE		        Gn1 
	BYTE		N05     Cn2 
	BYTE	W19
// 084   ----------------------------------------
	BYTE	W05
	BYTE		        Gn1 
	BYTE		N06     Cn2 
	BYTE	W24
	BYTE		N05     Gn1 
	BYTE		N05     Cn2 
	BYTE	W24
	BYTE		        Gn1 
	BYTE		N05     Cn2 
	BYTE	W24
	BYTE		        Gn1 
	BYTE		N05     Cn2 
	BYTE	W19
// 085   ----------------------------------------
	BYTE	W05
	BYTE		        Gn1 
	BYTE		N05     Cn2 
	BYTE	W24
	BYTE		        Gn1 
	BYTE		N05     Cn2 
	BYTE	W24
	BYTE		        En2 
	BYTE	W01
	BYTE		N04     Bn1 
	BYTE	W23
	BYTE		N05   
	BYTE		N05     En2 
	BYTE	W19
// 086   ----------------------------------------
	BYTE	W05
	BYTE		N06     Bn1 
	BYTE		N05     En2 
	BYTE	W24
	BYTE		        Bn1 
	BYTE		N05     En2 
	BYTE	W24
	BYTE		        Bn1 
	BYTE		N05     En2 
	BYTE	W24
	BYTE		        Bn1 
	BYTE		N05     En2 
	BYTE	W19
// 087   ----------------------------------------
	BYTE	W05
	BYTE		N06     Bn1 
	BYTE		N05     En2 
	BYTE	W24
	BYTE		        Bn1 
	BYTE		N05     En2 
	BYTE	W24
	BYTE		N10     Ds2 
	BYTE	W11
	BYTE		N04     En2 
	BYTE	W13
	BYTE		N10     En1 
	BYTE	W11
	BYTE		N11   
	BYTE	W08
// 088   ----------------------------------------
	BYTE	W05
	BYTE		N16     Gn1 
	BYTE	W17
	BYTE		        Fs1 
	BYTE	W18
	BYTE		N11     Fn1 
	BYTE	W12
	BYTE		N16     Gn3 
	BYTE	W18
	BYTE		N17     Fs3 
	BYTE	W18
	BYTE		N10     Fn3 
	BYTE	W08
// 089   ----------------------------------------
	BYTE	W04
	BYTE		N44     En3 
	BYTE	W48
	BYTE	W01
	BYTE		        Bn2 
	BYTE		N44     En3 
	BYTE	W42
	BYTE	W01
// 090   ----------------------------------------
	BYTE	W04
	BYTE		N17     Gn3 
	BYTE	W01
	BYTE		N16     En3 
	BYTE	W17
	BYTE		N17     Bn2 
	BYTE	W01
	BYTE		N16     En3 
	BYTE	W17
	BYTE		N11   
	BYTE	W01
	BYTE		        Gn3 
	BYTE	W12
	BYTE		N04     En3 
	BYTE		N04     Bn3 
	BYTE	W01
	BYTE		N15     Dn3 
	BYTE	W05
	BYTE		N04     En3 
	BYTE		N04     Bn3 
	BYTE	W11
	BYTE		N16     Cs3 
	BYTE	W06
	BYTE		N05     Bn3 
	BYTE	W01
	BYTE		N04     En3 
	BYTE	W06
	BYTE		N04   
	BYTE		N04     Bn3 
	BYTE	W05
	BYTE		N11     Cn3 
	BYTE	W08
// 091   ----------------------------------------
	BYTE	W05
	BYTE		N44     Bn2 
	BYTE		N04     En3 
	BYTE		N04     Bn3 
	BYTE	W05
	BYTE		        En3 
	BYTE	W01
	BYTE		        Bn3 
	BYTE	W18
	BYTE		        En3 
	BYTE		N04     Bn3 
	BYTE	W06
	BYTE		        En3 
	BYTE		N04     Bn3 
	BYTE	W60
	BYTE	W01
// 092   ----------------------------------------
	BYTE	W96
// 093   ----------------------------------------
	BYTE	W64
	BYTE		        Dn3   v100
	BYTE		N04     Fn3 
	BYTE	W01
	BYTE		        An3 
	BYTE	W11
	BYTE		N05     Dn3 
	BYTE		N04     Fn3 
	BYTE		N04     An3 
	BYTE	W20
// 094   ----------------------------------------
	BYTE	W04
	BYTE		        Cn3 
	BYTE		N04     Ds3 
	BYTE		N04     Gn3 
	BYTE	W12
	BYTE		        Cn3 
	BYTE		N04     Ds3 
	BYTE		N04     Gn3 
	BYTE	W24
	BYTE		        Ds3 
	BYTE		N04     Fs3 
	BYTE	W01
	BYTE		        As3 
	BYTE	W11
	BYTE		        Ds3 
	BYTE		N04     Fs3 
	BYTE		N04     As3 
	BYTE	W24
	BYTE		        Dn3 
	BYTE		N04     Fn3 
	BYTE		N04     An3 
	BYTE	W12
	BYTE		        Dn3 
	BYTE		N04     Fn3 
	BYTE		N04     An3 
	BYTE	W08
// 095   ----------------------------------------
	BYTE	W16
	BYTE		        Ds3 
	BYTE		N04     Gn3 
	BYTE	W01
	BYTE		        Cn3 
	BYTE	W11
	BYTE		N04   
	BYTE		N04     Ds3 
	BYTE		N04     Gn3 
	BYTE	W24
	BYTE		N02     Gs3 
	BYTE		N02     Cn4 
	BYTE	W06
	BYTE		        Gs3 
	BYTE		N02     Cn4 
	BYTE	W06
	BYTE		        Gs3 
	BYTE		N02     Cn4 
	BYTE	W32
// 096   ----------------------------------------
	BYTE	W96
// 097   ----------------------------------------
	BYTE	W68
	BYTE	W03
	BYTE		N23     An3 
	BYTE		N23     Dn4 
	BYTE	W01
	BYTE		N22     Fn3 
	BYTE	W23
	BYTE		N23     Dn4 
	BYTE	W01
// 098   ----------------------------------------
	BYTE		N22     Fn3 
	BYTE		N22     An3 
	BYTE	W23
	BYTE		N17   
	BYTE		N17     Dn4 
	BYTE	W18
	BYTE		N16     An3 
	BYTE		N17     Dn4 
	BYTE	W18
	BYTE		N11     An3 
	BYTE		N11     Dn4 
	BYTE	W13
	BYTE		N92     Gs3 
	BYTE		N92     Fn4 
	BYTE	W24
// 099   ----------------------------------------
	BYTE	W68
	BYTE	W03
	BYTE		N22     Dn4 
	BYTE	W01
	BYTE		        Fn3 
	BYTE		N22     An3 
	BYTE	W23
	BYTE		N22   
	BYTE		N22     Dn4 
	BYTE	W01
// 100   ----------------------------------------
	BYTE		        Fn3 
	BYTE	W23
	BYTE		N16     Dn4 
	BYTE	W01
	BYTE		        An3 
	BYTE	W17
	BYTE		        Dn4 
	BYTE	W01
	BYTE		        An3 
	BYTE	W17
	BYTE		N10   
	BYTE		N10     Dn4 
	BYTE	W12
	BYTE		N68     Fn4 
	BYTE	W01
	BYTE		        Gs3 
	BYTE	W24
// 101   ----------------------------------------
	BYTE	W96
// 102   ----------------------------------------
	BYTE	W96
// 103   ----------------------------------------
	BYTE	W96
// 104   ----------------------------------------
	BYTE	W96
// 105   ----------------------------------------
	BYTE	W68
	BYTE	W03
	BYTE		N06     An1   v127
	BYTE		N06     Dn2 
	BYTE	W24
	BYTE		N05     An1 
	BYTE		N05     Dn2 
	BYTE	W01
// 106   ----------------------------------------
	BYTE	W23
	BYTE		        An1 
	BYTE		N05     Dn2 
	BYTE	W24
	BYTE		N06     An1 
	BYTE		N06     Dn2 
	BYTE	W24
	BYTE		        An1 
	BYTE		N06     Dn2 
	BYTE	W24
	BYTE		N05     An1 
	BYTE		N05     Dn2 
	BYTE	W01
// 107   ----------------------------------------
feb20200423182207_1_107:
	BYTE	W23
	BYTE		N06     An1   v127
	BYTE		N06     Dn2 
	BYTE	W24
	BYTE		        An1 
	BYTE		N06     Dn2 
	BYTE	W24
	BYTE		        An1 
	BYTE		N06     Dn2 
	BYTE	W24
	BYTE		        An1 
	BYTE		N06     Dn2 
	BYTE	W01
	BYTE	PEND
// 108   ----------------------------------------
	BYTE	PATT
	 POIN2	feb20200423182207_1_107
// 109   ----------------------------------------
	BYTE	W23
	BYTE		N06     An1   v127
	BYTE		N06     Dn2 
	BYTE	W24
	BYTE		        An1 
	BYTE		N06     Dn2 
	BYTE	W24
	BYTE	W01
	BYTE		N05     An1 
	BYTE		N05     Dn2 
	BYTE	W23
	BYTE		N06     An1 
	BYTE		N06     Dn2 
	BYTE	W01
// 110   ----------------------------------------
	BYTE	W23
	BYTE		N05     An1 
	BYTE		N06     Dn2 
	BYTE	W24
	BYTE		N05     An1 
	BYTE		N05     Dn2 
	BYTE	W24
	BYTE		N06     An1 
	BYTE		N05     Dn2 
	BYTE	W24
	BYTE		        An1 
	BYTE		N05     Dn2 
	BYTE	W01
// 111   ----------------------------------------
	BYTE	W23
	BYTE		        An1 
	BYTE		N05     Dn2 
	BYTE	W24
	BYTE		N06     An1 
	BYTE		N05     Dn2 
	BYTE	W24
	BYTE		        An1 
	BYTE		N05     Dn2 
	BYTE	W24
	BYTE		        An1 
	BYTE		N05     Dn2 
	BYTE	W01
// 112   ----------------------------------------
	BYTE	W23
	BYTE		N06     An1 
	BYTE		N05     Dn2 
	BYTE	W24
	BYTE		        An1 
	BYTE		N06     Dn2 
	BYTE	W24
	BYTE		        An1 
	BYTE		N05     Dn2 
	BYTE	W24
	BYTE		        An1 
	BYTE		N05     Dn2 
	BYTE	W01
// 113   ----------------------------------------
	BYTE	W23
	BYTE		N06     An1 
	BYTE		N05     Dn2 
	BYTE	W24
	BYTE		N06     An1 
	BYTE		N05     Dn2 
	BYTE	W24
	BYTE		N06   
	BYTE	W01
	BYTE		N05     An1 
	BYTE	W24
// 114   ----------------------------------------
	BYTE		N05   
	BYTE		N05     Dn2 
	BYTE	W24
	BYTE		N06     An1 
	BYTE		N06     Dn2 
	BYTE	W23
	BYTE		N05   
	BYTE	W01
	BYTE		        An1 
	BYTE	W24
	BYTE		N05   
	BYTE		N05     Dn2 
	BYTE	W23
	BYTE		N06     An1 
	BYTE	W01
// 115   ----------------------------------------
	BYTE		        Dn2 
	BYTE	W23
	BYTE		N05     An1 
	BYTE	W01
	BYTE		        Dn2 
	BYTE	W23
	BYTE		N06     An1 
	BYTE	W01
	BYTE		N05     Dn2 
	BYTE	W24
	BYTE		        An1 
	BYTE		N05     Dn2 
	BYTE	W24
// 116   ----------------------------------------
	BYTE		        An1 
	BYTE		N05     Dn2 
	BYTE	W24
	BYTE		        An1 
	BYTE		N05     Dn2 
	BYTE	W24
	BYTE		        An1 
	BYTE		N05     Dn2 
	BYTE	W23
	BYTE		        An1 
	BYTE	W01
	BYTE		        Dn2 
	BYTE	W23
	BYTE		N05   
	BYTE	W01
// 117   ----------------------------------------
	BYTE		        An1 
	BYTE	W23
	BYTE		N05   
	BYTE	W01
	BYTE		        Dn2 
	BYTE	W23
	BYTE		        An1 
	BYTE	W01
	BYTE		        Dn2 
	BYTE	W48
// 118   ----------------------------------------
	BYTE	W96
// 119   ----------------------------------------
	BYTE	W96
// 120   ----------------------------------------
	BYTE	W96
// 121   ----------------------------------------
	BYTE	W96
// 122   ----------------------------------------
	BYTE	W96
// 123   ----------------------------------------
	BYTE	W96
// 124   ----------------------------------------
	BYTE	W96
// 125   ----------------------------------------
	BYTE	W96
// 126   ----------------------------------------
	BYTE	W96
// 127   ----------------------------------------
	BYTE	FINE

//**************** Track 2 (Midi-Chn.2) ****************//

feb20200423182207_2:
	BYTE	KEYSH   feb20200423182207_key+0
// 000   ----------------------------------------
	BYTE	W01
	BYTE		VOICE   47
	BYTE		VOL     100*feb20200423182207_mvl/mxv
	BYTE	W92
	BYTE	W03
// 001   ----------------------------------------
feb20200423182207_2_001:
	BYTE		N22     En1   v127
	BYTE	W24
	BYTE		        En2 
	BYTE	W24
	BYTE		        En1 
	BYTE	W24
	BYTE		        En2 
	BYTE	W24
	BYTE	PEND
// 002   ----------------------------------------
	BYTE	PATT
	 POIN2	feb20200423182207_2_001
// 003   ----------------------------------------
	BYTE	W96
// 004   ----------------------------------------
	BYTE	W96
// 005   ----------------------------------------
feb20200423182207_2_005:
	BYTE	W01
	BYTE		N22     En1   v127
	BYTE	W23
	BYTE		        En2 
	BYTE	W24
	BYTE		        En1 
	BYTE	W24
	BYTE		        En2 
	BYTE	W24
	BYTE	PEND
// 006   ----------------------------------------
	BYTE	PATT
	 POIN2	feb20200423182207_2_001
// 007   ----------------------------------------
	BYTE	PATT
	 POIN2	feb20200423182207_2_001
// 008   ----------------------------------------
	BYTE	PATT
	 POIN2	feb20200423182207_2_001
// 009   ----------------------------------------
feb20200423182207_2_009:
	BYTE		N22     En1   v127
	BYTE	W24
	BYTE	W01
	BYTE		        En2 
	BYTE	W23
	BYTE		        En1 
	BYTE	W24
	BYTE		        En2 
	BYTE	W24
	BYTE	PEND
// 010   ----------------------------------------
	BYTE	W01
	BYTE		        En1 
	BYTE	W24
	BYTE		        En2 
	BYTE	W23
	BYTE		        En1 
	BYTE	W24
	BYTE		        En2 
	BYTE	W24
// 011   ----------------------------------------
	BYTE		        En1 
	BYTE	W24
	BYTE	W01
	BYTE		        En2 
	BYTE	W24
	BYTE		        En1 
	BYTE	W24
	BYTE		        En2 
	BYTE	W23
// 012   ----------------------------------------
	BYTE	W01
	BYTE		        En1 
	BYTE	W23
	BYTE		        En2 
	BYTE	W24
	BYTE	W01
	BYTE		        En1 
	BYTE	W24
	BYTE		        En2 
	BYTE	W23
// 013   ----------------------------------------
	BYTE	PATT
	 POIN2	feb20200423182207_2_005
// 014   ----------------------------------------
	BYTE	PATT
	 POIN2	feb20200423182207_2_001
// 015   ----------------------------------------
feb20200423182207_2_015:
	BYTE	W01
	BYTE		N22     En1   v127
	BYTE	W24
	BYTE		        En2 
	BYTE	W24
	BYTE		        En1 
	BYTE	W24
	BYTE		        En2 
	BYTE	W23
	BYTE	PEND
// 016   ----------------------------------------
	BYTE	PATT
	 POIN2	feb20200423182207_2_015
// 017   ----------------------------------------
	BYTE	PATT
	 POIN2	feb20200423182207_2_015
// 018   ----------------------------------------
	BYTE	PATT
	 POIN2	feb20200423182207_2_015
// 019   ----------------------------------------
	BYTE	W01
	BYTE		N22     En1   v127
	BYTE	W23
	BYTE		        En2 
	BYTE	W24
	BYTE		        En1 
	BYTE	W24
	BYTE		N23     En2 
	BYTE	W24
// 020   ----------------------------------------
	BYTE	PATT
	 POIN2	feb20200423182207_2_009
// 021   ----------------------------------------
	BYTE		N09     Dn2   v127
	BYTE	W48
	BYTE		N10     Cn2 
	BYTE	W24
	BYTE		        Bn1 
	BYTE	W12
	BYTE		N92     Fn1 
	BYTE		N22     An1 
	BYTE	W12
// 022   ----------------------------------------
	BYTE	W11
	BYTE		        Fn2 
	BYTE	W24
	BYTE		N23     En2 
	BYTE	W24
	BYTE		N10     Cs2 
	BYTE	W13
	BYTE		        Dn2 
	BYTE	W24
// 023   ----------------------------------------
	BYTE		        An1 
	BYTE	W24
	BYTE		        Bn1 
	BYTE	W23
	BYTE		        Cn2 
	BYTE	W14
	BYTE		N44     Gn1 
	BYTE	W32
	BYTE	W03
// 024   ----------------------------------------
	BYTE	W13
	BYTE		N44   
	BYTE	W44
	BYTE	W03
	BYTE		N44   
	BYTE	W36
// 025   ----------------------------------------
	BYTE	W13
	BYTE		N44   
	BYTE	W48
	BYTE		N21   
	BYTE	W32
	BYTE	W03
// 026   ----------------------------------------
	BYTE	W12
	BYTE		N44   
	BYTE	W48
	BYTE	W01
	BYTE		N44   
	BYTE	W32
	BYTE	W03
// 027   ----------------------------------------
	BYTE	W12
	BYTE		N44   
	BYTE	W48
	BYTE	W01
	BYTE		N18     Dn2 
	BYTE	W23
	BYTE		N02     Dn2   v032
	BYTE	W03
	BYTE		N03   
	BYTE	W04
	BYTE		        Dn2   v064
	BYTE	W04
	BYTE		N03   
	BYTE	W01
// 028   ----------------------------------------
feb20200423182207_2_028:
	BYTE	W03
	BYTE		N03     Dn2   v127
	BYTE	W04
	BYTE		N03   
	BYTE	W06
	BYTE		N21     An1 
	BYTE	W44
	BYTE	W03
	BYTE		N22     Gn1 
	BYTE	W24
	BYTE		N02     Dn2   v032
	BYTE	W03
	BYTE		N03   
	BYTE	W04
	BYTE		N02     Dn2   v064
	BYTE	W04
	BYTE		N03   
	BYTE	W01
	BYTE	PEND
// 029   ----------------------------------------
feb20200423182207_2_029:
	BYTE	W03
	BYTE		N02     Dn2   v127
	BYTE	W04
	BYTE		N03   
	BYTE	W06
	BYTE		N21     An1 
	BYTE	W44
	BYTE	W03
	BYTE		N19     Dn2 
	BYTE	W24
	BYTE		N02     Dn2   v032
	BYTE	W03
	BYTE		N03   
	BYTE	W04
	BYTE		        Dn2   v064
	BYTE	W04
	BYTE		N03   
	BYTE	W01
	BYTE	PEND
// 030   ----------------------------------------
	BYTE	W03
	BYTE		        Dn2   v127
	BYTE	W04
	BYTE		N03   
	BYTE	W06
	BYTE		N21     An1 
	BYTE	W44
	BYTE	W03
	BYTE		N18     Dn2 
	BYTE	W24
	BYTE		N02     Dn2   v032
	BYTE	W03
	BYTE		N03   
	BYTE	W04
	BYTE		        Dn2   v064
	BYTE	W04
	BYTE		N03   
	BYTE	W01
// 031   ----------------------------------------
	BYTE	W03
	BYTE		        Dn2   v127
	BYTE	W04
	BYTE		N02   
	BYTE	W06
	BYTE		N21     An1 
	BYTE	W44
	BYTE	W03
	BYTE		N19     Dn2 
	BYTE	W24
	BYTE		N02     Dn2   v032
	BYTE	W03
	BYTE		N03   
	BYTE	W04
	BYTE		        Dn2   v064
	BYTE	W04
	BYTE		N02   
	BYTE	W01
// 032   ----------------------------------------
	BYTE	PATT
	 POIN2	feb20200423182207_2_028
// 033   ----------------------------------------
	BYTE	W03
	BYTE		N03     Dn2   v127
	BYTE	W04
	BYTE		N03   
	BYTE	W06
	BYTE		N21     An1 
	BYTE	W44
	BYTE	W03
	BYTE		N19     Dn2 
	BYTE	W24
	BYTE		N02     Dn2   v032
	BYTE	W03
	BYTE		N03   
	BYTE	W04
	BYTE		        Dn2   v064
	BYTE	W04
	BYTE		N03   
	BYTE	W01
// 034   ----------------------------------------
	BYTE	PATT
	 POIN2	feb20200423182207_2_029
// 035   ----------------------------------------
	BYTE	W03
	BYTE		N03     Dn2   v127
	BYTE	W04
	BYTE		N03   
	BYTE	W06
	BYTE		N21     An1 
	BYTE	W23
	BYTE		N02     Cn2 
	BYTE	W03
	BYTE		N03   
	BYTE	W04
	BYTE		N02   
	BYTE	W04
	BYTE		N03   
	BYTE	W04
	BYTE		N03   
	BYTE	W04
	BYTE		N03   
	BYTE	W05
	BYTE		N22     Dn2 
	BYTE	W36
// 036   ----------------------------------------
	BYTE	W12
	BYTE		N22   
	BYTE	W48
	BYTE		N22   
	BYTE	W24
	BYTE		        An1 
	BYTE	W12
// 037   ----------------------------------------
	BYTE	W11
	BYTE		N23     Dn2 
	BYTE	W24
	BYTE		N22     An1 
	BYTE	W24
	BYTE	W01
	BYTE		        Dn2 
	BYTE	W36
// 038   ----------------------------------------
	BYTE	W12
	BYTE		N22   
	BYTE	W48
	BYTE		N22   
	BYTE	W23
	BYTE		N23     An1 
	BYTE	W13
// 039   ----------------------------------------
	BYTE	W12
	BYTE		N22     Dn2 
	BYTE	W24
	BYTE		        An1 
	BYTE	W24
	BYTE		N10     Fn1 
	BYTE	W12
	BYTE		N10   
	BYTE	W12
	BYTE		N22     Dn2 
	BYTE	W12
// 040   ----------------------------------------
	BYTE	W96
// 041   ----------------------------------------
	BYTE	W60
	BYTE		N10     Fn2 
	BYTE	W12
	BYTE		N10   
	BYTE	W12
	BYTE		N23     Dn2 
	BYTE	W12
// 042   ----------------------------------------
	BYTE	W96
// 043   ----------------------------------------
	BYTE	W60
	BYTE	W01
	BYTE		N44     Ds2 
	BYTE	W32
	BYTE	W03
// 044   ----------------------------------------
	BYTE	W12
	BYTE		N44   
	BYTE	W44
	BYTE	W03
	BYTE		N22   
	BYTE	W23
	BYTE		        As1 
	BYTE	W14
// 045   ----------------------------------------
	BYTE	W10
	BYTE		        Ds2 
	BYTE	W23
	BYTE		        As1 
	BYTE	W24
	BYTE		N44     Ds2 
	BYTE	W36
	BYTE	W03
// 046   ----------------------------------------
	BYTE	W09
	BYTE		N44   
	BYTE	W44
	BYTE	W03
	BYTE		N22   
	BYTE	W23
	BYTE		        As1 
	BYTE	W17
// 047   ----------------------------------------
	BYTE	W07
	BYTE		        Ds2 
	BYTE	W23
	BYTE		        As1 
	BYTE	W24
	BYTE		N10     Fn1 
	BYTE	W11
	BYTE		N10   
	BYTE	W13
	BYTE		N22     Dn2 
	BYTE	W18
// 048   ----------------------------------------
	BYTE	W30
	BYTE		N06     As1 
	BYTE	W09
	BYTE		N05   
	BYTE	W08
	BYTE		N06   
	BYTE	W07
	BYTE		N22   
	BYTE	W42
// 049   ----------------------------------------
	BYTE	W54
	BYTE		N10     Fn2 
	BYTE	W12
	BYTE		N10   
	BYTE	W12
	BYTE		N22     Dn2 
	BYTE	W18
// 050   ----------------------------------------
	BYTE	W30
	BYTE		N06   
	BYTE	W08
	BYTE		N06   
	BYTE	W08
	BYTE		        An1 
	BYTE	W08
	BYTE		N22     Dn2 
	BYTE	W42
// 051   ----------------------------------------
	BYTE	W54
	BYTE		        As1 
	BYTE	W24
	BYTE		        Fn1 
	BYTE	W18
// 052   ----------------------------------------
	BYTE	W06
	BYTE		        As1 
	BYTE	W24
	BYTE		        Fn1 
	BYTE	W24
	BYTE		        As1 
	BYTE	W24
	BYTE		        Fn1 
	BYTE	W18
// 053   ----------------------------------------
	BYTE	W06
	BYTE		        As1 
	BYTE	W24
	BYTE		N23     Fn1 
	BYTE	W24
	BYTE		N22     As1 
	BYTE	W24
	BYTE		N23     Fn1 
	BYTE	W18
// 054   ----------------------------------------
feb20200423182207_2_054:
	BYTE	W06
	BYTE		N22     As1   v127
	BYTE	W24
	BYTE		        Fn1 
	BYTE	W24
	BYTE		N23     As1 
	BYTE	W24
	BYTE		N22     Fn1 
	BYTE	W18
	BYTE	PEND
// 055   ----------------------------------------
	BYTE	W06
	BYTE		N23     As1 
	BYTE	W24
	BYTE		        Fn1 
	BYTE	W24
	BYTE		N22     As1 
	BYTE	W24
	BYTE		        Fn1 
	BYTE	W18
// 056   ----------------------------------------
	BYTE	W06
	BYTE		        As1 
	BYTE	W24
	BYTE		N23     Fn1 
	BYTE	W24
	BYTE		N22     As1 
	BYTE	W24
	BYTE		        Fn1 
	BYTE	W18
// 057   ----------------------------------------
	BYTE	W06
	BYTE		N23     As1 
	BYTE	W24
	BYTE		N22     Fn1 
	BYTE	W24
	BYTE		        As1 
	BYTE	W24
	BYTE		N23     Fn1 
	BYTE	W18
// 058   ----------------------------------------
	BYTE	PATT
	 POIN2	feb20200423182207_2_054
// 059   ----------------------------------------
	BYTE	W06
	BYTE		N22     As1   v127
	BYTE	W24
	BYTE		        Fn1 
	BYTE	W24
	BYTE		N44     Ds2 
	BYTE	W42
// 060   ----------------------------------------
	BYTE	W05
	BYTE		N44   
	BYTE	W48
	BYTE		N22   
	BYTE	W24
	BYTE	W01
	BYTE		        As1 
	BYTE	W18
// 061   ----------------------------------------
	BYTE	W05
	BYTE		        Ds2 
	BYTE	W24
	BYTE	W01
	BYTE		        As1 
	BYTE	W23
	BYTE		N44     Ds2 
	BYTE	W42
	BYTE	W01
// 062   ----------------------------------------
	BYTE	W05
	BYTE		N44   
	BYTE	W48
	BYTE	W01
	BYTE		N22   
	BYTE	W23
	BYTE		        As1 
	BYTE	W19
// 063   ----------------------------------------
	BYTE	W05
	BYTE		        Ds2 
	BYTE	W24
	BYTE		        As1 
	BYTE	W24
	BYTE		N10     Fn1 
	BYTE	W12
	BYTE		N10   
	BYTE	W12
	BYTE		N22     Dn2 
	BYTE	W19
// 064   ----------------------------------------
	BYTE	W05
	BYTE		        An1 
	BYTE	W24
	BYTE		N23   
	BYTE	W24
	BYTE		N22   
	BYTE	W24
	BYTE		N22   
	BYTE	W19
// 065   ----------------------------------------
	BYTE	W05
	BYTE		N23   
	BYTE	W24
	BYTE		N23   
	BYTE	W24
	BYTE		N10     Fn2 
	BYTE	W01
	BYTE		N22     An1 
	BYTE	W11
	BYTE		N10     Fn2 
	BYTE	W12
	BYTE		N22     Gn1 
	BYTE		N22     Dn2 
	BYTE	W19
// 066   ----------------------------------------
	BYTE	W05
	BYTE		N23     Gn1 
	BYTE	W24
	BYTE		N22   
	BYTE	W24
	BYTE		N22   
	BYTE	W24
	BYTE		N22   
	BYTE	W19
// 067   ----------------------------------------
	BYTE	W05
	BYTE		N23   
	BYTE	W24
	BYTE		N22   
	BYTE	W24
	BYTE		        En2 
	BYTE	W24
	BYTE	W01
	BYTE		N21     Bn1 
	BYTE	W18
// 068   ----------------------------------------
	BYTE	W05
	BYTE		N22     En2 
	BYTE	W24
	BYTE		        Bn1 
	BYTE	W24
	BYTE		N21     En2 
	BYTE	W24
	BYTE	W01
	BYTE		        Bn1 
	BYTE	W18
// 069   ----------------------------------------
	BYTE	W05
	BYTE		N22     En2 
	BYTE	W24
	BYTE	W01
	BYTE		        Bn1 
	BYTE	W24
	BYTE		N21   
	BYTE	W23
	BYTE		N22     Fn1 
	BYTE	W19
// 070   ----------------------------------------
	BYTE	W05
	BYTE		        Bn1 
	BYTE	W24
	BYTE		        Fn1 
	BYTE	W24
	BYTE	W01
	BYTE		        Bn1 
	BYTE	W24
	BYTE		N21     Fn1 
	BYTE	W18
// 071   ----------------------------------------
	BYTE	W06
	BYTE		        Bn1 
	BYTE	W23
	BYTE		N22     Fn1 
	BYTE	W24
	BYTE	W01
	BYTE		N21     Bn1 
	BYTE	W23
	BYTE		N22     Fs1 
	BYTE	W19
// 072   ----------------------------------------
feb20200423182207_2_072:
	BYTE	W06
	BYTE		N21     Bn1   v127
	BYTE	W23
	BYTE		N22     Fs1 
	BYTE	W24
	BYTE	W01
	BYTE		N21     Bn1 
	BYTE	W24
	BYTE		        Fs1 
	BYTE	W18
	BYTE	PEND
// 073   ----------------------------------------
	BYTE	W06
	BYTE		        Bn1 
	BYTE	W23
	BYTE		N22     Fs1 
	BYTE	W24
	BYTE	W01
	BYTE		N21     En2 
	BYTE	W24
	BYTE		        Bn1 
	BYTE	W18
// 074   ----------------------------------------
	BYTE	W05
	BYTE		N22     En2 
	BYTE	W24
	BYTE		        Bn1 
	BYTE	W24
	BYTE	W01
	BYTE		N21     En2 
	BYTE	W23
	BYTE		N22     Bn1 
	BYTE	W19
// 075   ----------------------------------------
	BYTE	W05
	BYTE		        En2 
	BYTE	W24
	BYTE	W01
	BYTE		        Bn1 
	BYTE	W24
	BYTE		N21   
	BYTE	W24
	BYTE		N22     Fn1 
	BYTE	W18
// 076   ----------------------------------------
	BYTE	W05
	BYTE		        Bn1 
	BYTE	W24
	BYTE	W01
	BYTE		        Fn1 
	BYTE	W23
	BYTE		        Bn1 
	BYTE	W24
	BYTE	W01
	BYTE		N21     Fn1 
	BYTE	W18
// 077   ----------------------------------------
	BYTE	W06
	BYTE		        Bn1 
	BYTE	W23
	BYTE		N22     Fn1 
	BYTE	W24
	BYTE	W01
	BYTE		N21     Bn1 
	BYTE	W24
	BYTE		        Fs1 
	BYTE	W18
// 078   ----------------------------------------
	BYTE	PATT
	 POIN2	feb20200423182207_2_072
// 079   ----------------------------------------
	BYTE	W06
	BYTE		N21     Bn1   v127
	BYTE	W23
	BYTE		N22     Fs1 
	BYTE	W24
	BYTE	W01
	BYTE		N21     Cn2 
	BYTE	W24
	BYTE		        Gn1 
	BYTE	W18
// 080   ----------------------------------------
feb20200423182207_2_080:
	BYTE	W05
	BYTE		N22     Cn2   v127
	BYTE	W24
	BYTE		        Gn1 
	BYTE	W24
	BYTE		        Cn2 
	BYTE	W24
	BYTE	W01
	BYTE		N21     Gn1 
	BYTE	W18
	BYTE	PEND
// 081   ----------------------------------------
	BYTE	W05
	BYTE		        Cn2 
	BYTE	W24
	BYTE	W01
	BYTE		        Gn1 
	BYTE	W24
	BYTE		        En2 
	BYTE	W24
	BYTE		        Bn1 
	BYTE	W18
// 082   ----------------------------------------
	BYTE	W06
	BYTE		        En2 
	BYTE	W23
	BYTE		N22     Bn1 
	BYTE	W24
	BYTE		        En2 
	BYTE	W24
	BYTE	W01
	BYTE		N21     Bn1 
	BYTE	W18
// 083   ----------------------------------------
	BYTE	W06
	BYTE		N22     En2 
	BYTE	W24
	BYTE		N21     Bn1 
	BYTE	W24
	BYTE		N22     Cn2 
	BYTE	W24
	BYTE		N21     Gn1 
	BYTE	W18
// 084   ----------------------------------------
	BYTE	PATT
	 POIN2	feb20200423182207_2_080
// 085   ----------------------------------------
	BYTE	W05
	BYTE		N22     Cn2   v127
	BYTE	W24
	BYTE		N21     Gn1 
	BYTE	W24
	BYTE	W01
	BYTE		        En2 
	BYTE	W23
	BYTE		N22     Bn1 
	BYTE	W19
// 086   ----------------------------------------
	BYTE	W05
	BYTE		        En2 
	BYTE	W24
	BYTE	W01
	BYTE		N21     Bn1 
	BYTE	W23
	BYTE		N22     En2 
	BYTE	W24
	BYTE	W01
	BYTE		N21     Bn1 
	BYTE	W18
// 087   ----------------------------------------
	BYTE	W05
	BYTE		        En2 
	BYTE	W24
	BYTE	W01
	BYTE		        Bn1 
	BYTE	W23
	BYTE		N10     En2 
	BYTE	W12
	BYTE		N11   
	BYTE	W24
	BYTE		        An1 
	BYTE	W07
// 088   ----------------------------------------
	BYTE	W05
	BYTE		N16     En2 
	BYTE	W18
	BYTE		        Ds2 
	BYTE	W18
	BYTE		N10     Dn2 
	BYTE	W12
	BYTE		N22     En2 
	BYTE	W36
	BYTE		N10   
	BYTE	W07
// 089   ----------------------------------------
	BYTE	W05
	BYTE		N10   
	BYTE	W48
	BYTE		N23     Gn1 
	BYTE	W24
	BYTE		N12   
	BYTE	W12
	BYTE		N11   
	BYTE	W07
// 090   ----------------------------------------
	BYTE	W05
	BYTE		N16     Cn2 
	BYTE	W18
	BYTE		        Gn1 
	BYTE	W18
	BYTE		N10     Cn2 
	BYTE	W13
	BYTE		N21     Gn1 
	BYTE	W23
	BYTE		N22   
	BYTE	W19
// 091   ----------------------------------------
	BYTE	W06
	BYTE		N21   
	BYTE	W24
	BYTE		N21   
	BYTE	W66
// 092   ----------------------------------------
	BYTE	W96
// 093   ----------------------------------------
	BYTE	W52
	BYTE		N22     Dn2   v100
	BYTE	W36
	BYTE		N11     Cn2 
	BYTE	W08
// 094   ----------------------------------------
	BYTE	W28
	BYTE		N10     En2 
	BYTE	W36
	BYTE		        Ds2 
	BYTE	W32
// 095   ----------------------------------------
	BYTE	W04
	BYTE		N05     Cn2 
	BYTE	W36
	BYTE		N06     Gn1 
	BYTE	W32
	BYTE		N23     Fn1 
	BYTE	W23
	BYTE		N22   
	BYTE	W01
// 096   ----------------------------------------
	BYTE	W24
	BYTE		N23   
	BYTE	W23
	BYTE		N22   
	BYTE	W24
	BYTE	W01
	BYTE		N24   
	BYTE	W24
// 097   ----------------------------------------
	BYTE		N22   
	BYTE	W24
	BYTE		N22   
	BYTE	W23
	BYTE		N22   
	BYTE	W24
	BYTE	W01
	BYTE		        Ds2 
	BYTE	W24
// 098   ----------------------------------------
	BYTE		N22   
	BYTE	W23
	BYTE		N16   
	BYTE	W18
	BYTE		        Cs2 
	BYTE	W18
	BYTE		N11     Bn1 
	BYTE	W13
	BYTE		N92     As1 
	BYTE	W24
// 099   ----------------------------------------
	BYTE	W72
	BYTE		N22     Ds2 
	BYTE	W24
// 100   ----------------------------------------
	BYTE		N22   
	BYTE	W24
	BYTE		N16   
	BYTE	W18
	BYTE		        Cs2 
	BYTE	W18
	BYTE		N10     Bn1 
	BYTE	W12
	BYTE		N92     As1 
	BYTE	W24
// 101   ----------------------------------------
	BYTE	W68
	BYTE	W03
	BYTE		N23     Dn2   v127
	BYTE	W24
	BYTE		N22     An1 
	BYTE	W01
// 102   ----------------------------------------
	BYTE	W23
	BYTE		N23     Dn2 
	BYTE	W24
	BYTE		        An1 
	BYTE	W24
	BYTE		        Dn2 
	BYTE	W24
	BYTE		N22     An1 
	BYTE	W01
// 103   ----------------------------------------
feb20200423182207_2_103:
	BYTE	W23
	BYTE		N23     Dn2   v127
	BYTE	W24
	BYTE		        An1 
	BYTE	W24
	BYTE		N22     Dn2 
	BYTE	W24
	BYTE		N23     An1 
	BYTE	W01
	BYTE	PEND
// 104   ----------------------------------------
	BYTE	PATT
	 POIN2	feb20200423182207_2_103
// 105   ----------------------------------------
	BYTE	W23
	BYTE		N22     Dn2   v127
	BYTE	W24
	BYTE		        An1 
	BYTE	W24
	BYTE		N23     Dn2 
	BYTE	W24
	BYTE		        An1 
	BYTE	W01
// 106   ----------------------------------------
feb20200423182207_2_106:
	BYTE	W24
	BYTE		N22     Dn2   v127
	BYTE	W23
	BYTE		        An1 
	BYTE	W24
	BYTE		N23     Dn2 
	BYTE	W24
	BYTE	W01
	BYTE	PEND
// 107   ----------------------------------------
	BYTE		N22     An1 
	BYTE	W24
	BYTE		        Dn2 
	BYTE	W23
	BYTE		        An1 
	BYTE	W24
	BYTE		        Dn2 
	BYTE	W24
	BYTE		        An1 
	BYTE	W01
// 108   ----------------------------------------
	BYTE	W23
	BYTE		        Dn2 
	BYTE	W24
	BYTE		        An1 
	BYTE	W24
	BYTE		        Dn2 
	BYTE	W24
	BYTE	W01
// 109   ----------------------------------------
	BYTE		        An1 
	BYTE	W23
	BYTE		        Dn2 
	BYTE	W24
	BYTE		        An1 
	BYTE	W24
	BYTE	W01
	BYTE		        Dn2 
	BYTE	W24
// 110   ----------------------------------------
	BYTE		        An1 
	BYTE	W24
	BYTE		        Dn2 
	BYTE	W24
	BYTE		        An1 
	BYTE	W23
	BYTE		        Dn2 
	BYTE	W24
	BYTE		        An1 
	BYTE	W01
// 111   ----------------------------------------
	BYTE	W23
	BYTE		        Dn2 
	BYTE	W24
	BYTE		        An1 
	BYTE	W24
	BYTE		        Dn2 
	BYTE	W24
	BYTE		N23     An1 
	BYTE	W01
// 112   ----------------------------------------
	BYTE	PATT
	 POIN2	feb20200423182207_2_106
// 113   ----------------------------------------
	BYTE		N22     An1   v127
	BYTE	W23
	BYTE		N23     Dn2 
	BYTE	W24
	BYTE		N22     An1 
	BYTE	W24
	BYTE	W01
	BYTE		        Dn2 
	BYTE	W24
// 114   ----------------------------------------
feb20200423182207_2_114:
	BYTE		N22     An1   v127
	BYTE	W24
	BYTE		        Dn2 
	BYTE	W24
	BYTE		        An1 
	BYTE	W24
	BYTE		        Dn2 
	BYTE	W24
	BYTE	PEND
// 115   ----------------------------------------
	BYTE	PATT
	 POIN2	feb20200423182207_2_114
// 116   ----------------------------------------
	BYTE	PATT
	 POIN2	feb20200423182207_2_114
// 117   ----------------------------------------
	BYTE		N22     An1   v127
	BYTE	W24
	BYTE		        Dn2 
	BYTE	W24
	BYTE		        An1 
	BYTE	W24
	BYTE		N10     Fn1 
	BYTE	W11
	BYTE		N10   
	BYTE	W13
// 118   ----------------------------------------
	BYTE		N22     Dn2 
	BYTE	W96
// 119   ----------------------------------------
	BYTE	W72
	BYTE		N10     Fn2 
	BYTE	W12
	BYTE		N10   
	BYTE	W12
// 120   ----------------------------------------
	BYTE		N23     Dn2 
	BYTE	W56
	BYTE	W03
	BYTE		VOL     100*feb20200423182207_mvl/mxv
	BYTE	W05
	BYTE		        99*feb20200423182207_mvl/mxv
	BYTE	W04
	BYTE		        98*feb20200423182207_mvl/mxv
	BYTE	W04
	BYTE		        97*feb20200423182207_mvl/mxv
	BYTE	W04
	BYTE		        96*feb20200423182207_mvl/mxv
	BYTE	W04
	BYTE		        95*feb20200423182207_mvl/mxv
	BYTE	W05
	BYTE		        94*feb20200423182207_mvl/mxv
	BYTE	W04
	BYTE		        93*feb20200423182207_mvl/mxv
	BYTE	W04
	BYTE		        92*feb20200423182207_mvl/mxv
	BYTE	W03
// 121   ----------------------------------------
	BYTE	W01
	BYTE		        91*feb20200423182207_mvl/mxv
	BYTE	W04
	BYTE		        90*feb20200423182207_mvl/mxv
	BYTE	W05
	BYTE		        89*feb20200423182207_mvl/mxv
	BYTE	W04
	BYTE		        88*feb20200423182207_mvl/mxv
	BYTE	W04
	BYTE		        87*feb20200423182207_mvl/mxv
	BYTE	W04
	BYTE		        86*feb20200423182207_mvl/mxv
	BYTE	W04
	BYTE		        85*feb20200423182207_mvl/mxv
	BYTE	W05
	BYTE		        84*feb20200423182207_mvl/mxv
	BYTE	W04
	BYTE		        83*feb20200423182207_mvl/mxv
	BYTE	W04
	BYTE		        82*feb20200423182207_mvl/mxv
	BYTE	W04
	BYTE		        81*feb20200423182207_mvl/mxv
	BYTE	W04
	BYTE		        80*feb20200423182207_mvl/mxv
	BYTE	W05
	BYTE		        79*feb20200423182207_mvl/mxv
	BYTE	W04
	BYTE		        78*feb20200423182207_mvl/mxv
	BYTE	W04
	BYTE		        77*feb20200423182207_mvl/mxv
	BYTE	W04
	BYTE		        76*feb20200423182207_mvl/mxv
	BYTE	W04
	BYTE		        75*feb20200423182207_mvl/mxv
	BYTE	W04
	BYTE		N22   
	BYTE	W01
	BYTE		VOL     74*feb20200423182207_mvl/mxv
	BYTE	W04
	BYTE		        73*feb20200423182207_mvl/mxv
	BYTE	W04
	BYTE		        72*feb20200423182207_mvl/mxv
	BYTE	W04
	BYTE		        71*feb20200423182207_mvl/mxv
	BYTE	W04
	BYTE		        70*feb20200423182207_mvl/mxv
	BYTE	W05
	BYTE		        69*feb20200423182207_mvl/mxv
	BYTE	W02
// 122   ----------------------------------------
	BYTE	W02
	BYTE		        68*feb20200423182207_mvl/mxv
	BYTE	W04
	BYTE		        67*feb20200423182207_mvl/mxv
	BYTE	W04
	BYTE		        66*feb20200423182207_mvl/mxv
	BYTE	W04
	BYTE		        65*feb20200423182207_mvl/mxv
	BYTE	W05
	BYTE		        64*feb20200423182207_mvl/mxv
	BYTE	W04
	BYTE		        63*feb20200423182207_mvl/mxv
	BYTE	W01
	BYTE		N22   
	BYTE	W03
	BYTE		VOL     62*feb20200423182207_mvl/mxv
	BYTE	W04
	BYTE		        61*feb20200423182207_mvl/mxv
	BYTE	W04
	BYTE		        60*feb20200423182207_mvl/mxv
	BYTE	W05
	BYTE		        59*feb20200423182207_mvl/mxv
	BYTE	W04
	BYTE		        58*feb20200423182207_mvl/mxv
	BYTE	W04
	BYTE		        57*feb20200423182207_mvl/mxv
	BYTE	W04
	BYTE		        56*feb20200423182207_mvl/mxv
	BYTE	W04
	BYTE		        55*feb20200423182207_mvl/mxv
	BYTE	W05
	BYTE		        54*feb20200423182207_mvl/mxv
	BYTE	W04
	BYTE		        53*feb20200423182207_mvl/mxv
	BYTE	W04
	BYTE		        52*feb20200423182207_mvl/mxv
	BYTE	W03
	BYTE		N22   
	BYTE	W01
	BYTE		VOL     51*feb20200423182207_mvl/mxv
	BYTE	W04
	BYTE		        50*feb20200423182207_mvl/mxv
	BYTE	W05
	BYTE		        49*feb20200423182207_mvl/mxv
	BYTE	W04
	BYTE		        48*feb20200423182207_mvl/mxv
	BYTE	W04
	BYTE		        47*feb20200423182207_mvl/mxv
	BYTE	W04
	BYTE		        46*feb20200423182207_mvl/mxv
	BYTE	W02
// 123   ----------------------------------------
	BYTE		N22     An1 
	BYTE	W02
	BYTE		VOL     45*feb20200423182207_mvl/mxv
	BYTE	W05
	BYTE		        44*feb20200423182207_mvl/mxv
	BYTE	W04
	BYTE		        43*feb20200423182207_mvl/mxv
	BYTE	W04
	BYTE		        42*feb20200423182207_mvl/mxv
	BYTE	W04
	BYTE		        41*feb20200423182207_mvl/mxv
	BYTE	W04
	BYTE		        40*feb20200423182207_mvl/mxv
	BYTE	W01
	BYTE		N23     Dn2 
	BYTE	W04
	BYTE		VOL     39*feb20200423182207_mvl/mxv
	BYTE	W04
	BYTE		        38*feb20200423182207_mvl/mxv
	BYTE	W04
	BYTE		        37*feb20200423182207_mvl/mxv
	BYTE	W04
	BYTE		        36*feb20200423182207_mvl/mxv
	BYTE	W04
	BYTE		        35*feb20200423182207_mvl/mxv
	BYTE	W04
	BYTE		N23     An1 
	BYTE	W01
	BYTE		VOL     34*feb20200423182207_mvl/mxv
	BYTE	W04
	BYTE		        33*feb20200423182207_mvl/mxv
	BYTE	W04
	BYTE		        32*feb20200423182207_mvl/mxv
	BYTE	W04
	BYTE		        31*feb20200423182207_mvl/mxv
	BYTE	W04
	BYTE		        30*feb20200423182207_mvl/mxv
	BYTE	W05
	BYTE		        29*feb20200423182207_mvl/mxv
	BYTE	W02
	BYTE		N22     Dn2 
	BYTE	W02
	BYTE		VOL     28*feb20200423182207_mvl/mxv
	BYTE	W04
	BYTE		        27*feb20200423182207_mvl/mxv
	BYTE	W04
	BYTE		        26*feb20200423182207_mvl/mxv
	BYTE	W04
	BYTE		        25*feb20200423182207_mvl/mxv
	BYTE	W05
	BYTE		        24*feb20200423182207_mvl/mxv
	BYTE	W04
	BYTE		        23*feb20200423182207_mvl/mxv
	BYTE	W01
// 124   ----------------------------------------
	BYTE	W03
	BYTE		        22*feb20200423182207_mvl/mxv
	BYTE	W04
	BYTE		        21*feb20200423182207_mvl/mxv
	BYTE	W04
	BYTE		        20*feb20200423182207_mvl/mxv
	BYTE	W05
	BYTE		        19*feb20200423182207_mvl/mxv
	BYTE	W04
	BYTE		        18*feb20200423182207_mvl/mxv
	BYTE	W04
	BYTE		        17*feb20200423182207_mvl/mxv
	BYTE		N23   
	BYTE	W04
	BYTE		VOL     16*feb20200423182207_mvl/mxv
	BYTE	W04
	BYTE		        15*feb20200423182207_mvl/mxv
	BYTE	W05
	BYTE		        14*feb20200423182207_mvl/mxv
	BYTE	W04
	BYTE		        13*feb20200423182207_mvl/mxv
	BYTE	W04
	BYTE		        12*feb20200423182207_mvl/mxv
	BYTE	W04
	BYTE		        11*feb20200423182207_mvl/mxv
	BYTE	W04
	BYTE		        10*feb20200423182207_mvl/mxv
	BYTE	W05
	BYTE		        9*feb20200423182207_mvl/mxv
	BYTE	W04
	BYTE		        8*feb20200423182207_mvl/mxv
	BYTE	W04
	BYTE		        7*feb20200423182207_mvl/mxv
	BYTE	W04
	BYTE		        6*feb20200423182207_mvl/mxv
	BYTE	W02
	BYTE		N22   
	BYTE	W02
	BYTE		VOL     5*feb20200423182207_mvl/mxv
	BYTE	W05
	BYTE		        4*feb20200423182207_mvl/mxv
	BYTE	W04
	BYTE		        3*feb20200423182207_mvl/mxv
	BYTE	W04
	BYTE		        2*feb20200423182207_mvl/mxv
	BYTE	W04
	BYTE		        1*feb20200423182207_mvl/mxv
	BYTE	W05
// 125   ----------------------------------------
	BYTE		        0*feb20200423182207_mvl/mxv
	BYTE		N23     An1 
	BYTE	W24
	BYTE		N22     Dn2 
	BYTE	W24
	BYTE		        An1 
	BYTE	W48
// 126   ----------------------------------------
	BYTE	W96
// 127   ----------------------------------------
	BYTE	FINE

//**************** Track 3 (Midi-Chn.3) ****************//

feb20200423182207_3:
	BYTE	KEYSH   feb20200423182207_key+0
// 000   ----------------------------------------
	BYTE	W01
	BYTE		VOICE   68
	BYTE		VOL     85*feb20200423182207_mvl/mxv
	BYTE	W92
	BYTE	W03
// 001   ----------------------------------------
	BYTE	W01
	BYTE		VOICE   68
	BYTE		N05     As2   v127
	BYTE		N05     En3 
	BYTE	W23
	BYTE		        As2 
	BYTE	W01
	BYTE		        En3 
	BYTE	W23
	BYTE		N05   
	BYTE	W01
	BYTE		        As2 
	BYTE	W24
	BYTE		N05   
	BYTE		N05     En3 
	BYTE	W23
// 002   ----------------------------------------
	BYTE		N05   
	BYTE	W01
	BYTE		        As2 
	BYTE	W23
	BYTE		        En3 
	BYTE	W01
	BYTE		        As2 
	BYTE	W23
	BYTE		N05   
	BYTE	W01
	BYTE		        En3 
	BYTE	W24
	BYTE		        As2 
	BYTE		N05     En3 
	BYTE	W23
// 003   ----------------------------------------
	BYTE	W96
// 004   ----------------------------------------
	BYTE	W96
// 005   ----------------------------------------
feb20200423182207_3_005:
	BYTE	W01
	BYTE		N05     As2   v127
	BYTE		N05     En3 
	BYTE	W24
	BYTE		        As2 
	BYTE		N05     En3 
	BYTE	W23
	BYTE		N05   
	BYTE	W01
	BYTE		        As2 
	BYTE	W23
	BYTE		        En3 
	BYTE	W01
	BYTE		        As2 
	BYTE	W23
	BYTE	PEND
// 006   ----------------------------------------
	BYTE	W01
	BYTE		N05   
	BYTE		N05     En3 
	BYTE	W23
	BYTE		N05   
	BYTE	W01
	BYTE		        As2 
	BYTE	W23
	BYTE		N05   
	BYTE	W01
	BYTE		        En3 
	BYTE	W24
	BYTE		        As2 
	BYTE		N05     En3 
	BYTE	W23
// 007   ----------------------------------------
	BYTE		N05   
	BYTE	W01
	BYTE		        Bn2 
	BYTE	W23
	BYTE		N05   
	BYTE	W01
	BYTE		        En3 
	BYTE	W24
	BYTE		        Bn2 
	BYTE		N05     En3 
	BYTE	W24
	BYTE		        Bn2 
	BYTE		N05     En3 
	BYTE	W23
// 008   ----------------------------------------
	BYTE		N05   
	BYTE	W01
	BYTE		        Bn2 
	BYTE	W24
	BYTE		N05   
	BYTE		N05     En3 
	BYTE	W24
	BYTE		        Bn2 
	BYTE		N05     En3 
	BYTE	W23
	BYTE		N05   
	BYTE	W01
	BYTE		        Bn2 
	BYTE	W23
// 009   ----------------------------------------
	BYTE	W01
	BYTE		        As2 
	BYTE		N05     En3 
	BYTE	W24
	BYTE		        As2 
	BYTE		N05     En3 
	BYTE	W23
	BYTE		N05   
	BYTE	W01
	BYTE		        As2 
	BYTE	W23
	BYTE		N05   
	BYTE	W01
	BYTE		        En3 
	BYTE	W23
// 010   ----------------------------------------
	BYTE	W01
	BYTE		N04     As2 
	BYTE		N04     En3 
	BYTE	W24
	BYTE		N05     As2 
	BYTE		N05     En3 
	BYTE	W23
	BYTE		        As2 
	BYTE	W01
	BYTE		        En3 
	BYTE	W23
	BYTE		N10     As2 
	BYTE	W01
	BYTE		        En3 
	BYTE	W23
// 011   ----------------------------------------
	BYTE	W01
	BYTE		N05     As2 
	BYTE		N05     En3 
	BYTE	W24
	BYTE		        As2 
	BYTE		N05     En3 
	BYTE	W24
	BYTE		        As2 
	BYTE		N05     En3 
	BYTE	W24
	BYTE		N04     As2 
	BYTE		N05     En3 
	BYTE	W23
// 012   ----------------------------------------
feb20200423182207_3_012:
	BYTE	W01
	BYTE		N05     As2   v127
	BYTE		N05     En3 
	BYTE	W24
	BYTE		        As2 
	BYTE		N05     En3 
	BYTE	W24
	BYTE		        As2 
	BYTE		N05     En3 
	BYTE	W24
	BYTE		        As2 
	BYTE		N04     En3 
	BYTE	W23
	BYTE	PEND
// 013   ----------------------------------------
	BYTE	PATT
	 POIN2	feb20200423182207_3_005
// 014   ----------------------------------------
feb20200423182207_3_014:
	BYTE	W01
	BYTE		N05     As2   v127
	BYTE		N05     En3 
	BYTE	W24
	BYTE		        As2 
	BYTE		N05     En3 
	BYTE	W24
	BYTE		        As2 
	BYTE		N05     En3 
	BYTE	W24
	BYTE		        As2 
	BYTE		N05     En3 
	BYTE	W23
	BYTE	PEND
// 015   ----------------------------------------
	BYTE	W01
	BYTE		        As2 
	BYTE		N04     En3 
	BYTE	W24
	BYTE		N05     As2 
	BYTE		N05     En3 
	BYTE	W24
	BYTE		        As2 
	BYTE		N05     En3 
	BYTE	W24
	BYTE		        As2 
	BYTE		N05     En3 
	BYTE	W23
// 016   ----------------------------------------
	BYTE	PATT
	 POIN2	feb20200423182207_3_012
// 017   ----------------------------------------
	BYTE	PATT
	 POIN2	feb20200423182207_3_014
// 018   ----------------------------------------
	BYTE	W01
	BYTE		N05     As2   v127
	BYTE		N05     En3 
	BYTE	W24
	BYTE		N04     As2 
	BYTE		N05     En3 
	BYTE	W24
	BYTE		        As2 
	BYTE		N05     En3 
	BYTE	W24
	BYTE		        As2 
	BYTE		N05     En3 
	BYTE	W23
// 019   ----------------------------------------
	BYTE	W01
	BYTE		        As2 
	BYTE		N05     En3 
	BYTE	W24
	BYTE		        As2 
	BYTE		N05     En3 
	BYTE	W24
	BYTE		        As2 
	BYTE		N05     En3 
	BYTE	W23
	BYTE		N05   
	BYTE	W01
	BYTE		        As2 
	BYTE	W23
// 020   ----------------------------------------
	BYTE	W01
	BYTE		N05   
	BYTE		N05     En3 
	BYTE	W24
	BYTE		        As2 
	BYTE		N05     En3 
	BYTE	W23
	BYTE		        As2 
	BYTE	W01
	BYTE		        En3 
	BYTE	W24
	BYTE		        As2 
	BYTE		N05     En3 
	BYTE	W23
// 021   ----------------------------------------
	BYTE	W84
	BYTE		N10     Cn4 
	BYTE	W12
// 022   ----------------------------------------
	BYTE		        Gn3 
	BYTE	W11
	BYTE		        Gs3 
	BYTE	W12
	BYTE		        Ds4 
	BYTE	W12
	BYTE		        Dn4 
	BYTE	W12
	BYTE		        An3 
	BYTE	W12
	BYTE		        Gn4 
	BYTE	W36
	BYTE	W01
// 023   ----------------------------------------
	BYTE	W60
	BYTE	W01
	BYTE		N04     Bn2 
	BYTE	W23
	BYTE		N05   
	BYTE	W12
// 024   ----------------------------------------
	BYTE	W13
	BYTE		N05   
	BYTE	W23
	BYTE		N05   
	BYTE	W24
	BYTE	W01
	BYTE		N04   
	BYTE	W24
	BYTE		N04   
	BYTE	W11
// 025   ----------------------------------------
	BYTE	W13
	BYTE		N05   
	BYTE	W23
	BYTE		N05   
	BYTE	W24
	BYTE	W01
	BYTE		N04     An2 
	BYTE		N04     Dn3 
	BYTE	W23
	BYTE		N05     An2 
	BYTE		N05     Dn3 
	BYTE	W12
// 026   ----------------------------------------
feb20200423182207_3_026:
	BYTE	W12
	BYTE		N05     An2   v127
	BYTE		N05     Dn3 
	BYTE	W24
	BYTE		        An2 
	BYTE		N05     Dn3 
	BYTE	W24
	BYTE	W01
	BYTE		N04     An2 
	BYTE		N04     Dn3 
	BYTE	W23
	BYTE		N05     An2 
	BYTE		N05     Dn3 
	BYTE	W12
	BYTE	PEND
// 027   ----------------------------------------
	BYTE	PATT
	 POIN2	feb20200423182207_3_026
// 028   ----------------------------------------
	BYTE	W13
	BYTE		N04     An2   v127
	BYTE		N04     Dn3 
	BYTE	W24
	BYTE		N05     An2 
	BYTE		N05     Dn3 
	BYTE	W23
	BYTE		        An2 
	BYTE		N05     Dn3 
	BYTE	W24
	BYTE		        An2 
	BYTE		N05     Dn3 
	BYTE	W12
// 029   ----------------------------------------
	BYTE	W13
	BYTE		N04     An2 
	BYTE		N04     Dn3 
	BYTE	W24
	BYTE		N05     An2 
	BYTE		N05     Dn3 
	BYTE	W23
	BYTE		        An2 
	BYTE		N05     En3 
	BYTE	W24
	BYTE		N05   
	BYTE	W01
	BYTE		N04     An2 
	BYTE	W11
// 030   ----------------------------------------
	BYTE	W13
	BYTE		N04   
	BYTE		N04     En3 
	BYTE	W23
	BYTE		N05     An2 
	BYTE		N05     En3 
	BYTE	W24
	BYTE		        Ds2 
	BYTE	W01
	BYTE		N04     Cn3 
	BYTE	W24
	BYTE		        Ds2 
	BYTE		N04     Cn3 
	BYTE	W11
// 031   ----------------------------------------
	BYTE	W13
	BYTE		N04   
	BYTE	W01
	BYTE		        Ds2 
	BYTE	W22
	BYTE		N05   
	BYTE		N05     Cn3 
	BYTE	W24
	BYTE		        An2 
	BYTE	W01
	BYTE		N04     Dn3 
	BYTE	W23
	BYTE		N05     An2 
	BYTE	W01
	BYTE		N04     Dn3 
	BYTE	W11
// 032   ----------------------------------------
	BYTE	W13
	BYTE		N04   
	BYTE	W01
	BYTE		        An2 
	BYTE	W22
	BYTE		N05   
	BYTE		N05     Dn3 
	BYTE	W24
	BYTE		        As2 
	BYTE	W01
	BYTE		N04     Ds2 
	BYTE	W23
	BYTE		N05   
	BYTE		N05     As2 
	BYTE	W12
// 033   ----------------------------------------
	BYTE	W13
	BYTE		N04     Ds2 
	BYTE	W01
	BYTE		        As2 
	BYTE	W22
	BYTE		N05     Ds2 
	BYTE		N05     As2 
	BYTE	W01
	BYTE		        Fs2 
	BYTE	W23
	BYTE		        An2 
	BYTE	W01
	BYTE		        Dn3 
	BYTE	W23
	BYTE		        An2 
	BYTE		N05     Dn3 
	BYTE	W12
// 034   ----------------------------------------
	BYTE	W13
	BYTE		N04   
	BYTE	W01
	BYTE		N03     An2 
	BYTE	W23
	BYTE		N05   
	BYTE		N05     Dn3 
	BYTE	W23
	BYTE		        Bn2 
	BYTE	W01
	BYTE		N04     Ds2 
	BYTE	W23
	BYTE		N05     Bn2 
	BYTE	W01
	BYTE		N04     Ds2 
	BYTE	W11
// 035   ----------------------------------------
	BYTE	W14
	BYTE		N03   
	BYTE		N03     Bn2 
	BYTE	W22
	BYTE		N05     Ds2 
	BYTE		N05     Bn2 
	BYTE	W60
// 036   ----------------------------------------
	BYTE	W96
// 037   ----------------------------------------
	BYTE	W96
// 038   ----------------------------------------
	BYTE	W96
// 039   ----------------------------------------
	BYTE	W96
// 040   ----------------------------------------
	BYTE	W96
// 041   ----------------------------------------
	BYTE	W96
// 042   ----------------------------------------
	BYTE	W96
// 043   ----------------------------------------
	BYTE	W60
	BYTE	W01
	BYTE		N21     Dn3 
	BYTE	W23
	BYTE		N03     An2 
	BYTE	W07
	BYTE		N04     Bn2 
	BYTE	W05
// 044   ----------------------------------------
	BYTE	W03
	BYTE		        Cs3 
	BYTE	W09
	BYTE		N68     Dn3 
	BYTE	W68
	BYTE	W03
	BYTE		N05     Fn3 
	BYTE	W07
	BYTE		        As3 
	BYTE	W06
// 045   ----------------------------------------
	BYTE	W02
	BYTE		N06     Dn4 
	BYTE	W08
	BYTE		N22     Fn4 
	BYTE	W24
	BYTE		N10     Cs4 
	BYTE	W11
	BYTE		        As3 
	BYTE	W12
	BYTE		N92     An3 
	BYTE	W36
	BYTE	W03
// 046   ----------------------------------------
	BYTE	W56
	BYTE		N04   
	BYTE	W11
	BYTE		N04   
	BYTE	W12
	BYTE		N22     As3 
	BYTE	W17
// 047   ----------------------------------------
	BYTE	W07
	BYTE		N04     An3 
	BYTE	W11
	BYTE		N04   
	BYTE	W12
	BYTE		N22     As3 
	BYTE	W66
// 048   ----------------------------------------
	BYTE	W30
	BYTE	W01
	BYTE		N03     An3 
	BYTE	W08
	BYTE		N02   
	BYTE	W08
	BYTE		        Gn3 
	BYTE	W07
	BYTE		N68     Fn3 
	BYTE	W42
// 049   ----------------------------------------
	BYTE	W96
// 050   ----------------------------------------
	BYTE	W30
	BYTE		N03     Dn4 
	BYTE	W01
	BYTE		        An3 
	BYTE	W07
	BYTE		N03   
	BYTE		N03     Dn4 
	BYTE	W08
	BYTE		        Fn3 
	BYTE		N03     An3 
	BYTE	W09
	BYTE		N68     Dn3 
	BYTE		N68     Fn3 
	BYTE	W40
	BYTE	W01
// 051   ----------------------------------------
	BYTE	W78
	BYTE		N22   
	BYTE	W18
// 052   ----------------------------------------
	BYTE	W07
	BYTE		        En3 
	BYTE	W23
	BYTE		        Fs3 
	BYTE	W24
	BYTE		        Cs3 
	BYTE	W01
	BYTE		        As2 
	BYTE	W24
	BYTE		N68     Cs3 
	BYTE		N68     Fn3 
	BYTE	W17
// 053   ----------------------------------------
feb20200423182207_3_053:
	BYTE	W54
	BYTE	W01
	BYTE		TIE     Fn3   v127
	BYTE		TIE     As3 
	BYTE	W40
	BYTE	W01
	BYTE	PEND
// 054   ----------------------------------------
	BYTE	W76
	BYTE	W01
	BYTE		EOT     Fn3 
	BYTE		        As3 
	BYTE	W02
	BYTE		N68   
	BYTE		N68     Cs4 
	BYTE	W17
// 055   ----------------------------------------
	BYTE	W78
	BYTE		N22     Fn3 
	BYTE	W18
// 056   ----------------------------------------
	BYTE	W06
	BYTE		        En3 
	BYTE	W24
	BYTE		        Fs3 
	BYTE	W24
	BYTE	W01
	BYTE		N21     As2 
	BYTE		N22     Cs3 
	BYTE	W24
	BYTE		N68   
	BYTE		N68     Fn3 
	BYTE	W17
// 057   ----------------------------------------
	BYTE	PATT
	 POIN2	feb20200423182207_3_053
// 058   ----------------------------------------
	BYTE	W76
	BYTE	W01
	BYTE		EOT     Fn3 
	BYTE		        As3 
	BYTE	W02
	BYTE		N68     As3   v127
	BYTE		N68     Cs4 
	BYTE	W17
// 059   ----------------------------------------
	BYTE	W54
	BYTE		N21     Dn3 
	BYTE	W23
	BYTE		N03     An2 
	BYTE	W08
	BYTE		N04     Bn2 
	BYTE	W08
	BYTE		        Cs3 
	BYTE	W03
// 060   ----------------------------------------
	BYTE	W06
	BYTE		N68     Dn3 
	BYTE	W72
	BYTE		N05     Fn3 
	BYTE	W07
	BYTE		N06     As3 
	BYTE	W08
	BYTE		N05     Dn4 
	BYTE	W03
// 061   ----------------------------------------
	BYTE	W06
	BYTE		N22     Fn4 
	BYTE	W24
	BYTE		N09     Cs4 
	BYTE	W11
	BYTE		N10     As3 
	BYTE	W13
	BYTE		N92     An3 
	BYTE	W42
// 062   ----------------------------------------
	BYTE	W54
	BYTE		N03   
	BYTE	W11
	BYTE		N04   
	BYTE	W13
	BYTE		N22     As3 
	BYTE	W18
// 063   ----------------------------------------
	BYTE	W06
	BYTE		N04     An3 
	BYTE	W12
	BYTE		N04   
	BYTE	W12
	BYTE		N22     As3 
	BYTE	W66
// 064   ----------------------------------------
	BYTE	W96
// 065   ----------------------------------------
	BYTE	W96
// 066   ----------------------------------------
	BYTE	W28
	BYTE	W01
	BYTE		N44     Dn4 
	BYTE	W24
	BYTE	W01
	BYTE		        An3 
	BYTE	W23
	BYTE		        Fn3 
	BYTE	W19
// 067   ----------------------------------------
	BYTE	W05
	BYTE		        Dn3 
	BYTE	W24
	BYTE	W01
	BYTE		N22     An2 
	BYTE	W24
	BYTE		N04     Bn1 
	BYTE		N04     En2 
	BYTE	W24
	BYTE		        Bn1 
	BYTE		N04     En2 
	BYTE		N09     Bn3 
	BYTE	W10
	BYTE		N11     Gn3 
	BYTE	W08
// 068   ----------------------------------------
	BYTE	W05
	BYTE		N05     En2 
	BYTE		N09     En4 
	BYTE	W01
	BYTE		N04     Bn1 
	BYTE	W10
	BYTE		N11     Bn3 
	BYTE	W13
	BYTE		N10     Gn4 
	BYTE	W01
	BYTE		N04     Bn1 
	BYTE		N04     En2 
	BYTE	W10
	BYTE		N11     En4 
	BYTE	W13
	BYTE		N10     As4 
	BYTE	W01
	BYTE		N04     Bn1 
	BYTE		N04     En2 
	BYTE	W10
	BYTE		N80     Gn4 
	BYTE	W14
	BYTE		N04     Bn1 
	BYTE		N04     En2 
	BYTE		N09     Bn2 
	BYTE	W11
	BYTE		N10     Gn2 
	BYTE	W07
// 069   ----------------------------------------
	BYTE	W06
	BYTE		N04     Bn1 
	BYTE		N04     En2 
	BYTE		N09     En3 
	BYTE	W11
	BYTE		N10     Bn2 
	BYTE	W13
	BYTE		N04     Bn1 
	BYTE		N04     En2 
	BYTE		N09     Gn3 
	BYTE	W10
	BYTE		N11     En3 
	BYTE	W14
	BYTE		N04     Fs1 
	BYTE		N04     Bn1 
	BYTE		N32     Bn3 
	BYTE	W23
	BYTE		N05     Fs1 
	BYTE		N09     Cn4 
	BYTE	W01
	BYTE		N05     Bn1 
	BYTE		N09     Bn2 
	BYTE	W10
	BYTE		N11     Fs2 
	BYTE		N24     Bn3 
	BYTE	W08
// 070   ----------------------------------------
	BYTE	W05
	BYTE		N10     As3 
	BYTE	W01
	BYTE		N05     Fs1 
	BYTE		N05     Bn1 
	BYTE		N09     Ds3 
	BYTE	W10
	BYTE		N32     Bn3 
	BYTE	W01
	BYTE		N10     Bn2 
	BYTE	W12
	BYTE		N05     Fs1 
	BYTE	W01
	BYTE		N04     Bn1 
	BYTE		N09     Fs3 
	BYTE	W10
	BYTE		N11     Ds3 
	BYTE	W14
	BYTE		N04     Fs1 
	BYTE		N04     Bn1 
	BYTE		N92     Bn2 
	BYTE		N92     Ds3 
	BYTE	W24
	BYTE		N04     Fs1 
	BYTE		N04     Bn1 
	BYTE		N09     Cn4 
	BYTE	W11
	BYTE		N10     Bn3 
	BYTE	W07
// 071   ----------------------------------------
	BYTE	W06
	BYTE		N04     Fs1 
	BYTE		N04     Bn1 
	BYTE		N15     Dn4 
	BYTE	W17
	BYTE		N16     Cs4 
	BYTE	W07
	BYTE		N04     Fs1 
	BYTE		N05     Bn1 
	BYTE	W11
	BYTE		N10     Cn4 
	BYTE	W13
	BYTE		N92     Bn3 
	BYTE	W24
	BYTE		N09     Ds3 
	BYTE	W11
	BYTE		N10   
	BYTE	W07
// 072   ----------------------------------------
	BYTE	W06
	BYTE		N21   
	BYTE	W23
	BYTE		N22     Bn2 
	BYTE	W48
	BYTE	W01
	BYTE		N10     Fs3 
	BYTE	W11
	BYTE		N10   
	BYTE	W07
// 073   ----------------------------------------
	BYTE	W06
	BYTE		N21   
	BYTE	W23
	BYTE		N22     Ds3 
	BYTE	W24
	BYTE	W01
	BYTE		N04     Bn1 
	BYTE		N04     En2 
	BYTE	W24
	BYTE		        Bn1 
	BYTE		N04     En2 
	BYTE		N09     Bn3 
	BYTE	W10
	BYTE		N11     Gn3 
	BYTE	W08
// 074   ----------------------------------------
	BYTE	W05
	BYTE		N09     En4 
	BYTE	W01
	BYTE		N05     Bn1 
	BYTE		N05     En2 
	BYTE	W10
	BYTE		N11     Bn3 
	BYTE	W13
	BYTE		N09     Gn4 
	BYTE	W01
	BYTE		N05     Bn1 
	BYTE		N04     En2 
	BYTE	W10
	BYTE		N11     En4 
	BYTE	W14
	BYTE		N04     Bn1 
	BYTE		N04     En2 
	BYTE		N09     As4 
	BYTE	W10
	BYTE		N80     Gn4 
	BYTE	W14
	BYTE		N05     Bn1 
	BYTE		N04     En2 
	BYTE		N09     Bn2 
	BYTE	W11
	BYTE		N10     Gn2 
	BYTE	W07
// 075   ----------------------------------------
	BYTE	W06
	BYTE		N04     Bn1 
	BYTE		N04     En2 
	BYTE		N09     En3 
	BYTE	W11
	BYTE		N10     Bn2 
	BYTE	W13
	BYTE		N04     Bn1 
	BYTE		N04     En2 
	BYTE		N09     Gn3 
	BYTE	W10
	BYTE		N11     En3 
	BYTE	W14
	BYTE		N04     Fs1 
	BYTE		N04     Bn1 
	BYTE		N32     Bn3 
	BYTE	W24
	BYTE		N04     Fs1 
	BYTE		N04     Bn1 
	BYTE		N09     Bn2 
	BYTE		N09     Cn4 
	BYTE	W10
	BYTE		N24     Bn3 
	BYTE	W01
	BYTE		N10     Fs2 
	BYTE	W07
// 076   ----------------------------------------
	BYTE	W05
	BYTE		        As3 
	BYTE	W01
	BYTE		N05     Fs1 
	BYTE		N05     Bn1 
	BYTE		N09     Ds3 
	BYTE	W11
	BYTE		N10     Bn2 
	BYTE		N32     Bn3 
	BYTE	W13
	BYTE		N04     Fs1 
	BYTE		N04     Bn1 
	BYTE		N09     Fs3 
	BYTE	W10
	BYTE		N11     Ds3 
	BYTE	W14
	BYTE		N04     Fs1 
	BYTE		N04     Bn1 
	BYTE		N92     Bn2 
	BYTE		N92     Ds3 
	BYTE	W24
	BYTE		N04     Fs1 
	BYTE		N04     Bn1 
	BYTE		N09     Cn4 
	BYTE	W11
	BYTE		N10     Bn3 
	BYTE	W07
// 077   ----------------------------------------
	BYTE	W06
	BYTE		N04     Fs1 
	BYTE		N04     Bn1 
	BYTE		N15     Dn4 
	BYTE	W17
	BYTE		N16     Cs4 
	BYTE	W07
	BYTE		N04     Fs1 
	BYTE		N05     Bn1 
	BYTE	W11
	BYTE		N11     Cn4 
	BYTE	W13
	BYTE		N24     Bn3 
	BYTE	W24
	BYTE		N04     Fs1 
	BYTE		N04     Bn1 
	BYTE		N09     Fs3 
	BYTE		N10     Bn3 
	BYTE	W11
	BYTE		        Fs3 
	BYTE		N56     Bn3 
	BYTE	W07
// 078   ----------------------------------------
	BYTE	W06
	BYTE		N04     Fs1 
	BYTE		N04     Bn1 
	BYTE		N15     Ds3 
	BYTE		N15     Dn4 
	BYTE	W17
	BYTE		N16     En3 
	BYTE		N16     Cs4 
	BYTE	W06
	BYTE		N05     Fs1 
	BYTE		N05     Bn1 
	BYTE	W12
	BYTE		N10     Fn3 
	BYTE		N10     Cn4 
	BYTE	W13
	BYTE		N24     Fs3 
	BYTE	W24
	BYTE		N10   
	BYTE	W11
	BYTE		N13   
	BYTE	W07
// 079   ----------------------------------------
	BYTE	W06
	BYTE		N44   
	BYTE	W23
	BYTE		N22     Ds3 
	BYTE	W24
	BYTE	W01
	BYTE		N09     As3 
	BYTE	W10
	BYTE		N05     Gn3 
	BYTE	W14
	BYTE		N09     As3 
	BYTE	W11
	BYTE		N04     Gn3 
	BYTE	W07
// 080   ----------------------------------------
	BYTE	W05
	BYTE		        As3 
	BYTE	W06
	BYTE		        An3 
	BYTE	W06
	BYTE		N10     Gn3 
	BYTE	W13
	BYTE		N09     Fs3 
	BYTE	W11
	BYTE		N10     Gn3 
	BYTE	W13
	BYTE		N03     As3 
	BYTE	W05
	BYTE		N04     An3 
	BYTE	W05
	BYTE		N11     Gn3 
	BYTE	W14
	BYTE		N09     Fs3 
	BYTE	W10
	BYTE		N11     Gn3 
	BYTE	W08
// 081   ----------------------------------------
	BYTE	W06
	BYTE		N09     An3 
	BYTE	W10
	BYTE		N04     Gn3 
	BYTE	W14
	BYTE		N09     As3 
	BYTE	W10
	BYTE		N05     An3 
	BYTE	W14
	BYTE		N09     Bn3 
	BYTE	W11
	BYTE		N04     Gn3 
	BYTE	W13
	BYTE		N09     Bn3 
	BYTE	W10
	BYTE		N04     Gn3 
	BYTE	W08
// 082   ----------------------------------------
	BYTE	W06
	BYTE		        Bn3 
	BYTE	W05
	BYTE		        An3 
	BYTE	W05
	BYTE		N11     Gn3 
	BYTE	W14
	BYTE		N09     Fs3 
	BYTE	W11
	BYTE		N04     Gn3 
	BYTE	W12
	BYTE		N03     Bn3 
	BYTE	W05
	BYTE		N04     An3 
	BYTE	W06
	BYTE		N11     Gn3 
	BYTE	W14
	BYTE		N09     Fs3 
	BYTE	W10
	BYTE		N04     Gn3 
	BYTE	W08
// 083   ----------------------------------------
	BYTE	W06
	BYTE		N09     An3 
	BYTE	W10
	BYTE		N05     Gn3 
	BYTE	W14
	BYTE		N09     Bn3 
	BYTE	W11
	BYTE		N04     Gn3 
	BYTE	W13
	BYTE		N09     As3 
	BYTE	W10
	BYTE		N04     Gn3 
	BYTE	W14
	BYTE		N09     As3 
	BYTE	W11
	BYTE		N04     Gn3 
	BYTE	W07
// 084   ----------------------------------------
	BYTE	W05
	BYTE		N03     As3 
	BYTE	W06
	BYTE		N04     An3 
	BYTE	W06
	BYTE		N10     Gn3 
	BYTE	W12
	BYTE		        Fs3 
	BYTE	W11
	BYTE		N11     Gn3 
	BYTE	W14
	BYTE		N04     As3 
	BYTE	W05
	BYTE		        An3 
	BYTE	W06
	BYTE		N10     Gn3 
	BYTE	W13
	BYTE		N09     Fs3 
	BYTE	W10
	BYTE		N11     Gn3 
	BYTE	W08
// 085   ----------------------------------------
	BYTE	W06
	BYTE		N09     An3 
	BYTE	W11
	BYTE		N04     Gn3 
	BYTE	W13
	BYTE		N09     As3 
	BYTE	W10
	BYTE		N05     An3 
	BYTE	W14
	BYTE		N09     Bn3 
	BYTE	W10
	BYTE		N05     Gn3 
	BYTE	W14
	BYTE		N09     Bn3 
	BYTE	W10
	BYTE		N05     Gn3 
	BYTE	W08
// 086   ----------------------------------------
	BYTE	W05
	BYTE		N04     Bn3 
	BYTE	W06
	BYTE		        An3 
	BYTE	W05
	BYTE		N10     Gn3 
	BYTE	W14
	BYTE		N09     Fs3 
	BYTE	W10
	BYTE		N05     Gn3 
	BYTE	W13
	BYTE		N04     Bn3 
	BYTE	W06
	BYTE		        An3 
	BYTE	W05
	BYTE		N11     Gn3 
	BYTE	W14
	BYTE		N09     Fs3 
	BYTE	W10
	BYTE		N04     Gn3 
	BYTE	W08
// 087   ----------------------------------------
	BYTE	W06
	BYTE		N09     An3 
	BYTE	W11
	BYTE		N04     Gn3 
	BYTE	W13
	BYTE		N09     Bn3 
	BYTE	W11
	BYTE		N04     Gn3 
	BYTE	W12
	BYTE		N10     Ds4 
	BYTE	W12
	BYTE		N04     En4 
	BYTE	W12
	BYTE		N10     En3 
	BYTE	W12
	BYTE		N10   
	BYTE	W07
// 088   ----------------------------------------
	BYTE	W05
	BYTE		N16     Gn3 
	BYTE	W18
	BYTE		        Fs3 
	BYTE	W18
	BYTE		N10     Fn3 
	BYTE	W32
	BYTE	W03
	BYTE		N11     Ds4 
	BYTE	W13
	BYTE		N05     En4 
	BYTE	W07
// 089   ----------------------------------------
	BYTE	W05
	BYTE		N16     Bn3 
	BYTE	W17
	BYTE		N17     Gn3 
	BYTE	W19
	BYTE		N16     En3 
	BYTE	W12
	BYTE		N22     Dn4 
	BYTE	W24
	BYTE		N68     Cs4 
	BYTE	W19
// 090   ----------------------------------------
	BYTE	W96
// 091   ----------------------------------------
	BYTE	W96
// 092   ----------------------------------------
	BYTE	W96
// 093   ----------------------------------------
	BYTE	W64
	BYTE	W01
	BYTE		N04     Dn3   v100
	BYTE		N04     Fn3 
	BYTE		N03     An3 
	BYTE	W11
	BYTE		N04     Dn3 
	BYTE		N04     Fn3 
	BYTE	W01
	BYTE		        An3 
	BYTE	W19
// 094   ----------------------------------------
	BYTE	W04
	BYTE		        Ds3 
	BYTE	W01
	BYTE		        Cn3 
	BYTE		N04     Gn3 
	BYTE	W11
	BYTE		        Cn3 
	BYTE		N04     Ds3 
	BYTE	W01
	BYTE		        Gn3 
	BYTE	W24
	BYTE		        Ds3 
	BYTE		N04     Fs3 
	BYTE		N04     As3 
	BYTE	W12
	BYTE		        Ds3 
	BYTE		N04     Fs3 
	BYTE		N04     As3 
	BYTE	W24
	BYTE		        Dn3 
	BYTE		N04     Fn3 
	BYTE		N04     An3 
	BYTE	W11
	BYTE		        Dn3 
	BYTE		N04     Fn3 
	BYTE	W01
	BYTE		        An3 
	BYTE	W07
// 095   ----------------------------------------
	BYTE	W17
	BYTE		        Cn3 
	BYTE		N04     Gn3 
	BYTE	W11
	BYTE		        Cn3 
	BYTE		N04     Gn3 
	BYTE	W24
	BYTE		N02     Gs3 
	BYTE		N02     Cn4 
	BYTE	W06
	BYTE		        Gs3 
	BYTE		N02     Cn4 
	BYTE	W06
	BYTE		        Gs3 
	BYTE		N02     Cn4 
	BYTE	W08
	BYTE		N03     Dn4 
	BYTE	W05
	BYTE		N04     Cn4 
	BYTE	W06
	BYTE		N10     As3 
	BYTE	W13
// 096   ----------------------------------------
	BYTE		        An3 
	BYTE	W11
	BYTE		N11     Cn4 
	BYTE	W13
	BYTE		N10     As3 
	BYTE	W11
	BYTE		N11     Gn3 
	BYTE	W13
	BYTE		N32     An3 
	BYTE	W36
	BYTE		N04     Gn3 
	BYTE	W05
	BYTE		N05     An3 
	BYTE	W07
// 097   ----------------------------------------
	BYTE		N04     As3 
	BYTE	W05
	BYTE		N05     An3 
	BYTE	W07
	BYTE		N04     Gn3 
	BYTE	W05
	BYTE		N05     Fn3 
	BYTE	W07
	BYTE		N10     En3 
	BYTE	W11
	BYTE		        Gn3 
	BYTE	W13
	BYTE		        Fn3 
	BYTE	W11
	BYTE		        Dn3 
	BYTE	W13
	BYTE		N22     An3 
	BYTE		N22     Dn4 
	BYTE	W24
// 098   ----------------------------------------
	BYTE		        An3 
	BYTE		N22     Dn4 
	BYTE	W24
	BYTE		N16   
	BYTE	W36
	BYTE		N10   
	BYTE	W12
	BYTE		N92     Gs3 
	BYTE		N92     Fn4 
	BYTE	W24
// 099   ----------------------------------------
	BYTE	W72
	BYTE		N22     An3 
	BYTE		N22     Dn4 
	BYTE	W24
// 100   ----------------------------------------
	BYTE		        An3 
	BYTE		N22     Dn4 
	BYTE	W24
	BYTE		N16     An3 
	BYTE		N16     Dn4 
	BYTE	W18
	BYTE		        An3 
	BYTE		N16     Dn4 
	BYTE	W18
	BYTE		N10     An3 
	BYTE		N10     Dn4 
	BYTE	W12
	BYTE		N68     Gs3 
	BYTE		N68     Fn4 
	BYTE	W24
// 101   ----------------------------------------
	BYTE	W96
// 102   ----------------------------------------
	BYTE	W96
// 103   ----------------------------------------
	BYTE	W96
// 104   ----------------------------------------
	BYTE	W96
// 105   ----------------------------------------
	BYTE	W96
// 106   ----------------------------------------
	BYTE	W96
// 107   ----------------------------------------
	BYTE	W96
// 108   ----------------------------------------
	BYTE	W96
// 109   ----------------------------------------
	BYTE	W96
// 110   ----------------------------------------
feb20200423182207_3_110:
	BYTE		TIE     Fn3   v127
	BYTE		TIE     An3 
	BYTE	W96
	BYTE	PEND
// 111   ----------------------------------------
	BYTE	W68
	BYTE	W02
	BYTE		EOT     Fn3 
	BYTE		        An3 
	BYTE	W24
	BYTE	W02
// 112   ----------------------------------------
	BYTE	PATT
	 POIN2	feb20200423182207_3_110
// 113   ----------------------------------------
	BYTE	W68
	BYTE	W02
	BYTE		EOT     Fn3 
	BYTE		        An3 
	BYTE	W24
	BYTE	W02
// 114   ----------------------------------------
	BYTE	PATT
	 POIN2	feb20200423182207_3_110
// 115   ----------------------------------------
	BYTE	W68
	BYTE	W01
	BYTE		EOT     An3 
	BYTE	W01
	BYTE		        Fn3 
	BYTE	W24
	BYTE	W02
// 116   ----------------------------------------
	BYTE		TIE     Fn3   v127
	BYTE	W01
	BYTE		VOICE   14
	BYTE		VOL     127*feb20200423182207_mvl/mxv
	BYTE		TIE     An3 
	BYTE	W92
	BYTE	W03
// 117   ----------------------------------------
	BYTE	W68
	BYTE	W01
	BYTE		EOT     Fn3 
	BYTE	W01
	BYTE		        An3 
	BYTE	W24
	BYTE	W02
// 118   ----------------------------------------
	BYTE	W72
	BYTE		N92     Dn3 
	BYTE	W24
// 119   ----------------------------------------
	BYTE	W96
// 120   ----------------------------------------
	BYTE	W72
	BYTE		N23   
	BYTE	W24
// 121   ----------------------------------------
	BYTE	W68
	BYTE	W03
	BYTE		VOICE   68
	BYTE	W24
	BYTE	W01
// 122   ----------------------------------------
	BYTE	W96
// 123   ----------------------------------------
	BYTE	W96
// 124   ----------------------------------------
	BYTE	W96
// 125   ----------------------------------------
	BYTE	W96
// 126   ----------------------------------------
	BYTE	W96
// 127   ----------------------------------------
	BYTE	FINE

//**************** Track 4 (Midi-Chn.4) ****************//

feb20200423182207_4:
	BYTE	KEYSH   feb20200423182207_key+0
// 000   ----------------------------------------
	BYTE	W01
	BYTE		VOICE   48
	BYTE		VOL     77*feb20200423182207_mvl/mxv
	BYTE		PAN     c_v-32
	BYTE	W92
	BYTE	W03
// 001   ----------------------------------------
	BYTE	W96
// 002   ----------------------------------------
	BYTE	W96
// 003   ----------------------------------------
	BYTE		N11     As4   v127
	BYTE		N10     En5 
	BYTE	W12
	BYTE		N05     An4 
	BYTE	W12
	BYTE		N11     As4 
	BYTE		N11     En5 
	BYTE	W12
	BYTE		N05     An4 
	BYTE	W12
	BYTE		N11     As4 
	BYTE		N10     En5 
	BYTE	W12
	BYTE		N05     An4 
	BYTE	W12
	BYTE		N11     As4 
	BYTE		N11     En5 
	BYTE	W12
	BYTE		N05     An4 
	BYTE	W12
// 004   ----------------------------------------
	BYTE		N10     As4 
	BYTE		N10     En5 
	BYTE	W12
	BYTE		N04     An4 
	BYTE	W12
	BYTE		N10     As4 
	BYTE		N11     En5 
	BYTE	W12
	BYTE		N05     An4 
	BYTE	W12
	BYTE		N11     As4 
	BYTE		N10     En5 
	BYTE	W12
	BYTE		N05     An4 
	BYTE	W12
	BYTE		N10     As4 
	BYTE		N10     En5 
	BYTE	W12
	BYTE		N04     An4 
	BYTE	W12
// 005   ----------------------------------------
	BYTE	W96
// 006   ----------------------------------------
	BYTE	W96
// 007   ----------------------------------------
	BYTE	W01
	BYTE		        Bn4 
	BYTE	W03
	BYTE		        Cn5 
	BYTE	W04
	BYTE		N05     Bn4 
	BYTE	W04
	BYTE		        As4 
	BYTE	W04
	BYTE		N04     Bn4 
	BYTE	W04
	BYTE		N05     As4 
	BYTE	W05
	BYTE		N04     An4 
	BYTE	W03
	BYTE		        As4 
	BYTE	W04
	BYTE		N05     An4 
	BYTE	W04
	BYTE		        Gn4 
	BYTE	W04
	BYTE		N04     An4 
	BYTE	W04
	BYTE		N05     Gn4 
	BYTE	W05
	BYTE		N04     Bn4 
	BYTE	W03
	BYTE		N05     Cn5 
	BYTE	W04
	BYTE		        Bn4 
	BYTE	W04
	BYTE		        As4 
	BYTE	W04
	BYTE		N04     Bn4 
	BYTE	W04
	BYTE		N06     As4 
	BYTE	W05
	BYTE		N03     An4 
	BYTE	W03
	BYTE		N05     As4 
	BYTE	W04
	BYTE		        An4 
	BYTE	W04
	BYTE		        Gn4 
	BYTE	W04
	BYTE		N04     An4 
	BYTE	W04
	BYTE		N05     Gn4 
	BYTE	W04
// 008   ----------------------------------------
	BYTE	W01
	BYTE		N04     Bn4 
	BYTE	W03
	BYTE		N05     Cn5 
	BYTE	W04
	BYTE		        Bn4 
	BYTE	W04
	BYTE		        As4 
	BYTE	W04
	BYTE		        Bn4 
	BYTE	W04
	BYTE		N06     As4 
	BYTE	W05
	BYTE		N04     An4 
	BYTE	W03
	BYTE		        As4 
	BYTE	W04
	BYTE		N05     An4 
	BYTE	W04
	BYTE		        Gn4 
	BYTE	W04
	BYTE		        An4 
	BYTE	W04
	BYTE		N06     Gn4 
	BYTE	W05
	BYTE		N03     Fs4 
	BYTE	W03
	BYTE		N04     Gn4 
	BYTE	W04
	BYTE		N05     Fs4 
	BYTE	W04
	BYTE		        En4 
	BYTE	W04
	BYTE		        Fs4 
	BYTE	W04
	BYTE		        En4 
	BYTE	W05
	BYTE		N04     Ds4 
	BYTE	W03
	BYTE		        En4 
	BYTE	W04
	BYTE		N05     Ds4 
	BYTE	W04
	BYTE		        Bn3 
	BYTE	W04
	BYTE		N04     Cn4 
	BYTE	W04
	BYTE		N05     Bn3 
	BYTE	W04
// 009   ----------------------------------------
	BYTE	W01
	BYTE		VOICE   71
	BYTE	W80
	BYTE	W03
	BYTE		N04     Dn3 
	BYTE	W04
	BYTE		N05     Ds3 
	BYTE	W04
	BYTE		N06     En3 
	BYTE	W04
// 010   ----------------------------------------
feb20200423182207_4_010:
	BYTE	W01
	BYTE		N03     As3   v127
	BYTE	W92
	BYTE	W03
	BYTE	PEND
// 011   ----------------------------------------
	BYTE	W96
// 012   ----------------------------------------
	BYTE	W60
	BYTE		N05     Dn3 
	BYTE	W04
	BYTE		N04     Ds3 
	BYTE	W04
	BYTE		N05     En3 
	BYTE	W05
	BYTE		N03     As3 
	BYTE	W11
	BYTE		N04     Dn3 
	BYTE	W04
	BYTE		        Ds3 
	BYTE	W04
	BYTE		N05     En3 
	BYTE	W04
// 013   ----------------------------------------
	BYTE	PATT
	 POIN2	feb20200423182207_4_010
// 014   ----------------------------------------
	BYTE	W96
// 015   ----------------------------------------
	BYTE	W96
// 016   ----------------------------------------
	BYTE	W96
// 017   ----------------------------------------
	BYTE	W96
// 018   ----------------------------------------
	BYTE	W01
	BYTE		VOL     100*feb20200423182207_mvl/mxv
	BYTE	W92
	BYTE	W03
// 019   ----------------------------------------
	BYTE	W01
	BYTE		N04     En2   v127
	BYTE	W05
	BYTE		        Fs2 
	BYTE	W06
	BYTE		        Gn2 
	BYTE	W06
	BYTE		N05     Fs3 
	BYTE	W07
	BYTE		N56     En3 
	BYTE	W56
	BYTE	W03
	BYTE		N04     Cs3 
	BYTE	W06
	BYTE		N05     Ds3 
	BYTE	W06
// 020   ----------------------------------------
	BYTE	W01
	BYTE		N09     En3 
	BYTE	W11
	BYTE		N05     Fs3 
	BYTE	W13
	BYTE		N09     En3 
	BYTE	W11
	BYTE		N05     Ds3 
	BYTE	W13
	BYTE		N09     Cs3 
	BYTE	W11
	BYTE		N11     Cn3 
	BYTE	W13
	BYTE		N09     As2 
	BYTE	W11
	BYTE		N11     Gs2 
	BYTE	W12
// 021   ----------------------------------------
	BYTE	W96
// 022   ----------------------------------------
	BYTE	W96
// 023   ----------------------------------------
	BYTE	W60
	BYTE	W01
	BYTE		VOICE   48
	BYTE	W32
	BYTE	W03
// 024   ----------------------------------------
	BYTE	W96
// 025   ----------------------------------------
	BYTE	W60
	BYTE	W01
	BYTE		N01     Fn4 
	BYTE		N01     An4 
	BYTE	W02
	BYTE		N03     Fs4 
	BYTE		N03     As4 
	BYTE	W04
	BYTE		        Gn4 
	BYTE		N02     Bn4 
	BYTE	W04
	BYTE		        Gs4 
	BYTE		N03     Cn5 
	BYTE	W04
	BYTE		N02     Cs5 
	BYTE	W01
	BYTE		        An4 
	BYTE	W03
	BYTE		        As4 
	BYTE		N03     Dn5 
	BYTE	W05
	BYTE		N02     Ds5 
	BYTE	W01
	BYTE		        Bn4 
	BYTE	W03
	BYTE		        As4 
	BYTE		N02     Dn5 
	BYTE	W03
	BYTE		N03     Cs5 
	BYTE	W01
	BYTE		N02     An4 
	BYTE	W03
	BYTE		N03     Gs4 
	BYTE		N02     Cn5 
	BYTE	W01
// 026   ----------------------------------------
	BYTE	W03
	BYTE		N03     Gn4 
	BYTE		N03     Bn4 
	BYTE	W04
	BYTE		        Fs4 
	BYTE		N03     As4 
	BYTE	W06
	BYTE		N01     Fn4 
	BYTE		N01     An4 
	BYTE	W03
	BYTE		N02     Fs4 
	BYTE		N02     As4 
	BYTE	W03
	BYTE		N03     Bn4 
	BYTE	W01
	BYTE		        Gn4 
	BYTE	W03
	BYTE		        Cn5 
	BYTE	W01
	BYTE		N02     Gs4 
	BYTE	W03
	BYTE		N03     An4 
	BYTE		N03     Cs5 
	BYTE	W04
	BYTE		        As4 
	BYTE		N03     Dn5 
	BYTE	W05
	BYTE		N02     Ds5 
	BYTE	W01
	BYTE		N01     Bn4 
	BYTE	W02
	BYTE		N03     As4 
	BYTE		N03     Dn5 
	BYTE	W04
	BYTE		        An4 
	BYTE		N02     Cs5 
	BYTE	W04
	BYTE		N03     Gs4 
	BYTE		N03     Cn5 
	BYTE	W04
	BYTE		        Gn4 
	BYTE		N02     Bn4 
	BYTE	W04
	BYTE		        Fs4 
	BYTE		N03     As4 
	BYTE	W06
	BYTE		N01     Fn4 
	BYTE		N01     An4 
	BYTE	W02
	BYTE		N03     Fs4 
	BYTE		N03     As4 
	BYTE	W04
	BYTE		        Gn4 
	BYTE		N03     Bn4 
	BYTE	W04
	BYTE		N02     Gs4 
	BYTE		N03     Cn5 
	BYTE	W05
	BYTE		N02     An4 
	BYTE		N02     Cs5 
	BYTE	W03
	BYTE		N03     As4 
	BYTE		N02     Dn5 
	BYTE	W06
	BYTE		N01     Bn4 
	BYTE		N02     Ds5 
	BYTE	W02
	BYTE		N03     As4 
	BYTE		N03     Dn5 
	BYTE	W04
	BYTE		N02     An4 
	BYTE		N03     Cs5 
	BYTE	W04
	BYTE		        Gs4 
	BYTE		N02     Cn5 
	BYTE	W01
// 027   ----------------------------------------
	BYTE	W03
	BYTE		        Gn4 
	BYTE		N03     Bn4 
	BYTE	W04
	BYTE		        As4 
	BYTE	W01
	BYTE		N02     Fs4 
	BYTE	W05
	BYTE		N01     Fn4 
	BYTE		N01     An4 
	BYTE	W02
	BYTE		N03     Fs4 
	BYTE		N03     As4 
	BYTE	W04
	BYTE		        Gn4 
	BYTE		N03     Bn4 
	BYTE	W05
	BYTE		N02     Gs4 
	BYTE		N02     Cn5 
	BYTE	W03
	BYTE		N03     An4 
	BYTE		N02     Cs5 
	BYTE	W04
	BYTE		N03     As4 
	BYTE		N03     Dn5 
	BYTE	W06
	BYTE		N02     Bn4 
	BYTE		N02     Ds5 
	BYTE	W03
	BYTE		        As4 
	BYTE		N02     Dn5 
	BYTE	W03
	BYTE		N03     Cs5 
	BYTE	W01
	BYTE		N02     An4 
	BYTE	W03
	BYTE		        Gs4 
	BYTE		N02     Cn5 
	BYTE	W04
	BYTE		N03     Gn4 
	BYTE		N03     Bn4 
	BYTE	W04
	BYTE		        Fs4 
	BYTE		N03     As4 
	BYTE	W06
	BYTE		N01     Fn4 
	BYTE		N01     An4 
	BYTE	W02
	BYTE		N03     Fs4 
	BYTE		N03     As4 
	BYTE	W04
	BYTE		        Gn4 
	BYTE		N03     Bn4 
	BYTE	W04
	BYTE		        Gs4 
	BYTE		N03     Cn5 
	BYTE	W04
	BYTE		        An4 
	BYTE		N03     Cs5 
	BYTE	W04
	BYTE		N02     Dn5 
	BYTE	W01
	BYTE		        As4 
	BYTE	W05
	BYTE		N01     Bn4 
	BYTE		N01     Ds5 
	BYTE	W03
	BYTE		N02     As4 
	BYTE		N02     Dn5 
	BYTE	W03
	BYTE		N03     Cs5 
	BYTE	W01
	BYTE		N02     An4 
	BYTE	W03
	BYTE		N03     Cn5 
	BYTE	W01
// 028   ----------------------------------------
	BYTE		N02     Gs4 
	BYTE	W03
	BYTE		N03     Bn4 
	BYTE	W01
	BYTE		N02     Gn4 
	BYTE	W03
	BYTE		N03     As4 
	BYTE	W01
	BYTE		N02     Fs4 
	BYTE	W05
	BYTE		N01     An4 
	BYTE	W01
	BYTE		        Fn4 
	BYTE	W01
	BYTE		N03     Fs4 
	BYTE		N03     As4 
	BYTE	W04
	BYTE		        Gn4 
	BYTE		N02     Bn4 
	BYTE	W04
	BYTE		        Gs4 
	BYTE		N03     Cn5 
	BYTE	W04
	BYTE		        An4 
	BYTE		N03     Cs5 
	BYTE	W04
	BYTE		N02     As4 
	BYTE		N03     Dn5 
	BYTE	W06
	BYTE		N01     Bn4 
	BYTE		N01     Ds5 
	BYTE	W02
	BYTE		N03     As4 
	BYTE		N03     Dn5 
	BYTE	W04
	BYTE		        An4 
	BYTE		N03     Cs5 
	BYTE	W04
	BYTE		        Gs4 
	BYTE		N03     Cn5 
	BYTE	W05
	BYTE		N02     Gn4 
	BYTE		N02     Bn4 
	BYTE	W03
	BYTE		N03     Fs4 
	BYTE		N03     As4 
	BYTE	W06
	BYTE		N01     Fn4 
	BYTE		N01     An4 
	BYTE	W02
	BYTE		N03     Fs4 
	BYTE		N03     As4 
	BYTE	W04
	BYTE		N02     Gn4 
	BYTE		N03     Bn4 
	BYTE	W04
	BYTE		        Gs4 
	BYTE		N03     Cn5 
	BYTE	W04
	BYTE		        An4 
	BYTE		N03     Cs5 
	BYTE	W04
	BYTE		        Dn5 
	BYTE	W01
	BYTE		N02     As4 
	BYTE	W05
	BYTE		N01     Bn4 
	BYTE		N01     Ds5 
	BYTE	W02
	BYTE		N03     Dn5 
	BYTE	W01
	BYTE		N02     As4 
	BYTE	W03
	BYTE		N03     Cs5 
	BYTE	W01
	BYTE		N02     An4 
	BYTE	W03
	BYTE		N03     Gs4 
	BYTE		N03     Cn5 
	BYTE	W01
// 029   ----------------------------------------
	BYTE	W03
	BYTE		        Bn4 
	BYTE	W01
	BYTE		N02     Gn4 
	BYTE	W03
	BYTE		        As4 
	BYTE	W01
	BYTE		        Fs4 
	BYTE	W06
	BYTE		N01     Fn4 
	BYTE		N01     An4 
	BYTE	W01
	BYTE		N02     As4 
	BYTE	W01
	BYTE		        Fs4 
	BYTE	W03
	BYTE		N03     Gn4 
	BYTE		N03     Bn4 
	BYTE	W04
	BYTE		N02     Gs4 
	BYTE		N03     Cn5 
	BYTE	W04
	BYTE		        An4 
	BYTE		N03     Cs5 
	BYTE	W04
	BYTE		        As4 
	BYTE		N03     Dn5 
	BYTE	W06
	BYTE		N01     Bn4 
	BYTE		N01     Ds5 
	BYTE	W02
	BYTE		N03     As4 
	BYTE		N03     Dn5 
	BYTE	W04
	BYTE		        An4 
	BYTE		N03     Cs5 
	BYTE	W04
	BYTE		        Gs4 
	BYTE		N02     Cn5 
	BYTE	W04
	BYTE		        Gn4 
	BYTE		N03     Bn4 
	BYTE	W05
	BYTE		N02     Fs4 
	BYTE		N03     As4 
	BYTE	W05
	BYTE		N01     Fn4 
	BYTE		N01     An4 
	BYTE	W02
	BYTE		N03     Fs4 
	BYTE		N03     As4 
	BYTE	W04
	BYTE		N02     Gn4 
	BYTE		N02     Bn4 
	BYTE	W04
	BYTE		N03     Gs4 
	BYTE		N03     Cn5 
	BYTE	W04
	BYTE		        An4 
	BYTE		N03     Cs5 
	BYTE	W04
	BYTE		        As4 
	BYTE		N03     Dn5 
	BYTE	W06
	BYTE		N01     Bn4 
	BYTE		N01     Ds5 
	BYTE	W02
	BYTE		N03     Dn5 
	BYTE	W01
	BYTE		N02     As4 
	BYTE	W03
	BYTE		N03     Cs5 
	BYTE	W01
	BYTE		N02     An4 
	BYTE	W03
	BYTE		        Cn5 
	BYTE	W01
// 030   ----------------------------------------
	BYTE		        Gs4 
	BYTE	W03
	BYTE		N03     Bn4 
	BYTE	W01
	BYTE		N02     Gn4 
	BYTE	W03
	BYTE		N03     As4 
	BYTE	W01
	BYTE		N02     Fs4 
	BYTE	W06
	BYTE		N01     Fn4 
	BYTE		N01     An4 
	BYTE	W02
	BYTE		N02     Fs4 
	BYTE		N02     As4 
	BYTE	W03
	BYTE		N03     Gn4 
	BYTE		N03     Bn4 
	BYTE	W04
	BYTE		        Gs4 
	BYTE		N03     Cn5 
	BYTE	W04
	BYTE		        An4 
	BYTE		N03     Cs5 
	BYTE	W04
	BYTE		        As4 
	BYTE		N02     Dn5 
	BYTE	W05
	BYTE		        Ds5 
	BYTE	W01
	BYTE		        Bn4 
	BYTE	W02
	BYTE		N03     Dn5 
	BYTE	W01
	BYTE		N02     As4 
	BYTE	W03
	BYTE		        An4 
	BYTE		N03     Cs5 
	BYTE	W04
	BYTE		        Gs4 
	BYTE		N03     Cn5 
	BYTE	W04
	BYTE		        Gn4 
	BYTE		N03     Bn4 
	BYTE	W04
	BYTE		        Fs4 
	BYTE		N03     As4 
	BYTE	W06
	BYTE		N01     Fn4 
	BYTE		N01     An4 
	BYTE	W02
	BYTE		N03     As4 
	BYTE	W01
	BYTE		N02     Fs4 
	BYTE	W03
	BYTE		N03     Gn4 
	BYTE		N03     Bn4 
	BYTE	W04
	BYTE		N02     Gs4 
	BYTE		N03     Cn5 
	BYTE	W04
	BYTE		        An4 
	BYTE		N03     Cs5 
	BYTE	W04
	BYTE		N02     As4 
	BYTE		N02     Dn5 
	BYTE	W06
	BYTE		N01     Bn4 
	BYTE		N01     Ds5 
	BYTE	W02
	BYTE		N03     Dn5 
	BYTE	W01
	BYTE		N02     As4 
	BYTE	W03
	BYTE		N03     Cs5 
	BYTE	W01
	BYTE		N02     An4 
	BYTE	W03
	BYTE		N03     Cn5 
	BYTE	W01
// 031   ----------------------------------------
	BYTE		N02     Gs4 
	BYTE	W03
	BYTE		N03     Bn4 
	BYTE	W01
	BYTE		N02     Gn4 
	BYTE	W03
	BYTE		N03     As4 
	BYTE	W01
	BYTE		N02     Fs4 
	BYTE	W06
	BYTE		N01     Fn4 
	BYTE		N01     An4 
	BYTE	W02
	BYTE		N02     Fs4 
	BYTE		N02     As4 
	BYTE	W03
	BYTE		N03     Bn4 
	BYTE	W01
	BYTE		        Gn4 
	BYTE	W03
	BYTE		        Cn5 
	BYTE	W01
	BYTE		N02     Gs4 
	BYTE	W03
	BYTE		N03     An4 
	BYTE		N02     Cs5 
	BYTE	W04
	BYTE		N03     As4 
	BYTE		N03     Dn5 
	BYTE	W05
	BYTE		N02     Ds5 
	BYTE	W01
	BYTE		N01     Bn4 
	BYTE	W02
	BYTE		N03     Dn5 
	BYTE	W01
	BYTE		N02     As4 
	BYTE	W03
	BYTE		N03     An4 
	BYTE		N03     Cs5 
	BYTE	W04
	BYTE		        Gs4 
	BYTE		N03     Cn5 
	BYTE	W04
	BYTE		        Gn4 
	BYTE		N03     Bn4 
	BYTE	W04
	BYTE		        Fs4 
	BYTE		N03     As4 
	BYTE	W06
	BYTE		N01     Fn4 
	BYTE		N01     An4 
	BYTE	W02
	BYTE		N03     Fs4 
	BYTE		N03     As4 
	BYTE	W04
	BYTE		        Gn4 
	BYTE		N03     Bn4 
	BYTE	W04
	BYTE		        Gs4 
	BYTE		N03     Cn5 
	BYTE	W04
	BYTE		        Cs5 
	BYTE	W01
	BYTE		N02     An4 
	BYTE	W03
	BYTE		N03     As4 
	BYTE		N02     Dn5 
	BYTE	W06
	BYTE		N01     Bn4 
	BYTE		N01     Ds5 
	BYTE	W02
	BYTE		N03     Dn5 
	BYTE	W01
	BYTE		N02     As4 
	BYTE	W03
	BYTE		N03     Cs5 
	BYTE	W01
	BYTE		N02     An4 
	BYTE	W03
	BYTE		N03     Cn5 
	BYTE	W01
// 032   ----------------------------------------
	BYTE		N02     Gs4 
	BYTE	W03
	BYTE		        Bn4 
	BYTE	W01
	BYTE		        Gn4 
	BYTE	W03
	BYTE		N03     As4 
	BYTE	W01
	BYTE		N02     Fs4 
	BYTE	W06
	BYTE		N01     Fn4 
	BYTE		N01     An4 
	BYTE	W02
	BYTE		N02     Fs4 
	BYTE		N03     As4 
	BYTE	W04
	BYTE		N02     Gn4 
	BYTE		N02     Bn4 
	BYTE	W03
	BYTE		N03     Cn5 
	BYTE	W01
	BYTE		N02     Gs4 
	BYTE	W03
	BYTE		N03     An4 
	BYTE		N02     Cs5 
	BYTE	W04
	BYTE		N03     As4 
	BYTE		N03     Dn5 
	BYTE	W05
	BYTE		N02     Ds5 
	BYTE	W01
	BYTE		        Bn4 
	BYTE	W02
	BYTE		N03     Dn5 
	BYTE	W01
	BYTE		N02     As4 
	BYTE	W03
	BYTE		N03     An4 
	BYTE		N03     Cs5 
	BYTE	W04
	BYTE		N02     Gs4 
	BYTE		N02     Cn5 
	BYTE	W04
	BYTE		N03     Gn4 
	BYTE		N03     Bn4 
	BYTE	W04
	BYTE		        Fs4 
	BYTE		N03     As4 
	BYTE	W06
	BYTE		N01     Fn4 
	BYTE		N01     An4 
	BYTE	W02
	BYTE		N03     Fs4 
	BYTE		N02     As4 
	BYTE	W04
	BYTE		N03     Gn4 
	BYTE		N03     Bn4 
	BYTE	W04
	BYTE		        Gs4 
	BYTE		N03     Cn5 
	BYTE	W04
	BYTE		        An4 
	BYTE		N03     Cs5 
	BYTE	W04
	BYTE		        As4 
	BYTE		N02     Dn5 
	BYTE	W06
	BYTE		N01     Bn4 
	BYTE		N01     Ds5 
	BYTE	W03
	BYTE		N02     As4 
	BYTE		N02     Dn5 
	BYTE	W03
	BYTE		        Cs5 
	BYTE	W01
	BYTE		        An4 
	BYTE	W03
	BYTE		N03     Cn5 
	BYTE	W01
// 033   ----------------------------------------
	BYTE		N02     Gs4 
	BYTE	W03
	BYTE		N03     Bn4 
	BYTE	W01
	BYTE		N02     Gn4 
	BYTE	W03
	BYTE		N03     As4 
	BYTE	W01
	BYTE		N02     Fs4 
	BYTE	W06
	BYTE		N01     Fn4 
	BYTE		N01     An4 
	BYTE	W02
	BYTE		N02     Fs4 
	BYTE		N03     As4 
	BYTE	W04
	BYTE		N02     Gn4 
	BYTE		N02     Bn4 
	BYTE	W03
	BYTE		N03     Gs4 
	BYTE		N03     Cn5 
	BYTE	W04
	BYTE		        An4 
	BYTE		N03     Cs5 
	BYTE	W04
	BYTE		N02     As4 
	BYTE		N02     Dn5 
	BYTE	W06
	BYTE		N01     Bn4 
	BYTE		N01     Ds5 
	BYTE	W02
	BYTE		N03     Dn5 
	BYTE	W01
	BYTE		N02     As4 
	BYTE	W03
	BYTE		N03     An4 
	BYTE		N03     Cs5 
	BYTE	W04
	BYTE		        Gs4 
	BYTE		N03     Cn5 
	BYTE	W04
	BYTE		        Gn4 
	BYTE		N03     Bn4 
	BYTE	W04
	BYTE		        Fs4 
	BYTE		N03     As4 
	BYTE	W06
	BYTE		N01     Fn4 
	BYTE		N01     An4 
	BYTE	W02
	BYTE		N03     As4 
	BYTE	W01
	BYTE		N02     Fs4 
	BYTE	W03
	BYTE		N03     Gn4 
	BYTE		N02     Bn4 
	BYTE	W04
	BYTE		N03     Gs4 
	BYTE		N02     Cn5 
	BYTE	W04
	BYTE		        An4 
	BYTE		N03     Cs5 
	BYTE	W04
	BYTE		        Dn5 
	BYTE	W01
	BYTE		N02     As4 
	BYTE	W05
	BYTE		N01     Bn4 
	BYTE		N01     Ds5 
	BYTE	W03
	BYTE		N02     As4 
	BYTE		N02     Dn5 
	BYTE	W03
	BYTE		N03     Cs5 
	BYTE	W01
	BYTE		N02     An4 
	BYTE	W03
	BYTE		N03     Cn5 
	BYTE	W01
// 034   ----------------------------------------
	BYTE		N02     Gs4 
	BYTE	W03
	BYTE		N03     Bn4 
	BYTE	W01
	BYTE		N02     Gn4 
	BYTE	W03
	BYTE		N03     As4 
	BYTE	W01
	BYTE		N02     Fs4 
	BYTE	W06
	BYTE		N01     Fn4 
	BYTE		N01     An4 
	BYTE	W01
	BYTE		N02     Fs4 
	BYTE		N02     As4 
	BYTE	W04
	BYTE		N03     Gn4 
	BYTE		N02     Bn4 
	BYTE	W04
	BYTE		        Gs4 
	BYTE		N03     Cn5 
	BYTE	W05
	BYTE		N02     An4 
	BYTE		N02     Cs5 
	BYTE	W03
	BYTE		        As4 
	BYTE		N02     Dn5 
	BYTE	W06
	BYTE		N01     Bn4 
	BYTE		N01     Ds5 
	BYTE	W02
	BYTE		N03     As4 
	BYTE		N02     Dn5 
	BYTE	W04
	BYTE		N03     An4 
	BYTE		N03     Cs5 
	BYTE	W04
	BYTE		        Gs4 
	BYTE		N02     Cn5 
	BYTE	W04
	BYTE		        Gn4 
	BYTE		N03     Bn4 
	BYTE	W04
	BYTE		        As4 
	BYTE	W01
	BYTE		N02     Fs4 
	BYTE	W05
	BYTE		N01     Fn4 
	BYTE		N01     An4 
	BYTE	W02
	BYTE		N03     As4 
	BYTE	W01
	BYTE		N02     Fs4 
	BYTE	W03
	BYTE		        Gn4 
	BYTE		N03     Bn4 
	BYTE	W04
	BYTE		        Gs4 
	BYTE		N03     Cn5 
	BYTE	W04
	BYTE		        An4 
	BYTE		N03     Cs5 
	BYTE	W05
	BYTE		N02     As4 
	BYTE		N02     Dn5 
	BYTE	W05
	BYTE		N01     Bn4 
	BYTE		N01     Ds5 
	BYTE	W02
	BYTE		N03     Dn5 
	BYTE	W01
	BYTE		N02     As4 
	BYTE	W03
	BYTE		N03     Cs5 
	BYTE	W01
	BYTE		N02     An4 
	BYTE	W03
	BYTE		        Cn5 
	BYTE	W01
// 035   ----------------------------------------
	BYTE		        Gs4 
	BYTE	W03
	BYTE		N03     Bn4 
	BYTE	W01
	BYTE		N02     Gn4 
	BYTE	W03
	BYTE		        As4 
	BYTE	W01
	BYTE		        Fs4 
	BYTE	W06
	BYTE		N01     Fn4 
	BYTE		N01     An4 
	BYTE	W01
	BYTE		N02     As4 
	BYTE	W01
	BYTE		        Fs4 
	BYTE	W03
	BYTE		N03     Gn4 
	BYTE		N03     Bn4 
	BYTE	W04
	BYTE		        Gs4 
	BYTE		N03     Cn5 
	BYTE	W04
	BYTE		        Cs5 
	BYTE	W01
	BYTE		N02     An4 
	BYTE	W03
	BYTE		N03     As4 
	BYTE		N02     Dn5 
	BYTE	W06
	BYTE		N01     Bn4 
	BYTE		N01     Ds5 
	BYTE	W03
	BYTE		N02     As4 
	BYTE		N02     Dn5 
	BYTE	W03
	BYTE		        Cs5 
	BYTE	W01
	BYTE		        An4 
	BYTE	W03
	BYTE		N03     Cn5 
	BYTE	W01
	BYTE		N02     Gs4 
	BYTE	W03
	BYTE		N03     Bn4 
	BYTE	W01
	BYTE		N02     Gn4 
	BYTE	W03
	BYTE		N03     As4 
	BYTE	W01
	BYTE		        Fs4 
	BYTE	W03
	BYTE	W01
	BYTE		N05     An3 
	BYTE	W11
	BYTE		N06   
	BYTE	W13
	BYTE		N05   
	BYTE	W11
	BYTE		N06   
	BYTE	W01
// 036   ----------------------------------------
	BYTE	W12
	BYTE		N05   
	BYTE	W11
	BYTE		N06   
	BYTE	W13
	BYTE		N23   
	BYTE	W12
	BYTE		N06     Dn4 
	BYTE		N06     Fn4 
	BYTE		N05     An4 
	BYTE	W12
	BYTE		N04     An3 
	BYTE	W11
	BYTE		N05   
	BYTE	W13
	BYTE		N22     As3 
	BYTE	W11
	BYTE		N05     Fn4 
	BYTE	W01
// 037   ----------------------------------------
	BYTE		N04     Dn4 
	BYTE		N04     As4 
	BYTE	W12
	BYTE		        An3 
	BYTE	W12
	BYTE		N04   
	BYTE	W12
	BYTE		N22     As3 
	BYTE	W11
	BYTE		N05     Dn4 
	BYTE	W01
	BYTE		N04     Fn4 
	BYTE		N04     As4 
	BYTE	W12
	BYTE		N05     An3 
	BYTE	W11
	BYTE		N05   
	BYTE	W12
	BYTE		N06   
	BYTE	W12
	BYTE		N06   
	BYTE	W01
// 038   ----------------------------------------
	BYTE	W12
	BYTE		N05   
	BYTE	W12
	BYTE		N05   
	BYTE	W12
	BYTE		N22   
	BYTE	W11
	BYTE		N06     Dn4 
	BYTE	W01
	BYTE		N05     Fn4 
	BYTE		N05     An4 
	BYTE	W12
	BYTE		N03     An3 
	BYTE	W12
	BYTE		N04   
	BYTE	W12
	BYTE		N23     As3 
	BYTE	W12
// 039   ----------------------------------------
	BYTE		N04     Dn4 
	BYTE		N04     Fn4 
	BYTE		N04     As4 
	BYTE	W12
	BYTE		        An3 
	BYTE	W12
	BYTE		N04   
	BYTE	W12
	BYTE		N22     As3 
	BYTE	W12
	BYTE		N04     Dn4 
	BYTE		N04     Fn4 
	BYTE		N04     As4 
	BYTE	W12
	BYTE		        Fn4 
	BYTE	W01
	BYTE		        An3 
	BYTE	W11
	BYTE		N04   
	BYTE		N04     Fn4 
	BYTE	W13
	BYTE		        Fn3 
	BYTE		N05     An3 
	BYTE		N05     Dn4 
	BYTE	W11
// 040   ----------------------------------------
	BYTE		        Fn3 
	BYTE		N05     An3 
	BYTE		N06     Dn4 
	BYTE	W12
	BYTE		N05     Fn3 
	BYTE		N06     An3 
	BYTE		N06     Dn4 
	BYTE	W12
	BYTE		N05     Fn3 
	BYTE		N05     An3 
	BYTE		N06     Dn4 
	BYTE	W12
	BYTE		N05     Fn3 
	BYTE		N05     An3 
	BYTE		N06     Dn4 
	BYTE	W12
	BYTE		N05     Fn3 
	BYTE		N06     An3 
	BYTE		N06     Dn4 
	BYTE	W12
	BYTE		N05     En3 
	BYTE		N06     Gn3 
	BYTE		N06     Dn4 
	BYTE	W12
	BYTE		N05     En3 
	BYTE		N05     Gn3 
	BYTE		N06     Dn4 
	BYTE	W12
	BYTE		N05     Gn3 
	BYTE		N06     As3 
	BYTE		N06     Dn4 
	BYTE	W12
// 041   ----------------------------------------
	BYTE		N05     Gn3 
	BYTE		N06     As3 
	BYTE		N06     Dn4 
	BYTE	W12
	BYTE		N22     Fn3 
	BYTE		N23     An3 
	BYTE		N06     Dn4 
	BYTE	W12
	BYTE		N06   
	BYTE	W12
	BYTE		N05     Gn3 
	BYTE		N05     Dn4 
	BYTE	W01
	BYTE		        En3 
	BYTE	W11
	BYTE		        Gn3 
	BYTE		N05     As3 
	BYTE		N06     Dn4 
	BYTE	W12
	BYTE		N10     Fn4 
	BYTE	W01
	BYTE		        An3 
	BYTE	W11
	BYTE		        Fn4 
	BYTE	W01
	BYTE		        An3 
	BYTE	W11
	BYTE		N05   
	BYTE		N05     Dn4 
	BYTE	W01
	BYTE		        Fn3 
	BYTE	W11
// 042   ----------------------------------------
	BYTE		N05   
	BYTE		N05     An3 
	BYTE		N06     Dn4 
	BYTE	W12
	BYTE		N05     Fn3 
	BYTE		N06     An3 
	BYTE		N06     Dn4 
	BYTE	W12
	BYTE		N05     Fn3 
	BYTE		N06     An3 
	BYTE		N06     Dn4 
	BYTE	W12
	BYTE		N05     Fn3 
	BYTE		N05     An3 
	BYTE		N06     Dn4 
	BYTE	W12
	BYTE		N05     Fn3 
	BYTE		N06     An3 
	BYTE		N06     Dn4 
	BYTE	W12
	BYTE		N05     En3 
	BYTE		N05     Gn3 
	BYTE		N06     Dn4 
	BYTE	W12
	BYTE		N05     En3 
	BYTE		N05     Gn3 
	BYTE		N06     Dn4 
	BYTE	W12
	BYTE		N05     Gn3 
	BYTE		N05     As3 
	BYTE		N06     Dn4 
	BYTE	W12
// 043   ----------------------------------------
	BYTE		N05     Gn3 
	BYTE		N06     As3 
	BYTE		N06     Dn4 
	BYTE	W12
	BYTE		N22     Fn3 
	BYTE		N22     An3 
	BYTE		N06     Dn4 
	BYTE	W12
	BYTE		N06   
	BYTE	W12
	BYTE		N05     En3 
	BYTE		N06     Gn3 
	BYTE		N06     Dn4 
	BYTE	W12
	BYTE		N05     As3 
	BYTE		N06     Dn4 
	BYTE	W01
	BYTE		N05     Gn3 
	BYTE	W12
	BYTE		N04     An3 
	BYTE	W12
	BYTE		N05   
	BYTE	W11
	BYTE		N05   
	BYTE	W12
// 044   ----------------------------------------
	BYTE		N05   
	BYTE	W12
	BYTE		N05   
	BYTE	W11
	BYTE		N05   
	BYTE	W12
	BYTE		N22   
	BYTE	W12
	BYTE		N05     Fn4 
	BYTE	W01
	BYTE		        Dn4 
	BYTE		N05     An4 
	BYTE	W11
	BYTE		        An3 
	BYTE	W11
	BYTE		N05   
	BYTE	W13
	BYTE		N21     As3 
	BYTE	W11
	BYTE		N05     Fn4 
	BYTE		N05     As4 
	BYTE	W01
	BYTE		        Dn4 
	BYTE	W01
// 045   ----------------------------------------
	BYTE	W10
	BYTE		        An3 
	BYTE	W12
	BYTE		N05   
	BYTE	W12
	BYTE		N21     As3 
	BYTE	W12
	BYTE		N05     Dn4 
	BYTE		N05     Fn4 
	BYTE		N05     As4 
	BYTE	W12
	BYTE		        An3 
	BYTE	W11
	BYTE		N06   
	BYTE	W12
	BYTE		N05   
	BYTE	W12
	BYTE		N06   
	BYTE	W03
// 046   ----------------------------------------
	BYTE	W09
	BYTE		N05   
	BYTE	W11
	BYTE		N05   
	BYTE	W12
	BYTE		N22   
	BYTE	W12
	BYTE		N05     Dn4 
	BYTE		N05     Fn4 
	BYTE	W01
	BYTE		        An4 
	BYTE	W11
	BYTE		N04     An3 
	BYTE	W12
	BYTE		N05   
	BYTE	W12
	BYTE		N21     As3 
	BYTE	W11
	BYTE		N05     Fn4 
	BYTE		N05     As4 
	BYTE	W01
	BYTE		        Dn4 
	BYTE	W04
// 047   ----------------------------------------
	BYTE	W07
	BYTE		        An3 
	BYTE	W12
	BYTE		N05   
	BYTE	W12
	BYTE		N22     As3 
	BYTE	W11
	BYTE		N05     Fn4 
	BYTE		N05     As4 
	BYTE	W01
	BYTE		        Dn4 
	BYTE	W11
	BYTE		N04     An3 
	BYTE		N04     Fn4 
	BYTE	W12
	BYTE		        An3 
	BYTE		N04     Fn4 
	BYTE	W13
	BYTE		        Fn3 
	BYTE		N04     An3 
	BYTE		N05     Dn4 
	BYTE	W11
	BYTE		        Fn3 
	BYTE		N06     An3 
	BYTE		N06     Dn4 
	BYTE	W06
// 048   ----------------------------------------
	BYTE	W06
	BYTE		N05     Fn3 
	BYTE		N06     An3 
	BYTE		N06     Dn4 
	BYTE	W12
	BYTE		N05     Fn3 
	BYTE		N06     An3 
	BYTE		N06     Dn4 
	BYTE	W13
	BYTE		N04     An3 
	BYTE		N04     Dn4 
	BYTE	W01
	BYTE		        Fn3 
	BYTE	W10
	BYTE		N05   
	BYTE		N05     An3 
	BYTE		N05     Dn4 
	BYTE	W13
	BYTE		N04     En3 
	BYTE		N04     Gn3 
	BYTE		N04     Dn4 
	BYTE	W11
	BYTE		N05     En3 
	BYTE		N05     Gn3 
	BYTE		N05     Dn4 
	BYTE	W12
	BYTE		        Gn3 
	BYTE		N06     As3 
	BYTE		N06     Dn4 
	BYTE	W12
	BYTE		N05     Gn3 
	BYTE		N05     As3 
	BYTE		N06     Dn4 
	BYTE	W06
// 049   ----------------------------------------
	BYTE	W06
	BYTE		N22     Fn3 
	BYTE		N22     An3 
	BYTE		N06     Dn4 
	BYTE	W11
	BYTE		N06   
	BYTE	W13
	BYTE		N05     En3 
	BYTE		N06     Gn3 
	BYTE		N06     Dn4 
	BYTE	W12
	BYTE		N05     Gn3 
	BYTE		N06     As3 
	BYTE		N06     Dn4 
	BYTE	W12
	BYTE		N10     Fn4 
	BYTE	W01
	BYTE		        An3 
	BYTE	W11
	BYTE		N10   
	BYTE		N10     Fn4 
	BYTE	W12
	BYTE		N05     An3 
	BYTE		N05     Dn4 
	BYTE	W01
	BYTE		        Fn3 
	BYTE	W10
	BYTE		N06     Dn4 
	BYTE	W01
	BYTE		N05     Fn3 
	BYTE		N06     An3 
	BYTE	W06
// 050   ----------------------------------------
	BYTE	W06
	BYTE		N05     Fn3 
	BYTE		N06     An3 
	BYTE		N06     Dn4 
	BYTE	W12
	BYTE		N05     Fn3 
	BYTE		N06     An3 
	BYTE		N06     Dn4 
	BYTE	W13
	BYTE		N04     Fn3 
	BYTE		N04     An3 
	BYTE		N04     Dn4 
	BYTE	W11
	BYTE		N05     An3 
	BYTE		N05     Dn4 
	BYTE	W01
	BYTE		        Fn3 
	BYTE	W12
	BYTE		N04     Gn3 
	BYTE		N04     Dn4 
	BYTE	W01
	BYTE		N03     En3 
	BYTE	W09
	BYTE		N06     Dn4 
	BYTE	W01
	BYTE		N05     En3 
	BYTE		N06     Gn3 
	BYTE	W12
	BYTE		N05   
	BYTE		N06     As3 
	BYTE		N06     Dn4 
	BYTE	W12
	BYTE		N05     Gn3 
	BYTE		N06     As3 
	BYTE		N06     Dn4 
	BYTE	W06
// 051   ----------------------------------------
	BYTE	W06
	BYTE		N22     Fn3 
	BYTE		N22     An3 
	BYTE		N06     Dn4 
	BYTE	W12
	BYTE		N05   
	BYTE	W11
	BYTE		N06   
	BYTE	W01
	BYTE		N05     En3 
	BYTE		N05     Gn3 
	BYTE	W12
	BYTE		N05   
	BYTE		N06     As3 
	BYTE		N06     Dn4 
	BYTE	W12
	BYTE		N04     Cs3 
	BYTE		N04     As3 
	BYTE	W01
	BYTE		        Fn3 
	BYTE	W11
	BYTE		N05     Cs3 
	BYTE		N05     Fn3 
	BYTE		N04     As3 
	BYTE	W13
	BYTE		N03     Cs3 
	BYTE		N03     Fn3 
	BYTE		N03     As3 
	BYTE	W11
	BYTE		N04     Cs3 
	BYTE		N04     As3 
	BYTE	W01
	BYTE		        Fn3 
	BYTE	W05
// 052   ----------------------------------------
	BYTE	W07
	BYTE		N03     Cs3 
	BYTE		N03     Fn3 
	BYTE		N03     As3 
	BYTE	W11
	BYTE		N04     Cs3 
	BYTE		N04     Fn3 
	BYTE		N04     As3 
	BYTE	W13
	BYTE		N03     Cs3 
	BYTE		N03     Fn3 
	BYTE		N04     As3 
	BYTE	W11
	BYTE		N05     Cs3 
	BYTE		N05     Fn3 
	BYTE		N04     As3 
	BYTE	W13
	BYTE		N03     Cs3 
	BYTE		N03     Fn3 
	BYTE		N03     As3 
	BYTE	W11
	BYTE		N04     Cs3 
	BYTE		N05     Fn3 
	BYTE		N05     As3 
	BYTE	W13
	BYTE		N03     Fn3 
	BYTE		N03     As3 
	BYTE	W01
	BYTE		        Cs3 
	BYTE	W10
	BYTE		N05   
	BYTE		N04     Fn3 
	BYTE		N05     As3 
	BYTE	W06
// 053   ----------------------------------------
	BYTE	W06
	BYTE		N04     Cs3 
	BYTE		N04     Fn3 
	BYTE		N04     As3 
	BYTE	W11
	BYTE		N05   
	BYTE	W01
	BYTE		        Cs3 
	BYTE		N04     Fn3 
	BYTE	W12
	BYTE		        Cs3 
	BYTE		N04     Fn3 
	BYTE		N04     As3 
	BYTE	W11
	BYTE		N05     Cs3 
	BYTE	W01
	BYTE		N04     Fn3 
	BYTE		N04     As3 
	BYTE	W13
	BYTE		N03     Cs3 
	BYTE		N03     As3 
	BYTE	W01
	BYTE		        Fn3 
	BYTE	W10
	BYTE		N05     Cs3 
	BYTE		N04     Fn3 
	BYTE		N04     As3 
	BYTE	W12
	BYTE		        Cs3 
	BYTE		N04     Fn3 
	BYTE		N04     As3 
	BYTE	W12
	BYTE		        Cs3 
	BYTE		N04     Fn3 
	BYTE		N04     As3 
	BYTE	W06
// 054   ----------------------------------------
	BYTE	W06
	BYTE		        Cs3 
	BYTE	W01
	BYTE		        Fn3 
	BYTE		N04     As3 
	BYTE	W11
	BYTE		        Cs3 
	BYTE		N04     Fn3 
	BYTE		N04     As3 
	BYTE	W12
	BYTE		N04   
	BYTE	W01
	BYTE		        Cs3 
	BYTE		N04     Fn3 
	BYTE	W11
	BYTE		N05     Cs3 
	BYTE		N05     Fn3 
	BYTE		N04     As3 
	BYTE	W12
	BYTE		        Cs3 
	BYTE		N04     As3 
	BYTE	W01
	BYTE		        Fn3 
	BYTE	W11
	BYTE		        Cs3 
	BYTE		N05     Fn3 
	BYTE		N05     As3 
	BYTE	W13
	BYTE		N03   
	BYTE	W01
	BYTE		        Cs3 
	BYTE		N03     Fn3 
	BYTE	W09
	BYTE		N05     As3 
	BYTE	W01
	BYTE		N04     Cs3 
	BYTE		N04     Fn3 
	BYTE	W06
// 055   ----------------------------------------
	BYTE	W06
	BYTE		        Cs3 
	BYTE		N04     Fn3 
	BYTE		N04     As3 
	BYTE	W11
	BYTE		N05   
	BYTE	W01
	BYTE		        Cs3 
	BYTE		N04     Fn3 
	BYTE	W12
	BYTE		        Cs3 
	BYTE		N04     Fn3 
	BYTE		N04     As3 
	BYTE	W12
	BYTE		N05     Cs3 
	BYTE		N04     Fn3 
	BYTE		N05     As3 
	BYTE	W12
	BYTE		N04     Cs3 
	BYTE		N04     As3 
	BYTE	W01
	BYTE		        Fn3 
	BYTE	W10
	BYTE		N05     Cs3 
	BYTE	W01
	BYTE		        Fn3 
	BYTE		N04     As3 
	BYTE	W13
	BYTE		        Cs3 
	BYTE		N03     Fn3 
	BYTE		N03     As3 
	BYTE	W11
	BYTE		N05     Cs3 
	BYTE		N04     Fn3 
	BYTE		N05     As3 
	BYTE	W06
// 056   ----------------------------------------
	BYTE	W07
	BYTE		N03     Cs3 
	BYTE		N03     Fn3 
	BYTE		N03     As3 
	BYTE	W11
	BYTE		N04     Cs3 
	BYTE		N04     Fn3 
	BYTE		N04     As3 
	BYTE	W13
	BYTE		N03     Cs3 
	BYTE		N03     Fn3 
	BYTE		N03     As3 
	BYTE	W11
	BYTE		N04     Cs3 
	BYTE		N04     Fn3 
	BYTE	W01
	BYTE		        As3 
	BYTE	W12
	BYTE		N03     Cs3 
	BYTE		N03     As3 
	BYTE	W01
	BYTE		        Fn3 
	BYTE	W10
	BYTE		N04     Cs3 
	BYTE		N05     Fn3 
	BYTE		N05     As3 
	BYTE	W13
	BYTE		N03     Fn3 
	BYTE		N03     As3 
	BYTE	W01
	BYTE		        Cs3 
	BYTE	W10
	BYTE		N05   
	BYTE		N04     Fn3 
	BYTE		N05     As3 
	BYTE	W06
// 057   ----------------------------------------
	BYTE	W06
	BYTE		N04     Cs3 
	BYTE		N04     As3 
	BYTE	W01
	BYTE		        Fn3 
	BYTE	W11
	BYTE		        Cs3 
	BYTE		N04     Fn3 
	BYTE		N04     As3 
	BYTE	W12
	BYTE		        Cs3 
	BYTE		N04     As3 
	BYTE	W01
	BYTE		        Fn3 
	BYTE	W11
	BYTE		N05     Cs3 
	BYTE		N04     Fn3 
	BYTE		N04     As3 
	BYTE	W13
	BYTE		N03     Cs3 
	BYTE		N03     As3 
	BYTE	W01
	BYTE		        Fn3 
	BYTE	W10
	BYTE		N05     Cs3 
	BYTE		N05     Fn3 
	BYTE		N04     As3 
	BYTE	W12
	BYTE		        Cs3 
	BYTE		N04     Fn3 
	BYTE	W01
	BYTE		        As3 
	BYTE	W11
	BYTE		N05     Cs3 
	BYTE		N04     Fn3 
	BYTE		N05     As3 
	BYTE	W06
// 058   ----------------------------------------
	BYTE	W06
	BYTE		N04     Cs3 
	BYTE		N04     As3 
	BYTE	W01
	BYTE		        Fn3 
	BYTE	W10
	BYTE		N05     As3 
	BYTE	W01
	BYTE		        Cs3 
	BYTE		N04     Fn3 
	BYTE	W12
	BYTE		        As3 
	BYTE	W01
	BYTE		        Cs3 
	BYTE		N04     Fn3 
	BYTE	W11
	BYTE		N05     Cs3 
	BYTE		N05     Fn3 
	BYTE		N04     As3 
	BYTE	W12
	BYTE		        Cs3 
	BYTE		N04     As3 
	BYTE	W01
	BYTE		        Fn3 
	BYTE	W11
	BYTE		        Cs3 
	BYTE		N05     Fn3 
	BYTE		N05     As3 
	BYTE	W13
	BYTE		N03     Fn3 
	BYTE		N03     As3 
	BYTE	W01
	BYTE		        Cs3 
	BYTE	W10
	BYTE		N04   
	BYTE		N04     Fn3 
	BYTE		N04     As3 
	BYTE	W06
// 059   ----------------------------------------
	BYTE	W06
	BYTE		N04   
	BYTE	W01
	BYTE		        Cs3 
	BYTE		N04     Fn3 
	BYTE	W11
	BYTE		N05     Cs3 
	BYTE		N04     Fn3 
	BYTE		N05     As3 
	BYTE	W13
	BYTE		N03     Cs3 
	BYTE		N03     Fn3 
	BYTE		N03     As3 
	BYTE	W11
	BYTE		N04     Cs3 
	BYTE		N04     As3 
	BYTE	W01
	BYTE		        Fn3 
	BYTE	W12
	BYTE		        An3 
	BYTE	W10
	BYTE		N05   
	BYTE	W13
	BYTE		N05   
	BYTE	W11
	BYTE		N05   
	BYTE	W07
// 060   ----------------------------------------
	BYTE	W06
	BYTE		N05   
	BYTE	W11
	BYTE		N06   
	BYTE	W12
	BYTE		N22   
	BYTE	W12
	BYTE		N05     Fn4 
	BYTE	W01
	BYTE		        Dn4 
	BYTE		N05     An4 
	BYTE	W12
	BYTE		        An3 
	BYTE	W11
	BYTE		N05   
	BYTE	W13
	BYTE		N21     As3 
	BYTE	W11
	BYTE		N05     Fn4 
	BYTE		N06     As4 
	BYTE	W01
	BYTE		N05     Dn4 
	BYTE	W06
// 061   ----------------------------------------
	BYTE	W06
	BYTE		N04     An3 
	BYTE	W11
	BYTE		N05   
	BYTE	W13
	BYTE		N21     As3 
	BYTE	W11
	BYTE		N05     As4 
	BYTE	W01
	BYTE		        Dn4 
	BYTE		N05     Fn4 
	BYTE	W12
	BYTE		N04     An3 
	BYTE	W12
	BYTE		N05   
	BYTE	W11
	BYTE		N05   
	BYTE	W13
	BYTE		N05   
	BYTE	W06
// 062   ----------------------------------------
	BYTE	W06
	BYTE		N05   
	BYTE	W11
	BYTE		N06   
	BYTE	W12
	BYTE		N23   
	BYTE	W13
	BYTE		N05     Dn4 
	BYTE		N05     Fn4 
	BYTE		N05     An4 
	BYTE	W12
	BYTE		N04     An3 
	BYTE	W12
	BYTE		N05   
	BYTE	W12
	BYTE		N21     As3 
	BYTE	W11
	BYTE		N05     As4 
	BYTE	W01
	BYTE		        Dn4 
	BYTE		N05     Fn4 
	BYTE	W06
// 063   ----------------------------------------
	BYTE	W06
	BYTE		N04     An3 
	BYTE	W12
	BYTE		N04   
	BYTE	W12
	BYTE		N22     As3 
	BYTE	W12
	BYTE		N05     Dn4 
	BYTE		N05     Fn4 
	BYTE		N05     As4 
	BYTE	W11
	BYTE		N04     Fn4 
	BYTE	W01
	BYTE		        An3 
	BYTE	W11
	BYTE		N04   
	BYTE		N04     Fn4 
	BYTE	W13
	BYTE		        Fn3 
	BYTE		N05     An3 
	BYTE		N05     Dn4 
	BYTE	W11
	BYTE		        Fn3 
	BYTE		N06     An3 
	BYTE		N06     Dn4 
	BYTE	W07
// 064   ----------------------------------------
	BYTE	W05
	BYTE		N05     An3 
	BYTE		N05     Dn4 
	BYTE	W01
	BYTE		        Fn3 
	BYTE	W11
	BYTE		        An3 
	BYTE		N05     Dn4 
	BYTE	W01
	BYTE		        Fn3 
	BYTE	W11
	BYTE		        An3 
	BYTE		N06     Dn4 
	BYTE	W01
	BYTE		N05     Fn3 
	BYTE	W11
	BYTE		        An3 
	BYTE		N06     Dn4 
	BYTE	W01
	BYTE		N05     Fn3 
	BYTE	W11
	BYTE		        Gn3 
	BYTE		N05     Dn4 
	BYTE	W01
	BYTE		        En3 
	BYTE	W11
	BYTE		N05   
	BYTE		N06     Gn3 
	BYTE		N06     Dn4 
	BYTE	W12
	BYTE		N05   
	BYTE	W01
	BYTE		N04     Gn3 
	BYTE		N05     As3 
	BYTE	W11
	BYTE		        Gn3 
	BYTE		N05     As3 
	BYTE		N05     Dn4 
	BYTE	W07
// 065   ----------------------------------------
	BYTE	W05
	BYTE		N05   
	BYTE	W01
	BYTE		N22     Fn3 
	BYTE		N22     An3 
	BYTE	W11
	BYTE		N06     Dn4 
	BYTE	W12
	BYTE		N05     Gn3 
	BYTE		N05     Dn4 
	BYTE	W01
	BYTE		        En3 
	BYTE	W11
	BYTE		        Gn3 
	BYTE		N05     As3 
	BYTE		N06     Dn4 
	BYTE	W13
	BYTE		N09     An3 
	BYTE		N10     Fn4 
	BYTE	W11
	BYTE		N10   
	BYTE	W01
	BYTE		        An3 
	BYTE	W12
	BYTE		N04     Fn3 
	BYTE		N05     An3 
	BYTE		N05     Dn4 
	BYTE	W11
	BYTE		        Fn3 
	BYTE		N05     An3 
	BYTE		N05     Dn4 
	BYTE	W07
// 066   ----------------------------------------
	BYTE	W05
	BYTE		        An3 
	BYTE		N05     Dn4 
	BYTE	W01
	BYTE		        Fn3 
	BYTE	W11
	BYTE		N05   
	BYTE		N05     An3 
	BYTE		N06     Dn4 
	BYTE	W13
	BYTE		N04     Fn3 
	BYTE		N04     An3 
	BYTE		N05     Dn4 
	BYTE	W11
	BYTE		        Fn3 
	BYTE		N05     An3 
	BYTE		N06     Dn4 
	BYTE	W13
	BYTE		N04     Gn3 
	BYTE		N04     Dn4 
	BYTE	W01
	BYTE		        En3 
	BYTE	W10
	BYTE		N05   
	BYTE		N05     Gn3 
	BYTE		N05     Dn4 
	BYTE	W13
	BYTE		N04     Gn3 
	BYTE		N05     As3 
	BYTE		N05     Dn4 
	BYTE	W11
	BYTE		        Gn3 
	BYTE		N05     As3 
	BYTE		N06     Dn4 
	BYTE	W07
// 067   ----------------------------------------
	BYTE	W06
	BYTE		N21     Fn3 
	BYTE		N22     An3 
	BYTE		N05     Dn4 
	BYTE	W11
	BYTE		N06   
	BYTE	W13
	BYTE		N04     Gn3 
	BYTE		N05     Dn4 
	BYTE	W01
	BYTE		N04     En3 
	BYTE	W10
	BYTE		N05     Gn3 
	BYTE		N05     As3 
	BYTE		N05     Dn4 
	BYTE	W54
	BYTE	W01
// 068   ----------------------------------------
	BYTE	W96
// 069   ----------------------------------------
	BYTE	W96
// 070   ----------------------------------------
	BYTE	W96
// 071   ----------------------------------------
	BYTE	W96
// 072   ----------------------------------------
	BYTE	W96
// 073   ----------------------------------------
	BYTE	W96
// 074   ----------------------------------------
	BYTE	W96
// 075   ----------------------------------------
	BYTE	W96
// 076   ----------------------------------------
	BYTE	W96
// 077   ----------------------------------------
	BYTE	W96
// 078   ----------------------------------------
	BYTE	W96
// 079   ----------------------------------------
	BYTE	W96
// 080   ----------------------------------------
	BYTE	W96
// 081   ----------------------------------------
	BYTE	W96
// 082   ----------------------------------------
	BYTE	W96
// 083   ----------------------------------------
	BYTE	W96
// 084   ----------------------------------------
	BYTE	W96
// 085   ----------------------------------------
	BYTE	W96
// 086   ----------------------------------------
	BYTE	W96
// 087   ----------------------------------------
	BYTE	W96
// 088   ----------------------------------------
	BYTE	W96
// 089   ----------------------------------------
	BYTE	W96
// 090   ----------------------------------------
	BYTE	W96
// 091   ----------------------------------------
	BYTE	W52
	BYTE	W01
	BYTE		        Cn3   v056
	BYTE		N05     En3   v052
	BYTE		N05     As3   v060
	BYTE	W11
	BYTE		        As3   v056
	BYTE	W01
	BYTE		        Cn3   v048
	BYTE		N05     En3 
	BYTE	W11
	BYTE		N06     Cn3   v056
	BYTE		N05     En3   v048
	BYTE	W12
	BYTE		N06     Cn3   v060
	BYTE		N06     As3   v064
	BYTE	W01
	BYTE		        En3   v048
	BYTE	W07
// 092   ----------------------------------------
	BYTE	W04
	BYTE		N05     As3   v076
	BYTE	W01
	BYTE		        Cn3   v064
	BYTE		N05     En3   v052
	BYTE	W11
	BYTE		N06     Cn3   v064
	BYTE		N06     As3   v088
	BYTE	W01
	BYTE		N05     En3   v060
	BYTE	W11
	BYTE		N06     Cn3   v084
	BYTE		N06     As3   v100
	BYTE	W01
	BYTE		        En3   v072
	BYTE	W11
	BYTE		        Cn3   v100
	BYTE	W01
	BYTE		N05     En3 
	BYTE		N05     As3   v112
	BYTE	W11
	BYTE		N06     Cs3   v127
	BYTE		N06     En3 
	BYTE	W01
	BYTE		        As3 
	BYTE	W11
	BYTE		        Cs3 
	BYTE		N06     As3 
	BYTE	W01
	BYTE		        En3 
	BYTE	W12
	BYTE		N05     Cs3 
	BYTE		N05     En3 
	BYTE		N05     As3 
	BYTE	W11
	BYTE		N06     Cs3 
	BYTE		N06     As3 
	BYTE	W01
	BYTE		        En3 
	BYTE	W07
// 093   ----------------------------------------
	BYTE	W04
	BYTE		        Cs3 
	BYTE		N06     As3 
	BYTE	W01
	BYTE		        En3 
	BYTE	W11
	BYTE		        Cs3 
	BYTE		N06     As3 
	BYTE	W01
	BYTE		        En3 
	BYTE	W11
	BYTE		        Cs3 
	BYTE		N06     As3 
	BYTE	W01
	BYTE		        En3 
	BYTE	W11
	BYTE		        Cs3 
	BYTE	W01
	BYTE		N05     En3 
	BYTE		N05     As3 
	BYTE	W54
	BYTE	W01
// 094   ----------------------------------------
	BYTE	W96
// 095   ----------------------------------------
	BYTE	W72
	BYTE	W01
	BYTE		N03     Cn4   v100
	BYTE		N03     An4 
	BYTE	W10
	BYTE		N04     Cn4 
	BYTE	W01
	BYTE		        An4 
	BYTE	W12
// 096   ----------------------------------------
	BYTE		        Cn4 
	BYTE		N04     An4 
	BYTE	W11
	BYTE		        Cn4 
	BYTE	W01
	BYTE		        An4 
	BYTE	W12
	BYTE		        Cn4 
	BYTE		N04     An4 
	BYTE	W11
	BYTE		        Cn4 
	BYTE	W01
	BYTE		        An4 
	BYTE	W12
	BYTE		        Cn4 
	BYTE		N04     An4 
	BYTE	W11
	BYTE		N05     Cn4 
	BYTE		N04     An4 
	BYTE	W13
	BYTE		        Cs4 
	BYTE		N04     As4 
	BYTE	W12
	BYTE		        Cs4 
	BYTE		N04     As4 
	BYTE	W12
// 097   ----------------------------------------
	BYTE		        Cs4 
	BYTE		N04     As4 
	BYTE	W12
	BYTE		        Cs4 
	BYTE		N04     As4 
	BYTE	W12
	BYTE		        Cs4 
	BYTE		N03     As4 
	BYTE	W11
	BYTE		N04   
	BYTE	W01
	BYTE		        Cs4 
	BYTE	W12
	BYTE		N04   
	BYTE		N04     As4 
	BYTE	W11
	BYTE		        Cs4 
	BYTE	W01
	BYTE		        As4 
	BYTE	W36
// 098   ----------------------------------------
	BYTE	W96
// 099   ----------------------------------------
	BYTE	W96
// 100   ----------------------------------------
	BYTE	W96
// 101   ----------------------------------------
	BYTE	W96
// 102   ----------------------------------------
	BYTE	W96
// 103   ----------------------------------------
	BYTE	W96
// 104   ----------------------------------------
	BYTE	W96
// 105   ----------------------------------------
	BYTE	W64
	BYTE	W01
	BYTE		N02     Dn5   v127
	BYTE	W02
	BYTE		N03     Ds5 
	BYTE	W02
	BYTE		        En5 
	BYTE	W03
	BYTE		N04     Fn5 
	BYTE	W17
	BYTE		N02     Dn5 
	BYTE	W02
	BYTE		N03     Ds5 
	BYTE	W02
	BYTE		        En5 
	BYTE	W03
// 106   ----------------------------------------
	BYTE		N04     Fn5 
	BYTE	W17
	BYTE		N02     Dn5 
	BYTE	W02
	BYTE		N03     Ds5 
	BYTE	W02
	BYTE		        En5 
	BYTE	W03
	BYTE		N04     Fn5 
	BYTE	W17
	BYTE		N03     Dn5 
	BYTE	W02
	BYTE		        Ds5 
	BYTE	W02
	BYTE		        En5 
	BYTE	W03
	BYTE		N06     Fn5 
	BYTE	W17
	BYTE		N02     Dn5 
	BYTE	W02
	BYTE		N03     Ds5 
	BYTE	W02
	BYTE		        En5 
	BYTE	W03
	BYTE		N04     Fn5 
	BYTE	W17
	BYTE		N02     Dn5 
	BYTE	W02
	BYTE		N03     Ds5 
	BYTE	W02
	BYTE		N04     En5 
	BYTE	W03
// 107   ----------------------------------------
	BYTE		        Fn5 
	BYTE	W17
	BYTE		N03     Dn5 
	BYTE	W02
	BYTE		        Ds5 
	BYTE	W02
	BYTE		N04     En5 
	BYTE	W03
	BYTE		        Fn5 
	BYTE	W17
	BYTE		N02     Dn5 
	BYTE	W02
	BYTE		N03     Ds5 
	BYTE	W02
	BYTE		        En5 
	BYTE	W03
	BYTE		N06     Fn5 
	BYTE	W17
	BYTE		N03     Dn5 
	BYTE	W02
	BYTE		        Ds5 
	BYTE	W02
	BYTE		N04     En5 
	BYTE	W03
	BYTE		        Fn5 
	BYTE	W17
	BYTE		N03     Dn5 
	BYTE	W02
	BYTE		        Ds5 
	BYTE	W02
	BYTE		N04     En5 
	BYTE	W03
// 108   ----------------------------------------
	BYTE		        Fn5 
	BYTE	W17
	BYTE		N02     Dn5 
	BYTE	W02
	BYTE		N03     Ds5 
	BYTE	W02
	BYTE		        En5 
	BYTE	W03
	BYTE		N04     Fn5 
	BYTE	W17
	BYTE		N03     Dn5 
	BYTE	W02
	BYTE		        Ds5 
	BYTE	W02
	BYTE		N04     En5 
	BYTE	W03
	BYTE		N06     Fn5 
	BYTE	W17
	BYTE		N03     Dn5 
	BYTE	W02
	BYTE		        Ds5 
	BYTE	W02
	BYTE		N04     En5 
	BYTE	W03
	BYTE		        Fn5 
	BYTE	W17
	BYTE		N03     Dn5 
	BYTE	W02
	BYTE		        Ds5 
	BYTE	W02
	BYTE		        En5 
	BYTE	W03
// 109   ----------------------------------------
	BYTE		N04     Fn5 
	BYTE	W17
	BYTE		N02     Dn5 
	BYTE	W02
	BYTE		N03     Ds5 
	BYTE	W02
	BYTE		        En5 
	BYTE	W03
	BYTE		N04     Fn5 
	BYTE	W17
	BYTE		N03     Dn5 
	BYTE	W02
	BYTE		        Ds5 
	BYTE	W02
	BYTE		N04     En5 
	BYTE	W03
	BYTE		N06     Fn5 
	BYTE	W17
	BYTE		N03     Dn5 
	BYTE	W02
	BYTE		        Ds5 
	BYTE	W02
	BYTE		N05     En5 
	BYTE	W03
	BYTE		N03     Fn5 
	BYTE	W17
	BYTE		N02     Dn5 
	BYTE	W02
	BYTE		N03     Ds5 
	BYTE	W02
	BYTE		N04     En5 
	BYTE	W03
// 110   ----------------------------------------
	BYTE		N03     Fn5 
	BYTE	W17
	BYTE		N02     Dn5 
	BYTE	W02
	BYTE		N03     Ds5 
	BYTE	W02
	BYTE		N04     En5 
	BYTE	W03
	BYTE		        Fn5 
	BYTE	W17
	BYTE		N02     Dn5 
	BYTE	W02
	BYTE		N03     Ds5 
	BYTE	W02
	BYTE		N04     En5 
	BYTE	W03
	BYTE		N06     Fn5 
	BYTE	W17
	BYTE		N03     Dn5 
	BYTE	W02
	BYTE		        Ds5 
	BYTE	W02
	BYTE		N04     En5 
	BYTE	W03
	BYTE		        Fn5 
	BYTE	W17
	BYTE		N03     Dn5 
	BYTE	W02
	BYTE		        Ds5 
	BYTE	W02
	BYTE		N04     En5 
	BYTE	W03
// 111   ----------------------------------------
	BYTE		        Fn5 
	BYTE	W17
	BYTE		N03     Dn5 
	BYTE	W02
	BYTE		        Ds5 
	BYTE	W02
	BYTE		N04     En5 
	BYTE	W03
	BYTE		        Fn5 
	BYTE	W17
	BYTE		N03     Dn5 
	BYTE	W02
	BYTE		        Ds5 
	BYTE	W02
	BYTE		N04     En5 
	BYTE	W03
	BYTE		N06     Fn5 
	BYTE	W17
	BYTE		N02     Dn5 
	BYTE	W02
	BYTE		        Ds5 
	BYTE	W02
	BYTE		N04     En5 
	BYTE	W03
	BYTE		        Fn5 
	BYTE	W17
	BYTE		N03     Dn5 
	BYTE	W02
	BYTE		        Ds5 
	BYTE	W02
	BYTE		N04     En5 
	BYTE	W03
// 112   ----------------------------------------
	BYTE		        Fn5 
	BYTE	W17
	BYTE		N02     Dn5 
	BYTE	W02
	BYTE		N03     Ds5 
	BYTE	W02
	BYTE		N04     En5 
	BYTE	W03
	BYTE		        Fn5 
	BYTE	W17
	BYTE		N03     Dn5 
	BYTE	W02
	BYTE		        Ds5 
	BYTE	W02
	BYTE		N04     En5 
	BYTE	W03
	BYTE		N06     Fn5 
	BYTE	W17
	BYTE		N03     Dn5 
	BYTE	W02
	BYTE		        Ds5 
	BYTE	W02
	BYTE		N04     En5 
	BYTE	W03
	BYTE		        Fn5 
	BYTE	W17
	BYTE		N02     Dn5 
	BYTE	W02
	BYTE		N03     Ds5 
	BYTE	W02
	BYTE		N04     En5 
	BYTE	W03
// 113   ----------------------------------------
	BYTE		        Fn5 
	BYTE	W17
	BYTE		N02     Dn5 
	BYTE	W02
	BYTE		N03     Ds5 
	BYTE	W02
	BYTE		N04     En5 
	BYTE	W03
	BYTE		        Fn5 
	BYTE	W17
	BYTE		N03     Dn5 
	BYTE	W02
	BYTE		        Ds5 
	BYTE	W02
	BYTE		N04     En5 
	BYTE	W03
	BYTE		N06     Fn5 
	BYTE	W17
	BYTE		N02     Dn5 
	BYTE	W02
	BYTE		N03     Ds5 
	BYTE	W02
	BYTE		N05     En5 
	BYTE	W03
	BYTE		N04     Fn5 
	BYTE	W17
	BYTE		N02     Dn5 
	BYTE	W02
	BYTE		N03     Ds5 
	BYTE	W02
	BYTE		N05     En5 
	BYTE	W03
// 114   ----------------------------------------
	BYTE		N03     Fn5 
	BYTE	W18
	BYTE		N02     Dn5 
	BYTE	W01
	BYTE		N03     Ds5 
	BYTE	W02
	BYTE		N05     En5 
	BYTE	W03
	BYTE		N04     Fn5 
	BYTE	W17
	BYTE		N03     Dn5 
	BYTE	W02
	BYTE		        Ds5 
	BYTE	W02
	BYTE		N05     En5 
	BYTE	W03
	BYTE		N06     Fn5 
	BYTE	W17
	BYTE		N02     Dn5 
	BYTE	W02
	BYTE		N03     Ds5 
	BYTE	W02
	BYTE		N05     En5 
	BYTE	W03
	BYTE		N04     Fn5 
	BYTE	W17
	BYTE		N02     Dn5 
	BYTE	W02
	BYTE		N03     Ds5 
	BYTE	W02
	BYTE		N04     En5 
	BYTE	W03
// 115   ----------------------------------------
	BYTE		        Fn5 
	BYTE	W17
	BYTE		N03     Dn5 
	BYTE	W02
	BYTE		        Ds5 
	BYTE	W02
	BYTE		N05     En5 
	BYTE	W03
	BYTE		N04     Fn5 
	BYTE	W17
	BYTE		N02     Dn5 
	BYTE	W02
	BYTE		N03     Ds5 
	BYTE	W02
	BYTE		N05     En5 
	BYTE	W03
	BYTE		        Fn5 
	BYTE	W17
	BYTE		N02     Dn5 
	BYTE	W02
	BYTE		N03     Ds5 
	BYTE	W02
	BYTE		N05     En5 
	BYTE	W03
	BYTE		N03     Fn5 
	BYTE	W17
	BYTE		N02     Dn5 
	BYTE	W02
	BYTE		N03     Ds5 
	BYTE	W02
	BYTE		N05     En5 
	BYTE	W03
// 116   ----------------------------------------
	BYTE	W01
	BYTE		N03     Fn5 
	BYTE	W17
	BYTE		N02     Dn5 
	BYTE	W01
	BYTE		N03     Ds5 
	BYTE	W02
	BYTE		N05     En5 
	BYTE	W03
	BYTE		N04     Fn5 
	BYTE	W17
	BYTE		N03     Dn5 
	BYTE	W02
	BYTE		        Ds5 
	BYTE	W02
	BYTE		N05     En5 
	BYTE	W03
	BYTE		        Fn5 
	BYTE	W24
	BYTE		N04   
	BYTE	W17
	BYTE		N02     Dn5 
	BYTE	W02
	BYTE		N03     Ds5 
	BYTE	W02
	BYTE		N05     En5 
	BYTE	W03
// 117   ----------------------------------------
	BYTE		N03     Fn5 
	BYTE	W17
	BYTE		        Dn5 
	BYTE	W02
	BYTE		        Ds5 
	BYTE	W02
	BYTE		N05     En5 
	BYTE	W03
	BYTE		N04     Fn5 
	BYTE	W17
	BYTE		N03     Dn5 
	BYTE	W02
	BYTE		        Ds5 
	BYTE	W02
	BYTE		N04     En5 
	BYTE	W03
	BYTE		N06     Fn5 
	BYTE	W17
	BYTE		N02     Dn5 
	BYTE	W02
	BYTE		N03     Ds5 
	BYTE	W02
	BYTE		N02     En5 
	BYTE	W03
	BYTE		N04     An3 
	BYTE		N04     Fn4 
	BYTE	W12
	BYTE		        An3 
	BYTE		N04     Fn4 
	BYTE	W12
// 118   ----------------------------------------
	BYTE		N05     Dn4 
	BYTE	W01
	BYTE		        Fn3 
	BYTE		N05     An3 
	BYTE	W11
	BYTE		        Fn3 
	BYTE		N05     An3 
	BYTE		N05     Dn4 
	BYTE	W12
	BYTE		        Fn3 
	BYTE		N05     An3 
	BYTE		N05     Dn4 
	BYTE	W12
	BYTE		        An3 
	BYTE		N05     Dn4 
	BYTE	W01
	BYTE		        Fn3 
	BYTE	W11
	BYTE		N05   
	BYTE		N05     An3 
	BYTE		N05     Dn4 
	BYTE	W12
	BYTE		        Fn3 
	BYTE		N05     An3 
	BYTE		N06     Dn4 
	BYTE	W12
	BYTE		N05     En3 
	BYTE		N05     Gn3 
	BYTE		N05     Dn4 
	BYTE	W12
	BYTE		        En3 
	BYTE		N06     Gn3 
	BYTE		N06     Dn4 
	BYTE	W12
// 119   ----------------------------------------
	BYTE		N05     Gn3 
	BYTE		N06     As3 
	BYTE		N06     Dn4 
	BYTE	W12
	BYTE		N05     Gn3 
	BYTE		N06     As3 
	BYTE		N06     Dn4 
	BYTE	W12
	BYTE		N22     Fn3 
	BYTE		N22     An3 
	BYTE		N06     Dn4 
	BYTE	W11
	BYTE		N06   
	BYTE	W13
	BYTE		N05     Gn3 
	BYTE		N05     Dn4 
	BYTE	W01
	BYTE		        En3 
	BYTE	W11
	BYTE		        Gn3 
	BYTE		N05     As3 
	BYTE		N05     Dn4 
	BYTE	W12
	BYTE		N10     Fn4 
	BYTE	W01
	BYTE		        An3 
	BYTE	W11
	BYTE		N10   
	BYTE		N10     Fn4 
	BYTE	W12
// 120   ----------------------------------------
	BYTE		N05     An3 
	BYTE		N05     Dn4 
	BYTE	W01
	BYTE		        Fn3 
	BYTE	W11
	BYTE		N05   
	BYTE		N06     An3 
	BYTE		N06     Dn4 
	BYTE	W12
	BYTE		N05     Fn3 
	BYTE		N06     An3 
	BYTE		N06     Dn4 
	BYTE	W12
	BYTE		N05     Fn3 
	BYTE		N05     An3 
	BYTE		N06     Dn4 
	BYTE	W12
	BYTE		N05     Fn3 
	BYTE		N06     An3 
	BYTE		N06     Dn4 
	BYTE	W11
	BYTE		VOL     100*feb20200423182207_mvl/mxv
	BYTE	W01
	BYTE		N05     Fn3 
	BYTE		N06     An3 
	BYTE		N06     Dn4 
	BYTE	W04
	BYTE		VOL     99*feb20200423182207_mvl/mxv
	BYTE	W04
	BYTE		        98*feb20200423182207_mvl/mxv
	BYTE	W04
	BYTE		        97*feb20200423182207_mvl/mxv
	BYTE		N05     En3 
	BYTE		N05     Gn3 
	BYTE		N05     Dn4 
	BYTE	W04
	BYTE		VOL     96*feb20200423182207_mvl/mxv
	BYTE	W04
	BYTE		        95*feb20200423182207_mvl/mxv
	BYTE	W04
	BYTE		N05     En3 
	BYTE		N06     Gn3 
	BYTE		N06     Dn4 
	BYTE	W01
	BYTE		VOL     94*feb20200423182207_mvl/mxv
	BYTE	W04
	BYTE		        93*feb20200423182207_mvl/mxv
	BYTE	W04
	BYTE		        92*feb20200423182207_mvl/mxv
	BYTE	W03
// 121   ----------------------------------------
	BYTE		N05     Gn3 
	BYTE		N06     As3 
	BYTE		N06     Dn4 
	BYTE	W01
	BYTE		VOL     91*feb20200423182207_mvl/mxv
	BYTE	W04
	BYTE		        90*feb20200423182207_mvl/mxv
	BYTE	W05
	BYTE		        89*feb20200423182207_mvl/mxv
	BYTE	W01
	BYTE		N06   
	BYTE	W01
	BYTE		N05     Gn3 
	BYTE		N05     As3 
	BYTE	W02
	BYTE		VOL     88*feb20200423182207_mvl/mxv
	BYTE	W04
	BYTE		        87*feb20200423182207_mvl/mxv
	BYTE	W04
	BYTE		        86*feb20200423182207_mvl/mxv
	BYTE	W02
	BYTE		N22     Fn3 
	BYTE		N22     An3 
	BYTE		N06     Dn4 
	BYTE	W02
	BYTE		VOL     85*feb20200423182207_mvl/mxv
	BYTE	W05
	BYTE		        84*feb20200423182207_mvl/mxv
	BYTE	W04
	BYTE		        83*feb20200423182207_mvl/mxv
	BYTE		N06   
	BYTE	W04
	BYTE		VOL     82*feb20200423182207_mvl/mxv
	BYTE	W04
	BYTE		        81*feb20200423182207_mvl/mxv
	BYTE	W04
	BYTE		        80*feb20200423182207_mvl/mxv
	BYTE		N06   
	BYTE	W01
	BYTE		N05     En3 
	BYTE		N06     Gn3 
	BYTE	W04
	BYTE		VOL     79*feb20200423182207_mvl/mxv
	BYTE	W04
	BYTE		        78*feb20200423182207_mvl/mxv
	BYTE	W04
	BYTE		        77*feb20200423182207_mvl/mxv
	BYTE		N05   
	BYTE		N06     As3 
	BYTE		N06     Dn4 
	BYTE	W04
	BYTE		VOL     76*feb20200423182207_mvl/mxv
	BYTE	W04
	BYTE		        75*feb20200423182207_mvl/mxv
	BYTE	W05
	BYTE		        74*feb20200423182207_mvl/mxv
	BYTE		N05     An3 
	BYTE	W04
	BYTE		VOL     73*feb20200423182207_mvl/mxv
	BYTE	W04
	BYTE		        72*feb20200423182207_mvl/mxv
	BYTE	W03
	BYTE		N06   
	BYTE	W01
	BYTE		VOL     71*feb20200423182207_mvl/mxv
	BYTE	W04
	BYTE		        70*feb20200423182207_mvl/mxv
	BYTE	W05
	BYTE		        69*feb20200423182207_mvl/mxv
	BYTE	W02
// 122   ----------------------------------------
	BYTE		N05   
	BYTE	W02
	BYTE		VOL     68*feb20200423182207_mvl/mxv
	BYTE	W04
	BYTE		        67*feb20200423182207_mvl/mxv
	BYTE	W04
	BYTE		        66*feb20200423182207_mvl/mxv
	BYTE	W02
	BYTE		N06   
	BYTE	W02
	BYTE		VOL     65*feb20200423182207_mvl/mxv
	BYTE	W05
	BYTE		        64*feb20200423182207_mvl/mxv
	BYTE	W04
	BYTE		        63*feb20200423182207_mvl/mxv
	BYTE	W02
	BYTE		N05   
	BYTE	W02
	BYTE		VOL     62*feb20200423182207_mvl/mxv
	BYTE	W04
	BYTE		        61*feb20200423182207_mvl/mxv
	BYTE	W04
	BYTE		        60*feb20200423182207_mvl/mxv
	BYTE	W01
	BYTE		N05   
	BYTE	W04
	BYTE		VOL     59*feb20200423182207_mvl/mxv
	BYTE	W04
	BYTE		        58*feb20200423182207_mvl/mxv
	BYTE	W04
	BYTE		        57*feb20200423182207_mvl/mxv
	BYTE		N23   
	BYTE	W04
	BYTE		VOL     56*feb20200423182207_mvl/mxv
	BYTE	W04
	BYTE		        55*feb20200423182207_mvl/mxv
	BYTE	W04
	BYTE		N06     Dn4 
	BYTE		N05     Fn4 
	BYTE		N05     An4 
	BYTE	W01
	BYTE		VOL     54*feb20200423182207_mvl/mxv
	BYTE	W04
	BYTE		        53*feb20200423182207_mvl/mxv
	BYTE	W04
	BYTE		        52*feb20200423182207_mvl/mxv
	BYTE	W03
	BYTE		N04     An3 
	BYTE	W01
	BYTE		VOL     51*feb20200423182207_mvl/mxv
	BYTE	W04
	BYTE		        50*feb20200423182207_mvl/mxv
	BYTE	W05
	BYTE		        49*feb20200423182207_mvl/mxv
	BYTE	W02
	BYTE		N04   
	BYTE	W02
	BYTE		VOL     48*feb20200423182207_mvl/mxv
	BYTE	W04
	BYTE		        47*feb20200423182207_mvl/mxv
	BYTE	W04
	BYTE		        46*feb20200423182207_mvl/mxv
	BYTE	W02
// 123   ----------------------------------------
	BYTE		N22     As3 
	BYTE	W02
	BYTE		VOL     45*feb20200423182207_mvl/mxv
	BYTE	W05
	BYTE		        44*feb20200423182207_mvl/mxv
	BYTE	W04
	BYTE		        43*feb20200423182207_mvl/mxv
	BYTE	W01
	BYTE		N04     Dn4 
	BYTE		N04     Fn4 
	BYTE		N04     As4 
	BYTE	W03
	BYTE		VOL     42*feb20200423182207_mvl/mxv
	BYTE	W04
	BYTE		        41*feb20200423182207_mvl/mxv
	BYTE	W04
	BYTE		        40*feb20200423182207_mvl/mxv
	BYTE	W01
	BYTE		N04     An3 
	BYTE	W04
	BYTE		VOL     39*feb20200423182207_mvl/mxv
	BYTE	W04
	BYTE		        38*feb20200423182207_mvl/mxv
	BYTE	W04
	BYTE		        37*feb20200423182207_mvl/mxv
	BYTE		N04   
	BYTE	W04
	BYTE		VOL     36*feb20200423182207_mvl/mxv
	BYTE	W04
	BYTE		        35*feb20200423182207_mvl/mxv
	BYTE	W04
	BYTE		N23     As3 
	BYTE	W01
	BYTE		VOL     34*feb20200423182207_mvl/mxv
	BYTE	W04
	BYTE		        33*feb20200423182207_mvl/mxv
	BYTE	W04
	BYTE		        32*feb20200423182207_mvl/mxv
	BYTE	W03
	BYTE		N04     Dn4 
	BYTE	W01
	BYTE		VOL     31*feb20200423182207_mvl/mxv
	BYTE		N04     Fn4 
	BYTE		N04     As4 
	BYTE	W04
	BYTE		VOL     30*feb20200423182207_mvl/mxv
	BYTE	W05
	BYTE		        29*feb20200423182207_mvl/mxv
	BYTE	W02
	BYTE		N05     An3 
	BYTE	W02
	BYTE		VOL     28*feb20200423182207_mvl/mxv
	BYTE	W04
	BYTE		        27*feb20200423182207_mvl/mxv
	BYTE	W04
	BYTE		        26*feb20200423182207_mvl/mxv
	BYTE	W02
	BYTE		N05   
	BYTE	W02
	BYTE		VOL     25*feb20200423182207_mvl/mxv
	BYTE	W05
	BYTE		        24*feb20200423182207_mvl/mxv
	BYTE	W04
	BYTE		        23*feb20200423182207_mvl/mxv
	BYTE	W01
// 124   ----------------------------------------
	BYTE		N05   
	BYTE	W03
	BYTE		VOL     22*feb20200423182207_mvl/mxv
	BYTE	W04
	BYTE		        21*feb20200423182207_mvl/mxv
	BYTE	W04
	BYTE		        20*feb20200423182207_mvl/mxv
	BYTE	W01
	BYTE		N06   
	BYTE	W04
	BYTE		VOL     19*feb20200423182207_mvl/mxv
	BYTE	W04
	BYTE		        18*feb20200423182207_mvl/mxv
	BYTE	W04
	BYTE		        17*feb20200423182207_mvl/mxv
	BYTE		N05   
	BYTE	W04
	BYTE		VOL     16*feb20200423182207_mvl/mxv
	BYTE	W04
	BYTE		        15*feb20200423182207_mvl/mxv
	BYTE	W04
	BYTE		N05   
	BYTE	W01
	BYTE		VOL     14*feb20200423182207_mvl/mxv
	BYTE	W04
	BYTE		        13*feb20200423182207_mvl/mxv
	BYTE	W04
	BYTE		        12*feb20200423182207_mvl/mxv
	BYTE	W03
	BYTE		N22   
	BYTE	W01
	BYTE		VOL     11*feb20200423182207_mvl/mxv
	BYTE	W04
	BYTE		        10*feb20200423182207_mvl/mxv
	BYTE	W05
	BYTE		        9*feb20200423182207_mvl/mxv
	BYTE	W02
	BYTE		N06     Dn4 
	BYTE		N06     Fn4 
	BYTE		N06     An4 
	BYTE	W02
	BYTE		VOL     8*feb20200423182207_mvl/mxv
	BYTE	W04
	BYTE		        7*feb20200423182207_mvl/mxv
	BYTE	W04
	BYTE		        6*feb20200423182207_mvl/mxv
	BYTE	W02
	BYTE		N04     An3 
	BYTE	W02
	BYTE		VOL     5*feb20200423182207_mvl/mxv
	BYTE	W05
	BYTE		        4*feb20200423182207_mvl/mxv
	BYTE	W04
	BYTE		        3*feb20200423182207_mvl/mxv
	BYTE	W01
	BYTE		N04   
	BYTE	W03
	BYTE		VOL     2*feb20200423182207_mvl/mxv
	BYTE	W04
	BYTE		        1*feb20200423182207_mvl/mxv
	BYTE	W05
// 125   ----------------------------------------
	BYTE		        0*feb20200423182207_mvl/mxv
	BYTE		N22     As3 
	BYTE	W12
	BYTE		N05     Fn4 
	BYTE		N04     As4 
	BYTE	W01
	BYTE		        Dn4 
	BYTE	W11
	BYTE		        An3 
	BYTE	W12
	BYTE		N05   
	BYTE	W13
	BYTE		N22     As3 
	BYTE	W11
	BYTE		N05     Dn4 
	BYTE		N04     Fn4 
	BYTE		N04     As4 
	BYTE	W36
// 126   ----------------------------------------
	BYTE	W96
// 127   ----------------------------------------
	BYTE	FINE

//**************** Track 5 (Midi-Chn.5) ****************//

feb20200423182207_5:
	BYTE	KEYSH   feb20200423182207_key+0
// 000   ----------------------------------------
	BYTE	W01
	BYTE		VOICE   73
	BYTE		VOL     70*feb20200423182207_mvl/mxv
	BYTE		PAN     c_v+24
	BYTE	W92
	BYTE	W03
// 001   ----------------------------------------
	BYTE	W96
// 002   ----------------------------------------
	BYTE	W96
// 003   ----------------------------------------
	BYTE		N01     Ds5   v127
	BYTE	W02
	BYTE		N11     En5 
	BYTE	W10
	BYTE		N05     An4 
	BYTE	W12
	BYTE		N01     Ds5 
	BYTE	W02
	BYTE		N11     En5 
	BYTE	W12
	BYTE		N05     An4 
	BYTE	W10
	BYTE		N01     Ds5 
	BYTE	W02
	BYTE		N11     En5 
	BYTE	W12
	BYTE		N04     An4 
	BYTE	W10
	BYTE		N01     Ds5 
	BYTE	W02
	BYTE		N11     En5 
	BYTE	W12
	BYTE		N05     An4 
	BYTE	W10
// 004   ----------------------------------------
	BYTE		N01     Ds5 
	BYTE	W02
	BYTE		N11     En5 
	BYTE	W10
	BYTE		N05     An4 
	BYTE	W12
	BYTE		N01     Ds5 
	BYTE	W02
	BYTE		N11     En5 
	BYTE	W12
	BYTE		N05     An4 
	BYTE	W10
	BYTE		N01     Ds5 
	BYTE	W02
	BYTE		N10     En5 
	BYTE	W12
	BYTE		N04     An4 
	BYTE	W10
	BYTE		N01     Ds5 
	BYTE	W02
	BYTE		N11     En5 
	BYTE	W12
	BYTE		N05     An4 
	BYTE	W10
// 005   ----------------------------------------
	BYTE	W96
// 006   ----------------------------------------
	BYTE	W96
// 007   ----------------------------------------
	BYTE	W01
	BYTE		N03     Bn4 
	BYTE	W03
	BYTE		N04     Cn5 
	BYTE	W04
	BYTE		N05     Bn4 
	BYTE	W04
	BYTE		        As4 
	BYTE	W04
	BYTE		N04     Bn4 
	BYTE	W04
	BYTE		N05     As4 
	BYTE	W05
	BYTE		N04     An4 
	BYTE	W03
	BYTE		        As4 
	BYTE	W04
	BYTE		N05     An4 
	BYTE	W04
	BYTE		        Gn4 
	BYTE	W04
	BYTE		N04     An4 
	BYTE	W04
	BYTE		N05     Gn4 
	BYTE	W05
	BYTE		N03     Bn4 
	BYTE	W03
	BYTE		N05     Cn5 
	BYTE	W04
	BYTE		        Bn4 
	BYTE	W04
	BYTE		        As4 
	BYTE	W04
	BYTE		N04     Bn4 
	BYTE	W04
	BYTE		N06     As4 
	BYTE	W05
	BYTE		N03     An4 
	BYTE	W03
	BYTE		N05     As4 
	BYTE	W04
	BYTE		        An4 
	BYTE	W04
	BYTE		        Gn4 
	BYTE	W04
	BYTE		N04     An4 
	BYTE	W04
	BYTE		N05     Gn4 
	BYTE	W04
// 008   ----------------------------------------
	BYTE	W01
	BYTE		N04     Bn4 
	BYTE	W03
	BYTE		        Cn5 
	BYTE	W04
	BYTE		N05     Bn4 
	BYTE	W04
	BYTE		N04     As4 
	BYTE	W04
	BYTE		        Bn4 
	BYTE	W04
	BYTE		N05     As4 
	BYTE	W05
	BYTE		N03     An4 
	BYTE	W03
	BYTE		N05     As4 
	BYTE	W04
	BYTE		        An4 
	BYTE	W04
	BYTE		        Gn4 
	BYTE	W04
	BYTE		N04     An4 
	BYTE	W04
	BYTE		N06     Gn4 
	BYTE	W05
	BYTE		N03     Fs4 
	BYTE	W03
	BYTE		N05     Gn4 
	BYTE	W04
	BYTE		        Fs4 
	BYTE	W04
	BYTE		        En4 
	BYTE	W04
	BYTE		        Fs4 
	BYTE	W04
	BYTE		        En4 
	BYTE	W05
	BYTE		N04     Ds4 
	BYTE	W03
	BYTE		        En4 
	BYTE	W04
	BYTE		N05     Ds4 
	BYTE	W04
	BYTE		N04     Bn3 
	BYTE	W04
	BYTE		        Cn4 
	BYTE	W04
	BYTE		N05     Bn3 
	BYTE	W04
// 009   ----------------------------------------
	BYTE	W84
	BYTE	W01
	BYTE		N04     Dn5 
	BYTE	W03
	BYTE		        Ds5 
	BYTE	W04
	BYTE		N05     En5 
	BYTE	W04
// 010   ----------------------------------------
	BYTE	W02
	BYTE		N03     As5 
	BYTE	W92
	BYTE	W02
// 011   ----------------------------------------
	BYTE	W96
// 012   ----------------------------------------
	BYTE	W60
	BYTE		N05     Dn5 
	BYTE	W04
	BYTE		N04     Ds5 
	BYTE	W05
	BYTE		N05     En5 
	BYTE	W05
	BYTE		N03     As5 
	BYTE	W11
	BYTE		N04     Dn5 
	BYTE	W03
	BYTE		        Ds5 
	BYTE	W04
	BYTE		N05     En5 
	BYTE	W04
// 013   ----------------------------------------
	BYTE	W01
	BYTE		N03     As5 
	BYTE	W92
	BYTE	W03
// 014   ----------------------------------------
	BYTE	W96
// 015   ----------------------------------------
	BYTE	W96
// 016   ----------------------------------------
	BYTE	W96
// 017   ----------------------------------------
	BYTE	W96
// 018   ----------------------------------------
	BYTE	W96
// 019   ----------------------------------------
	BYTE	W96
// 020   ----------------------------------------
	BYTE	W96
// 021   ----------------------------------------
	BYTE	W96
// 022   ----------------------------------------
	BYTE	W96
// 023   ----------------------------------------
	BYTE	W96
// 024   ----------------------------------------
	BYTE	W96
// 025   ----------------------------------------
	BYTE	W60
	BYTE	W01
	BYTE		VOL     100*feb20200423182207_mvl/mxv
	BYTE	W32
	BYTE	W03
// 026   ----------------------------------------
	BYTE	W96
// 027   ----------------------------------------
	BYTE	W96
// 028   ----------------------------------------
	BYTE	W14
	BYTE		N44     Dn4 
	BYTE		N44     Fn4 
	BYTE		N44     An4 
	BYTE	W80
	BYTE	W02
// 029   ----------------------------------------
	BYTE	W14
	BYTE		        Cn4 
	BYTE		N44     Ds4 
	BYTE		N44     Gn4 
	BYTE	W80
	BYTE	W02
// 030   ----------------------------------------
	BYTE	W14
	BYTE		        Cs4 
	BYTE		N44     En4 
	BYTE		N44     An4 
	BYTE	W80
	BYTE	W02
// 031   ----------------------------------------
	BYTE	W14
	BYTE		        Gs4 
	BYTE		N44     Cn5 
	BYTE	W01
	BYTE		        Ds4 
	BYTE	W80
	BYTE	W01
// 032   ----------------------------------------
	BYTE	W14
	BYTE		        Fn4 
	BYTE		N44     Dn5 
	BYTE	W01
	BYTE		        An4 
	BYTE	W80
	BYTE	W01
// 033   ----------------------------------------
	BYTE	W14
	BYTE		        Ds4 
	BYTE		N44     As4 
	BYTE	W01
	BYTE		        Fs4 
	BYTE	W80
	BYTE	W01
// 034   ----------------------------------------
	BYTE	W14
	BYTE		        Cn4 
	BYTE		N44     An4 
	BYTE	W01
	BYTE		        Fn4 
	BYTE	W80
	BYTE	W01
// 035   ----------------------------------------
	BYTE	W14
	BYTE		        Fs4 
	BYTE	W01
	BYTE		        Bn4 
	BYTE		N44     Ds5 
	BYTE	W80
	BYTE	W01
// 036   ----------------------------------------
	BYTE	W96
// 037   ----------------------------------------
	BYTE	W96
// 038   ----------------------------------------
	BYTE	W96
// 039   ----------------------------------------
	BYTE	W96
// 040   ----------------------------------------
	BYTE	W96
// 041   ----------------------------------------
	BYTE	W96
// 042   ----------------------------------------
	BYTE	W96
// 043   ----------------------------------------
	BYTE	W96
// 044   ----------------------------------------
	BYTE	W96
// 045   ----------------------------------------
	BYTE	W96
// 046   ----------------------------------------
	BYTE	W96
// 047   ----------------------------------------
	BYTE	W96
// 048   ----------------------------------------
	BYTE	W96
// 049   ----------------------------------------
	BYTE	W96
// 050   ----------------------------------------
	BYTE	W96
// 051   ----------------------------------------
	BYTE	W96
// 052   ----------------------------------------
	BYTE	W96
// 053   ----------------------------------------
	BYTE	W96
// 054   ----------------------------------------
	BYTE	W96
// 055   ----------------------------------------
	BYTE	W96
// 056   ----------------------------------------
	BYTE	W96
// 057   ----------------------------------------
	BYTE	W96
// 058   ----------------------------------------
	BYTE	W96
// 059   ----------------------------------------
	BYTE	W96
// 060   ----------------------------------------
	BYTE	W96
// 061   ----------------------------------------
	BYTE	W96
// 062   ----------------------------------------
	BYTE	W96
// 063   ----------------------------------------
	BYTE	W96
// 064   ----------------------------------------
	BYTE	W96
// 065   ----------------------------------------
	BYTE	W96
// 066   ----------------------------------------
	BYTE	W96
// 067   ----------------------------------------
	BYTE	W96
// 068   ----------------------------------------
	BYTE	W96
// 069   ----------------------------------------
	BYTE	W96
// 070   ----------------------------------------
	BYTE	W96
// 071   ----------------------------------------
	BYTE	W96
// 072   ----------------------------------------
	BYTE	W96
// 073   ----------------------------------------
	BYTE	W78
	BYTE		N09     Bn3 
	BYTE	W10
	BYTE		N11     Gn3 
	BYTE	W08
// 074   ----------------------------------------
	BYTE	W06
	BYTE		N09     En4 
	BYTE	W11
	BYTE		N10     Bn3 
	BYTE	W13
	BYTE		N09     Gn4 
	BYTE	W10
	BYTE		N11     En4 
	BYTE	W14
	BYTE		N09     As4 
	BYTE	W11
	BYTE		N80     Gn4 
	BYTE	W30
	BYTE	W01
// 075   ----------------------------------------
	BYTE	W78
	BYTE		N09     Cn5 
	BYTE	W11
	BYTE		N10     Bn4 
	BYTE	W07
// 076   ----------------------------------------
	BYTE	W06
	BYTE		N09     As4 
	BYTE	W11
	BYTE		N56     Bn4 
	BYTE	W60
	BYTE	W02
	BYTE		N08     Cn5 
	BYTE	W10
	BYTE		N10     Bn4 
	BYTE	W07
// 077   ----------------------------------------
	BYTE	W06
	BYTE		N15     Dn5 
	BYTE	W17
	BYTE		N16     Cs5 
	BYTE	W18
	BYTE		N10     Cn5 
	BYTE	W13
	BYTE		TIE     Bn4 
	BYTE	W42
// 078   ----------------------------------------
	BYTE	W96
// 079   ----------------------------------------
	BYTE	W48
	BYTE	W03
	BYTE		EOT   
	BYTE	W44
	BYTE	W01
// 080   ----------------------------------------
	BYTE	W96
// 081   ----------------------------------------
	BYTE	W96
// 082   ----------------------------------------
	BYTE	W96
// 083   ----------------------------------------
	BYTE	W96
// 084   ----------------------------------------
	BYTE	W96
// 085   ----------------------------------------
	BYTE	W96
// 086   ----------------------------------------
	BYTE	W96
// 087   ----------------------------------------
	BYTE	W96
// 088   ----------------------------------------
	BYTE	W96
// 089   ----------------------------------------
	BYTE	W96
// 090   ----------------------------------------
	BYTE	W96
// 091   ----------------------------------------
	BYTE	W52
	BYTE	W01
	BYTE		N03     Dn5 
	BYTE	W06
	BYTE		N04     Cn5 
	BYTE	W06
	BYTE		N10     As4 
	BYTE	W12
	BYTE		        An4 
	BYTE	W12
	BYTE		        Cn5 
	BYTE	W07
// 092   ----------------------------------------
	BYTE	W05
	BYTE		        As4 
	BYTE	W12
	BYTE		        Gn4 
	BYTE	W12
	BYTE		N22     An4 
	BYTE	W36
	BYTE		N04     Gn4 
	BYTE	W06
	BYTE		N05     An4 
	BYTE	W06
	BYTE		N04     As4 
	BYTE	W05
	BYTE		        An4 
	BYTE	W07
	BYTE		        Gn4 
	BYTE	W06
	BYTE		        Fn4 
	BYTE	W01
// 093   ----------------------------------------
	BYTE	W05
	BYTE		N10     En4 
	BYTE	W12
	BYTE		        Gn4 
	BYTE	W12
	BYTE		        Fn4 
	BYTE	W12
	BYTE		        Dn4 
	BYTE	W11
	BYTE		        En4   v100
	BYTE	W13
	BYTE		N09     Cn4 
	BYTE	W12
	BYTE		N92     Dn4 
	BYTE	W19
// 094   ----------------------------------------
	BYTE	W96
// 095   ----------------------------------------
	BYTE	W72
	BYTE	W01
	BYTE		N03     Dn5 
	BYTE	W05
	BYTE		N04     Cn5 
	BYTE	W06
	BYTE		N10     As4 
	BYTE	W12
// 096   ----------------------------------------
	BYTE		        An4 
	BYTE	W12
	BYTE		        Cn5 
	BYTE	W12
	BYTE		N09     As4 
	BYTE	W12
	BYTE		N10     Gn4 
	BYTE	W12
	BYTE		N22     An4 
	BYTE	W36
	BYTE		N03     Gn4 
	BYTE	W05
	BYTE		N05     An4 
	BYTE	W07
// 097   ----------------------------------------
	BYTE		N04     As4 
	BYTE	W05
	BYTE		N05     An4 
	BYTE	W07
	BYTE		N04     Gn4 
	BYTE	W05
	BYTE		N05     Fn4 
	BYTE	W07
	BYTE		N09     En4 
	BYTE	W12
	BYTE		N10     Gn4 
	BYTE	W12
	BYTE		        Fn4 
	BYTE	W12
	BYTE		        Dn4 
	BYTE	W36
// 098   ----------------------------------------
	BYTE	W96
// 099   ----------------------------------------
	BYTE	W96
// 100   ----------------------------------------
	BYTE	W96
// 101   ----------------------------------------
	BYTE	W96
// 102   ----------------------------------------
	BYTE	W96
// 103   ----------------------------------------
	BYTE	W96
// 104   ----------------------------------------
	BYTE	W96
// 105   ----------------------------------------
	BYTE	W96
// 106   ----------------------------------------
	BYTE	W96
// 107   ----------------------------------------
	BYTE	W96
// 108   ----------------------------------------
	BYTE	W96
// 109   ----------------------------------------
	BYTE	W96
// 110   ----------------------------------------
	BYTE	W96
// 111   ----------------------------------------
	BYTE	W96
// 112   ----------------------------------------
	BYTE	W96
// 113   ----------------------------------------
	BYTE	W96
// 114   ----------------------------------------
	BYTE	W96
// 115   ----------------------------------------
	BYTE	W96
// 116   ----------------------------------------
	BYTE	W96
// 117   ----------------------------------------
	BYTE	W96
// 118   ----------------------------------------
	BYTE	W01
	BYTE		VOICE   0
	BYTE	W72
	BYTE		N44     Dn1   v127
	BYTE		N44     Dn2 
	BYTE	W23
// 119   ----------------------------------------
	BYTE	W96
// 120   ----------------------------------------
	BYTE	W72
	BYTE	W01
	BYTE		        Dn1 
	BYTE		N44     Dn2 
	BYTE	W23
// 121   ----------------------------------------
	BYTE	W68
	BYTE	W03
	BYTE		VOICE   73
	BYTE	W24
	BYTE	W01
// 122   ----------------------------------------
	BYTE	W96
// 123   ----------------------------------------
	BYTE	W96
// 124   ----------------------------------------
	BYTE	W96
// 125   ----------------------------------------
	BYTE	W96
// 126   ----------------------------------------
	BYTE	W96
// 127   ----------------------------------------
	BYTE	FINE

//**************** Track 6 (Midi-Chn.6) ****************//

feb20200423182207_6:
	BYTE	KEYSH   feb20200423182207_key+0
// 000   ----------------------------------------
	BYTE	W01
	BYTE		VOICE   48
	BYTE		VOL     117*feb20200423182207_mvl/mxv
	BYTE	W92
	BYTE	W03
// 001   ----------------------------------------
	BYTE	W96
// 002   ----------------------------------------
	BYTE	W96
// 003   ----------------------------------------
	BYTE		N10     Ds4   v127
	BYTE	W12
	BYTE		N04     En4 
	BYTE	W12
	BYTE		        Fn4 
	BYTE	W06
	BYTE		N05     En4 
	BYTE	W06
	BYTE		        Ds4 
	BYTE	W13
	BYTE		N10     En4 
	BYTE	W11
	BYTE		N05     Ds4 
	BYTE	W12
	BYTE		N10     Fs4 
	BYTE	W12
	BYTE		N05     En4 
	BYTE	W12
// 004   ----------------------------------------
	BYTE	W01
	BYTE		N10     Ds4 
	BYTE	W11
	BYTE		N04     En4 
	BYTE	W13
	BYTE		        Fn4 
	BYTE	W05
	BYTE		N05     En4 
	BYTE	W06
	BYTE		        Ds4 
	BYTE	W12
	BYTE		N10     En4 
	BYTE	W12
	BYTE		N05     Ds4 
	BYTE	W13
	BYTE		N10     Fs4 
	BYTE	W11
	BYTE		N04     En4 
	BYTE	W12
// 005   ----------------------------------------
	BYTE	W96
// 006   ----------------------------------------
	BYTE	W96
// 007   ----------------------------------------
	BYTE	W96
// 008   ----------------------------------------
	BYTE	W96
// 009   ----------------------------------------
	BYTE	W96
// 010   ----------------------------------------
	BYTE	W96
// 011   ----------------------------------------
	BYTE	W96
// 012   ----------------------------------------
	BYTE	W12
	BYTE		N05     Gn4 
	BYTE		N05     En5 
	BYTE	W06
	BYTE		        En4 
	BYTE		N05     As4 
	BYTE	W07
	BYTE		N03     Ds4 
	BYTE		N03     As4 
	BYTE	W11
	BYTE		N04     Gn4 
	BYTE		N04     En5 
	BYTE	W06
	BYTE		        En4 
	BYTE		N04     As4 
	BYTE	W07
	BYTE		N03     Ds4 
	BYTE		N03     As4 
	BYTE	W44
	BYTE	W03
// 013   ----------------------------------------
	BYTE	W60
	BYTE		N04     Gn4 
	BYTE		N05     En5 
	BYTE	W06
	BYTE		N04     En4 
	BYTE		N05     As4 
	BYTE	W07
	BYTE		N03     Ds4 
	BYTE		N03     An4 
	BYTE	W11
	BYTE		N05     Gn4 
	BYTE		N05     En5 
	BYTE	W06
	BYTE		        En4 
	BYTE		N04     As4 
	BYTE	W06
// 014   ----------------------------------------
	BYTE	W01
	BYTE		        Ds4 
	BYTE		N03     An4 
	BYTE	W56
	BYTE	W03
	BYTE		N05     Gn4 
	BYTE		N05     En5 
	BYTE	W06
	BYTE		N04     En4 
	BYTE		N04     As4 
	BYTE	W07
	BYTE		N03     Ds4 
	BYTE		N03     An4 
	BYTE	W23
// 015   ----------------------------------------
	BYTE	W01
	BYTE		N22     Fs4   v064
	BYTE	W24
	BYTE		N02     Gn4 
	BYTE	W07
	BYTE		N03   
	BYTE	W08
	BYTE		N04   
	BYTE	W09
	BYTE		N22     An4 
	BYTE	W24
	BYTE		N02     Bn4 
	BYTE	W07
	BYTE		N03   
	BYTE	W08
	BYTE		N03   
	BYTE	W08
// 016   ----------------------------------------
	BYTE	W01
	BYTE		N22     Cn5 
	BYTE	W24
	BYTE		N02     Bn4 
	BYTE	W07
	BYTE		N04   
	BYTE	W08
	BYTE		N04   
	BYTE	W09
	BYTE		N22     As4 
	BYTE	W24
	BYTE		N02     Bn4 
	BYTE	W07
	BYTE		N04   
	BYTE	W08
	BYTE		N03   
	BYTE	W08
// 017   ----------------------------------------
	BYTE	W01
	BYTE		N21     Cs5 
	BYTE	W24
	BYTE		N02     Bn4 
	BYTE	W07
	BYTE		N04   
	BYTE	W08
	BYTE		N04   
	BYTE	W09
	BYTE		N22     Dn5 
	BYTE	W24
	BYTE		N02     Bn4 
	BYTE	W07
	BYTE		N04   
	BYTE	W08
	BYTE		N04   
	BYTE	W08
// 018   ----------------------------------------
	BYTE	W01
	BYTE		N22     En5 
	BYTE	W24
	BYTE		N02     Bn4 
	BYTE	W07
	BYTE		N03   
	BYTE	W08
	BYTE		N03   
	BYTE	W09
	BYTE		N22     As4 
	BYTE	W24
	BYTE		N02     Bn4 
	BYTE	W07
	BYTE		N04   
	BYTE	W08
	BYTE		N04   
	BYTE	W08
// 019   ----------------------------------------
	BYTE	W02
	BYTE		N03     En3 
	BYTE	W05
	BYTE		N04     Fs3 
	BYTE	W05
	BYTE		        Gn3 
	BYTE	W06
	BYTE		        Fs4 
	BYTE	W07
	BYTE		N56     En4 
	BYTE	W56
	BYTE	W03
	BYTE		N04     Cs4 
	BYTE	W06
	BYTE		        Ds4 
	BYTE	W06
// 020   ----------------------------------------
	BYTE	W01
	BYTE		N09     En4 
	BYTE	W11
	BYTE		N05     Fs4 
	BYTE	W14
	BYTE		N09     En4 
	BYTE	W10
	BYTE		N04     Ds4 
	BYTE	W13
	BYTE		N09     Cs4 
	BYTE	W11
	BYTE		N10     Cn4 
	BYTE	W13
	BYTE		N09     As3 
	BYTE	W11
	BYTE		N11     Gs3 
	BYTE	W12
// 021   ----------------------------------------
	BYTE		N44     Dn2   v127
	BYTE	W48
	BYTE		N22     Cn2 
	BYTE	W24
	BYTE		N10     As1 
	BYTE	W13
	BYTE		N21     An1 
	BYTE		N09     Cn4 
	BYTE	W11
// 022   ----------------------------------------
	BYTE		N10     Gn3 
	BYTE	W12
	BYTE		N22     Fs2 
	BYTE		N10     Gs3 
	BYTE	W12
	BYTE		        Ds4 
	BYTE	W12
	BYTE		N22     Fn2 
	BYTE		N10     Dn4 
	BYTE	W12
	BYTE		        An3 
	BYTE	W12
	BYTE		        Ds2 
	BYTE		N10     Gn4 
	BYTE	W12
	BYTE		N22     Dn2 
	BYTE	W24
// 023   ----------------------------------------
	BYTE		        Gn1 
	BYTE	W24
	BYTE		        An1 
	BYTE	W24
	BYTE		N10     As1 
	BYTE	W14
	BYTE		TIE     Bn1 
	BYTE	W32
	BYTE	W02
// 024   ----------------------------------------
	BYTE	W96
// 025   ----------------------------------------
	BYTE	W56
	BYTE	W03
	BYTE		EOT   
	BYTE	W36
	BYTE	W01
// 026   ----------------------------------------
	BYTE	W96
// 027   ----------------------------------------
	BYTE	W60
	BYTE	W01
	BYTE		N92     Fn3 
	BYTE	W01
	BYTE		        Dn3 
	BYTE		N92     An3 
	BYTE	W32
	BYTE	W02
// 028   ----------------------------------------
	BYTE	W60
	BYTE	W01
	BYTE		        Cn3 
	BYTE		N92     Ds3 
	BYTE		N92     Gn3 
	BYTE	W32
	BYTE	W03
// 029   ----------------------------------------
	BYTE	W60
	BYTE	W01
	BYTE		        Cs3 
	BYTE		N92     En3 
	BYTE		N92     An3 
	BYTE	W32
	BYTE	W03
// 030   ----------------------------------------
	BYTE	W60
	BYTE	W01
	BYTE		        Ds3 
	BYTE		N92     Gs3 
	BYTE	W01
	BYTE		        Cn4 
	BYTE	W32
	BYTE	W02
// 031   ----------------------------------------
	BYTE	W60
	BYTE	W01
	BYTE		        Dn3 
	BYTE		N92     Fn3 
	BYTE		N92     An3 
	BYTE	W32
	BYTE	W03
// 032   ----------------------------------------
	BYTE	W60
	BYTE	W01
	BYTE		        Ds3 
	BYTE		N92     Fs3 
	BYTE		N92     As3 
	BYTE	W32
	BYTE	W03
// 033   ----------------------------------------
	BYTE	W60
	BYTE	W01
	BYTE		        Cn3 
	BYTE		N92     An3 
	BYTE	W01
	BYTE		        Fn3 
	BYTE	W32
	BYTE	W02
// 034   ----------------------------------------
	BYTE	W60
	BYTE	W01
	BYTE		        Fs3 
	BYTE		N92     Bn3 
	BYTE		N92     Ds4 
	BYTE	W32
	BYTE	W03
// 035   ----------------------------------------
	BYTE	W96
// 036   ----------------------------------------
	BYTE	W96
// 037   ----------------------------------------
	BYTE	W96
// 038   ----------------------------------------
	BYTE	W96
// 039   ----------------------------------------
	BYTE	W96
// 040   ----------------------------------------
	BYTE	W96
// 041   ----------------------------------------
	BYTE	W96
// 042   ----------------------------------------
	BYTE	W96
// 043   ----------------------------------------
	BYTE	W96
// 044   ----------------------------------------
	BYTE	W96
// 045   ----------------------------------------
	BYTE	W96
// 046   ----------------------------------------
	BYTE	W96
// 047   ----------------------------------------
	BYTE	W96
// 048   ----------------------------------------
	BYTE	W96
// 049   ----------------------------------------
	BYTE	W96
// 050   ----------------------------------------
	BYTE	W96
// 051   ----------------------------------------
	BYTE	W80
	BYTE		N21     Fn4 
	BYTE	W16
// 052   ----------------------------------------
feb20200423182207_6_052:
	BYTE	W08
	BYTE		N21     En4   v127
	BYTE	W23
	BYTE		        Fs4 
	BYTE	W64
	BYTE	W01
	BYTE	PEND
// 053   ----------------------------------------
	BYTE	W78
	BYTE	W01
	BYTE		N22     Fn4 
	BYTE	W17
// 054   ----------------------------------------
feb20200423182207_6_054:
	BYTE	W07
	BYTE		N21     Fn4   v127
	BYTE	W24
	BYTE		        En4 
	BYTE	W64
	BYTE	W01
	BYTE	PEND
// 055   ----------------------------------------
feb20200423182207_6_055:
	BYTE	W78
	BYTE	W01
	BYTE		N21     Fn4   v127
	BYTE	W17
	BYTE	PEND
// 056   ----------------------------------------
	BYTE	PATT
	 POIN2	feb20200423182207_6_052
// 057   ----------------------------------------
	BYTE	PATT
	 POIN2	feb20200423182207_6_055
// 058   ----------------------------------------
	BYTE	PATT
	 POIN2	feb20200423182207_6_054
// 059   ----------------------------------------
	BYTE	W96
// 060   ----------------------------------------
	BYTE	W96
// 061   ----------------------------------------
	BYTE	W96
// 062   ----------------------------------------
	BYTE	W96
// 063   ----------------------------------------
	BYTE	W96
// 064   ----------------------------------------
	BYTE	W96
// 065   ----------------------------------------
	BYTE	W96
// 066   ----------------------------------------
	BYTE	W96
// 067   ----------------------------------------
	BYTE	W78
	BYTE		N09     Gn2   v064
	BYTE		N09     Bn2   v127
	BYTE	W11
	BYTE		N10     En2   v064
	BYTE		N10     Gn2   v127
	BYTE	W07
// 068   ----------------------------------------
	BYTE	W06
	BYTE		N09     Bn2   v064
	BYTE		N09     En3   v127
	BYTE	W11
	BYTE		N10     Gn2   v064
	BYTE		N10     Bn2   v127
	BYTE	W13
	BYTE		N09     En3   v064
	BYTE		N09     Gn3   v127
	BYTE	W10
	BYTE		N11     En3 
	BYTE	W01
	BYTE		        Bn2   v064
	BYTE	W13
	BYTE		N09     En3 
	BYTE		N09     As3   v127
	BYTE	W11
	BYTE		N80     Bn2   v064
	BYTE		N80     Gn3   v127
	BYTE	W30
	BYTE	W01
// 069   ----------------------------------------
	BYTE	W78
	BYTE		N09     Gn3   v064
	BYTE		N09     Cn4   v127
	BYTE	W11
	BYTE		N10     Fs3   v064
	BYTE		N10     Bn3   v127
	BYTE	W07
// 070   ----------------------------------------
	BYTE	W06
	BYTE		N09     En3   v064
	BYTE		N09     As3   v127
	BYTE	W11
	BYTE		N32     Fs3   v064
	BYTE		N56     Bn3   v127
	BYTE	W60
	BYTE	W02
	BYTE		N08     En3 
	BYTE		N08     Cn4 
	BYTE	W10
	BYTE		N10     Ds3 
	BYTE		N10     Bn3 
	BYTE	W07
// 071   ----------------------------------------
	BYTE	W06
	BYTE		N15     Fs3 
	BYTE		N15     Dn4 
	BYTE	W17
	BYTE		N16     Fn3 
	BYTE		N16     Cs4 
	BYTE	W18
	BYTE		N10     En3 
	BYTE		N10     Cn4 
	BYTE	W13
	BYTE		TIE     Ds3 
	BYTE		TIE     Bn3 
	BYTE	W42
// 072   ----------------------------------------
	BYTE	W96
// 073   ----------------------------------------
	BYTE	W48
	BYTE	W03
	BYTE		EOT     Ds3 
	BYTE		        Bn3 
	BYTE	W28
	BYTE		N08     Gn2   v064
	BYTE		N08     Bn2   v127
	BYTE	W10
	BYTE		N10     En2   v064
	BYTE		N10     Gn2   v127
	BYTE	W07
// 074   ----------------------------------------
	BYTE	W06
	BYTE		N09     Bn2   v064
	BYTE		N09     En3   v127
	BYTE	W11
	BYTE		N10     Gn2   v064
	BYTE		N10     Bn2   v127
	BYTE	W13
	BYTE		N09     En3   v064
	BYTE		N09     Gn3   v127
	BYTE	W11
	BYTE		N10     Bn2   v064
	BYTE		N10     En3   v127
	BYTE	W13
	BYTE		N09     As3 
	BYTE	W01
	BYTE		        En3   v064
	BYTE	W10
	BYTE		N80     Bn2 
	BYTE		N80     Gn3   v127
	BYTE	W30
	BYTE	W01
// 075   ----------------------------------------
	BYTE	W78
	BYTE	W01
	BYTE		N08     Gn3   v064
	BYTE		N08     Cn4   v127
	BYTE	W10
	BYTE		N10     Fs3   v064
	BYTE		N10     Bn3   v127
	BYTE	W07
// 076   ----------------------------------------
	BYTE	W06
	BYTE		N09     As3 
	BYTE	W01
	BYTE		        En3   v064
	BYTE	W10
	BYTE		N32     Fs3 
	BYTE		N56     Bn3   v127
	BYTE	W60
	BYTE	W02
	BYTE		N08     En3 
	BYTE		N08     Cn4 
	BYTE	W10
	BYTE		N10     Ds3 
	BYTE		N10     Bn3 
	BYTE	W07
// 077   ----------------------------------------
	BYTE	W06
	BYTE		N15     Dn4 
	BYTE	W01
	BYTE		        Ds3 
	BYTE	W16
	BYTE		N16     En3 
	BYTE		N16     Cs4 
	BYTE	W18
	BYTE		N10     Fn3 
	BYTE		N10     Cn4 
	BYTE	W13
	BYTE		TIE     Fs3 
	BYTE		TIE     Bn3 
	BYTE	W42
// 078   ----------------------------------------
	BYTE	W96
// 079   ----------------------------------------
	BYTE	W48
	BYTE	W03
	BYTE		EOT     Fs3 
	BYTE		        Bn3 
	BYTE	W03
	BYTE		TIE     Cn2 
	BYTE		N09     As3 
	BYTE	W11
	BYTE		N04     Gn3 
	BYTE	W13
	BYTE		N09     As3 
	BYTE	W11
	BYTE		N04     Gn3 
	BYTE	W07
// 080   ----------------------------------------
	BYTE	W06
	BYTE		        As3 
	BYTE	W05
	BYTE		        An3 
	BYTE	W06
	BYTE		N10     Gn3 
	BYTE	W13
	BYTE		N09     Fs3 
	BYTE	W11
	BYTE		N04     Gn3 
	BYTE	W13
	BYTE		        As3 
	BYTE	W05
	BYTE		        An3 
	BYTE	W06
	BYTE		N10     Gn3 
	BYTE	W13
	BYTE		N09     Fs3 
	BYTE	W11
	BYTE		N04     Gn3 
	BYTE	W07
// 081   ----------------------------------------
	BYTE	W03
	BYTE		EOT     Cn2 
	BYTE	W03
	BYTE		N44     En2 
	BYTE		N09     An3 
	BYTE		N44     Cn4   v064
	BYTE	W11
	BYTE		N04     Gn3   v127
	BYTE	W13
	BYTE		N09     As3 
	BYTE	W11
	BYTE		N04     An3 
	BYTE	W13
	BYTE		TIE     En2 
	BYTE		N23     Bn3   v064
	BYTE	W11
	BYTE		N04     Gn3   v127
	BYTE	W13
	BYTE		N24     Bn3 
	BYTE	W11
	BYTE		N04     Gn3 
	BYTE	W07
// 082   ----------------------------------------
	BYTE	W06
	BYTE		N44     Bn3 
	BYTE	W05
	BYTE		N04     An3 
	BYTE	W06
	BYTE		N10     Gn3 
	BYTE	W13
	BYTE		N09     Fs3 
	BYTE	W11
	BYTE		N04     Gn3 
	BYTE	W13
	BYTE		N72     Bn3 
	BYTE	W05
	BYTE		N04     An3 
	BYTE	W06
	BYTE		N10     Gn3 
	BYTE	W13
	BYTE		N09     Fs3 
	BYTE	W11
	BYTE		N04     Gn3 
	BYTE	W07
// 083   ----------------------------------------
feb20200423182207_6_083:
	BYTE	W06
	BYTE		N09     An3   v127
	BYTE	W11
	BYTE		N04     Gn3 
	BYTE	W13
	BYTE		N21     Bn3 
	BYTE	W11
	BYTE		N04     Gn3 
	BYTE	W10
	BYTE	PEND
	BYTE		EOT     En2 
	BYTE	W03
	BYTE		TIE     Cn2 
	BYTE		N09     As3 
	BYTE	W11
	BYTE		N04     Gn3 
	BYTE	W13
	BYTE		N09     As3 
	BYTE	W11
	BYTE		N04     Gn3 
	BYTE	W07
// 084   ----------------------------------------
	BYTE	W06
	BYTE		N03     As3 
	BYTE	W05
	BYTE		N04     An3 
	BYTE	W06
	BYTE		N10     Gn3 
	BYTE	W13
	BYTE		N09     Fs3 
	BYTE	W11
	BYTE		N04     Gn3 
	BYTE	W13
	BYTE		        As3 
	BYTE	W05
	BYTE		        An3 
	BYTE	W06
	BYTE		N10     Gn3 
	BYTE	W13
	BYTE		N09     Fs3 
	BYTE	W11
	BYTE		N04     Gn3 
	BYTE	W07
// 085   ----------------------------------------
	BYTE	W03
	BYTE		EOT     Cn2 
	BYTE	W03
	BYTE		N44     En2 
	BYTE		N09     An3 
	BYTE		N44     Cn4   v064
	BYTE	W11
	BYTE		N04     Gn3   v127
	BYTE	W13
	BYTE		N09     As3 
	BYTE	W11
	BYTE		N04     An3 
	BYTE	W13
	BYTE		TIE     En2 
	BYTE		N01     Bn3 
	BYTE	W01
	BYTE		N23     Bn3   v064
	BYTE	W10
	BYTE		N04     Gn3   v127
	BYTE	W13
	BYTE		N23     Bn3 
	BYTE	W11
	BYTE		N04     Gn3 
	BYTE	W07
// 086   ----------------------------------------
	BYTE	W06
	BYTE		N48     Bn3 
	BYTE	W05
	BYTE		N04     An3 
	BYTE	W06
	BYTE		N10     Gn3 
	BYTE	W13
	BYTE		N09     Fs3 
	BYTE	W11
	BYTE		N04     Gn3 
	BYTE	W13
	BYTE		N72     Bn3 
	BYTE	W05
	BYTE		N04     An3 
	BYTE	W06
	BYTE		N10     Gn3 
	BYTE	W13
	BYTE		N09     Fs3 
	BYTE	W11
	BYTE		N04     Gn3 
	BYTE	W07
// 087   ----------------------------------------
	BYTE	PATT
	 POIN2	feb20200423182207_6_083
	BYTE		EOT     En2 
	BYTE	W02
	BYTE		N44     En2   v127
	BYTE		N10     Ds4 
	BYTE		N10     Ds5 
	BYTE	W12
	BYTE		N04     En4 
	BYTE		N04     En5 
	BYTE	W30
	BYTE	W01
// 088   ----------------------------------------
	BYTE	W05
	BYTE		N44     Bn1 
	BYTE	W48
	BYTE		N92     Gn1 
	BYTE	W23
	BYTE		N11     Ds4 
	BYTE	W01
	BYTE		N10     Ds5 
	BYTE	W12
	BYTE		N04     En4 
	BYTE		N04     En5 
	BYTE	W07
// 089   ----------------------------------------
	BYTE	W05
	BYTE		N16     Bn3 
	BYTE		N16     Bn4 
	BYTE	W18
	BYTE		N17     Gn3 
	BYTE		N17     Gn4 
	BYTE	W18
	BYTE		N10     En3 
	BYTE		N10     En4 
	BYTE	W13
	BYTE		N44     Gn1 
	BYTE		N22     Dn4 
	BYTE		N21     Dn5 
	BYTE	W23
	BYTE		N68     Cs4 
	BYTE		N68     Cs5 
	BYTE	W19
// 090   ----------------------------------------
	BYTE	W05
	BYTE		N44     En1 
	BYTE	W48
	BYTE	W01
	BYTE		        As1 
	BYTE	W42
// 091   ----------------------------------------
	BYTE	W06
	BYTE		        Bn1 
	BYTE	W90
// 092   ----------------------------------------
	BYTE	W96
// 093   ----------------------------------------
	BYTE	W64
	BYTE	W01
	BYTE		N03     Fn3   v100
	BYTE	W01
	BYTE		        An3 
	BYTE	W11
	BYTE		N04     Fn3 
	BYTE		N04     An3 
	BYTE	W19
// 094   ----------------------------------------
	BYTE	W05
	BYTE		        Ds3 
	BYTE		N04     Gn3 
	BYTE	W12
	BYTE		        Ds3 
	BYTE		N04     Gn3 
	BYTE	W24
	BYTE		        Fs3 
	BYTE		N04     As3 
	BYTE	W12
	BYTE		        Fs3 
	BYTE		N04     As3 
	BYTE	W24
	BYTE		        Fn3 
	BYTE		N04     An3 
	BYTE	W12
	BYTE		        Fn3 
	BYTE		N04     An3 
	BYTE	W07
// 095   ----------------------------------------
	BYTE	W04
	BYTE		N05     Cn3 
	BYTE	W13
	BYTE		N01   
	BYTE		N01     Ds3 
	BYTE		N01     Gn3 
	BYTE	W12
	BYTE		N02     Cn3 
	BYTE		N02     Ds3 
	BYTE		N02     Gn3 
	BYTE	W11
	BYTE		N05     Fn2 
	BYTE	W13
	BYTE		N02     Fn3 
	BYTE		N02     Gs3 
	BYTE		N02     Cn4 
	BYTE	W05
	BYTE		        Fn3 
	BYTE	W01
	BYTE		        Gs3 
	BYTE		N02     Cn4 
	BYTE	W05
	BYTE		N02   
	BYTE	W01
	BYTE		        Fn3 
	BYTE		N02     Gs3 
	BYTE	W08
	BYTE		N03     Dn5 
	BYTE	W05
	BYTE		N04     Cn5 
	BYTE	W06
	BYTE		N10     As4 
	BYTE	W12
// 096   ----------------------------------------
	BYTE		N09     An4 
	BYTE	W12
	BYTE		N10     Cn5 
	BYTE	W13
	BYTE		N09     As4 
	BYTE	W11
	BYTE		N10     Gn4 
	BYTE	W12
	BYTE		N32     An4 
	BYTE	W36
	BYTE	W01
	BYTE		N03     Gn4 
	BYTE	W05
	BYTE		N04     An4 
	BYTE	W06
// 097   ----------------------------------------
	BYTE	W01
	BYTE		N03     As4 
	BYTE	W05
	BYTE		N04     An4 
	BYTE	W06
	BYTE		N03     Gn4 
	BYTE	W06
	BYTE		N04     Fn4 
	BYTE	W07
	BYTE		N09     En4 
	BYTE	W11
	BYTE		N10     Gn4 
	BYTE	W12
	BYTE		N09     Fn4 
	BYTE	W12
	BYTE		N10     Dn4 
	BYTE	W12
	BYTE		N22     Fn3 
	BYTE	W24
// 098   ----------------------------------------
	BYTE		        En3 
	BYTE	W24
	BYTE		N16     Dn3 
	BYTE	W18
	BYTE		        Cn3 
	BYTE	W18
	BYTE		N10     As2 
	BYTE	W12
	BYTE		N92     Gs2 
	BYTE	W01
	BYTE		        Cn4 
	BYTE	W23
// 099   ----------------------------------------
	BYTE	W72
	BYTE	W01
	BYTE		N21     Fn3 
	BYTE		N21     Dn4 
	BYTE	W23
// 100   ----------------------------------------
	BYTE		N22     En3 
	BYTE	W01
	BYTE		        Dn4 
	BYTE	W23
	BYTE		N16     Dn3 
	BYTE		N09     Dn4 
	BYTE	W18
	BYTE		N16     Cn3 
	BYTE	W01
	BYTE		N15     Cn4 
	BYTE	W17
	BYTE		N10     As2 
	BYTE		N10     As3 
	BYTE	W12
	BYTE		N68     Gs3 
	BYTE		N68     Fn4 
	BYTE	W24
// 101   ----------------------------------------
	BYTE	W96
// 102   ----------------------------------------
	BYTE	W96
// 103   ----------------------------------------
	BYTE	W96
// 104   ----------------------------------------
	BYTE	W96
// 105   ----------------------------------------
	BYTE	W96
// 106   ----------------------------------------
	BYTE	W96
// 107   ----------------------------------------
	BYTE	W96
// 108   ----------------------------------------
	BYTE	W96
// 109   ----------------------------------------
	BYTE	W96
// 110   ----------------------------------------
	BYTE	W96
// 111   ----------------------------------------
	BYTE	W96
// 112   ----------------------------------------
	BYTE	W96
// 113   ----------------------------------------
	BYTE	W96
// 114   ----------------------------------------
	BYTE	W96
// 115   ----------------------------------------
	BYTE	W96
// 116   ----------------------------------------
	BYTE	W96
// 117   ----------------------------------------
	BYTE	W96
// 118   ----------------------------------------
	BYTE	W96
// 119   ----------------------------------------
	BYTE	W96
// 120   ----------------------------------------
	BYTE	W96
// 121   ----------------------------------------
	BYTE	W96
// 122   ----------------------------------------
	BYTE	W96
// 123   ----------------------------------------
	BYTE	W96
// 124   ----------------------------------------
	BYTE	W96
// 125   ----------------------------------------
	BYTE	W96
// 126   ----------------------------------------
	BYTE	W96
// 127   ----------------------------------------
	BYTE	FINE

//**************** Track 7 (Midi-Chn.7) ****************//

feb20200423182207_7:
	BYTE	KEYSH   feb20200423182207_key+0
// 000   ----------------------------------------
	BYTE	W01
	BYTE		VOICE   0
	BYTE		VOL     80*feb20200423182207_mvl/mxv
	BYTE	W92
	BYTE	W03
// 001   ----------------------------------------
	BYTE	W96
// 002   ----------------------------------------
	BYTE	W96
// 003   ----------------------------------------
	BYTE	W96
// 004   ----------------------------------------
	BYTE	W96
// 005   ----------------------------------------
	BYTE	W96
// 006   ----------------------------------------
	BYTE	W96
// 007   ----------------------------------------
	BYTE	W01
	BYTE		N03     Gn4   v127
	BYTE	W05
	BYTE		N04     Bn4 
	BYTE	W06
	BYTE		        Gn4 
	BYTE	W06
	BYTE		N05     Dn5 
	BYTE	W07
	BYTE		N03     Gn4 
	BYTE	W05
	BYTE		N04     En5 
	BYTE	W06
	BYTE		        Gn4 
	BYTE	W06
	BYTE		N05     Gn5 
	BYTE	W07
	BYTE		N03     Gn4 
	BYTE	W05
	BYTE		N05     Bn4 
	BYTE	W06
	BYTE		N04     Gn4 
	BYTE	W06
	BYTE		        Dn5 
	BYTE	W07
	BYTE		N03     Gn4 
	BYTE	W05
	BYTE		N04     En5 
	BYTE	W06
	BYTE		N05     Gn4 
	BYTE	W06
	BYTE		        Gn5 
	BYTE	W06
// 008   ----------------------------------------
	BYTE	W01
	BYTE		N03     Gn4 
	BYTE	W05
	BYTE		N04     Bn4 
	BYTE	W06
	BYTE		        Gn4 
	BYTE	W06
	BYTE		N05     Dn5 
	BYTE	W07
	BYTE		N03     Gn4 
	BYTE	W05
	BYTE		N04     En5 
	BYTE	W06
	BYTE		        Gn4 
	BYTE	W06
	BYTE		        Gn5 
	BYTE	W07
	BYTE		N03     Gn4 
	BYTE	W05
	BYTE		N04     Bn4 
	BYTE	W06
	BYTE		        Gn4 
	BYTE	W06
	BYTE		        Dn5 
	BYTE	W07
	BYTE		N03     Gn4 
	BYTE	W05
	BYTE		N04     En5 
	BYTE	W06
	BYTE		        Gn4 
	BYTE	W06
	BYTE		N05     Gn5 
	BYTE	W06
// 009   ----------------------------------------
	BYTE	W96
// 010   ----------------------------------------
	BYTE	W96
// 011   ----------------------------------------
	BYTE	W96
// 012   ----------------------------------------
	BYTE	W96
// 013   ----------------------------------------
	BYTE	W96
// 014   ----------------------------------------
	BYTE	W96
// 015   ----------------------------------------
	BYTE	W96
// 016   ----------------------------------------
	BYTE	W96
// 017   ----------------------------------------
	BYTE	W96
// 018   ----------------------------------------
	BYTE	W96
// 019   ----------------------------------------
	BYTE	W96
// 020   ----------------------------------------
	BYTE	W96
// 021   ----------------------------------------
	BYTE	W96
// 022   ----------------------------------------
	BYTE	W96
// 023   ----------------------------------------
	BYTE	W60
	BYTE	W02
	BYTE		VOICE   52
	BYTE		VOL     127*feb20200423182207_mvl/mxv
	BYTE	W32
	BYTE	W02
// 024   ----------------------------------------
	BYTE	W96
// 025   ----------------------------------------
	BYTE	W96
// 026   ----------------------------------------
	BYTE	W96
// 027   ----------------------------------------
	BYTE	W96
// 028   ----------------------------------------
	BYTE	W96
// 029   ----------------------------------------
	BYTE	W96
// 030   ----------------------------------------
	BYTE	W96
// 031   ----------------------------------------
	BYTE	W96
// 032   ----------------------------------------
	BYTE	W96
// 033   ----------------------------------------
	BYTE	W96
// 034   ----------------------------------------
	BYTE	W96
// 035   ----------------------------------------
	BYTE	W60
	BYTE		N09     Dn1 
	BYTE	W01
	BYTE		        Dn2 
	BYTE		N09     An2 
	BYTE	W23
	BYTE		N10     Dn1 
	BYTE		N10     Dn2 
	BYTE	W01
	BYTE		N09     An2 
	BYTE	W11
// 036   ----------------------------------------
	BYTE	W12
	BYTE		N03   
	BYTE	W01
	BYTE		        Dn1 
	BYTE		N03     An1 
	BYTE		N03     Dn2 
	BYTE	W11
	BYTE		N04     An1 
	BYTE		N04     Dn2 
	BYTE		N04     An2 
	BYTE	W01
	BYTE		        Dn1 
	BYTE	W11
	BYTE		N23   
	BYTE		N22     Dn2 
	BYTE	W24
	BYTE		N04     Dn1 
	BYTE		N04     Dn2 
	BYTE	W01
	BYTE		N03     An1 
	BYTE		N03     An2 
	BYTE	W11
	BYTE		N04     Dn1 
	BYTE		N04     An1 
	BYTE		N04     Dn2 
	BYTE	W01
	BYTE		        An2 
	BYTE	W11
	BYTE		N22     Cs2 
	BYTE	W01
	BYTE		N21     Cs1 
	BYTE		N21     As1 
	BYTE		N21     As2 
	BYTE	W11
// 037   ----------------------------------------
	BYTE	W12
	BYTE		N04     An1 
	BYTE		N04     Dn2 
	BYTE		N04     An2 
	BYTE	W01
	BYTE		N03     Dn1 
	BYTE	W11
	BYTE		N04     Dn2 
	BYTE		N04     An2 
	BYTE	W01
	BYTE		N03     Dn1 
	BYTE		N03     An1 
	BYTE	W11
	BYTE		N22     Cs1 
	BYTE		N22     Cs2 
	BYTE		N22     As2 
	BYTE	W01
	BYTE		N21     As1 
	BYTE	W23
	BYTE		N10     Dn1 
	BYTE		N10     Dn2 
	BYTE	W01
	BYTE		        An2 
	BYTE	W23
	BYTE		        Dn1 
	BYTE		N10     Dn2 
	BYTE		N10     An2 
	BYTE	W12
// 038   ----------------------------------------
	BYTE	W12
	BYTE		N04     An1 
	BYTE		N04     An2 
	BYTE	W01
	BYTE		N03     Dn1 
	BYTE		N03     Dn2 
	BYTE	W11
	BYTE		N04     An1 
	BYTE		N04     Dn2 
	BYTE		N04     An2 
	BYTE	W01
	BYTE		N03     Dn1 
	BYTE	W11
	BYTE		N22   
	BYTE		N22     Dn2 
	BYTE	W24
	BYTE		N04   
	BYTE	W01
	BYTE		N03     Dn1 
	BYTE		N03     An1 
	BYTE		N03     An2 
	BYTE	W11
	BYTE		N04     Dn1 
	BYTE		N04     An1 
	BYTE		N04     Dn2 
	BYTE	W01
	BYTE		        An2 
	BYTE	W11
	BYTE		N22     As1 
	BYTE		N23     Cs2 
	BYTE		N22     As2 
	BYTE	W01
	BYTE		        Cs1 
	BYTE	W11
// 039   ----------------------------------------
	BYTE	W12
	BYTE		N04     An1 
	BYTE	W01
	BYTE		N03     Dn1 
	BYTE		N04     Dn2 
	BYTE		N04     An2 
	BYTE	W11
	BYTE		        Dn2 
	BYTE		N04     An2 
	BYTE	W01
	BYTE		N03     Dn1 
	BYTE		N03     An1 
	BYTE	W11
	BYTE		N22     Cs2 
	BYTE		N22     As2 
	BYTE	W01
	BYTE		        Cs1 
	BYTE		N21     As1 
	BYTE	W24
	BYTE		N03     Fn2 
	BYTE		N03     Fn3 
	BYTE	W01
	BYTE		        Fn1 
	BYTE		N03     Cn2 
	BYTE	W11
	BYTE		        Fn1 
	BYTE		N04     Fn2 
	BYTE		N04     Fn3 
	BYTE	W01
	BYTE		N03     Cn2 
	BYTE	W12
	BYTE		N09     Dn1 
	BYTE		N09     An2 
	BYTE		N09     Dn3 
	BYTE	W01
	BYTE		N08     Dn2 
	BYTE	W09
// 040   ----------------------------------------
	BYTE	W96
// 041   ----------------------------------------
	BYTE	W60
	BYTE	W01
	BYTE		N04     Cn2 
	BYTE		N04     Fn3 
	BYTE	W01
	BYTE		        Fn1 
	BYTE		N04     Fn2 
	BYTE	W11
	BYTE		        Cn2 
	BYTE		N04     Fn2 
	BYTE	W01
	BYTE		        Fn1 
	BYTE		N04     Fn3 
	BYTE	W11
	BYTE		N09     An2 
	BYTE		N09     Dn3 
	BYTE	W01
	BYTE		        Dn1 
	BYTE		N08     Dn2 
	BYTE	W10
// 042   ----------------------------------------
	BYTE	W96
// 043   ----------------------------------------
	BYTE	W60
	BYTE	W02
	BYTE		N10     Dn1 
	BYTE		N10     An1 
	BYTE		N10     An2 
	BYTE	W01
	BYTE		        Dn2 
	BYTE	W22
	BYTE		        Dn1 
	BYTE		N10     An1 
	BYTE		N10     Dn2 
	BYTE		N11     An2 
	BYTE	W11
// 044   ----------------------------------------
	BYTE	W12
	BYTE		N05   
	BYTE	W01
	BYTE		N04     Dn1 
	BYTE		N04     An1 
	BYTE		N04     Dn2 
	BYTE	W11
	BYTE		N05     An1 
	BYTE		N04     Dn2 
	BYTE		N05     An2 
	BYTE	W01
	BYTE		N04     Dn1 
	BYTE	W10
	BYTE		N11     An2 
	BYTE	W01
	BYTE		        Dn1 
	BYTE		N11     An1 
	BYTE		N11     Dn2 
	BYTE	W24
	BYTE		N03     Dn1 
	BYTE		N03     An1 
	BYTE		N03     Dn2 
	BYTE		N03     An2 
	BYTE	W11
	BYTE		N04     An1 
	BYTE		N04     Dn2 
	BYTE		N03     An2 
	BYTE	W01
	BYTE		        Dn1 
	BYTE	W11
	BYTE		N21     Cs2 
	BYTE		N21     As2 
	BYTE	W01
	BYTE		        Cs1 
	BYTE		N20     As1 
	BYTE	W12
// 045   ----------------------------------------
	BYTE	W11
	BYTE		N03     An1 
	BYTE		N03     Dn2 
	BYTE		N03     An2 
	BYTE	W01
	BYTE		        Dn1 
	BYTE	W10
	BYTE		N04     Dn2 
	BYTE		N04     An2 
	BYTE	W01
	BYTE		N03     Dn1 
	BYTE		N03     An1 
	BYTE	W11
	BYTE		N21     As2 
	BYTE	W01
	BYTE		        Cs1 
	BYTE		N21     As1 
	BYTE		N21     Cs2 
	BYTE	W23
	BYTE		N10     Dn1 
	BYTE		N10     An1 
	BYTE		N10     An2 
	BYTE	W01
	BYTE		        Dn2 
	BYTE	W22
	BYTE		N11   
	BYTE		N11     An2 
	BYTE	W01
	BYTE		N10     Dn1 
	BYTE		N10     An1 
	BYTE	W14
// 046   ----------------------------------------
	BYTE	W09
	BYTE		N05   
	BYTE		N05     An2 
	BYTE	W01
	BYTE		N04     Dn1 
	BYTE		N04     Dn2 
	BYTE	W10
	BYTE		N05     An2 
	BYTE	W01
	BYTE		N04     Dn1 
	BYTE		N05     An1 
	BYTE		N05     Dn2 
	BYTE	W11
	BYTE		N11   
	BYTE		N11     An2 
	BYTE	W01
	BYTE		        Dn1 
	BYTE		N11     An1 
	BYTE	W24
	BYTE		N03   
	BYTE		N03     Dn2 
	BYTE		N03     An2 
	BYTE	W01
	BYTE		N02     Dn1 
	BYTE	W10
	BYTE		N03     An1 
	BYTE		N04     Dn2 
	BYTE	W01
	BYTE		N03     Dn1 
	BYTE		N03     An2 
	BYTE	W11
	BYTE		N21     Cs1 
	BYTE		N21     Cs2 
	BYTE		N21     As2 
	BYTE	W01
	BYTE		        As1 
	BYTE	W15
// 047   ----------------------------------------
	BYTE	W07
	BYTE		N04     An1 
	BYTE	W01
	BYTE		N03     Dn1 
	BYTE		N03     Dn2 
	BYTE		N03     An2 
	BYTE	W11
	BYTE		        Dn2 
	BYTE		N04     An2 
	BYTE	W01
	BYTE		N03     Dn1 
	BYTE		N03     An1 
	BYTE	W11
	BYTE		N21     As1 
	BYTE		N21     As2 
	BYTE	W01
	BYTE		        Cs1 
	BYTE		N21     Cs2 
	BYTE	W23
	BYTE		N03     Fn1 
	BYTE		N03     Fn2 
	BYTE		N03     Fn3 
	BYTE	W01
	BYTE		        Cn2 
	BYTE	W10
	BYTE		N04     Fn2 
	BYTE	W01
	BYTE		N03     Fn1 
	BYTE		N03     Cn2 
	BYTE		N04     Fn3 
	BYTE	W13
	BYTE		N08     Dn1 
	BYTE		N08     Dn2 
	BYTE		N08     An2 
	BYTE		N08     Dn3 
	BYTE	W16
// 048   ----------------------------------------
	BYTE	W96
// 049   ----------------------------------------
	BYTE	W54
	BYTE	W01
	BYTE		N04     Fn1 
	BYTE		N04     Cn2 
	BYTE		N04     Fn3 
	BYTE	W01
	BYTE		        Fn2 
	BYTE	W11
	BYTE		        Fn1 
	BYTE		N04     Cn2 
	BYTE		N05     Fn2 
	BYTE	W01
	BYTE		N04     Fn3 
	BYTE	W11
	BYTE		N09     An2 
	BYTE		N09     Dn3 
	BYTE	W01
	BYTE		        Dn1 
	BYTE		N08     Dn2 
	BYTE	W16
// 050   ----------------------------------------
	BYTE	W96
// 051   ----------------------------------------
	BYTE	W80
	BYTE		N21     Fn1 
	BYTE		N21     Fn2 
	BYTE	W16
// 052   ----------------------------------------
	BYTE	W08
	BYTE		N02     En1 
	BYTE		N02     En2 
	BYTE	W11
	BYTE		N04     En1 
	BYTE		N03     En2 
	BYTE	W13
	BYTE		N21     Fs1 
	BYTE		N20     Fs2 
	BYTE	W64
// 053   ----------------------------------------
	BYTE	W78
	BYTE	W01
	BYTE		N21     Fn1 
	BYTE		N21     Fn2 
	BYTE	W17
// 054   ----------------------------------------
	BYTE	W07
	BYTE		N03     Fn1 
	BYTE	W01
	BYTE		        Fn2 
	BYTE	W10
	BYTE		N04   
	BYTE	W01
	BYTE		N03     Fn1 
	BYTE	W13
	BYTE		N21     En1 
	BYTE		N20     En2 
	BYTE	W64
// 055   ----------------------------------------
	BYTE	W80
	BYTE		N21     Fn1 
	BYTE		N20     Fn2 
	BYTE	W16
// 056   ----------------------------------------
	BYTE	W08
	BYTE		N02     En1 
	BYTE		N02     En2 
	BYTE	W11
	BYTE		N04     En1 
	BYTE		N03     En2 
	BYTE	W13
	BYTE		N21     Fs1 
	BYTE		N21     Fs2 
	BYTE	W64
// 057   ----------------------------------------
	BYTE	W78
	BYTE	W01
	BYTE		        Fn1 
	BYTE	W01
	BYTE		        Fn2 
	BYTE	W16
// 058   ----------------------------------------
	BYTE	W07
	BYTE		N03     Fn1 
	BYTE	W01
	BYTE		        Fn2 
	BYTE	W10
	BYTE		N04   
	BYTE	W01
	BYTE		        Fn1 
	BYTE	W12
	BYTE		N21     En1 
	BYTE	W01
	BYTE		        En2 
	BYTE	W64
// 059   ----------------------------------------
	BYTE	W54
	BYTE	W01
	BYTE		N09     An1 
	BYTE		N10     An2 
	BYTE	W01
	BYTE		N09     Dn1 
	BYTE		N09     Dn2 
	BYTE	W22
	BYTE		N10   
	BYTE		N11     An2 
	BYTE	W01
	BYTE		N10     Dn1 
	BYTE		N10     An1 
	BYTE	W17
// 060   ----------------------------------------
	BYTE	W06
	BYTE		N04     An2 
	BYTE	W01
	BYTE		        Dn1 
	BYTE		N04     An1 
	BYTE		N03     Dn2 
	BYTE	W10
	BYTE		N05     An2 
	BYTE	W01
	BYTE		        Dn1 
	BYTE		N05     An1 
	BYTE		N05     Dn2 
	BYTE	W11
	BYTE		N11     An2 
	BYTE	W01
	BYTE		        Dn1 
	BYTE		N11     An1 
	BYTE		N11     Dn2 
	BYTE	W24
	BYTE		N03     An1 
	BYTE		N03     An2 
	BYTE	W01
	BYTE		        Dn1 
	BYTE		N03     Dn2 
	BYTE	W10
	BYTE		N04   
	BYTE	W01
	BYTE		N03     Dn1 
	BYTE		N04     An1 
	BYTE		N04     An2 
	BYTE	W12
	BYTE		N21     As2 
	BYTE	W01
	BYTE		        Cs1 
	BYTE		N20     As1 
	BYTE		N21     Cs2 
	BYTE	W17
// 061   ----------------------------------------
	BYTE	W06
	BYTE		N03     An1 
	BYTE	W01
	BYTE		N02     Dn1 
	BYTE		N03     Dn2 
	BYTE		N03     An2 
	BYTE	W11
	BYTE		        An1 
	BYTE		N04     Dn2 
	BYTE		N04     An2 
	BYTE	W01
	BYTE		N03     Dn1 
	BYTE	W12
	BYTE		N20     Cs1 
	BYTE		N21     As1 
	BYTE		N21     As2 
	BYTE	W01
	BYTE		N20     Cs2 
	BYTE	W22
	BYTE		N11     An2 
	BYTE	W01
	BYTE		N10     Dn1 
	BYTE		N10     An1 
	BYTE		N10     Dn2 
	BYTE	W23
	BYTE		N11     Dn1 
	BYTE		N11     An1 
	BYTE		N11     Dn2 
	BYTE		N11     An2 
	BYTE	W18
// 062   ----------------------------------------
	BYTE	W06
	BYTE		N04     An1 
	BYTE		N05     An2 
	BYTE	W01
	BYTE		N04     Dn1 
	BYTE		N04     Dn2 
	BYTE	W10
	BYTE		N05     An2 
	BYTE	W01
	BYTE		        Dn1 
	BYTE		N05     An1 
	BYTE		N05     Dn2 
	BYTE	W11
	BYTE		N12     An2 
	BYTE	W01
	BYTE		N11     Dn1 
	BYTE		N11     An1 
	BYTE		N11     Dn2 
	BYTE	W24
	BYTE		N03     An2 
	BYTE	W01
	BYTE		N02     Dn1 
	BYTE		N03     An1 
	BYTE		N02     Dn2 
	BYTE	W11
	BYTE		N03     An1 
	BYTE		N04     Dn2 
	BYTE	W01
	BYTE		N03     Dn1 
	BYTE		N03     An2 
	BYTE	W11
	BYTE		N21     As2 
	BYTE	W01
	BYTE		        Cs1 
	BYTE		N21     As1 
	BYTE		N21     Cs2 
	BYTE	W17
// 063   ----------------------------------------
	BYTE	W06
	BYTE		N03     An1 
	BYTE	W01
	BYTE		        Dn1 
	BYTE		N03     Dn2 
	BYTE		N03     An2 
	BYTE	W11
	BYTE		N03   
	BYTE	W01
	BYTE		N02     Dn1 
	BYTE		N03     An1 
	BYTE		N03     Dn2 
	BYTE	W11
	BYTE		N21     As1 
	BYTE		N22     As2 
	BYTE	W01
	BYTE		N21     Cs1 
	BYTE		N21     Cs2 
	BYTE	W23
	BYTE		N03     Fn2 
	BYTE		N03     Fn3 
	BYTE	W01
	BYTE		        Fn1 
	BYTE		N03     Cn2 
	BYTE	W11
	BYTE		        Fn1 
	BYTE		N04     Fn2 
	BYTE		N03     Fn3 
	BYTE	W01
	BYTE		        Cn2 
	BYTE	W12
	BYTE		N08     Dn1 
	BYTE		N09     An2 
	BYTE		N09     Dn3 
	BYTE	W01
	BYTE		N08     Dn2 
	BYTE	W16
// 064   ----------------------------------------
	BYTE	W96
// 065   ----------------------------------------
	BYTE	W54
	BYTE	W01
	BYTE		N04     Fn1 
	BYTE		N04     Cn2 
	BYTE		N04     Fn2 
	BYTE		N04     Fn3 
	BYTE	W11
	BYTE		        Cn2 
	BYTE		N04     Fn2 
	BYTE	W01
	BYTE		        Fn1 
	BYTE		N04     Fn3 
	BYTE	W12
	BYTE		N08     Dn1 
	BYTE		N09     An2 
	BYTE		N09     Dn3 
	BYTE	W01
	BYTE		N08     Dn2 
	BYTE	W16
// 066   ----------------------------------------
	BYTE	W96
// 067   ----------------------------------------
	BYTE	W54
	BYTE		VOICE   0
	BYTE	W42
// 068   ----------------------------------------
	BYTE	W96
// 069   ----------------------------------------
	BYTE	W96
// 070   ----------------------------------------
	BYTE	W96
// 071   ----------------------------------------
	BYTE	W96
// 072   ----------------------------------------
	BYTE	W96
// 073   ----------------------------------------
	BYTE	W96
// 074   ----------------------------------------
	BYTE	W96
// 075   ----------------------------------------
	BYTE	W96
// 076   ----------------------------------------
	BYTE	W96
// 077   ----------------------------------------
	BYTE	W96
// 078   ----------------------------------------
	BYTE	W96
// 079   ----------------------------------------
	BYTE	W96
// 080   ----------------------------------------
	BYTE	W96
// 081   ----------------------------------------
	BYTE	W96
// 082   ----------------------------------------
	BYTE	W96
// 083   ----------------------------------------
	BYTE	W96
// 084   ----------------------------------------
	BYTE	W96
// 085   ----------------------------------------
	BYTE	W96
// 086   ----------------------------------------
	BYTE	W96
// 087   ----------------------------------------
	BYTE	W96
// 088   ----------------------------------------
	BYTE	W96
// 089   ----------------------------------------
	BYTE	W96
// 090   ----------------------------------------
	BYTE	W96
// 091   ----------------------------------------
	BYTE	W52
	BYTE	W01
	BYTE		N04     En4   v100
	BYTE	W06
	BYTE		        Gn4 
	BYTE	W06
	BYTE		        Dn4 
	BYTE	W05
	BYTE		        Gn4 
	BYTE	W07
	BYTE		        En4 
	BYTE	W05
	BYTE		        Gn4 
	BYTE	W07
	BYTE		        Dn4 
	BYTE	W06
	BYTE		        Gn4 
	BYTE	W01
// 092   ----------------------------------------
	BYTE	W05
	BYTE		        En4 
	BYTE	W05
	BYTE		        Gn4 
	BYTE	W07
	BYTE		        Dn4 
	BYTE	W05
	BYTE		N05     Gn4 
	BYTE	W07
	BYTE		N04     En4 
	BYTE	W06
	BYTE		        Gn4 
	BYTE	W06
	BYTE		        Dn4 
	BYTE	W05
	BYTE		N05     Gn4 
	BYTE	W07
	BYTE		N04     En4 
	BYTE	W06
	BYTE		        Gn4 
	BYTE	W06
	BYTE		        Cs4 
	BYTE	W06
	BYTE		        Gn4 
	BYTE	W06
	BYTE		        En4 
	BYTE	W06
	BYTE		        Gn4 
	BYTE	W06
	BYTE		        Cs4 
	BYTE	W06
	BYTE		        Gn4 
	BYTE	W01
// 093   ----------------------------------------
	BYTE	W05
	BYTE		        En4 
	BYTE	W06
	BYTE		        Gn4 
	BYTE	W06
	BYTE		        Cs4 
	BYTE	W06
	BYTE		        Gn4 
	BYTE	W06
	BYTE		        En4   v064
	BYTE	W06
	BYTE		        Gn4 
	BYTE	W06
	BYTE		        Cs4 
	BYTE	W05
	BYTE		N05     Gn4 
	BYTE	W48
	BYTE	W02
// 094   ----------------------------------------
	BYTE	W96
// 095   ----------------------------------------
	BYTE	W72
	BYTE	W01
	BYTE		VOICE   52
	BYTE		VOL     127*feb20200423182207_mvl/mxv
	BYTE	W05
	BYTE	W18
// 096   ----------------------------------------
	BYTE	W96
// 097   ----------------------------------------
	BYTE	W96
// 098   ----------------------------------------
	BYTE	W96
// 099   ----------------------------------------
	BYTE	W96
// 100   ----------------------------------------
	BYTE	W96
// 101   ----------------------------------------
	BYTE	W68
	BYTE	W03
	BYTE		N11     Dn2   v127
	BYTE	W01
	BYTE		N10     Dn1 
	BYTE		N10     Dn3 
	BYTE	W11
	BYTE		        Ds3 
	BYTE	W01
	BYTE		        Ds1 
	BYTE	W11
	BYTE		        Dn1 
	BYTE	W01
// 102   ----------------------------------------
	BYTE		        Dn2 
	BYTE		N10     Dn3 
	BYTE	W11
	BYTE		N11     Ds1 
	BYTE		N10     Ds3 
	BYTE	W12
	BYTE		N11     Dn1 
	BYTE	W01
	BYTE		N10     Dn2 
	BYTE		N10     Dn3 
	BYTE	W11
	BYTE		        Ds1 
	BYTE	W01
	BYTE		        Ds2 
	BYTE		N10     Ds3 
	BYTE	W11
	BYTE		        Cs1 
	BYTE		N11     Cs3 
	BYTE	W01
	BYTE		N10     Cs2 
	BYTE	W23
	BYTE		N11     Dn3 
	BYTE	W01
	BYTE		N10     Dn1 
	BYTE		N10     Dn2 
	BYTE	W11
	BYTE		N11     Fn3 
	BYTE	W01
	BYTE		N10     Fn1 
	BYTE		N10     Fn2 
	BYTE	W12
// 103   ----------------------------------------
	BYTE		        Dn1 
	BYTE		N10     Dn2 
	BYTE		N10     Dn3 
	BYTE	W11
	BYTE		N11     Dn2 
	BYTE		N11     Dn3 
	BYTE	W01
	BYTE		N10     Dn1 
	BYTE	W11
	BYTE		        Dn3 
	BYTE	W01
	BYTE		        Dn1 
	BYTE		N10     Dn2 
	BYTE	W11
	BYTE		N11   
	BYTE		N11     Dn3 
	BYTE	W01
	BYTE		        Dn1 
	BYTE	W11
	BYTE		N10     Cs3 
	BYTE	W01
	BYTE		        Cs1 
	BYTE		N10     Cs2 
	BYTE	W24
	BYTE		        Dn1 
	BYTE		N10     Dn2 
	BYTE		N10     Dn3 
	BYTE	W11
	BYTE		        Ds1 
	BYTE		N11     Ds3 
	BYTE	W12
	BYTE		        Dn1 
	BYTE	W01
// 104   ----------------------------------------
	BYTE		N10     Dn2 
	BYTE		N10     Dn3 
	BYTE	W11
	BYTE		        Ds1 
	BYTE	W01
	BYTE		        Ds3 
	BYTE	W11
	BYTE		        Dn1 
	BYTE	W01
	BYTE		        Dn2 
	BYTE		N10     Dn3 
	BYTE	W11
	BYTE		N11     Ds1 
	BYTE		N11     Ds2 
	BYTE	W01
	BYTE		N10     Ds3 
	BYTE	W11
	BYTE		        Cs3 
	BYTE	W01
	BYTE		        Cs1 
	BYTE		N10     Cs2 
	BYTE	W23
	BYTE		        Dn3 
	BYTE	W01
	BYTE		        Dn1 
	BYTE		N10     Dn2 
	BYTE	W11
	BYTE		N11     Fn1 
	BYTE		N11     Fn3 
	BYTE	W01
	BYTE		N10     Fn2 
	BYTE	W11
	BYTE		        Dn3 
	BYTE	W01
// 105   ----------------------------------------
	BYTE		        Dn1 
	BYTE		N10     Dn2 
	BYTE	W11
	BYTE		N11   
	BYTE		N11     Dn3 
	BYTE	W01
	BYTE		        Dn1 
	BYTE	W11
	BYTE		N10     Dn3 
	BYTE	W01
	BYTE		        Dn1 
	BYTE		N10     Dn2 
	BYTE	W11
	BYTE		N11   
	BYTE		N11     Dn3 
	BYTE	W01
	BYTE		N10     Dn1 
	BYTE	W11
	BYTE		N11     Cs3 
	BYTE	W01
	BYTE		N10     Cs1 
	BYTE		N10     Cs2 
	BYTE	W24
	BYTE		        Dn1 
	BYTE		N10     Dn2 
	BYTE		N10     Dn3 
	BYTE	W11
	BYTE		N11     Ds3 
	BYTE	W01
	BYTE		N10     Ds1 
	BYTE	W12
// 106   ----------------------------------------
	BYTE		        Dn1 
	BYTE		N10     Dn2 
	BYTE		N10     Dn3 
	BYTE	W11
	BYTE		        Ds1 
	BYTE	W01
	BYTE		        Ds3 
	BYTE	W12
	BYTE		        Dn1 
	BYTE		N10     Dn2 
	BYTE		N10     Dn3 
	BYTE	W11
	BYTE		        Ds1 
	BYTE	W01
	BYTE		        Ds2 
	BYTE		N10     Ds3 
	BYTE	W12
	BYTE		        Cs1 
	BYTE		N09     Cs2 
	BYTE		N10     Cs3 
	BYTE	W24
	BYTE		        Dn1 
	BYTE		N09     Dn2 
	BYTE		N10     Dn3 
	BYTE	W11
	BYTE		N11     Fn1 
	BYTE		N11     Fn3 
	BYTE	W01
	BYTE		N10     Fn2 
	BYTE	W12
// 107   ----------------------------------------
	BYTE		        Dn2 
	BYTE		N10     Dn3 
	BYTE	W01
	BYTE		N09     Dn1 
	BYTE	W10
	BYTE		N10     Dn3 
	BYTE	W01
	BYTE		        Dn1 
	BYTE		N10     Dn2 
	BYTE	W12
	BYTE		        Dn1 
	BYTE		N10     Dn3 
	BYTE	W01
	BYTE		N09     Dn2 
	BYTE	W10
	BYTE		N10   
	BYTE		N11     Dn3 
	BYTE	W01
	BYTE		N10     Dn1 
	BYTE	W12
	BYTE		N09     Cs1 
	BYTE		N09     Cs2 
	BYTE		N10     Cs3 
	BYTE	W24
	BYTE		        Dn1 
	BYTE		N10     Dn2 
	BYTE		N09     Dn3 
	BYTE	W11
	BYTE		N10     Ds1 
	BYTE		N10     Ds3 
	BYTE	W13
// 108   ----------------------------------------
	BYTE		        Dn1 
	BYTE		N09     Dn2 
	BYTE		N10     Dn3 
	BYTE	W11
	BYTE		N11     Ds1 
	BYTE		N10     Ds3 
	BYTE	W13
	BYTE		        Dn1 
	BYTE		N09     Dn2 
	BYTE		N10     Dn3 
	BYTE	W11
	BYTE		N11     Ds1 
	BYTE		N10     Ds2 
	BYTE	W01
	BYTE		        Ds3 
	BYTE	W12
	BYTE		        Cs1 
	BYTE		N09     Cs2 
	BYTE		N10     Cs3 
	BYTE	W24
	BYTE		        Dn1 
	BYTE		N09     Dn2 
	BYTE		N10     Dn3 
	BYTE	W11
	BYTE		        Fn1 
	BYTE		N10     Fn3 
	BYTE	W01
	BYTE		        Fn2 
	BYTE	W12
// 109   ----------------------------------------
	BYTE		        Dn2 
	BYTE		N10     Dn3 
	BYTE	W01
	BYTE		N09     Dn1 
	BYTE	W10
	BYTE		N10     Dn2 
	BYTE		N11     Dn3 
	BYTE	W01
	BYTE		N10     Dn1 
	BYTE	W12
	BYTE		N10   
	BYTE		N09     Dn2 
	BYTE		N10     Dn3 
	BYTE	W11
	BYTE		        Dn2 
	BYTE		N11     Dn3 
	BYTE	W01
	BYTE		N10     Dn1 
	BYTE	W12
	BYTE		        Cs1 
	BYTE		N09     Cs2 
	BYTE		N10     Cs3 
	BYTE	W24
	BYTE		        Dn2 
	BYTE	W01
	BYTE		N09     Dn1 
	BYTE		N21     Dn3 
	BYTE		N21     Dn4 
	BYTE	W10
	BYTE		N10     Ds1 
	BYTE		N11     Ds3 
	BYTE	W13
// 110   ----------------------------------------
	BYTE		N10     Dn1 
	BYTE	W01
	BYTE		N09     Dn2 
	BYTE		N21     Cs3 
	BYTE		N09     Dn3 
	BYTE		N21     Cs4 
	BYTE	W10
	BYTE		N11     Ds1 
	BYTE	W01
	BYTE		N10     Ds3 
	BYTE	W12
	BYTE		        Dn1 
	BYTE		N09     Dn2 
	BYTE		N10     Dn3 
	BYTE	W01
	BYTE		N21     An2 
	BYTE		N21     An3 
	BYTE	W10
	BYTE		N11     Ds1 
	BYTE		N11     Ds2 
	BYTE	W01
	BYTE		N10     Ds3 
	BYTE	W12
	BYTE		N09     Cs1 
	BYTE		N01     Cs3 
	BYTE	W01
	BYTE		N09     Cs2 
	BYTE		N21     Cs3 
	BYTE		N21     Cs4 
	BYTE	W23
	BYTE		N09     Dn1 
	BYTE		N09     Dn2 
	BYTE		N10     Dn3 
	BYTE	W01
	BYTE		        Fn3 
	BYTE		N21     Fn4 
	BYTE	W10
	BYTE		N10     Fn1 
	BYTE		N11     Fn3 
	BYTE	W01
	BYTE		N10     Fn2 
	BYTE	W12
// 111   ----------------------------------------
	BYTE		N09     Dn1 
	BYTE		N10     Dn2 
	BYTE		N10     Dn3 
	BYTE	W01
	BYTE		N21     En3 
	BYTE		N21     En4 
	BYTE	W10
	BYTE		N10     Dn2 
	BYTE		N11     Dn3 
	BYTE	W01
	BYTE		N10     Dn1 
	BYTE	W12
	BYTE		N10   
	BYTE		N09     Dn2 
	BYTE		N01     Dn3 
	BYTE	W01
	BYTE		N09   
	BYTE		N21     Dn4 
	BYTE	W10
	BYTE		N10     Dn2 
	BYTE		N11     Dn3 
	BYTE	W01
	BYTE		N10     Dn1 
	BYTE	W12
	BYTE		        Cs1 
	BYTE		N09     Cs2 
	BYTE		N01     Cs3 
	BYTE	W01
	BYTE		N21   
	BYTE		N21     Cs4 
	BYTE	W23
	BYTE		N09     Dn1 
	BYTE		N10     Dn2 
	BYTE		N01     Dn3 
	BYTE	W01
	BYTE		N21   
	BYTE		N21     Dn4 
	BYTE	W10
	BYTE		N10     Ds1 
	BYTE		N11     Ds3 
	BYTE	W13
// 112   ----------------------------------------
	BYTE		N10     Dn1 
	BYTE		N10     Dn3 
	BYTE	W01
	BYTE		N09     Dn2 
	BYTE		N21     Cs3 
	BYTE		N21     Cs4 
	BYTE	W10
	BYTE		N10     Ds1 
	BYTE	W01
	BYTE		        Ds3 
	BYTE	W12
	BYTE		        Dn1 
	BYTE		N10     Dn3 
	BYTE	W01
	BYTE		N09     Dn2 
	BYTE		N21     An2 
	BYTE		N21     An3 
	BYTE	W10
	BYTE		N11     Ds1 
	BYTE		N10     Ds2 
	BYTE	W01
	BYTE		        Ds3 
	BYTE	W12
	BYTE		N09     Cs1 
	BYTE		N09     Cs2 
	BYTE		N01     Cs3 
	BYTE	W01
	BYTE		N21   
	BYTE		N21     Cs4 
	BYTE	W23
	BYTE		N10     Dn1 
	BYTE		N09     Dn2 
	BYTE		N10     Dn3 
	BYTE	W01
	BYTE		        Fn3 
	BYTE		N21     Fn4 
	BYTE	W10
	BYTE		N11     Fn1 
	BYTE		N11     Fn3 
	BYTE	W01
	BYTE		N10     Fn2 
	BYTE	W12
// 113   ----------------------------------------
	BYTE		N09     Dn2 
	BYTE		N10     Dn3 
	BYTE	W01
	BYTE		N09     Dn1 
	BYTE		N21     En3 
	BYTE		N21     En4 
	BYTE	W10
	BYTE		N10     Dn2 
	BYTE		N10     Dn3 
	BYTE	W01
	BYTE		        Dn1 
	BYTE	W12
	BYTE		N10   
	BYTE		N09     Dn2 
	BYTE		N01     Dn3 
	BYTE	W01
	BYTE		N10   
	BYTE		N21     Dn4 
	BYTE	W10
	BYTE		N10     Dn2 
	BYTE		N11     Dn3 
	BYTE	W01
	BYTE		N10     Dn1 
	BYTE	W12
	BYTE		        Cs1 
	BYTE		N09     Cs2 
	BYTE		N01     Cs3 
	BYTE	W01
	BYTE		N21   
	BYTE		N21     Cs4 
	BYTE	W23
	BYTE		N09     Dn1 
	BYTE		N10     Dn2 
	BYTE	W01
	BYTE		N21     Dn3 
	BYTE		N21     Dn4 
	BYTE	W10
	BYTE		N10     Ds1 
	BYTE		N11     Ds3 
	BYTE	W13
// 114   ----------------------------------------
	BYTE	W01
	BYTE		N09     Dn1 
	BYTE		N08     Dn2 
	BYTE		N09     Dn3 
	BYTE	W01
	BYTE		N20     Cs3 
	BYTE		N20     Cs4 
	BYTE	W09
	BYTE		N11     Ds1 
	BYTE		N10     Ds3 
	BYTE	W13
	BYTE		N09     Dn1 
	BYTE	W01
	BYTE		        Dn2 
	BYTE		N09     Dn3 
	BYTE		N21     An3 
	BYTE	W01
	BYTE		        An2 
	BYTE	W09
	BYTE		N10     Ds1 
	BYTE	W01
	BYTE		        Ds2 
	BYTE		N10     Ds3 
	BYTE	W12
	BYTE		        Cs1 
	BYTE		N01     Cs3 
	BYTE	W01
	BYTE		N09     Cs2 
	BYTE		N21     Cs3 
	BYTE		N20     Cs4 
	BYTE	W23
	BYTE		N10     Dn3 
	BYTE	W01
	BYTE		N09     Dn1 
	BYTE		N09     Dn2 
	BYTE		N10     Fn3 
	BYTE		N21     Fn4 
	BYTE	W11
	BYTE		N10     Fn1 
	BYTE		N10     Fn2 
	BYTE		N10     Fn3 
	BYTE	W12
// 115   ----------------------------------------
	BYTE		N09     Dn2 
	BYTE		N09     Dn3 
	BYTE	W01
	BYTE		        Dn1 
	BYTE		N21     En3 
	BYTE		N21     En4 
	BYTE	W10
	BYTE		N11     Dn3 
	BYTE	W01
	BYTE		N10     Dn1 
	BYTE		N10     Dn2 
	BYTE	W12
	BYTE		N09     Dn1 
	BYTE		N01     Dn3 
	BYTE	W01
	BYTE		N09     Dn2 
	BYTE		N10     Dn3 
	BYTE		N21     Dn4 
	BYTE	W10
	BYTE		N11     Dn3 
	BYTE	W01
	BYTE		N10     Dn1 
	BYTE		N10     Dn2 
	BYTE	W12
	BYTE		N01     Cs3 
	BYTE	W01
	BYTE		N09     Cs1 
	BYTE		N09     Cs2 
	BYTE		N21     Cs3 
	BYTE		N20     Cs4 
	BYTE	W23
	BYTE		N10     Dn2 
	BYTE	W01
	BYTE		N09     Dn1 
	BYTE		N21     Dn3 
	BYTE		N21     Dn4 
	BYTE	W10
	BYTE		N11     Ds3 
	BYTE	W01
	BYTE		N10     Ds1 
	BYTE	W12
// 116   ----------------------------------------
	BYTE	W01
	BYTE		N09     Dn1 
	BYTE		N08     Dn2 
	BYTE		N09     Dn3 
	BYTE	W01
	BYTE		N20     Cs3 
	BYTE		N20     Cs4 
	BYTE	W09
	BYTE		N10     Ds1 
	BYTE	W01
	BYTE		        Ds3 
	BYTE	W12
	BYTE		N09     Dn1 
	BYTE	W01
	BYTE		        Dn2 
	BYTE		N21     An2 
	BYTE		N09     Dn3 
	BYTE	W01
	BYTE		N20     An3 
	BYTE	W09
	BYTE		N10     Ds1 
	BYTE	W01
	BYTE		        Ds2 
	BYTE		N10     Ds3 
	BYTE	W12
	BYTE		N01     Cs3 
	BYTE	W01
	BYTE		N09     Cs1 
	BYTE		N09     Cs2 
	BYTE		N21     Cs3 
	BYTE		N20     Cs4 
	BYTE	W23
	BYTE		N09     Dn1 
	BYTE		N10     Dn3 
	BYTE	W01
	BYTE		N09     Dn2 
	BYTE		N10     Fn3 
	BYTE		N21     Fn4 
	BYTE	W10
	BYTE		N11     Fn3 
	BYTE	W01
	BYTE		N10     Fn1 
	BYTE		N10     Fn2 
	BYTE	W12
// 117   ----------------------------------------
	BYTE		        Dn3 
	BYTE	W01
	BYTE		N09     Dn1 
	BYTE		N09     Dn2 
	BYTE		N21     En3 
	BYTE		N21     En4 
	BYTE	W10
	BYTE		N10     Dn2 
	BYTE		N10     Dn3 
	BYTE	W01
	BYTE		        Dn1 
	BYTE	W12
	BYTE		N01     Dn3 
	BYTE	W01
	BYTE		N09     Dn1 
	BYTE		N09     Dn2 
	BYTE		N09     Dn3 
	BYTE		N21     Dn4 
	BYTE	W10
	BYTE		N10     Dn2 
	BYTE		N11     Dn3 
	BYTE	W01
	BYTE		N10     Dn1 
	BYTE	W12
	BYTE		N09     Cs1 
	BYTE		N01     Cs3 
	BYTE	W01
	BYTE		N09     Cs2 
	BYTE		N21     Cs3 
	BYTE		N21     Cs4 
	BYTE	W21
	BYTE		VOL     100*feb20200423182207_mvl/mxv
	BYTE	W03
	BYTE		N03     Fn1 
	BYTE		N03     Cn2 
	BYTE		N03     Fn2 
	BYTE		N03     Fn3 
	BYTE	W11
	BYTE		N04     Fn2 
	BYTE	W01
	BYTE		N03     Fn1 
	BYTE		N03     Cn2 
	BYTE		N04     Fn3 
	BYTE	W11
// 118   ----------------------------------------
	BYTE	W01
	BYTE		N09     Dn3 
	BYTE	W01
	BYTE		        Dn1 
	BYTE		N08     Dn2 
	BYTE		N09     An2 
	BYTE	W92
	BYTE	W02
// 119   ----------------------------------------
	BYTE	W72
	BYTE	W01
	BYTE		N04     Cn2 
	BYTE		N04     Fn3 
	BYTE	W01
	BYTE		        Fn1 
	BYTE		N04     Fn2 
	BYTE	W11
	BYTE		        Fn1 
	BYTE		N04     Cn2 
	BYTE		N05     Fn2 
	BYTE	W01
	BYTE		N04     Fn3 
	BYTE	W10
// 120   ----------------------------------------
	BYTE	W01
	BYTE		N09     An2 
	BYTE		N09     Dn3 
	BYTE	W01
	BYTE		        Dn1 
	BYTE		N08     Dn2 
	BYTE	W56
	BYTE	W01
	BYTE		VOL     100*feb20200423182207_mvl/mxv
	BYTE	W05
	BYTE		        99*feb20200423182207_mvl/mxv
	BYTE	W04
	BYTE		        98*feb20200423182207_mvl/mxv
	BYTE	W04
	BYTE		        97*feb20200423182207_mvl/mxv
	BYTE	W04
	BYTE		        96*feb20200423182207_mvl/mxv
	BYTE	W04
	BYTE		        95*feb20200423182207_mvl/mxv
	BYTE	W05
	BYTE		        94*feb20200423182207_mvl/mxv
	BYTE	W04
	BYTE		        93*feb20200423182207_mvl/mxv
	BYTE	W04
	BYTE		        92*feb20200423182207_mvl/mxv
	BYTE	W03
// 121   ----------------------------------------
	BYTE	W01
	BYTE		        91*feb20200423182207_mvl/mxv
	BYTE	W04
	BYTE		        90*feb20200423182207_mvl/mxv
	BYTE	W05
	BYTE		        89*feb20200423182207_mvl/mxv
	BYTE	W04
	BYTE		        88*feb20200423182207_mvl/mxv
	BYTE	W04
	BYTE		        87*feb20200423182207_mvl/mxv
	BYTE	W04
	BYTE		        86*feb20200423182207_mvl/mxv
	BYTE	W04
	BYTE		        85*feb20200423182207_mvl/mxv
	BYTE	W05
	BYTE		        84*feb20200423182207_mvl/mxv
	BYTE	W04
	BYTE		        83*feb20200423182207_mvl/mxv
	BYTE	W04
	BYTE		        82*feb20200423182207_mvl/mxv
	BYTE	W04
	BYTE		        81*feb20200423182207_mvl/mxv
	BYTE	W04
	BYTE		        80*feb20200423182207_mvl/mxv
	BYTE	W05
	BYTE		        79*feb20200423182207_mvl/mxv
	BYTE	W04
	BYTE		        78*feb20200423182207_mvl/mxv
	BYTE	W04
	BYTE		        77*feb20200423182207_mvl/mxv
	BYTE	W04
	BYTE		        76*feb20200423182207_mvl/mxv
	BYTE	W04
	BYTE		        75*feb20200423182207_mvl/mxv
	BYTE	W05
	BYTE		        74*feb20200423182207_mvl/mxv
	BYTE		N09     Dn1 
	BYTE		N09     Dn2 
	BYTE		N01     An2 
	BYTE	W01
	BYTE		N09   
	BYTE	W03
	BYTE		VOL     73*feb20200423182207_mvl/mxv
	BYTE	W04
	BYTE		        72*feb20200423182207_mvl/mxv
	BYTE	W04
	BYTE		        71*feb20200423182207_mvl/mxv
	BYTE	W04
	BYTE		        70*feb20200423182207_mvl/mxv
	BYTE	W05
	BYTE		        69*feb20200423182207_mvl/mxv
	BYTE	W02
// 122   ----------------------------------------
	BYTE		N10     Dn1 
	BYTE		N10     Dn2 
	BYTE	W01
	BYTE		        An2 
	BYTE	W01
	BYTE		VOL     68*feb20200423182207_mvl/mxv
	BYTE	W04
	BYTE		        67*feb20200423182207_mvl/mxv
	BYTE	W04
	BYTE		        66*feb20200423182207_mvl/mxv
	BYTE	W04
	BYTE		        65*feb20200423182207_mvl/mxv
	BYTE	W05
	BYTE		        64*feb20200423182207_mvl/mxv
	BYTE	W04
	BYTE		        63*feb20200423182207_mvl/mxv
	BYTE	W02
	BYTE		N03     An1 
	BYTE		N03     Dn2 
	BYTE		N03     An2 
	BYTE	W01
	BYTE		        Dn1 
	BYTE	W01
	BYTE		VOL     62*feb20200423182207_mvl/mxv
	BYTE	W04
	BYTE		        61*feb20200423182207_mvl/mxv
	BYTE	W04
	BYTE		        60*feb20200423182207_mvl/mxv
	BYTE	W01
	BYTE		N04     Dn2 
	BYTE		N05     An2 
	BYTE	W01
	BYTE		N04     Dn1 
	BYTE		N04     An1 
	BYTE	W03
	BYTE		VOL     59*feb20200423182207_mvl/mxv
	BYTE	W04
	BYTE		        58*feb20200423182207_mvl/mxv
	BYTE	W04
	BYTE		        57*feb20200423182207_mvl/mxv
	BYTE		N22     Dn1 
	BYTE		N22     Dn2 
	BYTE	W04
	BYTE		VOL     56*feb20200423182207_mvl/mxv
	BYTE	W04
	BYTE		        55*feb20200423182207_mvl/mxv
	BYTE	W05
	BYTE		        54*feb20200423182207_mvl/mxv
	BYTE	W04
	BYTE		        53*feb20200423182207_mvl/mxv
	BYTE	W04
	BYTE		        52*feb20200423182207_mvl/mxv
	BYTE	W03
	BYTE		N04   
	BYTE	W01
	BYTE		VOL     51*feb20200423182207_mvl/mxv
	BYTE		N04     Dn1 
	BYTE		N04     An1 
	BYTE		N03     An2 
	BYTE	W04
	BYTE		VOL     50*feb20200423182207_mvl/mxv
	BYTE	W05
	BYTE		        49*feb20200423182207_mvl/mxv
	BYTE	W02
	BYTE		N04     An1 
	BYTE		N04     Dn2 
	BYTE	W01
	BYTE		        Dn1 
	BYTE		N03     An2 
	BYTE	W01
	BYTE		VOL     48*feb20200423182207_mvl/mxv
	BYTE	W04
	BYTE		        47*feb20200423182207_mvl/mxv
	BYTE	W04
	BYTE		        46*feb20200423182207_mvl/mxv
	BYTE	W02
// 123   ----------------------------------------
	BYTE		N22     Cs2 
	BYTE	W01
	BYTE		N21     Cs1 
	BYTE		N21     As1 
	BYTE		N22     As2 
	BYTE	W01
	BYTE		VOL     45*feb20200423182207_mvl/mxv
	BYTE	W05
	BYTE		        44*feb20200423182207_mvl/mxv
	BYTE	W04
	BYTE		        43*feb20200423182207_mvl/mxv
	BYTE	W04
	BYTE		        42*feb20200423182207_mvl/mxv
	BYTE	W04
	BYTE		        41*feb20200423182207_mvl/mxv
	BYTE	W04
	BYTE		        40*feb20200423182207_mvl/mxv
	BYTE	W01
	BYTE		N04     An1 
	BYTE	W01
	BYTE		N03     Dn1 
	BYTE		N04     Dn2 
	BYTE		N04     An2 
	BYTE	W03
	BYTE		VOL     39*feb20200423182207_mvl/mxv
	BYTE	W04
	BYTE		        38*feb20200423182207_mvl/mxv
	BYTE	W04
	BYTE		        37*feb20200423182207_mvl/mxv
	BYTE	W01
	BYTE		N03     Dn1 
	BYTE		N04     An1 
	BYTE		N04     Dn2 
	BYTE		N04     An2 
	BYTE	W03
	BYTE		VOL     36*feb20200423182207_mvl/mxv
	BYTE	W04
	BYTE		        35*feb20200423182207_mvl/mxv
	BYTE	W04
	BYTE		N23     As2 
	BYTE	W01
	BYTE		VOL     34*feb20200423182207_mvl/mxv
	BYTE		N22     Cs1 
	BYTE		N22     As1 
	BYTE		N22     Cs2 
	BYTE	W04
	BYTE		VOL     33*feb20200423182207_mvl/mxv
	BYTE	W04
	BYTE		        32*feb20200423182207_mvl/mxv
	BYTE	W04
	BYTE		        31*feb20200423182207_mvl/mxv
	BYTE	W04
	BYTE		        30*feb20200423182207_mvl/mxv
	BYTE	W05
	BYTE		        29*feb20200423182207_mvl/mxv
	BYTE	W02
	BYTE		N10     Dn1 
	BYTE	W01
	BYTE		        Dn2 
	BYTE		N10     An2 
	BYTE	W01
	BYTE		VOL     28*feb20200423182207_mvl/mxv
	BYTE	W04
	BYTE		        27*feb20200423182207_mvl/mxv
	BYTE	W04
	BYTE		        26*feb20200423182207_mvl/mxv
	BYTE	W04
	BYTE		        25*feb20200423182207_mvl/mxv
	BYTE	W05
	BYTE		        24*feb20200423182207_mvl/mxv
	BYTE	W04
	BYTE		        23*feb20200423182207_mvl/mxv
	BYTE	W01
// 124   ----------------------------------------
	BYTE		N10     Dn2 
	BYTE	W01
	BYTE		        Dn1 
	BYTE		N10     An2 
	BYTE	W02
	BYTE		VOL     22*feb20200423182207_mvl/mxv
	BYTE	W04
	BYTE		        21*feb20200423182207_mvl/mxv
	BYTE	W04
	BYTE		        20*feb20200423182207_mvl/mxv
	BYTE	W05
	BYTE		        19*feb20200423182207_mvl/mxv
	BYTE	W04
	BYTE		        18*feb20200423182207_mvl/mxv
	BYTE	W04
	BYTE		        17*feb20200423182207_mvl/mxv
	BYTE		N04   
	BYTE	W01
	BYTE		        Dn1 
	BYTE		N04     An1 
	BYTE		N04     Dn2 
	BYTE	W03
	BYTE		VOL     16*feb20200423182207_mvl/mxv
	BYTE	W04
	BYTE		        15*feb20200423182207_mvl/mxv
	BYTE	W04
	BYTE		N04     An2 
	BYTE	W01
	BYTE		VOL     14*feb20200423182207_mvl/mxv
	BYTE		N03     Dn1 
	BYTE		N03     An1 
	BYTE		N03     Dn2 
	BYTE	W04
	BYTE		VOL     13*feb20200423182207_mvl/mxv
	BYTE	W04
	BYTE		        12*feb20200423182207_mvl/mxv
	BYTE	W03
	BYTE		N22     Dn1 
	BYTE	W01
	BYTE		VOL     11*feb20200423182207_mvl/mxv
	BYTE		N22     Dn2 
	BYTE	W04
	BYTE		VOL     10*feb20200423182207_mvl/mxv
	BYTE	W05
	BYTE		        9*feb20200423182207_mvl/mxv
	BYTE	W04
	BYTE		        8*feb20200423182207_mvl/mxv
	BYTE	W04
	BYTE		        7*feb20200423182207_mvl/mxv
	BYTE	W04
	BYTE		        6*feb20200423182207_mvl/mxv
	BYTE	W02
	BYTE		N04   
	BYTE	W01
	BYTE		        Dn1 
	BYTE		N04     An1 
	BYTE		N03     An2 
	BYTE	W01
	BYTE		VOL     5*feb20200423182207_mvl/mxv
	BYTE	W05
	BYTE		        4*feb20200423182207_mvl/mxv
	BYTE	W04
	BYTE		        3*feb20200423182207_mvl/mxv
	BYTE	W01
	BYTE		N04     An1 
	BYTE		N04     Dn2 
	BYTE	W01
	BYTE		        Dn1 
	BYTE		N04     An2 
	BYTE	W02
	BYTE		VOL     2*feb20200423182207_mvl/mxv
	BYTE	W04
	BYTE		        1*feb20200423182207_mvl/mxv
	BYTE	W05
// 125   ----------------------------------------
	BYTE		        0*feb20200423182207_mvl/mxv
	BYTE		N22     Cs2 
	BYTE	W01
	BYTE		        Cs1 
	BYTE		N22     As1 
	BYTE		N22     As2 
	BYTE	W24
	BYTE		N03     Dn1 
	BYTE		N04     An1 
	BYTE		N03     Dn2 
	BYTE		N04     An2 
	BYTE	W11
	BYTE		        Dn2 
	BYTE		N04     An2 
	BYTE	W01
	BYTE		        Dn1 
	BYTE		N04     An1 
	BYTE	W12
	BYTE		N21     Cs1 
	BYTE		N21     Cs2 
	BYTE		N22     As2 
	BYTE	W01
	BYTE		N21     As1 
	BYTE	W44
	BYTE	W02
// 126   ----------------------------------------
	BYTE	W96
// 127   ----------------------------------------
	BYTE	FINE

//**************** Track 8 (Midi-Chn.8) ****************//

feb20200423182207_8:
	BYTE	KEYSH   feb20200423182207_key+0
// 000   ----------------------------------------
	BYTE	W01
	BYTE		VOICE   61
	BYTE	W01
	BYTE		VOL     127*feb20200423182207_mvl/mxv
	BYTE	W92
	BYTE	W02
// 001   ----------------------------------------
	BYTE	W96
// 002   ----------------------------------------
	BYTE	W96
// 003   ----------------------------------------
	BYTE	W96
// 004   ----------------------------------------
	BYTE	W96
// 005   ----------------------------------------
	BYTE	W96
// 006   ----------------------------------------
	BYTE	W96
// 007   ----------------------------------------
	BYTE	W96
// 008   ----------------------------------------
	BYTE	W96
// 009   ----------------------------------------
	BYTE	W96
// 010   ----------------------------------------
	BYTE	W12
	BYTE		N11     Gn2   v127
	BYTE		N11     Gn3 
	BYTE	W24
	BYTE		N44     En2 
	BYTE		N44     En3 
	BYTE	W48
	BYTE		N10     En2 
	BYTE		N10     En3 
	BYTE	W12
// 011   ----------------------------------------
	BYTE	W01
	BYTE		N09     Ds2 
	BYTE		N09     Ds3 
	BYTE	W11
	BYTE		N11     En2 
	BYTE		N11     En3 
	BYTE	W13
	BYTE		N21     Fs2 
	BYTE		N22     Fs3 
	BYTE	W24
	BYTE		TIE     Cn2 
	BYTE		TIE     Cn3 
	BYTE	W44
	BYTE	W03
// 012   ----------------------------------------
	BYTE	W92
	BYTE	W02
	BYTE		EOT     Cn2 
	BYTE		        Cn3 
	BYTE	W02
// 013   ----------------------------------------
	BYTE	W96
// 014   ----------------------------------------
	BYTE	W96
// 015   ----------------------------------------
	BYTE	W01
	BYTE		N21     Fs3 
	BYTE	W24
	BYTE		N02     Gn3 
	BYTE	W07
	BYTE		N04   
	BYTE	W08
	BYTE		N04   
	BYTE	W09
	BYTE		N21     An3 
	BYTE	W24
	BYTE		N02     Bn3 
	BYTE	W07
	BYTE		N04   
	BYTE	W08
	BYTE		N04   
	BYTE	W08
// 016   ----------------------------------------
	BYTE	W01
	BYTE		N21     Cn4 
	BYTE	W24
	BYTE		N02     Bn3 
	BYTE	W07
	BYTE		N04   
	BYTE	W08
	BYTE		N04   
	BYTE	W09
	BYTE		N21     As3 
	BYTE	W24
	BYTE		N02     Bn3 
	BYTE	W07
	BYTE		N03   
	BYTE	W08
	BYTE		N04   
	BYTE	W08
// 017   ----------------------------------------
	BYTE	W01
	BYTE		N21     Cs4 
	BYTE	W24
	BYTE		N02     Bn3 
	BYTE	W07
	BYTE		N04   
	BYTE	W08
	BYTE		N04   
	BYTE	W09
	BYTE		N21     Dn4 
	BYTE	W24
	BYTE		N02     Bn3 
	BYTE	W07
	BYTE		N03   
	BYTE	W08
	BYTE		N04   
	BYTE	W08
// 018   ----------------------------------------
	BYTE	W01
	BYTE		N21     En4 
	BYTE	W24
	BYTE		N02     Bn3 
	BYTE	W07
	BYTE		N03   
	BYTE	W08
	BYTE		N04   
	BYTE	W09
	BYTE		N21     As3 
	BYTE	W24
	BYTE		N02     Bn3 
	BYTE	W07
	BYTE		N04   
	BYTE	W08
	BYTE		N04   
	BYTE	W08
// 019   ----------------------------------------
	BYTE	W96
// 020   ----------------------------------------
	BYTE	W96
// 021   ----------------------------------------
	BYTE	W01
	BYTE		N44     Dn2 
	BYTE	W44
	BYTE	W03
	BYTE		N22     Cn2 
	BYTE	W24
	BYTE		N10     As1 
	BYTE	W13
	BYTE		N21     An1 
	BYTE	W11
// 022   ----------------------------------------
	BYTE	W12
	BYTE		N22     Fs2 
	BYTE	W24
	BYTE		        Fn2 
	BYTE	W24
	BYTE		N10     Ds2 
	BYTE	W12
	BYTE		N22     Dn2 
	BYTE	W24
// 023   ----------------------------------------
	BYTE		        Gn1 
	BYTE	W24
	BYTE		        An1 
	BYTE	W24
	BYTE		N10     As1 
	BYTE	W14
	BYTE		N03     Bn1 
	BYTE	W23
	BYTE		N04   
	BYTE	W11
// 024   ----------------------------------------
	BYTE	W13
	BYTE		N04   
	BYTE	W23
	BYTE		N05   
	BYTE	W24
	BYTE	W01
	BYTE		N04   
	BYTE	W24
	BYTE		N04   
	BYTE	W11
// 025   ----------------------------------------
	BYTE	W13
	BYTE		N04   
	BYTE	W23
	BYTE		N05   
	BYTE	W24
	BYTE	W01
	BYTE		N04     Dn2 
	BYTE	W24
	BYTE		N04   
	BYTE	W11
// 026   ----------------------------------------
	BYTE	W13
	BYTE		N05   
	BYTE	W24
	BYTE		N04   
	BYTE	W24
	BYTE		N04   
	BYTE	W24
	BYTE		N04   
	BYTE	W11
// 027   ----------------------------------------
	BYTE	W13
	BYTE		N04   
	BYTE	W24
	BYTE		N04   
	BYTE	W24
	BYTE	W01
	BYTE		N03   
	BYTE	W23
	BYTE		N04   
	BYTE	W11
// 028   ----------------------------------------
feb20200423182207_8_028:
	BYTE	W15
	BYTE		N02     Dn2   v127
	BYTE	W22
	BYTE		N04   
	BYTE	W24
	BYTE	W01
	BYTE		N04   
	BYTE	W23
	BYTE		N04   
	BYTE	W11
	BYTE	PEND
// 029   ----------------------------------------
feb20200423182207_8_029:
	BYTE	W15
	BYTE		N03     Dn2   v127
	BYTE	W22
	BYTE		N04   
	BYTE	W24
	BYTE	W01
	BYTE		N04   
	BYTE	W23
	BYTE		N04   
	BYTE	W11
	BYTE	PEND
// 030   ----------------------------------------
	BYTE	W15
	BYTE		N03   
	BYTE	W22
	BYTE		N04   
	BYTE	W24
	BYTE	W01
	BYTE		N03   
	BYTE	W23
	BYTE		N04   
	BYTE	W11
// 031   ----------------------------------------
	BYTE	PATT
	 POIN2	feb20200423182207_8_029
// 032   ----------------------------------------
	BYTE	PATT
	 POIN2	feb20200423182207_8_028
// 033   ----------------------------------------
	BYTE	W15
	BYTE		N02     Dn2   v127
	BYTE	W22
	BYTE		N04   
	BYTE	W24
	BYTE	W01
	BYTE		N03   
	BYTE	W23
	BYTE		N04   
	BYTE	W11
// 034   ----------------------------------------
	BYTE	W15
	BYTE		N02   
	BYTE	W22
	BYTE		N04   
	BYTE	W24
	BYTE	W01
	BYTE		N03     Bn1 
	BYTE	W23
	BYTE		N04   
	BYTE	W11
// 035   ----------------------------------------
	BYTE	W15
	BYTE		N02   
	BYTE	W22
	BYTE		N04   
	BYTE	W24
	BYTE	W01
	BYTE		N08     Cs2 
	BYTE	W10
	BYTE		N04     Dn2 
	BYTE	W13
	BYTE		N03   
	BYTE	W11
// 036   ----------------------------------------
	BYTE		N04   
	BYTE	W14
	BYTE		N02   
	BYTE	W11
	BYTE		N03   
	BYTE	W11
	BYTE		N03   
	BYTE	W12
	BYTE		N03   
	BYTE	W13
	BYTE		N03   
	BYTE	W01
	BYTE		        An2 
	BYTE	W11
	BYTE		        Dn2 
	BYTE		N03     An2 
	BYTE	W13
	BYTE		N21     Cs2 
	BYTE		N20     As2 
	BYTE	W10
// 037   ----------------------------------------
	BYTE	W13
	BYTE		N03     Dn2 
	BYTE		N03     An2 
	BYTE	W12
	BYTE		        Dn2 
	BYTE	W01
	BYTE		        An2 
	BYTE	W11
	BYTE		N21     Cs2 
	BYTE		N21     As2 
	BYTE	W24
	BYTE		N09     Cs2 
	BYTE	W11
	BYTE		N04     Dn2 
	BYTE	W12
	BYTE		N03   
	BYTE	W12
// 038   ----------------------------------------
	BYTE		N04   
	BYTE	W13
	BYTE		N03   
	BYTE	W12
	BYTE		N03   
	BYTE	W12
	BYTE		N03   
	BYTE	W11
	BYTE		N04   
	BYTE	W14
	BYTE		N03   
	BYTE		N02     An2 
	BYTE	W11
	BYTE		N03     Dn2 
	BYTE		N03     An2 
	BYTE	W12
	BYTE		N22     Cs2 
	BYTE		N21     As2 
	BYTE	W11
// 039   ----------------------------------------
	BYTE	W14
	BYTE		N03     Dn2 
	BYTE		N03     An2 
	BYTE	W11
	BYTE		        Dn2 
	BYTE	W01
	BYTE		        An2 
	BYTE	W11
	BYTE		N21     Cs2 
	BYTE		N21     As2 
	BYTE	W24
	BYTE	W01
	BYTE		N01     Fn2 
	BYTE	W01
	BYTE		N07   
	BYTE	W11
	BYTE		N08     Dn2 
	BYTE		N08     Fn2 
	BYTE	W22
// 040   ----------------------------------------
	BYTE	W96
// 041   ----------------------------------------
	BYTE	W60
	BYTE	W02
	BYTE		N08   
	BYTE	W01
	BYTE		        Cn2 
	BYTE	W11
	BYTE		        Fn2 
	BYTE	W01
	BYTE		        Cn2 
	BYTE	W21
// 042   ----------------------------------------
	BYTE	W96
// 043   ----------------------------------------
	BYTE	W60
	BYTE	W03
	BYTE		N03     Dn2 
	BYTE	W10
	BYTE		N05   
	BYTE	W13
	BYTE		N03   
	BYTE	W10
// 044   ----------------------------------------
	BYTE		N05   
	BYTE	W14
	BYTE		N04   
	BYTE	W11
	BYTE		N04   
	BYTE	W12
	BYTE		N04   
	BYTE	W11
	BYTE		N04   
	BYTE	W13
	BYTE		N04   
	BYTE	W11
	BYTE		N04   
	BYTE	W12
	BYTE		N20     Cs2 
	BYTE	W01
	BYTE		        As1 
	BYTE	W11
// 045   ----------------------------------------
	BYTE	W12
	BYTE		N04     Dn2 
	BYTE	W11
	BYTE		N04   
	BYTE	W13
	BYTE		N20     As1 
	BYTE		N20     Cs2 
	BYTE	W23
	BYTE		N03     Dn2 
	BYTE	W10
	BYTE		N05   
	BYTE	W13
	BYTE		N04   
	BYTE	W11
	BYTE		N05   
	BYTE	W03
// 046   ----------------------------------------
	BYTE	W10
	BYTE		N04   
	BYTE	W12
	BYTE		N04   
	BYTE	W11
	BYTE		N04   
	BYTE	W12
	BYTE		N04   
	BYTE	W13
	BYTE		N03   
	BYTE	W11
	BYTE		N03   
	BYTE	W12
	BYTE		N20     As1 
	BYTE		N20     Cs2 
	BYTE	W15
// 047   ----------------------------------------
	BYTE	W09
	BYTE		N04     Dn2 
	BYTE	W11
	BYTE		N04   
	BYTE	W12
	BYTE		N20     Cs2 
	BYTE	W01
	BYTE		        As1 
	BYTE	W23
	BYTE		N01     Fn2 
	BYTE	W01
	BYTE		N07   
	BYTE	W11
	BYTE		N08     Dn2 
	BYTE		N08     Fn2 
	BYTE	W28
// 048   ----------------------------------------
	BYTE	W96
// 049   ----------------------------------------
	BYTE	W56
	BYTE		N08   
	BYTE	W01
	BYTE		        Cn2 
	BYTE	W11
	BYTE		N08   
	BYTE		N08     Fn2 
	BYTE	W28
// 050   ----------------------------------------
	BYTE	W96
// 051   ----------------------------------------
	BYTE	W54
	BYTE	W01
	BYTE		N03     As2 
	BYTE	W24
	BYTE	W02
	BYTE		N02     As3 
	BYTE	W15
// 052   ----------------------------------------
	BYTE	W09
	BYTE		        As2 
	BYTE	W23
	BYTE		        As3 
	BYTE	W24
	BYTE		        As2 
	BYTE	W24
	BYTE		        As3 
	BYTE	W16
// 053   ----------------------------------------
feb20200423182207_8_053:
	BYTE	W07
	BYTE		N03     As2   v127
	BYTE	W24
	BYTE		        As3 
	BYTE	W24
	BYTE	W01
	BYTE		N02     As2 
	BYTE	W24
	BYTE		        As3 
	BYTE	W16
	BYTE	PEND
// 054   ----------------------------------------
	BYTE	W08
	BYTE		N03     As2 
	BYTE	W24
	BYTE		N02     As3 
	BYTE	W23
	BYTE		N03     As2 
	BYTE	W24
	BYTE	W01
	BYTE		        As3 
	BYTE	W16
// 055   ----------------------------------------
	BYTE	W07
	BYTE		N04     As2 
	BYTE	W24
	BYTE		N03     As3 
	BYTE	W24
	BYTE		        As2 
	BYTE	W24
	BYTE	W01
	BYTE		N02     As3 
	BYTE	W16
// 056   ----------------------------------------
	BYTE	W08
	BYTE		        As2 
	BYTE	W24
	BYTE		        As3 
	BYTE	W24
	BYTE		        As2 
	BYTE	W24
	BYTE		        As3 
	BYTE	W16
// 057   ----------------------------------------
	BYTE	PATT
	 POIN2	feb20200423182207_8_053
// 058   ----------------------------------------
	BYTE	W08
	BYTE		N03     As2   v127
	BYTE	W24
	BYTE		        As3 
	BYTE	W23
	BYTE		        As2 
	BYTE	W24
	BYTE	W01
	BYTE		        As3 
	BYTE	W16
// 059   ----------------------------------------
	BYTE	W07
	BYTE		        As2 
	BYTE	W24
	BYTE	W01
	BYTE		N01     Cs3   v064
	BYTE		N02     Cs4 
	BYTE	W06
	BYTE		N03   
	BYTE	W01
	BYTE		        Cs3 
	BYTE	W07
	BYTE		N03   
	BYTE		N03     Cs4 
	BYTE	W10
	BYTE		N02     Dn2   v127
	BYTE	W01
	BYTE		N90     Dn4   v064
	BYTE	W09
	BYTE		N05     Dn2   v127
	BYTE	W13
	BYTE		N03   
	BYTE	W11
	BYTE		N05   
	BYTE	W06
// 060   ----------------------------------------
	BYTE	W08
	BYTE		N03   
	BYTE	W11
	BYTE		N04   
	BYTE	W12
	BYTE		N04   
	BYTE	W11
	BYTE		N05   
	BYTE	W13
	BYTE		N03   
	BYTE	W12
	BYTE		N04   
	BYTE	W13
	BYTE		N20     As1 
	BYTE		N20     Cs2 
	BYTE	W16
// 061   ----------------------------------------
	BYTE	W08
	BYTE		N03     Dn2 
	BYTE	W11
	BYTE		N04   
	BYTE	W13
	BYTE		N20     As1 
	BYTE		N20     Cs2 
	BYTE	W24
	BYTE		N03     Dn2 
	BYTE	W10
	BYTE		N05   
	BYTE	W13
	BYTE		N03   
	BYTE	W11
	BYTE		N05   
	BYTE	W06
// 062   ----------------------------------------
	BYTE	W07
	BYTE		N04   
	BYTE	W12
	BYTE		N04   
	BYTE	W12
	BYTE		N04   
	BYTE	W11
	BYTE		N05   
	BYTE	W14
	BYTE		N03   
	BYTE	W11
	BYTE		N03   
	BYTE	W12
	BYTE		N20     Cs2 
	BYTE	W01
	BYTE		        As1 
	BYTE	W16
// 063   ----------------------------------------
	BYTE	W08
	BYTE		N03     Dn2 
	BYTE	W12
	BYTE		N03   
	BYTE	W11
	BYTE		N21     Cs2 
	BYTE	W01
	BYTE		N20     As1 
	BYTE	W23
	BYTE		N01     Fn2 
	BYTE	W01
	BYTE		N07   
	BYTE	W11
	BYTE		N08     Dn2 
	BYTE		N08     Fn2 
	BYTE	W28
	BYTE	W01
// 064   ----------------------------------------
	BYTE	W18
	BYTE		N04     Cn3 
	BYTE		N03     Cn4 
	BYTE	W24
	BYTE		        Bn2 
	BYTE		N04     Bn3 
	BYTE	W24
	BYTE		N03     An2 
	BYTE		N04     An3 
	BYTE	W24
	BYTE		        Gn2 
	BYTE		N03     Gn3 
	BYTE	W06
// 065   ----------------------------------------
	BYTE	W17
	BYTE		N22     Fn2 
	BYTE		N22     Fn3 
	BYTE	W24
	BYTE	W01
	BYTE		N03     En2 
	BYTE		N03     En3 
	BYTE	W14
	BYTE		N02     Fn2 
	BYTE		N01     Fn3 
	BYTE	W11
	BYTE		N02   
	BYTE	W01
	BYTE		        Fn2 
	BYTE	W12
	BYTE		        Bn1 
	BYTE		N01     Bn2 
	BYTE	W10
	BYTE		N03     Bn1 
	BYTE		N04     Bn2 
	BYTE	W06
// 066   ----------------------------------------
	BYTE	W06
	BYTE		        Bn1 
	BYTE		N03     Bn2 
	BYTE	W12
	BYTE		        Bn1 
	BYTE		N04     Bn2 
	BYTE	W13
	BYTE		N02     Bn1 
	BYTE		N03     Bn2 
	BYTE	W11
	BYTE		N04     Bn1 
	BYTE		N04     Bn2 
	BYTE	W13
	BYTE		N03     Cn2 
	BYTE		N02     Cn3 
	BYTE	W11
	BYTE		N03     Cn2 
	BYTE		N03     Cn3 
	BYTE	W13
	BYTE		        Cs2 
	BYTE		N03     Cs3 
	BYTE	W11
	BYTE		        Cs2 
	BYTE		N04     Cs3 
	BYTE	W06
// 067   ----------------------------------------
	BYTE	W07
	BYTE		N03     Dn2 
	BYTE		N03     Dn3 
	BYTE	W10
	BYTE		N04     Dn2 
	BYTE		N04     Dn3 
	BYTE	W14
	BYTE		N02     Ds2 
	BYTE		N03     Ds3 
	BYTE	W11
	BYTE		N04     Ds2 
	BYTE		N04     Ds3 
	BYTE	W12
	BYTE		        Bn1 
	BYTE		N04     En2 
	BYTE	W24
	BYTE	W01
	BYTE		        Bn1 
	BYTE		N04     En2 
	BYTE	W17
// 068   ----------------------------------------
	BYTE	W06
	BYTE		        Bn1 
	BYTE	W01
	BYTE		        En2 
	BYTE	W23
	BYTE		        Bn1 
	BYTE	W01
	BYTE		        En2 
	BYTE	W23
	BYTE		        Bn1 
	BYTE	W01
	BYTE		        En2 
	BYTE	W24
	BYTE		        Bn1 
	BYTE		N04     En2 
	BYTE	W17
// 069   ----------------------------------------
	BYTE	W06
	BYTE		        Bn1 
	BYTE		N04     En2 
	BYTE	W24
	BYTE		        Bn1 
	BYTE		N04     En2 
	BYTE	W24
	BYTE	W01
	BYTE		        Fs1 
	BYTE		N03     Bn1 
	BYTE	W23
	BYTE		N04   
	BYTE	W01
	BYTE		        Fs1 
	BYTE	W17
// 070   ----------------------------------------
	BYTE	W06
	BYTE		        Bn1 
	BYTE	W01
	BYTE		N03     Fs1 
	BYTE	W23
	BYTE		N04   
	BYTE		N04     Bn1 
	BYTE	W24
	BYTE		N04   
	BYTE	W01
	BYTE		        Fs1 
	BYTE	W24
	BYTE		N03   
	BYTE		N03     Bn1 
	BYTE	W17
// 071   ----------------------------------------
	BYTE	W07
	BYTE		N04     Fs1 
	BYTE		N04     Bn1 
	BYTE	W23
	BYTE		        Fs1 
	BYTE		N04     Bn1 
	BYTE	W66
// 072   ----------------------------------------
	BYTE	W96
// 073   ----------------------------------------
	BYTE	W54
	BYTE		N04   
	BYTE		N04     En2 
	BYTE	W24
	BYTE	W01
	BYTE		N03     Bn1 
	BYTE		N03     En2 
	BYTE	W17
// 074   ----------------------------------------
	BYTE	W06
	BYTE		N04     Bn1 
	BYTE	W01
	BYTE		        En2 
	BYTE	W24
	BYTE		        Bn1 
	BYTE		N04     En2 
	BYTE	W24
	BYTE		N03     Bn1 
	BYTE		N03     En2 
	BYTE	W23
	BYTE		N04   
	BYTE	W01
	BYTE		        Bn1 
	BYTE	W17
// 075   ----------------------------------------
	BYTE	W06
	BYTE		N04   
	BYTE	W01
	BYTE		        En2 
	BYTE	W23
	BYTE		        Bn1 
	BYTE	W01
	BYTE		        En2 
	BYTE	W24
	BYTE		        Fs1 
	BYTE		N03     Bn1 
	BYTE	W24
	BYTE		        Fs1 
	BYTE		N03     Bn1 
	BYTE	W17
// 076   ----------------------------------------
	BYTE	W07
	BYTE		N04     Fs1 
	BYTE		N04     Bn1 
	BYTE	W23
	BYTE		N04   
	BYTE	W01
	BYTE		        Fs1 
	BYTE	W23
	BYTE		        Bn1 
	BYTE	W01
	BYTE		        Fs1 
	BYTE	W24
	BYTE		N03   
	BYTE		N03     Bn1 
	BYTE	W17
// 077   ----------------------------------------
	BYTE	W07
	BYTE		        Fs1 
	BYTE		N03     Bn1 
	BYTE	W23
	BYTE		N04     Fs1 
	BYTE		N04     Bn1 
	BYTE	W66
// 078   ----------------------------------------
	BYTE	W96
// 079   ----------------------------------------
	BYTE	W54
	BYTE	W01
	BYTE		N03     Cn2 
	BYTE	W23
	BYTE		N04   
	BYTE	W18
// 080   ----------------------------------------
	BYTE	W06
	BYTE		N04   
	BYTE	W24
	BYTE		N05   
	BYTE	W24
	BYTE		N04   
	BYTE	W24
	BYTE		N04   
	BYTE	W18
// 081   ----------------------------------------
	BYTE	W06
	BYTE		N04   
	BYTE	W24
	BYTE		N04   
	BYTE	W24
	BYTE		        En2 
	BYTE	W24
	BYTE		        Bn1 
	BYTE	W18
// 082   ----------------------------------------
feb20200423182207_8_082:
	BYTE	W06
	BYTE		N04     En2   v127
	BYTE	W24
	BYTE		        Bn1 
	BYTE	W24
	BYTE		        En2 
	BYTE	W24
	BYTE		        Bn1 
	BYTE	W18
	BYTE	PEND
// 083   ----------------------------------------
	BYTE	W06
	BYTE		        En2 
	BYTE	W24
	BYTE		        Bn1 
	BYTE	W24
	BYTE		        Cn2 
	BYTE	W24
	BYTE		N04   
	BYTE	W18
// 084   ----------------------------------------
	BYTE	W06
	BYTE		N05   
	BYTE	W24
	BYTE		N04   
	BYTE	W24
	BYTE		N04   
	BYTE	W24
	BYTE		N04   
	BYTE	W18
// 085   ----------------------------------------
	BYTE	W06
	BYTE		N04   
	BYTE	W24
	BYTE		N04   
	BYTE	W24
	BYTE	W01
	BYTE		N03     En2 
	BYTE	W23
	BYTE		N05     Bn1 
	BYTE	W18
// 086   ----------------------------------------
	BYTE	PATT
	 POIN2	feb20200423182207_8_082
// 087   ----------------------------------------
	BYTE	W06
	BYTE		N05     En2   v127
	BYTE	W24
	BYTE		N04     Bn1 
	BYTE	W44
	BYTE	W03
	BYTE		N10     En3 
	BYTE	W12
	BYTE		N10   
	BYTE	W07
// 088   ----------------------------------------
	BYTE	W05
	BYTE		N16     Gn3 
	BYTE	W18
	BYTE		        Fs3 
	BYTE	W18
	BYTE		N10     Fn3 
	BYTE	W12
	BYTE		N92     En3 
	BYTE	W42
	BYTE	W01
// 089   ----------------------------------------
	BYTE	W76
	BYTE	W01
	BYTE		N10   
	BYTE	W12
	BYTE		N11   
	BYTE	W07
// 090   ----------------------------------------
	BYTE	W05
	BYTE		N16     Gn3 
	BYTE	W18
	BYTE		        En3 
	BYTE	W18
	BYTE		N10     Gn3 
	BYTE	W13
	BYTE		N21     As3 
	BYTE	W01
	BYTE		N03     Bn3 
	BYTE		N03     Bn4 
	BYTE	W04
	BYTE		N04   
	BYTE	W01
	BYTE		N03     Bn3 
	BYTE	W17
	BYTE		N06   
	BYTE	W01
	BYTE		N03     Bn4 
	BYTE	W05
	BYTE		N18     Bn3 
	BYTE	W01
	BYTE		N03     Bn4 
	BYTE	W12
// 091   ----------------------------------------
	BYTE	W06
	BYTE		N05     Bn3 
	BYTE		N03     Bn4 
	BYTE	W05
	BYTE		N18     Bn3 
	BYTE		N04     Bn4 
	BYTE	W19
	BYTE		N05     Bn3 
	BYTE		N04     Bn4 
	BYTE	W05
	BYTE		N16     Bn3 
	BYTE	W01
	BYTE		N04     Bn4 
	BYTE	W60
// 092   ----------------------------------------
	BYTE	W96
// 093   ----------------------------------------
	BYTE	W52
	BYTE		N10     Dn2   v100
	BYTE	W01
	BYTE		        Dn3 
	BYTE	W32
	BYTE	W03
	BYTE		        Cn2 
	BYTE		N10     Cn3 
	BYTE	W08
// 094   ----------------------------------------
	BYTE	W28
	BYTE		        Ds2 
	BYTE		N10     Ds3 
	BYTE	W36
	BYTE		        Dn2 
	BYTE		N10     Dn3 
	BYTE	W32
// 095   ----------------------------------------
	BYTE	W04
	BYTE		        Cn3 
	BYTE	W01
	BYTE		        Cn2 
	BYTE	W32
	BYTE	W03
	BYTE		        Fn2 
	BYTE	W01
	BYTE		        Fn3 
	BYTE	W32
	BYTE		VOICE   61
	BYTE	W01
	BYTE		N92     Cn2 
	BYTE		N92     Cn3 
	BYTE	W22
// 096   ----------------------------------------
	BYTE	W72
	BYTE		        Cs2 
	BYTE		N92     Cs3 
	BYTE	W24
// 097   ----------------------------------------
	BYTE	W72
	BYTE	W01
	BYTE		N22     Dn2 
	BYTE	W23
// 098   ----------------------------------------
	BYTE	W01
	BYTE		N22   
	BYTE	W23
	BYTE		N16   
	BYTE	W18
	BYTE		        Cn2 
	BYTE	W18
	BYTE		N10     As1 
	BYTE	W13
	BYTE		N03     Gs1 
	BYTE	W10
	BYTE		N10     Gs1   v064
	BYTE	W12
	BYTE		N04     Gs2   v100
	BYTE	W01
// 099   ----------------------------------------
	BYTE	W11
	BYTE		N10     Gs2   v064
	BYTE	W12
	BYTE		N04     Gs1   v100
	BYTE	W13
	BYTE		N10     Gs1   v064
	BYTE	W11
	BYTE		N04     Gs2   v100
	BYTE	W12
	BYTE		N11     Gs2   v064
	BYTE	W14
	BYTE		N21     As1   v100
	BYTE	W23
// 100   ----------------------------------------
	BYTE	W01
	BYTE		N21   
	BYTE	W24
	BYTE		N15   
	BYTE	W18
	BYTE		        Cn2 
	BYTE	W18
	BYTE		N09     Dn2 
	BYTE	W12
	BYTE		N03     Gs1 
	BYTE	W10
	BYTE		N10     Gs1   v064
	BYTE	W12
	BYTE		N05     Gs2   v100
	BYTE	W01
// 101   ----------------------------------------
	BYTE	W11
	BYTE		VOICE   0
	BYTE		N10     Gs2   v064
	BYTE	W12
	BYTE		N05     Gs1   v100
	BYTE	W48
	BYTE	W01
	BYTE		N10     Dn1   v127
	BYTE	W12
	BYTE		        Ds1 
	BYTE	W12
// 102   ----------------------------------------
	BYTE		        Dn1 
	BYTE	W12
	BYTE		        Ds1 
	BYTE	W12
	BYTE		        Dn1 
	BYTE	W12
	BYTE		        Ds1 
	BYTE	W12
	BYTE		        Cs1 
	BYTE	W24
	BYTE		        Dn1 
	BYTE	W12
	BYTE		        Fn1 
	BYTE	W12
// 103   ----------------------------------------
	BYTE	W01
	BYTE		N09     Dn1 
	BYTE	W11
	BYTE		N10   
	BYTE	W12
	BYTE		N09   
	BYTE	W12
	BYTE		N10   
	BYTE	W12
	BYTE		N09     Cs1 
	BYTE	W24
	BYTE	W01
	BYTE		        Dn1 
	BYTE	W11
	BYTE		N10     Ds1 
	BYTE	W12
// 104   ----------------------------------------
	BYTE		        Dn1 
	BYTE	W12
	BYTE		        Ds1 
	BYTE	W12
	BYTE		N09     Dn1 
	BYTE	W12
	BYTE		N10     Ds1 
	BYTE	W12
	BYTE		N09     Cs1 
	BYTE	W24
	BYTE		N10     Dn1 
	BYTE	W12
	BYTE		        Fn1 
	BYTE	W12
// 105   ----------------------------------------
	BYTE		N09     Dn1 
	BYTE	W12
	BYTE		N10   
	BYTE	W12
	BYTE		N09   
	BYTE	W12
	BYTE		N10   
	BYTE	W12
	BYTE		        Cs1 
	BYTE	W24
	BYTE	W01
	BYTE		N09     Dn1 
	BYTE	W11
	BYTE		N10     Ds1 
	BYTE	W12
// 106   ----------------------------------------
feb20200423182207_8_106:
	BYTE	W01
	BYTE		N09     Dn1   v127
	BYTE	W11
	BYTE		N10     Ds1 
	BYTE	W13
	BYTE		N09     Dn1 
	BYTE	W11
	BYTE		N10     Ds1 
	BYTE	W13
	BYTE		N09     Cs1 
	BYTE	W24
	BYTE		        Dn1 
	BYTE	W11
	BYTE		N10     Fn1 
	BYTE	W12
	BYTE	PEND
// 107   ----------------------------------------
	BYTE	W01
	BYTE		N09     Dn1 
	BYTE	W11
	BYTE		N09   
	BYTE	W13
	BYTE		N09   
	BYTE	W11
	BYTE		N10   
	BYTE	W13
	BYTE		N09     Cs1 
	BYTE	W24
	BYTE		        Dn1 
	BYTE	W11
	BYTE		N10     Ds1 
	BYTE	W12
// 108   ----------------------------------------
	BYTE	PATT
	 POIN2	feb20200423182207_8_106
// 109   ----------------------------------------
	BYTE	W01
	BYTE		N09     Dn1   v127
	BYTE	W11
	BYTE		N10   
	BYTE	W13
	BYTE		N09   
	BYTE	W11
	BYTE		N10   
	BYTE	W13
	BYTE		N09     Cs1 
	BYTE	W24
	BYTE	W01
	BYTE		N08     Dn1 
	BYTE	W10
	BYTE		N10     Ds1 
	BYTE	W12
// 110   ----------------------------------------
	BYTE	W02
	BYTE		N08     Dn1 
	BYTE	W10
	BYTE		N10     Ds1 
	BYTE	W13
	BYTE		N08     Dn1 
	BYTE	W11
	BYTE		N10     Ds1 
	BYTE	W14
	BYTE		N08     Cs1 
	BYTE	W23
	BYTE		        Dn1 
	BYTE	W11
	BYTE		N10     Fn1 
	BYTE	W12
// 111   ----------------------------------------
	BYTE	W01
	BYTE		N08     Dn1 
	BYTE	W11
	BYTE		N10   
	BYTE	W13
	BYTE		N08   
	BYTE	W11
	BYTE		N10   
	BYTE	W13
	BYTE		N08     Cs1 
	BYTE	W24
	BYTE		        Dn1 
	BYTE	W11
	BYTE		N10     Ds1 
	BYTE	W12
// 112   ----------------------------------------
	BYTE	W02
	BYTE		N09     Dn1 
	BYTE	W10
	BYTE		N10     Ds1 
	BYTE	W13
	BYTE		N08     Dn1 
	BYTE	W11
	BYTE		N10     Ds1 
	BYTE	W13
	BYTE		N08     Cs1 
	BYTE	W24
	BYTE		        Dn1 
	BYTE	W11
	BYTE		N10     Fn1 
	BYTE	W12
// 113   ----------------------------------------
	BYTE	W02
	BYTE		N08     Dn1 
	BYTE	W10
	BYTE		N10   
	BYTE	W13
	BYTE		N09   
	BYTE	W11
	BYTE		N10   
	BYTE	W13
	BYTE		N08     Cs1 
	BYTE	W24
	BYTE	W01
	BYTE		        Dn1 
	BYTE	W10
	BYTE		N10     Ds1 
	BYTE	W12
// 114   ----------------------------------------
	BYTE	W02
	BYTE		N08     Dn1 
	BYTE	W10
	BYTE		N10     Ds1 
	BYTE	W14
	BYTE		N08     Dn1 
	BYTE	W10
	BYTE		N10     Ds1 
	BYTE	W14
	BYTE		N08     Cs1 
	BYTE	W24
	BYTE		        Dn1 
	BYTE	W10
	BYTE		N10     Fn1 
	BYTE	W12
// 115   ----------------------------------------
	BYTE	W02
	BYTE		N08     Dn1 
	BYTE	W10
	BYTE		N10   
	BYTE	W14
	BYTE		N08   
	BYTE	W10
	BYTE		N09   
	BYTE	W14
	BYTE		        Cs1 
	BYTE	W24
	BYTE		N08     Dn1 
	BYTE	W10
	BYTE		N10     Ds1 
	BYTE	W12
// 116   ----------------------------------------
	BYTE	W03
	BYTE		N07     Dn1 
	BYTE	W09
	BYTE		N10     Ds1 
	BYTE	W14
	BYTE		N08     Dn1 
	BYTE	W10
	BYTE		N10     Ds1 
	BYTE	W14
	BYTE		N08     Cs1 
	BYTE	W24
	BYTE		        Dn1 
	BYTE	W10
	BYTE		N10     Fn1 
	BYTE	W12
// 117   ----------------------------------------
	BYTE	W02
	BYTE		N08     Dn1 
	BYTE	W10
	BYTE		N10   
	BYTE	W14
	BYTE		N08   
	BYTE	W10
	BYTE		N10   
	BYTE	W14
	BYTE		N08     Cs1 
	BYTE	W12
	BYTE		VOICE   61
	BYTE	W12
	BYTE		N08     Fn2 
	BYTE	W12
	BYTE		        Dn2 
	BYTE		N08     Fn2 
	BYTE	W10
// 118   ----------------------------------------
	BYTE	W96
// 119   ----------------------------------------
	BYTE	W72
	BYTE	W02
	BYTE		N08   
	BYTE	W01
	BYTE		N07     Cn2 
	BYTE	W11
	BYTE		N08   
	BYTE		N08     Fn2 
	BYTE	W10
// 120   ----------------------------------------
	BYTE	W56
	BYTE	W03
	BYTE		VOL     100*feb20200423182207_mvl/mxv
	BYTE	W05
	BYTE		        99*feb20200423182207_mvl/mxv
	BYTE	W04
	BYTE		        98*feb20200423182207_mvl/mxv
	BYTE	W04
	BYTE		        97*feb20200423182207_mvl/mxv
	BYTE	W04
	BYTE		        96*feb20200423182207_mvl/mxv
	BYTE	W04
	BYTE		        95*feb20200423182207_mvl/mxv
	BYTE	W05
	BYTE		        94*feb20200423182207_mvl/mxv
	BYTE	W04
	BYTE		        93*feb20200423182207_mvl/mxv
	BYTE	W04
	BYTE		        92*feb20200423182207_mvl/mxv
	BYTE	W03
// 121   ----------------------------------------
	BYTE	W01
	BYTE		        91*feb20200423182207_mvl/mxv
	BYTE	W04
	BYTE		        90*feb20200423182207_mvl/mxv
	BYTE	W05
	BYTE		        89*feb20200423182207_mvl/mxv
	BYTE	W04
	BYTE		        88*feb20200423182207_mvl/mxv
	BYTE	W04
	BYTE		        87*feb20200423182207_mvl/mxv
	BYTE	W04
	BYTE		        86*feb20200423182207_mvl/mxv
	BYTE	W04
	BYTE		        85*feb20200423182207_mvl/mxv
	BYTE	W05
	BYTE		        84*feb20200423182207_mvl/mxv
	BYTE	W04
	BYTE		        83*feb20200423182207_mvl/mxv
	BYTE	W04
	BYTE		        82*feb20200423182207_mvl/mxv
	BYTE	W04
	BYTE		        81*feb20200423182207_mvl/mxv
	BYTE	W04
	BYTE		        80*feb20200423182207_mvl/mxv
	BYTE	W05
	BYTE		        79*feb20200423182207_mvl/mxv
	BYTE	W04
	BYTE		        78*feb20200423182207_mvl/mxv
	BYTE	W04
	BYTE		        77*feb20200423182207_mvl/mxv
	BYTE	W04
	BYTE		        76*feb20200423182207_mvl/mxv
	BYTE	W04
	BYTE		        75*feb20200423182207_mvl/mxv
	BYTE	W05
	BYTE		        74*feb20200423182207_mvl/mxv
	BYTE	W01
	BYTE		N08     Cs2 
	BYTE	W03
	BYTE		VOL     73*feb20200423182207_mvl/mxv
	BYTE	W04
	BYTE		        72*feb20200423182207_mvl/mxv
	BYTE	W03
	BYTE		N04     Dn2 
	BYTE	W01
	BYTE		VOL     71*feb20200423182207_mvl/mxv
	BYTE	W04
	BYTE		        70*feb20200423182207_mvl/mxv
	BYTE	W05
	BYTE		        69*feb20200423182207_mvl/mxv
	BYTE	W02
// 122   ----------------------------------------
	BYTE	W01
	BYTE		N03   
	BYTE	W01
	BYTE		VOL     68*feb20200423182207_mvl/mxv
	BYTE	W04
	BYTE		        67*feb20200423182207_mvl/mxv
	BYTE	W04
	BYTE		        66*feb20200423182207_mvl/mxv
	BYTE	W02
	BYTE		N04   
	BYTE	W02
	BYTE		VOL     65*feb20200423182207_mvl/mxv
	BYTE	W05
	BYTE		        64*feb20200423182207_mvl/mxv
	BYTE	W04
	BYTE		        63*feb20200423182207_mvl/mxv
	BYTE	W03
	BYTE		N03   
	BYTE	W01
	BYTE		VOL     62*feb20200423182207_mvl/mxv
	BYTE	W04
	BYTE		        61*feb20200423182207_mvl/mxv
	BYTE	W04
	BYTE		        60*feb20200423182207_mvl/mxv
	BYTE	W02
	BYTE		N04   
	BYTE	W03
	BYTE		VOL     59*feb20200423182207_mvl/mxv
	BYTE	W04
	BYTE		        58*feb20200423182207_mvl/mxv
	BYTE	W04
	BYTE		        57*feb20200423182207_mvl/mxv
	BYTE	W01
	BYTE		N04   
	BYTE	W03
	BYTE		VOL     56*feb20200423182207_mvl/mxv
	BYTE	W04
	BYTE		        55*feb20200423182207_mvl/mxv
	BYTE	W05
	BYTE		        54*feb20200423182207_mvl/mxv
	BYTE		N04   
	BYTE	W04
	BYTE		VOL     53*feb20200423182207_mvl/mxv
	BYTE	W04
	BYTE		        52*feb20200423182207_mvl/mxv
	BYTE	W04
	BYTE		        51*feb20200423182207_mvl/mxv
	BYTE	W01
	BYTE		N03   
	BYTE		N03     An2 
	BYTE	W03
	BYTE		VOL     50*feb20200423182207_mvl/mxv
	BYTE	W05
	BYTE		        49*feb20200423182207_mvl/mxv
	BYTE	W03
	BYTE		N03     Dn2 
	BYTE	W01
	BYTE		VOL     48*feb20200423182207_mvl/mxv
	BYTE		N03     An2 
	BYTE	W04
	BYTE		VOL     47*feb20200423182207_mvl/mxv
	BYTE	W04
	BYTE		        46*feb20200423182207_mvl/mxv
	BYTE	W02
// 123   ----------------------------------------
	BYTE	W02
	BYTE		        45*feb20200423182207_mvl/mxv
	BYTE		N21     Cs2 
	BYTE		N21     As2 
	BYTE	W05
	BYTE		VOL     44*feb20200423182207_mvl/mxv
	BYTE	W04
	BYTE		        43*feb20200423182207_mvl/mxv
	BYTE	W04
	BYTE		        42*feb20200423182207_mvl/mxv
	BYTE	W04
	BYTE		        41*feb20200423182207_mvl/mxv
	BYTE	W04
	BYTE		        40*feb20200423182207_mvl/mxv
	BYTE	W02
	BYTE		N03     Dn2 
	BYTE	W01
	BYTE		        An2 
	BYTE	W02
	BYTE		VOL     39*feb20200423182207_mvl/mxv
	BYTE	W04
	BYTE		        38*feb20200423182207_mvl/mxv
	BYTE	W04
	BYTE		        37*feb20200423182207_mvl/mxv
	BYTE	W02
	BYTE		N03     Dn2 
	BYTE		N03     An2 
	BYTE	W02
	BYTE		VOL     36*feb20200423182207_mvl/mxv
	BYTE	W04
	BYTE		        35*feb20200423182207_mvl/mxv
	BYTE	W05
	BYTE		        34*feb20200423182207_mvl/mxv
	BYTE	W01
	BYTE		N22     Cs2 
	BYTE		N21     As2 
	BYTE	W03
	BYTE		VOL     33*feb20200423182207_mvl/mxv
	BYTE	W04
	BYTE		        32*feb20200423182207_mvl/mxv
	BYTE	W04
	BYTE		        31*feb20200423182207_mvl/mxv
	BYTE	W04
	BYTE		        30*feb20200423182207_mvl/mxv
	BYTE	W05
	BYTE		        29*feb20200423182207_mvl/mxv
	BYTE	W04
	BYTE		        28*feb20200423182207_mvl/mxv
	BYTE		N09     Cs2 
	BYTE	W04
	BYTE		VOL     27*feb20200423182207_mvl/mxv
	BYTE	W04
	BYTE		        26*feb20200423182207_mvl/mxv
	BYTE	W02
	BYTE		N04     Dn2 
	BYTE	W02
	BYTE		VOL     25*feb20200423182207_mvl/mxv
	BYTE	W05
	BYTE		        24*feb20200423182207_mvl/mxv
	BYTE	W04
	BYTE		        23*feb20200423182207_mvl/mxv
	BYTE	W01
// 124   ----------------------------------------
	BYTE	W01
	BYTE		N03   
	BYTE	W02
	BYTE		VOL     22*feb20200423182207_mvl/mxv
	BYTE	W04
	BYTE		        21*feb20200423182207_mvl/mxv
	BYTE	W04
	BYTE		        20*feb20200423182207_mvl/mxv
	BYTE	W01
	BYTE		N04   
	BYTE	W04
	BYTE		VOL     19*feb20200423182207_mvl/mxv
	BYTE	W04
	BYTE		        18*feb20200423182207_mvl/mxv
	BYTE	W04
	BYTE		        17*feb20200423182207_mvl/mxv
	BYTE	W01
	BYTE		N03   
	BYTE	W03
	BYTE		VOL     16*feb20200423182207_mvl/mxv
	BYTE	W04
	BYTE		        15*feb20200423182207_mvl/mxv
	BYTE	W05
	BYTE		        14*feb20200423182207_mvl/mxv
	BYTE	W01
	BYTE		N03   
	BYTE	W03
	BYTE		VOL     13*feb20200423182207_mvl/mxv
	BYTE	W04
	BYTE		        12*feb20200423182207_mvl/mxv
	BYTE	W04
	BYTE		        11*feb20200423182207_mvl/mxv
	BYTE		N03   
	BYTE	W04
	BYTE		VOL     10*feb20200423182207_mvl/mxv
	BYTE	W05
	BYTE		        9*feb20200423182207_mvl/mxv
	BYTE	W02
	BYTE		N04   
	BYTE	W02
	BYTE		VOL     8*feb20200423182207_mvl/mxv
	BYTE	W04
	BYTE		        7*feb20200423182207_mvl/mxv
	BYTE	W04
	BYTE		        6*feb20200423182207_mvl/mxv
	BYTE	W04
	BYTE		        5*feb20200423182207_mvl/mxv
	BYTE		N03   
	BYTE		N03     An2 
	BYTE	W05
	BYTE		VOL     4*feb20200423182207_mvl/mxv
	BYTE	W04
	BYTE		        3*feb20200423182207_mvl/mxv
	BYTE	W02
	BYTE		N03     Dn2 
	BYTE	W01
	BYTE		        An2 
	BYTE	W01
	BYTE		VOL     2*feb20200423182207_mvl/mxv
	BYTE	W04
	BYTE		        1*feb20200423182207_mvl/mxv
	BYTE	W05
// 125   ----------------------------------------
	BYTE		        0*feb20200423182207_mvl/mxv
	BYTE	W01
	BYTE		N22     Cs2 
	BYTE	W01
	BYTE		N21     As2 
	BYTE	W24
	BYTE		N03     Dn2 
	BYTE		N03     An2 
	BYTE	W11
	BYTE		        Dn2 
	BYTE	W01
	BYTE		        An2 
	BYTE	W12
	BYTE		N21     Cs2 
	BYTE		N21     As2 
	BYTE	W44
	BYTE	W02
// 126   ----------------------------------------
	BYTE	W96
// 127   ----------------------------------------
	BYTE	FINE

//**************** Track 9 (Midi-Chn.10) ****************//

feb20200423182207_9:
	BYTE	KEYSH   feb20200423182207_key+0
// 000   ----------------------------------------
	BYTE		VOICE   48
	BYTE		VOL     127*feb20200423182207_mvl/mxv
	BYTE	W96
// 001   ----------------------------------------
	BYTE		N03     Bn2   v080
	BYTE	W24
	BYTE		N05   
	BYTE	W24
	BYTE		N03   
	BYTE	W24
	BYTE		N04   
	BYTE	W24
// 002   ----------------------------------------
feb20200423182207_9_002:
	BYTE		N03     Bn2   v080
	BYTE	W24
	BYTE		N04   
	BYTE	W24
	BYTE		N03   
	BYTE	W24
	BYTE		N04   
	BYTE	W24
	BYTE	PEND
// 003   ----------------------------------------
	BYTE	W96
// 004   ----------------------------------------
	BYTE	W96
// 005   ----------------------------------------
feb20200423182207_9_005:
	BYTE		N04     Bn2   v080
	BYTE	W24
	BYTE		N03   
	BYTE	W24
	BYTE		N04   
	BYTE	W24
	BYTE		N02   
	BYTE	W24
	BYTE	PEND
// 006   ----------------------------------------
	BYTE		N04   
	BYTE	W24
	BYTE		N02   
	BYTE	W24
	BYTE		N03   
	BYTE	W24
	BYTE		N05   
	BYTE	W24
// 007   ----------------------------------------
	BYTE	PATT
	 POIN2	feb20200423182207_9_002
// 008   ----------------------------------------
	BYTE	PATT
	 POIN2	feb20200423182207_9_002
// 009   ----------------------------------------
	BYTE		N02     Bn2   v080
	BYTE	W24
	BYTE		N03   
	BYTE	W24
	BYTE		N02   
	BYTE	W24
	BYTE		N03   
	BYTE	W12
	BYTE		        Dn1   v060
	BYTE	W04
	BYTE		N04     Dn1   v080
	BYTE	W04
	BYTE		N04   
	BYTE	W04
// 010   ----------------------------------------
	BYTE		N07     Dn1   v100
	BYTE		N04     Bn2   v080
	BYTE	W24
	BYTE		N03   
	BYTE	W24
	BYTE		N04   
	BYTE	W24
	BYTE		N03   
	BYTE	W24
// 011   ----------------------------------------
	BYTE		N04   
	BYTE	W24
	BYTE		N02   
	BYTE	W24
	BYTE		N03   
	BYTE	W24
	BYTE		N02   
	BYTE	W24
// 012   ----------------------------------------
	BYTE		N03   
	BYTE	W24
	BYTE		N02   
	BYTE	W24
	BYTE		N03   
	BYTE	W12
	BYTE		N04     Dn1   v060
	BYTE	W04
	BYTE		        Dn1   v080
	BYTE	W04
	BYTE		        Dn1   v127
	BYTE	W04
	BYTE		N07     Dn1   v100
	BYTE		N04     Bn2   v080
	BYTE	W12
	BYTE		N03     Dn1   v060
	BYTE	W04
	BYTE		N04     Dn1   v080
	BYTE	W04
	BYTE		        Dn1   v127
	BYTE	W04
// 013   ----------------------------------------
	BYTE		N05     Dn1   v100
	BYTE		N03     Bn2   v080
	BYTE	W24
	BYTE		N04   
	BYTE	W24
	BYTE		N03   
	BYTE	W24
	BYTE		N04   
	BYTE	W24
// 014   ----------------------------------------
	BYTE		N03   
	BYTE	W24
	BYTE		N04   
	BYTE	W24
	BYTE		N02   
	BYTE	W24
	BYTE		N04   
	BYTE	W24
// 015   ----------------------------------------
	BYTE		N60     An2   v100
	BYTE		N02     Bn2   v080
	BYTE	W24
	BYTE		N03   
	BYTE	W24
	BYTE		N04   
	BYTE	W24
	BYTE		N03   
	BYTE	W24
// 016   ----------------------------------------
	BYTE	PATT
	 POIN2	feb20200423182207_9_005
// 017   ----------------------------------------
	BYTE		N03     Bn2   v080
	BYTE	W24
	BYTE		N02   
	BYTE	W24
	BYTE		N03   
	BYTE	W24
	BYTE		N02   
	BYTE	W24
// 018   ----------------------------------------
	BYTE	PATT
	 POIN2	feb20200423182207_9_002
// 019   ----------------------------------------
	BYTE	PATT
	 POIN2	feb20200423182207_9_002
// 020   ----------------------------------------
	BYTE		N03     Bn2   v080
	BYTE	W24
	BYTE		N03   
	BYTE	W24
	BYTE		N03   
	BYTE	W24
	BYTE		N03   
	BYTE	W23
	BYTE		N64     An2   v100
	BYTE	W01
// 021   ----------------------------------------
	BYTE		N06     Cn1 
	BYTE		N03     Dn1 
	BYTE	W03
	BYTE		N04     Dn1   v092
	BYTE	W04
	BYTE		        Dn1   v080
	BYTE	W04
	BYTE		N03     Dn1   v072
	BYTE	W04
	BYTE		N04     Dn1   v060
	BYTE	W04
	BYTE		        Dn1   v052
	BYTE	W04
	BYTE		        Dn1   v040
	BYTE	W04
	BYTE		N03   
	BYTE	W04
	BYTE		        Dn1   v032
	BYTE	W04
	BYTE		N04     Dn1   v040
	BYTE	W04
	BYTE		N03   
	BYTE	W04
	BYTE		N04     Dn1   v052
	BYTE	W04
	BYTE		N03     Dn1   v060
	BYTE	W04
	BYTE		N04     Dn1   v072
	BYTE	W04
	BYTE		        Dn1   v080
	BYTE	W04
	BYTE		        Dn1   v092
	BYTE	W04
	BYTE		N03     Dn1   v100
	BYTE	W04
	BYTE		N04     Dn1   v112
	BYTE	W04
	BYTE		N04   
	BYTE	W04
	BYTE		N03   
	BYTE	W04
	BYTE		N04   
	BYTE	W04
	BYTE		N60     An2   v100
	BYTE	W01
	BYTE		N05     Cn1 
	BYTE		N03     Dn1 
	BYTE	W03
	BYTE		N04     Dn1   v092
	BYTE	W04
	BYTE		        Dn1   v080
	BYTE	W04
	BYTE		N03     Dn1   v072
	BYTE	W01
// 022   ----------------------------------------
	BYTE	W03
	BYTE		N04     Dn1   v060
	BYTE	W04
	BYTE		        Dn1   v052
	BYTE	W04
	BYTE		        Dn1   v040
	BYTE	W04
	BYTE		N04   
	BYTE	W04
	BYTE		        Dn1   v032
	BYTE	W04
	BYTE		        Dn1   v040
	BYTE	W04
	BYTE		N04   
	BYTE	W04
	BYTE		N03     Dn1   v052
	BYTE	W04
	BYTE		N04     Dn1   v060
	BYTE	W04
	BYTE		        Dn1   v072
	BYTE	W04
	BYTE		N03     Dn1   v080
	BYTE	W04
	BYTE		N04     Dn1   v092
	BYTE	W04
	BYTE		        Dn1   v100
	BYTE	W04
	BYTE		        Dn1   v112
	BYTE	W04
	BYTE		N03   
	BYTE	W04
	BYTE		N03   
	BYTE	W04
	BYTE		N04   
	BYTE	W04
	BYTE		N07     Cn1   v100
	BYTE		N03     Dn1 
	BYTE		N64     An2 
	BYTE	W04
	BYTE		N03     Dn1   v092
	BYTE	W04
	BYTE		N04     Dn1   v080
	BYTE	W04
	BYTE		N03     Dn1   v072
	BYTE	W04
	BYTE		N04     Dn1   v060
	BYTE	W04
	BYTE		        Dn1   v052
	BYTE	W04
	BYTE		        Dn1   v040
	BYTE	W01
// 023   ----------------------------------------
	BYTE	W03
	BYTE		N04   
	BYTE	W04
	BYTE		N03     Dn1   v032
	BYTE	W04
	BYTE		N04     Dn1   v040
	BYTE	W04
	BYTE		N04   
	BYTE	W04
	BYTE		        Dn1   v052
	BYTE	W04
	BYTE		N03     Dn1   v060
	BYTE	W04
	BYTE		N04     Dn1   v072
	BYTE	W04
	BYTE		        Dn1   v080
	BYTE	W04
	BYTE		        Dn1   v092
	BYTE	W04
	BYTE		N03     Dn1   v100
	BYTE	W04
	BYTE		        Dn1   v112
	BYTE	W04
	BYTE		N04   
	BYTE	W04
	BYTE		N03   
	BYTE	W04
	BYTE		N03   
	BYTE	W05
	BYTE		        Dn1   v127
	BYTE		N64     An2   v100
	BYTE	W03
	BYTE		N03     Dn1   v127
	BYTE	W04
	BYTE		N04   
	BYTE	W04
	BYTE		N03     Dn1   v100
	BYTE	W04
	BYTE		N04   
	BYTE	W05
	BYTE		N04   
	BYTE	W04
	BYTE		N03   
	BYTE	W03
	BYTE		N04     Dn1   v080
	BYTE	W04
	BYTE		N03   
	BYTE	W04
	BYTE		N04   
	BYTE	W01
// 024   ----------------------------------------
	BYTE	W04
	BYTE		N03   
	BYTE	W03
	BYTE		N04     Dn1   v060
	BYTE	W05
	BYTE		N04   
	BYTE	W04
	BYTE		N03   
	BYTE	W03
	BYTE		N04   
	BYTE	W04
	BYTE		        Dn1   v036
	BYTE	W04
	BYTE		N03   
	BYTE	W04
	BYTE		N03   
	BYTE	W04
	BYTE		N04   
	BYTE	W04
	BYTE		N03   
	BYTE	W04
	BYTE		N04   
	BYTE	W04
	BYTE		N04   
	BYTE	W04
	BYTE		        Dn1   v020
	BYTE	W04
	BYTE		N04   
	BYTE	W05
	BYTE		N03   
	BYTE	W03
	BYTE		N04   
	BYTE	W04
	BYTE		N04   
	BYTE	W04
	BYTE		N03     Dn1   v036
	BYTE	W04
	BYTE		N03   
	BYTE	W04
	BYTE		N04   
	BYTE	W05
	BYTE		N03   
	BYTE	W03
	BYTE		N04   
	BYTE	W04
	BYTE		N03   
	BYTE	W04
	BYTE		N04     Dn1   v060
	BYTE	W01
// 025   ----------------------------------------
	BYTE	W04
	BYTE		N03   
	BYTE	W03
	BYTE		N04   
	BYTE	W05
	BYTE		N03   
	BYTE	W04
	BYTE		N03   
	BYTE	W03
	BYTE		N04     Dn1   v080
	BYTE	W04
	BYTE		N03   
	BYTE	W04
	BYTE		N04   
	BYTE	W04
	BYTE		N04   
	BYTE	W04
	BYTE		N04   
	BYTE	W04
	BYTE		N03     Dn1   v100
	BYTE	W04
	BYTE		N04   
	BYTE	W05
	BYTE		N03   
	BYTE	W03
	BYTE		N04     Dn1   v127
	BYTE	W05
	BYTE		N04   
	BYTE	W04
	BYTE		N03     Bn2   v080
	BYTE	W23
	BYTE		N05   
	BYTE	W13
// 026   ----------------------------------------
	BYTE	W11
	BYTE		N03   
	BYTE	W24
	BYTE		N04   
	BYTE	W24
	BYTE	W01
	BYTE		N03   
	BYTE	W23
	BYTE		N04   
	BYTE	W13
// 027   ----------------------------------------
	BYTE	W11
	BYTE		N02   
	BYTE	W24
	BYTE		N04   
	BYTE	W24
	BYTE	W01
	BYTE		N02   
	BYTE	W23
	BYTE		N04   
	BYTE	W13
// 028   ----------------------------------------
	BYTE	W11
	BYTE		N02   
	BYTE	W01
	BYTE		N60     An2   v100
	BYTE	W24
	BYTE		N03     Bn2   v080
	BYTE	W23
	BYTE		N04   
	BYTE	W24
	BYTE		N03   
	BYTE	W13
// 029   ----------------------------------------
	BYTE	W12
	BYTE		N64     An2   v100
	BYTE		N04     Bn2   v080
	BYTE	W24
	BYTE		N02   
	BYTE	W23
	BYTE		N04   
	BYTE	W24
	BYTE		N03   
	BYTE	W13
// 030   ----------------------------------------
	BYTE	W12
	BYTE		N64     An2   v100
	BYTE		N03     Bn2   v080
	BYTE	W23
	BYTE		N03   
	BYTE	W24
	BYTE	W01
	BYTE		N03   
	BYTE	W24
	BYTE		N02   
	BYTE	W12
// 031   ----------------------------------------
	BYTE	W11
	BYTE		N64     An2   v100
	BYTE		N03     Bn2   v080
	BYTE	W24
	BYTE		N05   
	BYTE	W24
	BYTE		N03   
	BYTE	W24
	BYTE		N04   
	BYTE	W13
// 032   ----------------------------------------
	BYTE	W11
	BYTE		N60     An2   v100
	BYTE		N03     Bn2   v080
	BYTE	W24
	BYTE		N04   
	BYTE	W24
	BYTE		N03   
	BYTE	W24
	BYTE		N04   
	BYTE	W13
// 033   ----------------------------------------
	BYTE	W11
	BYTE		N02   
	BYTE	W01
	BYTE		N60     An2   v100
	BYTE	W23
	BYTE		N04     Bn2   v080
	BYTE	W24
	BYTE	W01
	BYTE		N02   
	BYTE	W23
	BYTE		N03   
	BYTE	W13
// 034   ----------------------------------------
	BYTE	W11
	BYTE		N05   
	BYTE	W01
	BYTE		N64     An2   v100
	BYTE	W24
	BYTE		N03     Bn2   v080
	BYTE	W23
	BYTE		N04   
	BYTE	W24
	BYTE		N03   
	BYTE	W13
// 035   ----------------------------------------
	BYTE	W12
	BYTE		N48     An2   v100
	BYTE		N04     Bn2   v080
	BYTE	W23
	BYTE		N03   
	BYTE	W24
	BYTE	W01
	BYTE		N06     Dn1   v100
	BYTE		N64     An2   v127
	BYTE	W11
	BYTE		N07     Dn1   v100
	BYTE	W13
	BYTE		N05   
	BYTE	W11
	BYTE		N06   
	BYTE	W01
// 036   ----------------------------------------
	BYTE	W05
	BYTE		N05   
	BYTE	W07
	BYTE		N05   
	BYTE	W05
	BYTE		N05   
	BYTE	W06
	BYTE		N07   
	BYTE	W12
	BYTE		N05   
	BYTE	W13
	BYTE		N05   
	BYTE	W06
	BYTE		N06     Dn1   v080
	BYTE	W06
	BYTE		N05   
	BYTE	W05
	BYTE		N05   
	BYTE	W06
	BYTE		N07   
	BYTE	W13
	BYTE		        Dn1   v127
	BYTE	W11
	BYTE		N05     Dn1   v080
	BYTE	W01
// 037   ----------------------------------------
	BYTE	W05
	BYTE		N06   
	BYTE	W06
	BYTE		N05   
	BYTE	W06
	BYTE		N05   
	BYTE	W07
	BYTE		N06   
	BYTE	W11
	BYTE		N07     Dn1   v127
	BYTE	W12
	BYTE		N05     Dn1   v080
	BYTE	W06
	BYTE		N06   
	BYTE	W06
	BYTE		        Dn1   v100
	BYTE	W12
	BYTE		        Dn1   v080
	BYTE	W12
	BYTE		N07   
	BYTE	W12
	BYTE		N05   
	BYTE	W01
// 038   ----------------------------------------
	BYTE	W05
	BYTE		N06   
	BYTE	W06
	BYTE		N05     Dn1   v100
	BYTE	W06
	BYTE		N06     Dn1   v080
	BYTE	W06
	BYTE		N06   
	BYTE	W13
	BYTE		        Dn1   v100
	BYTE	W11
	BYTE		N05     Dn1   v080
	BYTE	W06
	BYTE		N06   
	BYTE	W07
	BYTE		N04   
	BYTE	W05
	BYTE		N06   
	BYTE	W06
	BYTE		N06   
	BYTE	W12
	BYTE		        Dn1   v127
	BYTE	W13
// 039   ----------------------------------------
	BYTE		N05     Dn1   v080
	BYTE	W05
	BYTE		N06   
	BYTE	W07
	BYTE		N04   
	BYTE	W06
	BYTE		N06   
	BYTE	W06
	BYTE		N05   
	BYTE	W11
	BYTE		N06     Dn1   v127
	BYTE	W12
	BYTE		        Dn1   v080
	BYTE	W06
	BYTE		N06   
	BYTE	W07
	BYTE		N02   
	BYTE	W03
	BYTE		N02   
	BYTE	W03
	BYTE		        Dn1   v060
	BYTE	W02
	BYTE		N03     Dn1   v036
	BYTE	W04
	BYTE		        Dn1   v080
	BYTE	W03
	BYTE		N02   
	BYTE	W02
	BYTE		N03     Dn1   v060
	BYTE	W04
	BYTE		        Dn1   v036
	BYTE	W03
	BYTE		N60     An2   v127
	BYTE	W12
// 040   ----------------------------------------
	BYTE	W96
// 041   ----------------------------------------
	BYTE	W60
	BYTE		N03     Dn1   v080
	BYTE	W03
	BYTE		N03   
	BYTE	W03
	BYTE		        Dn1   v060
	BYTE	W03
	BYTE		        Dn1   v036
	BYTE	W03
	BYTE		        Dn1   v080
	BYTE	W03
	BYTE		N02   
	BYTE	W03
	BYTE		        Dn1   v060
	BYTE	W03
	BYTE		N07     Dn1   v036
	BYTE	W03
	BYTE		N64     An2   v127
	BYTE	W12
// 042   ----------------------------------------
	BYTE	W96
// 043   ----------------------------------------
	BYTE	W48
	BYTE		N03     Dn1   v060
	BYTE	W03
	BYTE		        Dn1   v080
	BYTE	W03
	BYTE		N02   
	BYTE	W03
	BYTE		N03     Dn1   v127
	BYTE	W03
	BYTE		N64     An2 
	BYTE	W01
	BYTE		N06     Dn1   v100
	BYTE	W11
	BYTE		N05   
	BYTE	W12
	BYTE		N05   
	BYTE	W11
	BYTE		N06   
	BYTE	W01
// 044   ----------------------------------------
	BYTE	W05
	BYTE		N06   
	BYTE	W06
	BYTE		N06   
	BYTE	W06
	BYTE		N05   
	BYTE	W06
	BYTE		N05   
	BYTE	W12
	BYTE		N06   
	BYTE	W12
	BYTE		N06   
	BYTE	W06
	BYTE		N05     Dn1   v080
	BYTE	W06
	BYTE		N05   
	BYTE	W05
	BYTE		N05   
	BYTE	W06
	BYTE		N06   
	BYTE	W12
	BYTE		N07     Dn1   v127
	BYTE	W12
	BYTE		N05     Dn1   v080
	BYTE	W02
// 045   ----------------------------------------
	BYTE	W04
	BYTE		N06   
	BYTE	W06
	BYTE		N06   
	BYTE	W06
	BYTE		N05   
	BYTE	W05
	BYTE		N07   
	BYTE	W12
	BYTE		N05     Dn1   v127
	BYTE	W12
	BYTE		        Dn1   v080
	BYTE	W06
	BYTE		N05   
	BYTE	W06
	BYTE		N06     Dn1   v100
	BYTE	W12
	BYTE		N05     Dn1   v080
	BYTE	W12
	BYTE		N05   
	BYTE	W11
	BYTE		N06   
	BYTE	W04
// 046   ----------------------------------------
	BYTE	W02
	BYTE		N06   
	BYTE	W06
	BYTE		N05     Dn1   v100
	BYTE	W06
	BYTE		N06     Dn1   v080
	BYTE	W06
	BYTE		N05   
	BYTE	W12
	BYTE		N07     Dn1   v100
	BYTE	W12
	BYTE		N06     Dn1   v080
	BYTE	W06
	BYTE		N05   
	BYTE	W06
	BYTE		N05   
	BYTE	W05
	BYTE		N06   
	BYTE	W06
	BYTE		N06   
	BYTE	W12
	BYTE		N07     Dn1   v127
	BYTE	W12
	BYTE		N05     Dn1   v080
	BYTE	W05
// 047   ----------------------------------------
	BYTE		N06   
	BYTE	W06
	BYTE		N06   
	BYTE	W06
	BYTE		N05   
	BYTE	W06
	BYTE		N06   
	BYTE	W12
	BYTE		N05     Dn1   v127
	BYTE	W12
	BYTE		        Dn1   v080
	BYTE	W06
	BYTE		N05   
	BYTE	W06
	BYTE		N02   
	BYTE	W02
	BYTE		N02   
	BYTE	W03
	BYTE		        Dn1   v060
	BYTE	W03
	BYTE		N03     Dn1   v036
	BYTE	W03
	BYTE		        Dn1   v080
	BYTE	W03
	BYTE		N02   
	BYTE	W03
	BYTE		N03     Dn1   v060
	BYTE	W03
	BYTE		        Dn1   v036
	BYTE	W04
	BYTE		N64     An2   v127
	BYTE	W18
// 048   ----------------------------------------
	BYTE	W96
// 049   ----------------------------------------
	BYTE	W54
	BYTE		N02     Dn1   v080
	BYTE	W02
	BYTE		N03   
	BYTE	W03
	BYTE		        Dn1   v060
	BYTE	W04
	BYTE		        Dn1   v036
	BYTE	W03
	BYTE		        Dn1   v080
	BYTE	W03
	BYTE		N02   
	BYTE	W03
	BYTE		N03     Dn1   v060
	BYTE	W03
	BYTE		N06     Dn1   v036
	BYTE	W03
	BYTE		N64     An2   v127
	BYTE	W18
// 050   ----------------------------------------
	BYTE	W96
// 051   ----------------------------------------
	BYTE	W54
	BYTE		N24   
	BYTE	W42
// 052   ----------------------------------------
	BYTE	W96
// 053   ----------------------------------------
	BYTE	W96
// 054   ----------------------------------------
	BYTE	W96
// 055   ----------------------------------------
	BYTE	W96
// 056   ----------------------------------------
	BYTE	W96
// 057   ----------------------------------------
	BYTE	W96
// 058   ----------------------------------------
	BYTE	W96
// 059   ----------------------------------------
	BYTE	W52
	BYTE	W01
	BYTE		N06     Dn1   v100
	BYTE		N64     An2   v127
	BYTE	W12
	BYTE		N07     Dn1   v100
	BYTE	W12
	BYTE		N04   
	BYTE	W12
	BYTE		N05   
	BYTE	W06
	BYTE		N06   
	BYTE	W01
// 060   ----------------------------------------
	BYTE	W05
	BYTE		N05   
	BYTE	W06
	BYTE		N05   
	BYTE	W06
	BYTE		N06   
	BYTE	W12
	BYTE		N07   
	BYTE	W12
	BYTE		N05   
	BYTE	W06
	BYTE		        Dn1   v080
	BYTE	W06
	BYTE		N06   
	BYTE	W06
	BYTE		N05   
	BYTE	W06
	BYTE		N06   
	BYTE	W12
	BYTE		N07     Dn1   v127
	BYTE	W12
	BYTE		N05     Dn1   v080
	BYTE	W06
	BYTE		N06   
	BYTE	W01
// 061   ----------------------------------------
	BYTE	W05
	BYTE		N05   
	BYTE	W06
	BYTE		N06   
	BYTE	W06
	BYTE		N06   
	BYTE	W12
	BYTE		        Dn1   v127
	BYTE	W12
	BYTE		N05     Dn1   v080
	BYTE	W06
	BYTE		N06   
	BYTE	W06
	BYTE		N05     Dn1   v100
	BYTE	W12
	BYTE		        Dn1   v080
	BYTE	W12
	BYTE		N06   
	BYTE	W12
	BYTE		N05   
	BYTE	W06
	BYTE		N06   
	BYTE	W01
// 062   ----------------------------------------
	BYTE	W05
	BYTE		N05     Dn1   v100
	BYTE	W06
	BYTE		N06     Dn1   v080
	BYTE	W06
	BYTE		N06   
	BYTE	W12
	BYTE		        Dn1   v100
	BYTE	W12
	BYTE		        Dn1   v080
	BYTE	W06
	BYTE		N06   
	BYTE	W06
	BYTE		N04   
	BYTE	W06
	BYTE		N06   
	BYTE	W06
	BYTE		N05   
	BYTE	W12
	BYTE		N06     Dn1   v127
	BYTE	W12
	BYTE		        Dn1   v080
	BYTE	W06
	BYTE		N06   
	BYTE	W01
// 063   ----------------------------------------
	BYTE	W05
	BYTE		N06   
	BYTE	W06
	BYTE		N06   
	BYTE	W06
	BYTE		N05   
	BYTE	W12
	BYTE		N06     Dn1   v127
	BYTE	W12
	BYTE		N05     Dn1   v080
	BYTE	W06
	BYTE		N05   
	BYTE	W06
	BYTE		N02   
	BYTE	W03
	BYTE		N02   
	BYTE	W03
	BYTE		        Dn1   v060
	BYTE	W03
	BYTE		N03     Dn1   v036
	BYTE	W03
	BYTE		        Dn1   v080
	BYTE	W03
	BYTE		N02   
	BYTE	W02
	BYTE		N03     Dn1   v060
	BYTE	W03
	BYTE		        Dn1   v036
	BYTE	W04
	BYTE		N60     An2   v127
	BYTE	W19
// 064   ----------------------------------------
	BYTE	W96
// 065   ----------------------------------------
	BYTE	W52
	BYTE	W01
	BYTE		N02     Dn1   v080
	BYTE	W03
	BYTE		N03   
	BYTE	W03
	BYTE		N02     Dn1   v060
	BYTE	W03
	BYTE		N03     Dn1   v036
	BYTE	W03
	BYTE		N02     Dn1   v080
	BYTE	W03
	BYTE		N02   
	BYTE	W03
	BYTE		N03     Dn1   v060
	BYTE	W03
	BYTE		N07     Dn1   v036
	BYTE	W03
	BYTE		N64     An2   v127
	BYTE	W19
// 066   ----------------------------------------
	BYTE	W96
// 067   ----------------------------------------
	BYTE	W52
	BYTE	W01
	BYTE		N02     Bn2 
	BYTE	W11
	BYTE		N03     Dn1   v060
	BYTE	W04
	BYTE		N04     Dn1   v080
	BYTE	W04
	BYTE		        Dn1   v127
	BYTE	W05
	BYTE		N06   
	BYTE	W19
// 068   ----------------------------------------
	BYTE	W04
	BYTE		N02     Bn2 
	BYTE	W12
	BYTE		N04     Dn1   v060
	BYTE	W04
	BYTE		        Dn1   v080
	BYTE	W04
	BYTE		        Dn1   v127
	BYTE	W04
	BYTE		N06   
	BYTE	W24
	BYTE		N02     Bn2 
	BYTE	W12
	BYTE		N04     Dn1   v060
	BYTE	W04
	BYTE		N03     Dn1   v080
	BYTE	W04
	BYTE		N04     Dn1   v127
	BYTE	W05
	BYTE		N05   
	BYTE	W19
// 069   ----------------------------------------
	BYTE	W04
	BYTE		N04     Bn2 
	BYTE	W12
	BYTE		        Dn1   v060
	BYTE	W04
	BYTE		        Dn1   v080
	BYTE	W04
	BYTE		        Dn1   v127
	BYTE	W04
	BYTE		N05   
	BYTE	W24
	BYTE	W01
	BYTE		N04     Bn2 
	BYTE	W11
	BYTE		        Dn1   v060
	BYTE	W04
	BYTE		        Dn1   v080
	BYTE	W04
	BYTE		        Dn1   v127
	BYTE	W04
	BYTE		N05   
	BYTE	W20
// 070   ----------------------------------------
	BYTE	W04
	BYTE		N04     Bn2 
	BYTE	W12
	BYTE		        Dn1   v060
	BYTE	W04
	BYTE		N03     Dn1   v080
	BYTE	W04
	BYTE		N04     Dn1   v127
	BYTE	W04
	BYTE		N05   
	BYTE	W24
	BYTE	W01
	BYTE		N04     Bn2 
	BYTE	W11
	BYTE		N03     Dn1   v060
	BYTE	W04
	BYTE		N04     Dn1   v080
	BYTE	W05
	BYTE		        Dn1   v127
	BYTE	W04
	BYTE		N05   
	BYTE	W19
// 071   ----------------------------------------
	BYTE	W04
	BYTE		N04     Bn2 
	BYTE	W12
	BYTE		        Dn1   v060
	BYTE	W04
	BYTE		        Dn1   v080
	BYTE	W04
	BYTE		        Dn1   v127
	BYTE	W05
	BYTE		N05   
	BYTE	W23
	BYTE		N06   
	BYTE		N03     Bn2 
	BYTE	W24
	BYTE		N07     Dn1 
	BYTE	W12
	BYTE		N03   
	BYTE	W03
	BYTE		N03   
	BYTE	W03
	BYTE		N03   
	BYTE	W02
// 072   ----------------------------------------
	BYTE	W01
	BYTE		N03   
	BYTE	W03
	BYTE		N06   
	BYTE	W01
	BYTE		N03     Bn2 
	BYTE	W11
	BYTE		N06     Dn1 
	BYTE	W12
	BYTE		N03   
	BYTE	W03
	BYTE		N03   
	BYTE	W03
	BYTE		N06   
	BYTE	W06
	BYTE		N05   
	BYTE	W06
	BYTE		N06   
	BYTE	W07
	BYTE		N05   
	BYTE		N02     Bn2 
	BYTE	W23
	BYTE		N07     Dn1 
	BYTE	W12
	BYTE		N03   
	BYTE	W03
	BYTE		N03   
	BYTE	W03
	BYTE		N03   
	BYTE	W02
// 073   ----------------------------------------
	BYTE	W01
	BYTE		N03   
	BYTE	W03
	BYTE		N05   
	BYTE	W01
	BYTE		N02     Bn2 
	BYTE	W11
	BYTE		N06     Dn1 
	BYTE	W12
	BYTE		N03   
	BYTE	W03
	BYTE		N02   
	BYTE	W03
	BYTE		N06   
	BYTE	W06
	BYTE		N06   
	BYTE	W07
	BYTE		N06   
	BYTE	W06
	BYTE		N02     Bn2 
	BYTE	W11
	BYTE		N04     Dn1   v060
	BYTE	W04
	BYTE		N03     Dn1   v080
	BYTE	W04
	BYTE		N04     Dn1   v127
	BYTE	W05
	BYTE		N05   
	BYTE	W19
// 074   ----------------------------------------
	BYTE	W04
	BYTE		N02     Bn2 
	BYTE	W12
	BYTE		N04     Dn1   v060
	BYTE	W05
	BYTE		N03     Dn1   v080
	BYTE	W03
	BYTE		N04     Dn1   v127
	BYTE	W04
	BYTE		N06   
	BYTE	W24
	BYTE	W01
	BYTE		N04     Bn2 
	BYTE	W11
	BYTE		        Dn1   v060
	BYTE	W05
	BYTE		N03     Dn1   v080
	BYTE	W03
	BYTE		N04     Dn1   v127
	BYTE	W04
	BYTE		N06   
	BYTE	W20
// 075   ----------------------------------------
	BYTE	W04
	BYTE		N04     Bn2 
	BYTE	W12
	BYTE		        Dn1   v060
	BYTE	W04
	BYTE		N03     Dn1   v080
	BYTE	W04
	BYTE		N04     Dn1   v127
	BYTE	W04
	BYTE		N06   
	BYTE	W24
	BYTE	W01
	BYTE		N04     Bn2 
	BYTE	W11
	BYTE		N03     Dn1   v060
	BYTE	W04
	BYTE		N04     Dn1   v080
	BYTE	W04
	BYTE		        Dn1   v127
	BYTE	W05
	BYTE		N05   
	BYTE	W19
// 076   ----------------------------------------
	BYTE	W04
	BYTE		N04     Bn2 
	BYTE	W12
	BYTE		        Dn1   v060
	BYTE	W04
	BYTE		N03     Dn1   v080
	BYTE	W04
	BYTE		N04     Dn1   v127
	BYTE	W05
	BYTE		N04   
	BYTE	W24
	BYTE		N03     Bn2 
	BYTE	W11
	BYTE		        Dn1   v060
	BYTE	W04
	BYTE		N04     Dn1   v080
	BYTE	W05
	BYTE		        Dn1   v127
	BYTE	W04
	BYTE		N05   
	BYTE	W19
// 077   ----------------------------------------
	BYTE	W04
	BYTE		N04     Bn2 
	BYTE	W12
	BYTE		        Dn1   v060
	BYTE	W04
	BYTE		        Dn1   v080
	BYTE	W05
	BYTE		        Dn1   v127
	BYTE	W04
	BYTE		N04   
	BYTE	W23
	BYTE		N06   
	BYTE	W01
	BYTE		N03     Bn2 
	BYTE	W23
	BYTE		N07     Dn1 
	BYTE	W12
	BYTE		N03   
	BYTE	W03
	BYTE		N02   
	BYTE	W03
	BYTE		N03   
	BYTE	W02
// 078   ----------------------------------------
	BYTE	W01
	BYTE		N03   
	BYTE	W03
	BYTE		N06   
	BYTE	W01
	BYTE		N03     Bn2 
	BYTE	W11
	BYTE		N06     Dn1 
	BYTE	W12
	BYTE		N02   
	BYTE	W03
	BYTE		N03   
	BYTE	W03
	BYTE		N06   
	BYTE	W06
	BYTE		N05   
	BYTE	W06
	BYTE		N06   
	BYTE	W06
	BYTE		N05   
	BYTE	W01
	BYTE		N02     Bn2 
	BYTE	W24
	BYTE		N06     Dn1 
	BYTE	W11
	BYTE		N03   
	BYTE	W03
	BYTE		N02   
	BYTE	W03
	BYTE		N02   
	BYTE	W02
// 079   ----------------------------------------
	BYTE	W01
	BYTE		N03   
	BYTE	W03
	BYTE		N05   
	BYTE		N03     Bn2 
	BYTE	W12
	BYTE		N06     Dn1 
	BYTE	W12
	BYTE		N02   
	BYTE	W03
	BYTE		N02   
	BYTE	W03
	BYTE		N05   
	BYTE	W06
	BYTE		N06   
	BYTE	W07
	BYTE		N06   
	BYTE	W06
	BYTE		N04     Cn1 
	BYTE		N04     Dn1 
	BYTE		N24     An2 
	BYTE	W11
	BYTE		N05     Dn1   v060
	BYTE	W13
	BYTE		N06     Cn1   v127
	BYTE		N06     Dn1 
	BYTE		N44     An2 
	BYTE	W12
	BYTE		N06     Dn1   v060
	BYTE	W07
// 080   ----------------------------------------
	BYTE	W04
	BYTE		N05     Cn1   v127
	BYTE		N05     Dn1   v060
	BYTE	W06
	BYTE		N06   
	BYTE	W06
	BYTE		N05     Dn1   v080
	BYTE	W12
	BYTE		N48     An2   v127
	BYTE	W01
	BYTE		N06     Cn1 
	BYTE	W11
	BYTE		        Dn1   v080
	BYTE	W12
	BYTE		N07     Dn1   v127
	BYTE	W01
	BYTE		        Cn1 
	BYTE	W11
	BYTE		N05     Dn1   v060
	BYTE	W12
	BYTE		        Dn1   v127
	BYTE	W01
	BYTE		        Cn1 
	BYTE		N48     An2 
	BYTE	W11
	BYTE		N06     Dn1   v060
	BYTE	W08
// 081   ----------------------------------------
	BYTE	W04
	BYTE		N06   
	BYTE	W01
	BYTE		        Cn1   v127
	BYTE	W05
	BYTE		N05     Dn1   v060
	BYTE	W06
	BYTE		        Dn1   v080
	BYTE	W13
	BYTE		        Cn1   v127
	BYTE		N23     An2 
	BYTE	W11
	BYTE		N06     Dn1   v080
	BYTE	W12
	BYTE		N24     An2   v127
	BYTE	W01
	BYTE		N06     Cn1 
	BYTE		N06     Dn1 
	BYTE	W12
	BYTE		N07     Dn1   v060
	BYTE	W11
	BYTE		N05     Dn1   v127
	BYTE	W01
	BYTE		        Cn1 
	BYTE		N44     An2 
	BYTE	W11
	BYTE		N06     Dn1   v060
	BYTE	W08
// 082   ----------------------------------------
	BYTE	W05
	BYTE		        Cn1   v127
	BYTE		N06     Dn1   v060
	BYTE	W06
	BYTE		N05   
	BYTE	W05
	BYTE		N07     Dn1   v080
	BYTE	W12
	BYTE		N48     An2   v127
	BYTE	W01
	BYTE		N05     Cn1 
	BYTE	W11
	BYTE		N06     Dn1   v080
	BYTE	W12
	BYTE		        Cn1   v127
	BYTE		N06     Dn1 
	BYTE	W12
	BYTE		N07     Dn1   v060
	BYTE	W12
	BYTE		N05     Dn1   v127
	BYTE	W01
	BYTE		        Cn1 
	BYTE		N44     An2 
	BYTE	W11
	BYTE		N05     Dn1   v060
	BYTE	W08
// 083   ----------------------------------------
	BYTE	W05
	BYTE		        Cn1   v127
	BYTE		N05     Dn1   v060
	BYTE	W05
	BYTE		N05   
	BYTE	W06
	BYTE		N07     Dn1   v080
	BYTE	W13
	BYTE		N06     Cn1   v127
	BYTE		N23     An2 
	BYTE	W11
	BYTE		N05     Dn1   v080
	BYTE	W12
	BYTE		N24     An2   v127
	BYTE	W01
	BYTE		N05     Cn1 
	BYTE		N05     Dn1 
	BYTE	W11
	BYTE		N06     Dn1   v060
	BYTE	W13
	BYTE		N07     Cn1   v127
	BYTE		N07     Dn1 
	BYTE		N44     An2 
	BYTE	W11
	BYTE		N05     Dn1   v060
	BYTE	W08
// 084   ----------------------------------------
	BYTE	W04
	BYTE		        Cn1   v127
	BYTE		N06     Dn1   v060
	BYTE	W06
	BYTE		N06   
	BYTE	W06
	BYTE		        Dn1   v080
	BYTE	W12
	BYTE		N07     Cn1   v127
	BYTE		N48     An2 
	BYTE	W12
	BYTE		N07     Dn1   v080
	BYTE	W12
	BYTE		N05     Dn1   v127
	BYTE	W01
	BYTE		        Cn1 
	BYTE	W11
	BYTE		N06     Dn1   v060
	BYTE	W12
	BYTE		        Dn1   v127
	BYTE	W01
	BYTE		        Cn1 
	BYTE		N44     An2 
	BYTE	W11
	BYTE		N07     Dn1   v060
	BYTE	W08
// 085   ----------------------------------------
	BYTE	W04
	BYTE		N05   
	BYTE	W01
	BYTE		        Cn1   v127
	BYTE	W05
	BYTE		N06     Dn1   v060
	BYTE	W06
	BYTE		        Dn1   v080
	BYTE	W12
	BYTE		N24     An2   v127
	BYTE	W01
	BYTE		N06     Cn1 
	BYTE	W11
	BYTE		N07     Dn1   v080
	BYTE	W13
	BYTE		N04     Cn1   v127
	BYTE		N04     Dn1 
	BYTE		N23     An2 
	BYTE	W11
	BYTE		N05     Dn1   v060
	BYTE	W12
	BYTE		N06     Cn1   v127
	BYTE		N06     Dn1 
	BYTE	W01
	BYTE		N48     An2 
	BYTE	W11
	BYTE		N07     Dn1   v060
	BYTE	W08
// 086   ----------------------------------------
	BYTE	W04
	BYTE		        Cn1   v127
	BYTE		N06     Dn1   v060
	BYTE	W06
	BYTE		N06   
	BYTE	W06
	BYTE		N05     Dn1   v080
	BYTE	W13
	BYTE		        Cn1   v127
	BYTE		N48     An2 
	BYTE	W11
	BYTE		N06     Dn1   v080
	BYTE	W12
	BYTE		N07     Cn1   v127
	BYTE		N07     Dn1 
	BYTE	W12
	BYTE		N05     Dn1   v060
	BYTE	W12
	BYTE		N06     Dn1   v127
	BYTE	W01
	BYTE		N05     Cn1 
	BYTE		N48     An2 
	BYTE	W11
	BYTE		N06     Dn1   v060
	BYTE	W08
// 087   ----------------------------------------
	BYTE	W04
	BYTE		N06   
	BYTE	W01
	BYTE		        Cn1   v127
	BYTE	W06
	BYTE		N05     Dn1   v060
	BYTE	W05
	BYTE		        Dn1   v080
	BYTE	W13
	BYTE		        Cn1   v127
	BYTE		N23     An2 
	BYTE	W11
	BYTE		N06     Dn1   v080
	BYTE	W12
	BYTE		N64     An2   v127
	BYTE	W44
// 088   ----------------------------------------
	BYTE	W52
	BYTE		N64   
	BYTE	W44
// 089   ----------------------------------------
	BYTE	W52
	BYTE		N60   
	BYTE	W44
// 090   ----------------------------------------
	BYTE	W52
	BYTE	W01
	BYTE		N04     Dn1   v060
	BYTE		N60     An2   v127
	BYTE	W05
	BYTE		N05     Dn1   v060
	BYTE	W06
	BYTE		        Dn1   v036
	BYTE	W06
	BYTE		N04   
	BYTE	W06
	BYTE		N06     Dn1   v080
	BYTE	W06
	BYTE		N05   
	BYTE	W06
	BYTE		N06     Dn1   v060
	BYTE	W06
	BYTE		N06   
	BYTE	W02
// 091   ----------------------------------------
	BYTE	W04
	BYTE		N05     Dn1   v127
	BYTE	W06
	BYTE		N06   
	BYTE	W06
	BYTE		        Dn1   v080
	BYTE	W07
	BYTE		N06   
	BYTE	W06
	BYTE		        Dn1   v127
	BYTE	W06
	BYTE		N05   
	BYTE	W05
	BYTE		N06   
	BYTE	W06
	BYTE		N06   
	BYTE	W48
	BYTE	W02
// 092   ----------------------------------------
	BYTE	W96
// 093   ----------------------------------------
	BYTE	W52
	BYTE		N05     Cn1 
	BYTE	W12
	BYTE		        Dn1 
	BYTE	W12
	BYTE		N03   
	BYTE	W03
	BYTE		        Dn1   v080
	BYTE	W03
	BYTE		N02     Dn1   v060
	BYTE	W03
	BYTE		N07   
	BYTE	W02
	BYTE		        Cn1   v127
	BYTE	W09
// 094   ----------------------------------------
	BYTE	W04
	BYTE		        Dn1 
	BYTE	W12
	BYTE		N03   
	BYTE	W03
	BYTE		N02     Dn1   v080
	BYTE	W02
	BYTE		N03     Dn1   v060
	BYTE	W03
	BYTE		N06     Dn1   v036
	BYTE	W04
	BYTE		        Cn1   v127
	BYTE	W12
	BYTE		        Dn1 
	BYTE	W12
	BYTE		N03   
	BYTE	W03
	BYTE		N02     Dn1   v080
	BYTE	W03
	BYTE		N03     Dn1   v060
	BYTE	W03
	BYTE		N05   
	BYTE	W03
	BYTE		        Cn1   v127
	BYTE	W12
	BYTE		        Dn1 
	BYTE	W12
	BYTE		N03   
	BYTE	W03
	BYTE		N02     Dn1   v080
	BYTE	W02
	BYTE		N03     Dn1   v060
	BYTE	W03
// 095   ----------------------------------------
	BYTE	W01
	BYTE		N07     Dn1   v036
	BYTE	W03
	BYTE		        Cn1   v127
	BYTE	W12
	BYTE		N04     Dn1 
	BYTE	W12
	BYTE		N03   
	BYTE	W03
	BYTE		N02     Dn1   v080
	BYTE	W02
	BYTE		N03     Dn1   v060
	BYTE	W04
	BYTE		N06   
	BYTE	W03
	BYTE		        Cn1   v127
	BYTE	W12
	BYTE		        Dn1 
	BYTE	W06
	BYTE		N05   
	BYTE	W06
	BYTE		N07   
	BYTE	W08
	BYTE		N02   
	BYTE		N60     An2 
	BYTE		N03     Bn2 
	BYTE	W02
	BYTE		N02     Dn1   v080
	BYTE	W03
	BYTE		        Dn1   v060
	BYTE	W03
	BYTE		N03     Dn1   v036
	BYTE	W03
	BYTE		N06     Dn1   v127
	BYTE	W06
	BYTE		N05   
	BYTE	W06
	BYTE		N05   
	BYTE		N04     Bn2 
	BYTE	W01
// 096   ----------------------------------------
	BYTE	W05
	BYTE		N06     Dn1 
	BYTE	W06
	BYTE		N03   
	BYTE	W03
	BYTE		        Dn1   v080
	BYTE	W03
	BYTE		        Dn1   v060
	BYTE	W03
	BYTE		        Dn1   v036
	BYTE	W03
	BYTE		N05     Dn1   v127
	BYTE		N03     Bn2 
	BYTE	W06
	BYTE		N06     Dn1 
	BYTE	W06
	BYTE		N06   
	BYTE	W06
	BYTE		N05   
	BYTE	W06
	BYTE		N03   
	BYTE		N04     Bn2 
	BYTE	W03
	BYTE		N03     Dn1   v080
	BYTE	W03
	BYTE		        Dn1   v060
	BYTE	W03
	BYTE		        Dn1   v036
	BYTE	W03
	BYTE		N05     Dn1   v127
	BYTE	W06
	BYTE		N06   
	BYTE	W06
	BYTE		N02   
	BYTE		N60     An2 
	BYTE		N03     Bn2 
	BYTE	W03
	BYTE		        Dn1   v080
	BYTE	W03
	BYTE		        Dn1   v060
	BYTE	W03
	BYTE		        Dn1   v036
	BYTE	W04
	BYTE		N05     Dn1   v127
	BYTE	W05
	BYTE		N05   
	BYTE	W06
	BYTE		N05   
	BYTE		N03     Bn2 
	BYTE	W01
// 097   ----------------------------------------
	BYTE	W05
	BYTE		N05     Dn1 
	BYTE	W06
	BYTE		N02   
	BYTE	W03
	BYTE		        Dn1   v080
	BYTE	W03
	BYTE		N03     Dn1   v060
	BYTE	W03
	BYTE		        Dn1   v036
	BYTE	W03
	BYTE		N05     Dn1   v127
	BYTE		N03     Bn2 
	BYTE	W06
	BYTE		N06     Dn1 
	BYTE	W06
	BYTE		N06   
	BYTE	W06
	BYTE		N06   
	BYTE	W06
	BYTE		N02   
	BYTE		N04     Bn2 
	BYTE	W03
	BYTE		N03     Dn1   v080
	BYTE	W03
	BYTE		        Dn1   v060
	BYTE	W03
	BYTE		        Dn1   v036
	BYTE	W03
	BYTE		N06     Dn1   v127
	BYTE	W06
	BYTE		N06   
	BYTE	W06
	BYTE		N60     An2 
	BYTE	W24
	BYTE	W01
// 098   ----------------------------------------
	BYTE	W68
	BYTE	W03
	BYTE		N03     Dn1   v020
	BYTE		N64     An2   v127
	BYTE	W03
	BYTE		N02     Dn1   v020
	BYTE	W03
	BYTE		N03   
	BYTE	W03
	BYTE		N03   
	BYTE	W03
	BYTE		N03   
	BYTE	W03
	BYTE		N02     Dn1   v032
	BYTE	W03
	BYTE		N03   
	BYTE	W03
	BYTE		N03   
	BYTE	W03
	BYTE		N03   
	BYTE	W01
// 099   ----------------------------------------
	BYTE	W02
	BYTE		        Dn1   v040
	BYTE	W03
	BYTE		N03   
	BYTE	W03
	BYTE		N03   
	BYTE	W03
	BYTE		N03   
	BYTE	W03
	BYTE		N02   
	BYTE	W03
	BYTE		        Dn1   v048
	BYTE	W03
	BYTE		N03   
	BYTE	W03
	BYTE		N02   
	BYTE	W03
	BYTE		N03     Dn1   v052
	BYTE	W03
	BYTE		N03   
	BYTE	W03
	BYTE		N03   
	BYTE	W03
	BYTE		N02   
	BYTE	W03
	BYTE		N03   
	BYTE	W03
	BYTE		        Dn1   v056
	BYTE	W03
	BYTE		N03   
	BYTE	W03
	BYTE		N02   
	BYTE	W03
	BYTE		        Dn1   v060
	BYTE	W03
	BYTE		N02   
	BYTE	W03
	BYTE		N02   
	BYTE	W03
	BYTE		N03   
	BYTE	W03
	BYTE		N03   
	BYTE	W03
	BYTE		N03   
	BYTE	W03
	BYTE		N03   
	BYTE	W03
	BYTE		        Dn1   v064
	BYTE	W03
	BYTE		N03   
	BYTE	W03
	BYTE		N03   
	BYTE	W03
	BYTE		        Dn1   v068
	BYTE	W03
	BYTE		N02   
	BYTE	W03
	BYTE		        Dn1   v072
	BYTE	W03
	BYTE		N02   
	BYTE	W03
	BYTE		N03     Dn1   v076
	BYTE	W03
	BYTE		N02   
	BYTE	W01
// 100   ----------------------------------------
	BYTE	W02
	BYTE		N03     Dn1   v080
	BYTE	W03
	BYTE		N03   
	BYTE	W03
	BYTE		N03   
	BYTE	W03
	BYTE		N03   
	BYTE	W03
	BYTE		N03   
	BYTE	W03
	BYTE		N03   
	BYTE	W03
	BYTE		N03   
	BYTE	W03
	BYTE		N03   
	BYTE	W03
	BYTE		N02   
	BYTE	W03
	BYTE		N03   
	BYTE	W03
	BYTE		        Dn1   v076
	BYTE	W03
	BYTE		N03   
	BYTE	W03
	BYTE		N03   
	BYTE	W03
	BYTE		        Dn1   v080
	BYTE	W03
	BYTE		N02   
	BYTE	W03
	BYTE		N03   
	BYTE	W03
	BYTE		N03   
	BYTE	W03
	BYTE		N02     Dn1   v084
	BYTE	W03
	BYTE		N03   
	BYTE	W03
	BYTE		        Dn1   v088
	BYTE	W03
	BYTE		N02   
	BYTE	W03
	BYTE		N02   
	BYTE	W03
	BYTE		N03     Dn1   v092
	BYTE	W03
	BYTE		N03   
	BYTE		N64     An2   v127
	BYTE	W03
	BYTE		N03     Dn1   v092
	BYTE	W03
	BYTE		        Dn1   v096
	BYTE	W03
	BYTE		N03   
	BYTE	W03
	BYTE		N03   
	BYTE	W03
	BYTE		N02     Dn1   v100
	BYTE	W03
	BYTE		N02   
	BYTE	W03
	BYTE		N02   
	BYTE	W03
	BYTE		N02   
	BYTE	W01
// 101   ----------------------------------------
	BYTE	W02
	BYTE		        Dn1   v104
	BYTE	W03
	BYTE		N03   
	BYTE	W03
	BYTE		        Dn1   v108
	BYTE	W03
	BYTE		N03   
	BYTE	W03
	BYTE		        Dn1   v112
	BYTE	W03
	BYTE		N03   
	BYTE	W03
	BYTE		N03   
	BYTE	W03
	BYTE		        Dn1   v116
	BYTE	W03
	BYTE		N02   
	BYTE	W03
	BYTE		N03   
	BYTE	W03
	BYTE		        Dn1   v120
	BYTE	W03
	BYTE		N02   
	BYTE	W03
	BYTE		N03   
	BYTE	W03
	BYTE		        Dn1   v127
	BYTE	W03
	BYTE		N03   
	BYTE	W03
	BYTE		N07   
	BYTE	W48
	BYTE	W01
// 102   ----------------------------------------
	BYTE	W96
// 103   ----------------------------------------
	BYTE	W96
// 104   ----------------------------------------
	BYTE	W96
// 105   ----------------------------------------
	BYTE	W96
// 106   ----------------------------------------
	BYTE	W96
// 107   ----------------------------------------
	BYTE	W96
// 108   ----------------------------------------
	BYTE	W96
// 109   ----------------------------------------
	BYTE	W96
// 110   ----------------------------------------
	BYTE	W96
// 111   ----------------------------------------
	BYTE	W96
// 112   ----------------------------------------
	BYTE	W96
// 113   ----------------------------------------
	BYTE	W68
	BYTE	W03
	BYTE		N05   
	BYTE		N03     Bn2 
	BYTE	W12
	BYTE		N06     Dn1 
	BYTE	W06
	BYTE		N05   
	BYTE	W06
	BYTE		N05   
	BYTE		N04     Bn2 
	BYTE	W01
// 114   ----------------------------------------
	BYTE	W05
	BYTE		N05     Dn1 
	BYTE	W06
	BYTE		N03   
	BYTE	W03
	BYTE		        Dn1   v100
	BYTE	W03
	BYTE		N02     Dn1   v080
	BYTE	W03
	BYTE		N03     Dn1   v060
	BYTE	W03
	BYTE		N05     Dn1   v127
	BYTE		N03     Bn2 
	BYTE	W06
	BYTE		N05     Dn1 
	BYTE	W06
	BYTE		N03   
	BYTE	W03
	BYTE		        Dn1   v100
	BYTE	W03
	BYTE		        Dn1   v080
	BYTE	W03
	BYTE		        Dn1   v060
	BYTE	W03
	BYTE		N06     Dn1   v127
	BYTE		N04     Bn2 
	BYTE	W12
	BYTE		N05     Dn1 
	BYTE	W06
	BYTE		N06   
	BYTE	W06
	BYTE		N05   
	BYTE		N02     Bn2 
	BYTE	W12
	BYTE		N05     Dn1 
	BYTE	W06
	BYTE		N06   
	BYTE	W06
	BYTE		N06   
	BYTE		N03     Bn2 
	BYTE	W01
// 115   ----------------------------------------
	BYTE	W05
	BYTE		N05     Dn1 
	BYTE	W06
	BYTE		N03   
	BYTE	W03
	BYTE		N02     Dn1   v100
	BYTE	W03
	BYTE		        Dn1   v080
	BYTE	W03
	BYTE		N03     Dn1   v060
	BYTE	W03
	BYTE		N05     Dn1   v127
	BYTE		N05     Bn2 
	BYTE	W06
	BYTE		N06     Dn1 
	BYTE	W06
	BYTE		N03   
	BYTE	W03
	BYTE		        Dn1   v100
	BYTE	W03
	BYTE		        Dn1   v080
	BYTE	W03
	BYTE		        Dn1   v060
	BYTE	W03
	BYTE		N06     Dn1   v127
	BYTE		N03     Bn2 
	BYTE	W12
	BYTE		N05     Dn1 
	BYTE	W06
	BYTE		N05   
	BYTE	W06
	BYTE		N07   
	BYTE		N04     Bn2 
	BYTE	W12
	BYTE		N05     Dn1 
	BYTE	W06
	BYTE		N06   
	BYTE	W06
	BYTE		N03     Bn2 
	BYTE	W01
// 116   ----------------------------------------
	BYTE		N05     Dn1 
	BYTE	W05
	BYTE		N06   
	BYTE	W06
	BYTE		N03   
	BYTE	W03
	BYTE		        Dn1   v100
	BYTE	W03
	BYTE		N02     Dn1   v080
	BYTE	W03
	BYTE		N03     Dn1   v060
	BYTE	W03
	BYTE		N05     Dn1   v127
	BYTE		N04     Bn2 
	BYTE	W06
	BYTE		N05     Dn1 
	BYTE	W06
	BYTE		N02   
	BYTE	W03
	BYTE		N03     Dn1   v100
	BYTE	W03
	BYTE		        Dn1   v080
	BYTE	W03
	BYTE		        Dn1   v060
	BYTE	W03
	BYTE		N05     Dn1   v127
	BYTE		N03     Bn2 
	BYTE	W12
	BYTE		N05     Dn1 
	BYTE	W06
	BYTE		N05   
	BYTE	W06
	BYTE		N06   
	BYTE		N04     Bn2 
	BYTE	W12
	BYTE		N06     Dn1 
	BYTE	W06
	BYTE		N06   
	BYTE	W06
	BYTE		N05   
	BYTE		N02     Bn2 
	BYTE	W01
// 117   ----------------------------------------
	BYTE	W05
	BYTE		N06     Dn1 
	BYTE	W06
	BYTE		N03   
	BYTE	W03
	BYTE		        Dn1   v100
	BYTE	W03
	BYTE		        Dn1   v080
	BYTE	W03
	BYTE		        Dn1   v060
	BYTE	W03
	BYTE		N05     Dn1   v127
	BYTE		N04     Bn2 
	BYTE	W06
	BYTE		N05     Dn1 
	BYTE	W06
	BYTE		N03   
	BYTE	W03
	BYTE		N02     Dn1   v100
	BYTE	W03
	BYTE		N03     Dn1   v080
	BYTE	W03
	BYTE		        Dn1   v060
	BYTE	W03
	BYTE		N05     Dn1   v127
	BYTE		N02     Bn2 
	BYTE	W12
	BYTE		N05     Dn1 
	BYTE	W06
	BYTE		N06   
	BYTE	W06
	BYTE		N03     Dn1   v080
	BYTE	W04
	BYTE		N02   
	BYTE	W02
	BYTE		        Dn1   v060
	BYTE	W03
	BYTE		N03     Dn1   v036
	BYTE	W03
	BYTE		        Dn1   v080
	BYTE	W03
	BYTE		N02   
	BYTE	W03
	BYTE		N03     Dn1   v060
	BYTE	W03
	BYTE		        Dn1   v036
	BYTE	W04
// 118   ----------------------------------------
	BYTE		N60     An2   v127
	BYTE	W96
// 119   ----------------------------------------
	BYTE	W72
	BYTE		N02     Dn1   v080
	BYTE	W03
	BYTE		N03   
	BYTE	W03
	BYTE		        Dn1   v060
	BYTE	W03
	BYTE		        Dn1   v036
	BYTE	W03
	BYTE		        Dn1   v080
	BYTE	W03
	BYTE		N03   
	BYTE	W03
	BYTE		N02     Dn1   v060
	BYTE	W03
	BYTE		N05     Dn1   v036
	BYTE	W03
// 120   ----------------------------------------
	BYTE		N64     An2   v127
	BYTE	W56
	BYTE	W03
	BYTE		VOL     100*feb20200423182207_mvl/mxv
	BYTE	W05
	BYTE		        99*feb20200423182207_mvl/mxv
	BYTE	W04
	BYTE		        98*feb20200423182207_mvl/mxv
	BYTE	W04
	BYTE		        97*feb20200423182207_mvl/mxv
	BYTE	W04
	BYTE		        96*feb20200423182207_mvl/mxv
	BYTE	W04
	BYTE		        95*feb20200423182207_mvl/mxv
	BYTE	W05
	BYTE		        94*feb20200423182207_mvl/mxv
	BYTE	W04
	BYTE		        93*feb20200423182207_mvl/mxv
	BYTE	W04
	BYTE		        92*feb20200423182207_mvl/mxv
	BYTE	W03
// 121   ----------------------------------------
	BYTE	W01
	BYTE		        91*feb20200423182207_mvl/mxv
	BYTE	W04
	BYTE		        90*feb20200423182207_mvl/mxv
	BYTE	W05
	BYTE		        89*feb20200423182207_mvl/mxv
	BYTE	W04
	BYTE		        88*feb20200423182207_mvl/mxv
	BYTE	W04
	BYTE		        87*feb20200423182207_mvl/mxv
	BYTE	W04
	BYTE		        86*feb20200423182207_mvl/mxv
	BYTE	W04
	BYTE		        85*feb20200423182207_mvl/mxv
	BYTE	W05
	BYTE		        84*feb20200423182207_mvl/mxv
	BYTE	W04
	BYTE		        83*feb20200423182207_mvl/mxv
	BYTE	W04
	BYTE		        82*feb20200423182207_mvl/mxv
	BYTE	W04
	BYTE		        81*feb20200423182207_mvl/mxv
	BYTE	W04
	BYTE		        80*feb20200423182207_mvl/mxv
	BYTE	W05
	BYTE		        79*feb20200423182207_mvl/mxv
	BYTE	W04
	BYTE		        78*feb20200423182207_mvl/mxv
	BYTE	W04
	BYTE		        77*feb20200423182207_mvl/mxv
	BYTE		N03     Dn1   v060
	BYTE	W03
	BYTE		        Dn1   v080
	BYTE	W01
	BYTE		VOL     76*feb20200423182207_mvl/mxv
	BYTE	W02
	BYTE		N02   
	BYTE	W02
	BYTE		VOL     75*feb20200423182207_mvl/mxv
	BYTE	W01
	BYTE		N03     Dn1   v127
	BYTE	W03
	BYTE		N04     Dn1   v100
	BYTE		N60     An2   v127
	BYTE	W01
	BYTE		VOL     74*feb20200423182207_mvl/mxv
	BYTE	W04
	BYTE		        73*feb20200423182207_mvl/mxv
	BYTE	W04
	BYTE		        72*feb20200423182207_mvl/mxv
	BYTE	W03
	BYTE		N06     Dn1   v100
	BYTE	W01
	BYTE		VOL     71*feb20200423182207_mvl/mxv
	BYTE	W04
	BYTE		        70*feb20200423182207_mvl/mxv
	BYTE	W05
	BYTE		        69*feb20200423182207_mvl/mxv
	BYTE	W02
// 122   ----------------------------------------
	BYTE		N06   
	BYTE	W02
	BYTE		VOL     68*feb20200423182207_mvl/mxv
	BYTE	W04
	BYTE		        67*feb20200423182207_mvl/mxv
	BYTE	W04
	BYTE		        66*feb20200423182207_mvl/mxv
	BYTE	W02
	BYTE		N06   
	BYTE	W02
	BYTE		VOL     65*feb20200423182207_mvl/mxv
	BYTE	W04
	BYTE		N06   
	BYTE	W01
	BYTE		VOL     64*feb20200423182207_mvl/mxv
	BYTE	W04
	BYTE		        63*feb20200423182207_mvl/mxv
	BYTE	W01
	BYTE		N04   
	BYTE	W03
	BYTE		VOL     62*feb20200423182207_mvl/mxv
	BYTE	W03
	BYTE		N06   
	BYTE	W01
	BYTE		VOL     61*feb20200423182207_mvl/mxv
	BYTE	W04
	BYTE		        60*feb20200423182207_mvl/mxv
	BYTE	W01
	BYTE		N05   
	BYTE	W04
	BYTE		VOL     59*feb20200423182207_mvl/mxv
	BYTE	W04
	BYTE		        58*feb20200423182207_mvl/mxv
	BYTE	W04
	BYTE		        57*feb20200423182207_mvl/mxv
	BYTE		N06   
	BYTE	W04
	BYTE		VOL     56*feb20200423182207_mvl/mxv
	BYTE	W04
	BYTE		        55*feb20200423182207_mvl/mxv
	BYTE	W04
	BYTE		N06   
	BYTE	W01
	BYTE		VOL     54*feb20200423182207_mvl/mxv
	BYTE	W04
	BYTE		        53*feb20200423182207_mvl/mxv
	BYTE	W01
	BYTE		N06     Dn1   v080
	BYTE	W03
	BYTE		VOL     52*feb20200423182207_mvl/mxv
	BYTE	W03
	BYTE		N05   
	BYTE	W01
	BYTE		VOL     51*feb20200423182207_mvl/mxv
	BYTE	W04
	BYTE		        50*feb20200423182207_mvl/mxv
	BYTE	W01
	BYTE		N06   
	BYTE	W04
	BYTE		VOL     49*feb20200423182207_mvl/mxv
	BYTE	W02
	BYTE		N05   
	BYTE	W02
	BYTE		VOL     48*feb20200423182207_mvl/mxv
	BYTE	W04
	BYTE		        47*feb20200423182207_mvl/mxv
	BYTE	W04
	BYTE		        46*feb20200423182207_mvl/mxv
	BYTE	W02
// 123   ----------------------------------------
	BYTE		N06     Dn1   v127
	BYTE	W02
	BYTE		VOL     45*feb20200423182207_mvl/mxv
	BYTE	W05
	BYTE		        44*feb20200423182207_mvl/mxv
	BYTE	W04
	BYTE		        43*feb20200423182207_mvl/mxv
	BYTE	W01
	BYTE		N06     Dn1   v080
	BYTE	W03
	BYTE		VOL     42*feb20200423182207_mvl/mxv
	BYTE	W03
	BYTE		N05   
	BYTE	W01
	BYTE		VOL     41*feb20200423182207_mvl/mxv
	BYTE	W04
	BYTE		        40*feb20200423182207_mvl/mxv
	BYTE	W01
	BYTE		N06   
	BYTE	W04
	BYTE		VOL     39*feb20200423182207_mvl/mxv
	BYTE	W02
	BYTE		N06   
	BYTE	W02
	BYTE		VOL     38*feb20200423182207_mvl/mxv
	BYTE	W04
	BYTE		        37*feb20200423182207_mvl/mxv
	BYTE		N04   
	BYTE	W04
	BYTE		VOL     36*feb20200423182207_mvl/mxv
	BYTE	W04
	BYTE		        35*feb20200423182207_mvl/mxv
	BYTE	W04
	BYTE		N05     Dn1   v127
	BYTE	W01
	BYTE		VOL     34*feb20200423182207_mvl/mxv
	BYTE	W04
	BYTE		        33*feb20200423182207_mvl/mxv
	BYTE	W04
	BYTE		        32*feb20200423182207_mvl/mxv
	BYTE	W03
	BYTE		N05     Dn1   v080
	BYTE	W01
	BYTE		VOL     31*feb20200423182207_mvl/mxv
	BYTE	W04
	BYTE		        30*feb20200423182207_mvl/mxv
	BYTE	W01
	BYTE		N05   
	BYTE	W04
	BYTE		VOL     29*feb20200423182207_mvl/mxv
	BYTE	W02
	BYTE		N07     Dn1   v100
	BYTE	W02
	BYTE		VOL     28*feb20200423182207_mvl/mxv
	BYTE	W04
	BYTE		        27*feb20200423182207_mvl/mxv
	BYTE	W04
	BYTE		        26*feb20200423182207_mvl/mxv
	BYTE	W02
	BYTE		N05     Dn1   v080
	BYTE	W02
	BYTE		VOL     25*feb20200423182207_mvl/mxv
	BYTE	W05
	BYTE		        24*feb20200423182207_mvl/mxv
	BYTE	W04
	BYTE		        23*feb20200423182207_mvl/mxv
	BYTE	W01
// 124   ----------------------------------------
	BYTE		N05   
	BYTE	W03
	BYTE		VOL     22*feb20200423182207_mvl/mxv
	BYTE	W04
	BYTE		        21*feb20200423182207_mvl/mxv
	BYTE	W04
	BYTE		        20*feb20200423182207_mvl/mxv
	BYTE	W01
	BYTE		N05   
	BYTE	W04
	BYTE		VOL     19*feb20200423182207_mvl/mxv
	BYTE	W02
	BYTE		N05   
	BYTE	W02
	BYTE		VOL     18*feb20200423182207_mvl/mxv
	BYTE	W04
	BYTE		        17*feb20200423182207_mvl/mxv
	BYTE		N06     Dn1   v100
	BYTE	W04
	BYTE		VOL     16*feb20200423182207_mvl/mxv
	BYTE	W02
	BYTE		N06     Dn1   v080
	BYTE	W02
	BYTE		VOL     15*feb20200423182207_mvl/mxv
	BYTE	W04
	BYTE		N07   
	BYTE	W01
	BYTE		VOL     14*feb20200423182207_mvl/mxv
	BYTE	W04
	BYTE		        13*feb20200423182207_mvl/mxv
	BYTE	W04
	BYTE		        12*feb20200423182207_mvl/mxv
	BYTE	W03
	BYTE		N05     Dn1   v100
	BYTE	W01
	BYTE		VOL     11*feb20200423182207_mvl/mxv
	BYTE	W04
	BYTE		        10*feb20200423182207_mvl/mxv
	BYTE	W05
	BYTE		        9*feb20200423182207_mvl/mxv
	BYTE	W02
	BYTE		N06     Dn1   v080
	BYTE	W02
	BYTE		VOL     8*feb20200423182207_mvl/mxv
	BYTE	W04
	BYTE		        7*feb20200423182207_mvl/mxv
	BYTE		N06   
	BYTE	W04
	BYTE		VOL     6*feb20200423182207_mvl/mxv
	BYTE	W02
	BYTE		N06   
	BYTE	W02
	BYTE		VOL     5*feb20200423182207_mvl/mxv
	BYTE	W04
	BYTE		N05   
	BYTE	W01
	BYTE		VOL     4*feb20200423182207_mvl/mxv
	BYTE	W04
	BYTE		        3*feb20200423182207_mvl/mxv
	BYTE	W01
	BYTE		N07   
	BYTE	W03
	BYTE		VOL     2*feb20200423182207_mvl/mxv
	BYTE	W04
	BYTE		        1*feb20200423182207_mvl/mxv
	BYTE	W05
// 125   ----------------------------------------
	BYTE		        0*feb20200423182207_mvl/mxv
	BYTE		N05     Dn1   v127
	BYTE	W12
	BYTE		        Dn1   v080
	BYTE	W06
	BYTE		N05   
	BYTE	W06
	BYTE		N05   
	BYTE	W06
	BYTE		N05   
	BYTE	W06
	BYTE		N07   
	BYTE	W12
	BYTE		        Dn1   v127
	BYTE	W12
	BYTE		N05     Dn1   v080
	BYTE	W06
	BYTE		N06   
	BYTE	W30
// 126   ----------------------------------------
	BYTE	W96
// 127   ----------------------------------------
	BYTE	FINE

//******************************************************//
	ALIGN 4

feb20200423182207:
	BYTE	9	// NumTrks
	BYTE	0	// NumBlks
	BYTE	feb20200423182207_pri	// Priority
	BYTE	feb20200423182207_rev	// Reverb.

	POIN2	feb20200423182207_grp

	POIN2	feb20200423182207_1
	POIN2	feb20200423182207_2
	POIN2	feb20200423182207_3
	POIN2	feb20200423182207_4
	POIN2	feb20200423182207_5
	POIN2	feb20200423182207_6
	POIN2	feb20200423182207_7
	POIN2	feb20200423182207_8
	POIN2	feb20200423182207_9

	
